<svg width="291" height="74" viewBox="0 0 291 74" fill="none" xmlns="http://www.w3.org/2000/svg">
<g clip-path="url(#clip0_885_1931)">
<path d="M78.857 0.811523H0V12.8679H74.9204V12.8788C75.433 12.8769 75.9408 12.9759 76.4148 13.1701C76.8887 13.3644 77.3193 13.6499 77.6819 14.0104C78.0444 14.3709 78.3317 14.7992 78.5272 15.2706C78.7226 15.742 78.8224 16.2472 78.8209 16.7571V57.2444L78.8099 57.2781C78.803 58.3042 78.3882 59.2858 77.6561 60.0086C76.9241 60.7314 75.9343 61.1367 74.9029 61.1358H16.0263C15.512 61.1364 15.0026 61.0361 14.5272 60.8408C14.0519 60.6455 13.6198 60.3589 13.2558 59.9974C12.8917 59.636 12.6029 59.2067 12.4056 58.7341C12.2083 58.2616 12.1066 57.755 12.1062 57.2433V40.8884C12.1088 39.8555 12.5229 38.8658 13.2577 38.1361C13.9925 37.4065 14.9881 36.9964 16.0263 36.9958H66.6797V24.9558H12.0832C5.40921 24.9547 0 30.3276 0 36.961V61.1695C0 67.8084 5.4103 73.1878 12.0832 73.1878H78.8559C85.5353 73.1878 90.938 67.8084 90.938 61.1684V12.8352C90.938 6.19639 85.5353 0.811523 78.857 0.811523Z" fill="#159BD7"/>
<path d="M123.759 38.3805H131.96L127.896 26.2708H127.784L123.759 38.3805ZM135.704 17.9034L145.151 46.0186C146.273 49.4474 147.066 50.242 149.035 50.242H150.956V55.1915H130.329V50.241H132.021C133.717 50.241 135.127 50.0167 135.127 49.405C135.127 48.8281 135.07 48.2098 134.843 47.364L133.664 43.3245H122.133L121.443 45.5756C120.825 47.5382 120.597 48.372 120.597 49.1611C120.597 50.069 122.581 50.241 124.12 50.241H125.744V55.1904H109.125V50.241H111.05C113.028 50.241 113.807 49.4463 114.953 46.0175L124.392 17.9023L135.704 17.9034ZM163.627 42.0205C163.627 47.7679 164.924 51.1912 168.086 51.1912C171.269 51.1912 172.554 47.7668 172.554 42.0205C172.554 36.2895 171.269 32.8618 168.086 32.8618C164.924 32.8618 163.627 36.2895 163.627 42.0205ZM154.235 24.8242C154.235 23.235 153.841 22.4012 152.202 22.4012H149.603V17.9034H163.627V31.8995C165.715 29.5375 168.377 28.0201 170.909 28.0201C179.391 28.0201 182.552 34.6121 182.552 42.0205C182.552 49.4485 179.391 56.0253 170.909 56.0253C167.348 56.0253 164.18 54.7898 162.208 51.6952L160.576 55.1959H154.235V24.8242ZM195.339 42.0205C195.339 47.7679 196.65 51.1912 199.808 51.1912C202.978 51.1912 204.271 47.7668 204.271 42.0205C204.271 36.2895 202.977 32.8618 199.808 32.8618C196.65 32.8618 195.339 36.2895 195.339 42.0205ZM185.949 24.8242C185.949 23.235 185.551 22.4012 183.928 22.4012H181.322V17.9034H195.338V31.8995C197.436 29.5375 200.088 28.0201 202.632 28.0201C211.114 28.0201 214.283 34.6121 214.283 42.0205C214.283 49.4485 211.114 56.0253 202.631 56.0253C199.072 56.0253 195.902 54.7898 193.927 51.6952L192.283 55.1959H185.949V24.8242ZM227.001 42.0227C227.001 48.6572 228.186 51.5276 231.579 51.5276C234.967 51.5276 236.151 48.6572 236.151 42.0227C236.151 35.3882 234.967 32.5211 231.579 32.5211C228.186 32.5211 227.001 35.3882 227.001 42.0227ZM246.164 42.0227C246.164 51.0247 239.997 56.0253 231.579 56.0253C223.143 56.0253 216.991 51.0258 216.991 42.0227C216.991 33.025 223.143 28.0201 231.579 28.0201C239.997 28.0201 246.164 33.025 246.164 42.0227ZM286.469 42.4777V46.8644C286.469 49.4485 285.909 50.9779 283.759 50.9779C282.462 50.9779 281.844 50.0145 281.844 48.8292V33.3657H288.784V28.8626H281.844V18.4161H276.237C275.779 23.075 274.315 28.8626 268.663 28.8626H259.847V18.4161H254.256C253.798 23.075 252.326 28.8626 246.68 28.8626V33.3636H250.466V47.4783C250.466 53.2169 253.687 56.0231 259.499 56.0231C266.298 56.0231 268.995 52.9949 268.995 47.4783V42.4766H264.488V46.8633C264.488 49.4474 263.917 50.9757 261.774 50.9757C260.464 50.9757 259.847 50.0124 259.847 48.827V33.3647H272.468V47.4794C272.468 53.218 275.674 56.0242 281.499 56.0242C288.28 56.0242 291 52.996 291 47.4794V42.4777H286.47H286.469Z" fill="black"/>
</g>
<defs>
<clipPath id="clip0_885_1931">
<rect width="291" height="74" fill="white"/>
</clipPath>
</defs>
</svg>
