<svg width="1582" height="969" viewBox="0 0 1582 969" fill="none" xmlns="http://www.w3.org/2000/svg">
<path d="M378.497 327.821C380.883 326.896 383.317 326.134 385.816 325.485C378.871 305.908 375.723 284.951 376.729 263.427C380.542 180.511 448.499 112.581 531.449 108.77C576.332 106.742 618.991 122.622 651.396 153.553C683.833 184.517 701.714 226.284 701.714 271.099C701.714 318.267 689.171 354.454 662.235 385.013C656.377 391.695 655.988 401.719 661.31 408.872L681.334 435.7C687.5 443.972 699.313 445.789 707.686 439.771C748.885 410.137 798.343 393.804 843.356 394.907C874.56 395.702 902.956 400.924 927.685 410.462C939.596 415.068 953.129 409.521 958.467 397.843L989.882 328.989C994.588 318.673 991.65 306.638 982.71 299.744C942.03 268.439 918.891 221.077 919.183 169.806C919.442 127.812 935.88 87.9108 965.526 57.482C995.155 27.0533 1034.6 9.56817 1076.6 8.22191C1122.1 6.79455 1164.85 23.6796 1196.98 55.7952C1229.14 87.9108 1246.02 130.65 1244.57 176.131C1244.04 193.13 1240.6 209.626 1234.82 225.148C1237.34 225.765 1239.79 226.511 1242.17 227.403C1248.16 211.248 1251.7 194.087 1252.27 176.391C1253.77 128.769 1236.09 84.0018 1202.43 50.3777C1170.09 18.0512 1127.55 0.46875 1082 0.46875C1080.13 0.46875 1078.24 0.501186 1076.34 0.566066C1032.35 1.94477 991.018 20.2734 960.025 52.1294C929 83.9855 911.767 125.752 911.507 169.773C911.199 223.445 935.425 273.046 978.004 305.827C984.121 310.53 986.117 318.754 982.888 325.81L951.474 394.631C947.839 402.644 938.59 406.423 930.46 403.276C904.887 393.431 875.647 388.029 843.534 387.202C796.867 385.97 745.704 402.919 703.207 433.494C698.209 437.111 691.167 436.008 687.484 431.094L667.492 404.266C664.312 400.016 664.523 394.031 668.028 390.089C696.246 358.022 709.406 320.214 709.406 271.083C709.406 221.953 690.696 180.43 656.718 147.99C622.772 115.582 578.149 98.9242 531.108 101.081C444.231 105.072 373.061 176.229 369.07 263.054C368.047 285.503 371.293 307.384 378.514 327.805L378.497 327.821ZM1196.58 688.911C1193.25 696.631 1185.02 700.735 1177.07 698.691L1096.31 677.784C1088.17 675.675 1082.8 667.922 1083.85 659.715C1085.13 649.626 1085.76 639.342 1085.76 629.107C1085.76 554.122 1051.61 484.538 992.089 438.182C985.923 433.397 983.894 425.108 987.172 418.036L1021.12 345.144C1024.48 337.91 1032.43 334.066 1040.07 335.979C1054.04 339.515 1068.56 341.283 1083.14 341.154C1108.03 340.975 1132.01 334.941 1153.71 324.366C1152.6 322.063 1151.63 319.727 1150.82 317.31C1130 327.48 1106.99 333.303 1083.1 333.482H1081.95C1068.4 333.482 1054.97 331.811 1041.95 328.551C1030.76 325.712 1019.09 331.341 1014.17 341.916L980.227 414.825C975.44 425.141 978.377 437.241 987.367 444.264C1045.05 489.161 1078.11 556.507 1078.11 629.124C1078.11 639.034 1077.49 649.009 1076.24 658.79C1074.73 670.793 1082.54 682.179 1094.4 685.245L1175.16 706.136C1186.84 709.153 1198.82 703.2 1203.65 691.976C1234.14 621.322 1303.57 575.549 1380.52 575.37H1381.01C1485.54 575.37 1572.11 660.185 1574.04 764.674C1574.75 803.245 1564.3 840.097 1544.13 871.726C1546.21 873.267 1548.21 874.905 1550.07 876.69C1571.43 843.601 1582.46 804.948 1581.71 764.512C1579.68 655.87 1489.72 567.65 1381.01 567.682H1380.49C1300.47 567.861 1228.3 615.466 1196.61 688.911H1196.58ZM0.0777789 609.351C1.10005 649.869 14.9575 688.456 39.557 720.329C41.1148 718.236 42.8023 716.209 44.6197 714.311C21.6266 683.98 8.72653 647.468 7.75294 609.173C6.50349 559.248 25.0018 512.129 59.8564 476.477C94.5001 441.053 140.762 421.589 190.204 421.589H190.643C282.225 421.8 363.585 491.643 371.974 577.268C373.159 589.239 383.171 598.63 395.276 599.068L589.962 606.124C601.84 606.513 612.16 598.419 614.643 586.773C622.529 549.581 637.506 516.135 659.136 487.263C664.182 480.532 664.312 471.481 659.412 464.685L632.394 427.266C627.332 420.226 618.05 417.534 609.839 420.761C589.556 428.693 562.442 433.608 539.124 433.608C515.807 433.608 491.304 428.336 469.999 418.328C469.123 420.761 468.133 423.113 466.981 425.384C489.227 435.797 513.713 441.28 539.124 441.28C564.535 441.28 591.195 436.284 612.63 427.898C614.042 427.363 615.503 427.071 616.963 427.071C620.549 427.071 624.022 428.742 626.18 431.726L653.164 469.146C656.085 473.185 656.004 478.618 652.986 482.641C630.658 512.404 615.243 546.872 607.113 585.135C605.426 593.115 598.254 598.727 590.238 598.419L395.552 591.347C387.276 591.039 380.412 584.648 379.633 576.473C370.871 487.02 286.103 414.063 190.675 413.852H190.204C138.685 413.852 90.4597 434.143 54.3718 471.043C18.0406 508.203 -1.23659 557.285 0.0615364 609.303L0.0777789 609.351ZM1168.41 738.56C1176.08 740.652 1181.11 747.773 1180.62 755.867C1180.35 760.295 1180.22 764.804 1180.24 769.232C1180.71 877.355 1269.06 966.97 1377.14 968.965C1398.34 969.354 1419.03 966.5 1438.68 960.628C1437.49 958.357 1436.45 955.989 1435.56 953.572C1416.95 959.022 1397.36 961.666 1377.31 961.293C1273.33 959.379 1188.38 873.202 1187.93 769.216C1187.89 764.95 1188.02 760.619 1188.28 756.337C1189 744.772 1181.5 734.197 1170.43 731.18L1087.97 708.407C1076.35 705.179 1063.96 711.164 1059.09 722.356C1021.88 808.014 937.421 863.276 843.81 863.276H843.145C723.831 862.935 624.038 773.628 611.008 655.481C609.677 643.43 599.925 634.314 587.836 633.795L393.945 625.782C382.116 625.312 371.747 633.179 369.216 644.516C350.604 727.822 275.832 787.35 190.578 787.35C189.263 787.35 187.965 787.317 186.683 787.301C178.83 787.123 171.073 786.458 163.382 785.273C162.554 787.771 161.581 790.237 160.461 792.621C169.045 794 177.71 794.795 186.505 794.973C187.868 795.006 189.215 795.022 190.578 795.022C279.402 795.022 357.305 732.98 376.712 646.171C378.432 638.466 385.491 633.146 393.604 633.454L587.528 641.467C595.804 641.824 602.456 648.069 603.349 656.308C616.833 778.331 719.921 870.607 843.129 870.931H843.827C940.504 870.931 1027.71 813.853 1066.15 725.389C1069.55 717.587 1077.88 713.565 1085.94 715.787L1168.44 738.56H1168.41Z" fill="#BDBDBD"/>
<path d="M1250.65 312.6C1249.68 311.892 1248.82 311.059 1248.08 310.124C1246.27 308.037 1244.22 305.709 1240.12 305.709C1236.01 305.709 1233.96 308.037 1232.15 310.124C1230.51 311.995 1229.22 313.469 1226.54 313.469C1223.87 313.469 1222.57 311.995 1220.93 310.124C1219.12 308.037 1217.07 305.709 1212.96 305.709C1208.86 305.709 1206.81 308.037 1205 310.124C1203.37 311.995 1202.08 313.469 1199.39 313.469C1196.71 313.469 1195.42 311.995 1193.78 310.124C1192.66 308.658 1191.25 307.44 1189.63 306.547C1189.26 306.38 1188.84 306.363 1188.45 306.5C1188.07 306.636 1187.76 306.915 1187.58 307.277C1187.4 307.64 1187.37 308.057 1187.5 308.441C1187.62 308.824 1187.89 309.144 1188.25 309.333C1189.49 310.057 1190.57 311.017 1191.43 312.158C1193.25 314.245 1195.3 316.573 1199.39 316.573C1203.49 316.573 1205.55 314.245 1207.36 312.158C1208.99 310.287 1210.29 308.813 1212.96 308.813C1215.64 308.813 1216.93 310.287 1218.57 312.158C1220.38 314.245 1222.43 316.573 1226.54 316.573C1230.65 316.573 1232.7 314.245 1234.51 312.158C1236.14 310.287 1237.43 308.813 1240.12 308.813C1242.8 308.813 1244.09 310.287 1245.72 312.158C1246.65 313.312 1247.73 314.333 1248.93 315.192C1249.1 315.308 1249.29 315.389 1249.5 315.43C1249.7 315.472 1249.91 315.472 1250.11 315.433C1250.31 315.393 1250.51 315.313 1250.68 315.198C1250.85 315.083 1251 314.936 1251.11 314.764C1251.23 314.592 1251.3 314.399 1251.34 314.196C1251.38 313.994 1251.38 313.786 1251.33 313.585C1251.29 313.383 1251.21 313.192 1251.09 313.023C1250.97 312.854 1250.82 312.71 1250.65 312.6Z" fill="#1691F6"/>
<path d="M1250.65 300.96C1249.68 300.252 1248.82 299.419 1248.08 298.485C1246.27 296.397 1244.22 294.069 1240.12 294.069C1236.01 294.069 1233.96 296.397 1232.15 298.485C1230.51 300.355 1229.22 301.829 1226.54 301.829C1223.85 301.829 1222.57 300.355 1220.93 298.485C1219.12 296.397 1217.07 294.069 1212.96 294.069C1208.86 294.069 1206.81 296.397 1205 298.485C1203.37 300.355 1202.08 301.829 1199.39 301.829C1196.71 301.829 1195.42 300.355 1193.78 298.485C1192.66 297.019 1191.25 295.801 1189.63 294.907C1189.26 294.741 1188.84 294.724 1188.45 294.86C1188.07 294.996 1187.76 295.275 1187.58 295.638C1187.4 296 1187.37 296.417 1187.5 296.801C1187.62 297.185 1187.89 297.505 1188.25 297.693C1189.49 298.417 1190.57 299.377 1191.43 300.518C1193.25 302.605 1195.3 304.933 1199.39 304.933C1203.49 304.933 1205.55 302.605 1207.36 300.518C1208.99 298.648 1210.28 297.173 1212.96 297.173C1215.65 297.173 1216.94 298.648 1218.57 300.518C1220.38 302.605 1222.43 304.933 1226.54 304.933C1230.64 304.933 1232.69 302.605 1234.5 300.518C1236.14 298.648 1237.43 297.173 1240.12 297.173C1242.8 297.173 1244.09 298.648 1245.72 300.518C1246.65 301.672 1247.73 302.693 1248.93 303.552C1249.1 303.668 1249.29 303.749 1249.5 303.791C1249.7 303.832 1249.91 303.833 1250.11 303.793C1250.31 303.753 1250.51 303.673 1250.68 303.559C1250.85 303.444 1251 303.296 1251.11 303.124C1251.23 302.952 1251.3 302.759 1251.34 302.557C1251.38 302.354 1251.38 302.146 1251.33 301.945C1251.29 301.743 1251.21 301.553 1251.09 301.384C1250.97 301.215 1250.82 301.071 1250.65 300.96Z" fill="#1691F6"/>
<path d="M1250.65 288.544C1249.68 287.836 1248.82 287.003 1248.08 286.069C1246.27 283.981 1244.22 281.653 1240.12 281.653C1236.01 281.653 1233.96 283.981 1232.15 286.069C1230.51 287.939 1229.22 289.413 1226.54 289.413C1223.87 289.413 1222.57 287.939 1220.93 286.069C1219.12 283.981 1217.07 281.653 1212.96 281.653C1208.86 281.653 1206.81 283.981 1205 286.069C1203.37 287.939 1202.08 289.413 1199.39 289.413C1196.71 289.413 1195.42 287.939 1193.78 286.069C1192.66 284.603 1191.25 283.385 1189.63 282.491C1189.26 282.325 1188.84 282.308 1188.45 282.444C1188.07 282.58 1187.76 282.859 1187.58 283.222C1187.4 283.584 1187.37 284.001 1187.5 284.385C1187.62 284.769 1187.89 285.089 1188.25 285.277C1189.49 286.001 1190.57 286.961 1191.43 288.102C1193.25 290.189 1195.3 292.517 1199.39 292.517C1203.49 292.517 1205.55 290.189 1207.36 288.102C1208.99 286.232 1210.29 284.757 1212.96 284.757C1215.64 284.757 1216.93 286.232 1218.57 288.102C1220.38 290.189 1222.43 292.517 1226.54 292.517C1230.65 292.517 1232.7 290.189 1234.51 288.102C1236.14 286.232 1237.43 284.757 1240.12 284.757C1242.8 284.757 1244.09 286.232 1245.72 288.102C1246.65 289.256 1247.73 290.277 1248.93 291.136C1249.1 291.252 1249.29 291.333 1249.5 291.375C1249.7 291.416 1249.91 291.417 1250.11 291.377C1250.31 291.337 1250.51 291.257 1250.68 291.143C1250.85 291.028 1251 290.88 1251.11 290.708C1251.23 290.536 1251.3 290.343 1251.34 290.141C1251.38 289.938 1251.38 289.73 1251.33 289.529C1251.29 289.327 1251.21 289.137 1251.09 288.968C1250.97 288.799 1250.82 288.655 1250.65 288.544Z" fill="#1691F6"/>
<path d="M1250.65 276.904C1249.68 276.195 1248.82 275.363 1248.08 274.428C1246.27 272.341 1244.22 270.013 1240.12 270.013C1236.01 270.013 1233.96 272.341 1232.15 274.428C1230.51 276.298 1229.22 277.773 1226.54 277.773C1223.85 277.773 1222.57 276.298 1220.93 274.428C1219.12 272.341 1217.07 270.013 1212.96 270.013C1208.86 270.013 1206.81 272.341 1205 274.428C1203.37 276.298 1202.08 277.773 1199.39 277.773C1196.71 277.773 1195.42 276.298 1193.78 274.428C1192.66 272.962 1191.25 271.744 1189.63 270.851C1189.26 270.684 1188.84 270.667 1188.45 270.803C1188.07 270.94 1187.76 271.219 1187.58 271.581C1187.4 271.943 1187.37 272.361 1187.5 272.744C1187.62 273.128 1187.89 273.448 1188.25 273.637C1189.49 274.36 1190.57 275.32 1191.43 276.461C1193.25 278.549 1195.3 280.877 1199.39 280.877C1203.49 280.877 1205.55 278.549 1207.36 276.461C1208.99 274.591 1210.28 273.117 1212.96 273.117C1215.65 273.117 1216.94 274.591 1218.57 276.461C1220.38 278.549 1222.43 280.877 1226.54 280.877C1230.64 280.877 1232.69 278.549 1234.5 276.461C1236.14 274.591 1237.43 273.117 1240.12 273.117C1242.8 273.117 1244.09 274.591 1245.72 276.461C1246.65 277.615 1247.73 278.637 1248.93 279.495C1249.1 279.612 1249.29 279.693 1249.5 279.734C1249.7 279.775 1249.91 279.776 1250.11 279.736C1250.31 279.697 1250.51 279.617 1250.68 279.502C1250.85 279.387 1251 279.239 1251.11 279.067C1251.23 278.895 1251.3 278.703 1251.34 278.5C1251.38 278.298 1251.38 278.09 1251.33 277.888C1251.29 277.687 1251.21 277.496 1251.09 277.327C1250.97 277.158 1250.82 277.014 1250.65 276.904Z" fill="#1691F6"/>
<path d="M95.5609 716.924C98.8335 720.223 101.374 724.126 103.068 728.36C104.79 732.652 105.637 737.289 105.522 742.013C110.144 738.672 118.512 739.406 122.933 742.243C123.062 742.33 123.191 742.416 123.306 742.503C120.924 731.989 115.153 724.716 108.077 720.669C104.187 718.451 99.8956 717.198 95.5609 716.924ZM105.264 744.101C104.977 744.418 104.805 744.634 104.575 745.009C104.302 745.441 103.671 745.441 103.384 744.994C101.848 742.532 98.5034 741.307 95.5896 740.99V759.684L96.5369 759.8V773.064C96.5369 774.49 98.7043 774.49 98.7043 773.064C98.7043 770.573 101.733 769.305 103.484 771.077C103.986 771.581 104.302 772.286 104.302 773.064C104.302 781.907 90.9247 781.907 90.9247 773.064V759.8L91.8864 759.684V740.99C88.9296 741.322 85.6713 742.517 84.0781 745.009C83.8054 745.441 83.1738 745.441 82.8867 744.994C80.9203 741.84 76.442 741.019 72.8249 741.235C69.9399 741.408 67.1553 742.229 65.2893 743.439C64.543 743.914 63.9545 744.447 63.5956 745.009C63.1794 745.657 62.189 745.254 62.3182 744.505C64.4425 732.32 70.7867 723.967 78.6955 719.445C83.1451 716.896 88.0684 715.571 93.0347 715.455V708.398C93.0347 707.462 94.4413 707.462 94.4413 708.398V715.47C99.3933 715.585 104.331 716.91 108.766 719.459C116.675 723.982 123.019 732.335 125.143 744.519C125.273 745.268 124.268 745.686 123.837 744.994C123.478 744.447 122.904 743.914 122.158 743.453C117.952 740.717 109.053 739.968 105.264 744.101ZM104.058 743.352C104.718 733.487 100.929 723.866 93.738 717.112C90.1927 720.439 87.4799 724.471 85.7144 728.878C83.9058 733.415 83.0877 738.355 83.4178 743.352C83.4465 743.381 83.4609 743.41 83.4896 743.439C87.9105 738.153 99.5512 738.153 103.972 743.439C104.001 743.41 104.029 743.381 104.058 743.352ZM81.9538 742.013C81.8389 737.304 82.7001 732.666 84.4082 728.36C86.1019 724.126 88.6425 720.223 91.9151 716.924C87.5803 717.198 83.2743 718.437 79.3845 720.669C72.3082 724.716 66.5381 731.989 64.1554 742.503C66.2654 741.005 69.5236 740.026 72.7388 739.838C76.0401 739.622 79.485 740.227 81.9538 742.013ZM94.8719 761.038L93.7667 760.995L92.317 761.067V773.064C92.317 780.035 102.881 780.035 102.881 773.064C102.881 771.826 101.374 771.192 100.498 772.07C100.24 772.33 100.082 772.675 100.082 773.064C100.082 776.362 95.1016 776.362 95.1016 773.064V761.053C95.0442 761.053 94.958 761.053 94.8719 761.038ZM94.1829 759.598V740.904H93.3074V759.598H94.1829ZM103.384 744.994C103.24 744.764 103.24 744.476 103.384 744.245V744.994Z" fill="#1691F6"/>
<path d="M89.4923 720.983L94.0446 716.788L96.4547 718.751L103.06 729.284L105.024 737.318L105.113 743.655L104.042 744.637L102.435 742.763L97.6151 740.62L92.8842 740.263L88.8674 741.156C87.1417 742.287 83.6902 744.637 83.6902 744.994C83.6902 745.351 83.3927 744.31 83.2439 743.745L82.8867 739.549L85.0292 729.016L89.4923 720.983Z" fill="#1691F6"/>
<path d="M83.0926 757.072V754.419L80.046 746.612H78.1228V747.216H68.5292V749.082H69.2304V750.596H70.4961V751.387H71.0195V750.596H72.2852V749.082H78.1228V751.062H76.9346V750.89C76.9346 750.504 76.6181 750.19 76.229 750.19C75.84 750.19 75.5234 750.504 75.5234 750.89V752.794C75.5234 753.18 75.84 753.494 76.229 753.494C76.6181 753.494 76.9346 753.18 76.9346 752.794V752.622H78.1228V757.072H79.0444V760.603H74.0297V759.991H75.795V755.022H64.9434V759.991H66.357V760.603H64.9434V762.324H66.1713V764.963H71.1833V762.324H78.1228V764.963H82.1509V762.324H83.0926V760.603H82.1509V757.072H83.0926ZM76.4112 752.794C76.4112 752.893 76.3294 752.974 76.229 752.974C76.1285 752.974 76.0469 752.893 76.0469 752.794V750.89C76.0469 750.793 76.1303 750.71 76.229 750.71C76.3277 750.71 76.4112 750.793 76.4112 750.89V752.794ZM78.1228 752.102H76.9346V751.582H78.1228V752.102ZM71.7617 750.076H69.7539V749.082H71.7617V750.076ZM78.1228 748.562H69.0527V747.736H78.1228V748.562ZM65.4668 759.471V755.542H75.2715V759.471H65.4668ZM73.5062 759.991V760.603H66.8804V759.991H73.5062ZM70.6599 764.443H66.6948V762.324H70.6599V764.443ZM81.6274 764.443H78.6463V762.324H81.6274V764.443ZM82.5691 761.123V761.805H65.4668V761.123H82.5691ZM79.5678 760.603V757.072H81.6274V760.603H79.5678ZM78.6463 756.552V749.082V747.216V747.132H79.6874L82.5691 754.516V756.552H78.6463Z" fill="#1691F6"/>
<path d="M66.1719 758.741H71.1839V755.892H66.1719V758.741ZM66.6953 756.411H70.6605V758.221H66.6953V756.411Z" fill="#1691F6"/>
<path d="M71.4219 757.289H74.6176V755.892H71.4219V757.289ZM71.9453 756.411H74.0941V756.769H71.9453V756.411Z" fill="#1691F6"/>
<path d="M71.4219 758.483H71.9453V758.094H74.0941V758.483H74.6176V757.574H71.4219V758.483Z" fill="#1691F6"/>
<path d="M113.752 758.18C114.079 757.286 114.267 756.309 114.267 755.299C114.267 754.271 114.072 753.278 113.734 752.37H114.102H114.533H115.033V751.87V747.283C115.033 747.242 115.048 747.207 115.084 747.175C115.123 747.141 115.194 747.106 115.298 747.106C115.402 747.106 115.473 747.141 115.512 747.175C115.549 747.207 115.564 747.242 115.564 747.283V751.87V752.37H116.064H116.494H119.173C120.648 752.37 121.863 753.442 122.025 754.873L122.063 755.206L122.386 755.297C123.378 755.578 124.127 756.501 124.127 757.569V760.612C124.127 761.26 123.887 761.856 123.458 762.288L122.597 763.157C122.175 763.583 121.926 764.142 121.926 764.765V766.697C121.926 766.702 121.924 766.71 121.915 766.719C121.907 766.728 121.9 766.728 121.9 766.728C121.899 766.728 121.893 766.728 121.884 766.719C121.876 766.71 121.874 766.702 121.874 766.697V764.765C121.874 764.117 122.114 763.521 122.542 763.088L123.403 762.219C123.825 761.793 124.074 761.234 124.074 760.612V757.569C124.074 756.658 123.533 755.777 122.643 755.457L122.071 755.25L121.98 755.852C121.902 756.363 121.623 756.897 121.21 757.314L121.203 757.32L121.197 757.327C120.679 757.89 119.957 758.18 119.173 758.18H113.752Z" stroke="#1691F6"/>
<path d="M105.877 761.705C104.858 761.705 103.879 761.479 103.018 761.035L105.307 757.863C105.487 757.903 105.674 757.924 105.877 757.924C107.346 757.924 108.482 756.737 108.482 755.395C108.482 753.965 107.306 752.77 105.877 752.77C105.674 752.77 105.487 752.791 105.307 752.831L103.022 749.665C103.91 749.214 104.86 748.989 105.877 748.989C109.328 748.989 112.17 751.852 112.17 755.347C112.17 758.842 109.328 761.705 105.877 761.705Z" stroke="#1691F6"/>
<path d="M103.318 755.299C103.318 755.817 103.466 756.257 103.689 756.638L102.304 758.547C101.592 757.606 101.209 756.468 101.209 755.299C101.209 754.133 101.591 752.992 102.308 752.017L103.692 753.96C103.466 754.357 103.318 754.82 103.318 755.299Z" stroke="#1691F6"/>
<path d="M539.351 129.596C459.646 129.596 395.016 194.184 395.016 273.873C395.016 299.273 401.587 323.117 413.108 343.846C433.489 351.145 449.034 368.549 453.723 390.024C477.674 407.688 507.287 418.15 539.335 418.15C619.04 418.15 683.67 353.561 683.67 273.873C683.67 194.184 619.056 129.596 539.335 129.596H539.351Z" fill="#FEBBBA"/>
<path d="M1433.19 921.051C1433.19 885.983 1461.64 857.549 1496.72 857.549C1503.68 857.549 1510.38 858.685 1516.66 860.761C1534.79 834.582 1545.4 802.823 1545.4 768.583C1545.4 679 1472.75 606.383 1383.13 606.383C1293.51 606.383 1220.87 679 1220.87 768.583C1220.87 858.166 1293.51 930.783 1383.13 930.783C1400.63 930.783 1417.45 928.009 1433.24 922.884C1433.22 922.267 1433.19 921.667 1433.19 921.051Z" fill="#FDD835" fill-opacity="0.4"/>
<path d="M190.48 442.545C100.861 442.545 28.2148 515.162 28.2148 604.745C28.2148 643.349 41.7154 678.805 64.2541 706.655C74.0387 700.508 85.592 696.956 97.9891 696.956C133.071 696.956 161.516 725.389 161.516 760.457C161.516 761.755 161.467 763.052 161.386 764.334C170.83 766.037 180.55 766.945 190.48 766.945C280.1 766.945 352.746 694.328 352.746 604.745C352.746 515.162 280.1 442.545 190.48 442.545Z" fill="#50C878" fill-opacity="0.43"/>
<path d="M1208.86 238.933C1220.43 218.172 1227.01 194.28 1227.01 168.831C1227.01 89.158 1162.4 24.5537 1082.68 24.5537C1002.96 24.5537 938.344 89.1418 938.344 168.831C938.344 248.519 1002.96 313.107 1082.68 313.107C1112.41 313.107 1140.04 304.122 1163 288.713C1167.41 264.61 1185.44 245.259 1208.84 238.933H1208.86Z" fill="#E6F4F1"/>
<path d="M393.469 426.189C401.587 426.189 408.112 419.664 408.112 411.546C408.112 403.428 401.587 396.903 393.469 396.903C385.351 396.903 378.826 403.428 378.826 411.546C378.826 419.664 385.351 426.189 393.469 426.189ZM385.654 410.18C386.565 409.27 388.082 409.27 388.993 410.18L391.041 412.229L396.883 406.387C397.794 405.477 399.311 405.477 400.221 406.387C401.132 407.297 401.132 408.815 400.221 409.725L392.71 417.236C392.255 417.692 391.648 417.919 391.041 417.919C390.434 417.919 389.827 417.692 389.372 417.236L385.654 413.519C384.744 412.532 384.744 411.091 385.654 410.18Z" fill="#1691F6"/>
<path d="M420.025 372.929H413.652V368.529C413.652 367.087 412.514 365.949 411.073 365.949H404.624C403.182 365.949 402.044 367.087 402.044 368.529V372.929H384.974V368.529C384.974 367.087 383.836 365.949 382.394 365.949H375.945C374.504 365.949 373.366 367.087 373.366 368.529V372.929H366.917C361.909 372.929 357.812 377.026 357.812 382.034V428.845C357.812 433.852 361.909 437.949 366.917 437.949H420.025C425.033 437.949 429.13 433.852 429.13 428.845V382.034C429.206 377.026 425.109 372.929 420.025 372.929ZM422.681 428.921C422.681 430.362 421.467 431.576 420.025 431.576H366.917C365.475 431.576 364.261 430.362 364.261 428.921V391.669H422.681V428.921Z" fill="#1691F6"/>
<path d="M1499.75 901.846C1503.23 901.846 1506.05 899.02 1506.05 895.546C1506.05 892.072 1503.23 889.246 1499.75 889.246C1496.28 889.246 1493.45 892.072 1493.45 895.546C1493.45 899.02 1496.28 901.846 1499.75 901.846ZM1499.75 892.846C1501.24 892.846 1502.45 894.057 1502.45 895.546C1502.45 897.035 1501.24 898.246 1499.75 898.246C1498.26 898.246 1497.05 897.035 1497.05 895.546C1497.05 894.057 1498.26 892.846 1499.75 892.846Z" fill="#1691F6"/>
<path d="M1456.55 922.546H1483.62L1476.41 950.901C1476.31 951.281 1476.34 951.683 1476.5 952.044L1479.99 960.332C1479.99 960.348 1479.99 960.364 1479.99 960.38C1480.01 960.488 1480.05 960.614 1480.1 960.722C1480.14 960.83 1480.19 960.92 1480.26 961.028C1480.32 961.118 1480.41 961.208 1480.48 961.298C1480.57 961.388 1480.66 961.46 1480.75 961.514C1480.86 961.586 1480.96 961.64 1481.07 961.694C1481.18 961.73 1481.29 961.766 1481.4 961.784C1481.52 961.82 1481.63 961.82 1481.76 961.82C1481.87 961.82 1481.99 961.82 1482.1 961.784C1482.22 961.766 1482.33 961.73 1482.44 961.694C1482.55 961.64 1482.66 961.586 1482.75 961.514C1482.85 961.46 1482.94 961.388 1483.03 961.298C1483.11 961.208 1483.18 961.118 1483.25 961.028C1483.32 960.92 1483.37 960.83 1483.41 960.722C1483.47 960.614 1483.5 960.488 1483.52 960.38C1483.53 960.314 1483.53 960.254 1483.54 960.193L1493.21 922.546H1497.95C1497.95 923.54 1498.76 924.346 1499.75 924.346C1500.75 924.346 1501.55 923.54 1501.55 922.546H1506.3L1516.01 960.344C1516.01 960.357 1516.02 960.366 1516.02 960.378C1516.1 960.728 1516.23 961.059 1516.48 961.3C1516.57 961.39 1516.66 961.462 1516.74 961.534C1516.85 961.588 1516.96 961.642 1517.07 961.696C1517.18 961.732 1517.29 961.768 1517.41 961.786C1517.52 961.822 1517.64 961.822 1517.75 961.822C1517.86 961.822 1517.99 961.822 1518.09 961.786C1518.22 961.768 1518.33 961.732 1518.43 961.696C1518.54 961.642 1518.65 961.588 1518.74 961.534C1518.85 961.462 1518.94 961.39 1519.01 961.3C1519.19 961.138 1519.32 960.94 1519.41 960.724C1519.44 960.645 1519.43 960.566 1519.45 960.488L1523.01 952.044C1523.16 951.683 1523.19 951.281 1523.09 950.901L1515.89 922.546H1542.95C1543.95 922.546 1544.75 921.74 1544.75 920.746C1544.75 919.752 1543.95 918.946 1542.95 918.946H1514.97L1509.93 899.128C1510.33 898.005 1510.55 896.802 1510.55 895.546C1510.55 891.559 1508.38 888.078 1505.15 886.208V881.146C1505.15 878.169 1502.73 875.746 1499.75 875.746C1496.78 875.746 1494.35 878.169 1494.35 881.146V886.208C1491.13 888.078 1488.95 891.559 1488.95 895.546C1488.95 896.802 1489.18 898.005 1489.58 899.128L1484.54 918.946H1456.55C1455.56 918.946 1454.75 919.752 1454.75 920.746C1454.75 921.74 1455.56 922.546 1456.55 922.546ZM1492.23 903.282C1492.79 903.826 1493.41 904.303 1494.08 904.717L1481.34 954.273L1480.05 951.204L1492.23 903.282ZM1501.55 918.946C1501.55 917.952 1500.75 917.146 1499.75 917.146C1498.76 917.146 1497.95 917.952 1497.95 918.946H1494.14L1497.44 906.09C1498.19 906.254 1498.96 906.346 1499.75 906.346C1500.55 906.346 1501.32 906.254 1502.07 906.09L1505.37 918.946H1501.55ZM1518.17 954.273L1505.43 904.717C1506.1 904.303 1506.72 903.826 1507.27 903.282L1519.46 951.206L1518.17 954.273ZM1497.95 881.146C1497.95 880.154 1498.76 879.346 1499.75 879.346C1500.75 879.346 1501.55 880.154 1501.55 881.146V884.908C1500.97 884.809 1500.37 884.746 1499.75 884.746C1499.14 884.746 1498.54 884.809 1497.95 884.908V881.146ZM1499.75 888.346C1503.72 888.346 1506.95 891.575 1506.95 895.546C1506.95 899.517 1503.72 902.746 1499.75 902.746C1495.78 902.746 1492.55 899.517 1492.55 895.546C1492.55 891.575 1495.78 888.346 1499.75 888.346Z" fill="#1691F6"/>
<path d="M1511.45 960.472C1510.5 960.742 1509.96 961.75 1510.23 962.704C1510.46 963.496 1511.18 964 1511.96 964C1512.14 964 1512.3 963.982 1512.48 963.928C1513.42 963.64 1513.97 962.65 1513.69 961.696C1513.42 960.742 1512.41 960.184 1511.45 960.472Z" fill="#1691F6"/>
<path d="M1504.14 963.766C1504.27 964.666 1505.03 965.314 1505.91 965.314C1506 965.314 1506.09 965.296 1506.18 965.296C1507.15 965.152 1507.83 964.234 1507.69 963.262C1507.56 962.272 1506.65 961.588 1505.66 961.732C1504.69 961.858 1504 962.776 1504.14 963.766Z" fill="#1691F6"/>
<path d="M1491.8 963.262C1491.67 964.234 1492.36 965.152 1493.33 965.296C1493.42 965.296 1493.51 965.314 1493.58 965.314C1494.46 965.314 1495.24 964.666 1495.36 963.766C1495.51 962.776 1494.82 961.858 1493.85 961.732C1492.86 961.588 1491.94 962.272 1491.8 963.262Z" fill="#1691F6"/>
<path d="M1485.82 961.696C1485.53 962.65 1486.09 963.64 1487.05 963.928C1487.21 963.982 1487.39 964 1487.55 964C1488.32 964 1489.04 963.496 1489.28 962.704C1489.57 961.75 1489.01 960.742 1488.05 960.472C1487.1 960.184 1486.11 960.742 1485.82 961.696Z" fill="#1691F6"/>
<path d="M1499.75 965.746C1500.75 965.746 1501.55 964.941 1501.55 963.946C1501.55 962.952 1500.75 962.146 1499.75 962.146C1498.76 962.146 1497.95 962.952 1497.95 963.946C1497.95 964.941 1498.76 965.746 1499.75 965.746Z" fill="#1691F6"/>
</svg>
