<svg width="628" height="574" viewBox="0 0 628 574" fill="none" xmlns="http://www.w3.org/2000/svg">
<g clip-path="url(#clip0_1572_1723)">
<path d="M161.672 442.188H319.652C337.42 442.188 350.825 427.775 349.578 409.998L323.179 32.2064C321.932 14.429 306.527 0.0166016 288.742 0.0166016H130.761C112.993 0.0166016 99.5886 14.429 100.836 32.2064L127.234 409.998C128.481 427.775 143.887 442.188 161.672 442.188Z" fill="#6F868E"/>
<path d="M169.875 442.188H327.855C345.624 442.188 359.028 427.775 357.781 409.998L331.383 32.2064C330.136 14.429 314.73 0.0166016 296.945 0.0166016H138.964C121.196 0.0166016 107.792 14.429 109.039 32.2064L135.437 409.998C136.684 427.775 152.09 442.188 169.875 442.188Z" fill="#2C3137"/>
<path d="M139.49 7.38672H180.556C183.246 7.38672 185.658 9.38935 186.183 12.0486L186.429 13.329C187.709 19.8457 193.599 24.7374 200.178 24.7374H239.21C245.772 24.7374 250.973 19.8457 251.351 13.329L251.433 12.0486C251.58 9.37294 253.713 7.38672 256.404 7.38672H297.47C311.17 7.38672 323.048 18.4997 324 32.1898L350.398 409.981C351.35 423.688 341.03 434.784 327.33 434.784H169.35C155.65 434.784 143.772 423.671 142.82 409.981L116.422 32.1898C115.47 18.4833 125.79 7.38672 139.49 7.38672Z" fill="#6F868E"/>
<path opacity="0.8" d="M116.422 32.2062L142.82 409.998C143.772 423.704 155.667 434.801 169.366 434.801H327.347C341.046 434.801 351.366 423.704 350.398 409.998L324 32.2062C323.048 18.4997 311.17 7.38672 297.47 7.38672H256.404C253.713 7.38672 251.597 9.38935 251.433 12.065L251.351 13.3454C250.973 19.8621 245.772 24.7538 239.21 24.7538H200.178C193.599 24.7538 187.709 19.8621 186.429 13.3454L186.183 12.065C185.658 9.38935 183.23 7.38672 180.539 7.38672H139.49C125.79 7.38672 115.454 18.4997 116.422 32.2062Z" fill="white"/>
<path d="M139.654 364.594L142.82 409.998C143.772 423.704 155.667 434.801 169.366 434.801H327.347C341.046 434.801 351.366 423.704 350.398 409.998L347.232 364.594H139.654Z" fill="#2C3137"/>
<path opacity="0.5" d="M139.654 364.594L142.82 409.998C143.772 423.704 155.667 434.801 169.366 434.801H327.347C341.046 434.801 351.366 423.704 350.398 409.998L347.232 364.594H139.654Z" fill="white"/>
<g opacity="0.7">
<path d="M228.315 11.5728C228.429 13.3128 229.939 14.708 231.678 14.708C233.417 14.708 234.713 13.2963 234.598 11.5728C234.484 9.83278 232.974 8.4375 231.235 8.4375C229.496 8.4375 228.2 9.84919 228.315 11.5728Z" fill="black"/>
<path d="M205.853 8.4375H216.616C218.355 8.4375 219.848 9.84919 219.979 11.5728C220.094 13.3128 218.798 14.708 217.059 14.708H206.296C204.557 14.708 203.064 13.2963 202.933 11.5728C202.818 9.83278 204.114 8.4375 205.853 8.4375Z" fill="black"/>
</g>
<path d="M306.279 24.6887H302.949L302.719 21.3564H306.05L306.279 24.6887Z" fill="#6F868E"/>
<path d="M299.405 21.3559L299.635 24.6881H296.304L296.075 21.3559L295.845 18.04H299.175L299.405 21.3559Z" fill="#6F868E"/>
<path d="M292.285 14.708L292.531 18.0403L292.761 21.3561L292.99 24.6883H289.66L289.43 21.3561L289.2 18.0403L288.971 14.708H292.285Z" fill="#6F868E"/>
<path d="M149.432 14.9375L149.596 17.3833H151.22L151.564 22.2586H149.94L150.104 24.7044H135.486L134.797 14.9539H149.415L149.432 14.9375ZM143.443 22.2422H148.316L147.971 17.3669H143.099L143.443 22.2422Z" fill="#6F868E"/>
<path d="M296.861 203.333H297.977C298.732 203.333 299.306 202.709 299.257 201.954L297.616 178.432C297.288 173.835 293.301 170.093 288.707 170.093H265.213C264.458 170.093 263.884 170.717 263.933 171.472L264.015 172.588C264.064 173.343 264.737 173.967 265.492 173.967H288.986C291.447 173.967 293.596 175.969 293.761 178.432L295.401 201.954C295.45 202.709 296.123 203.333 296.878 203.333H296.861Z" fill="#6F868E"/>
<path d="M207.74 300.411L207.658 299.295C207.609 298.54 206.936 297.916 206.182 297.916H182.687C180.226 297.916 178.077 295.914 177.913 293.451L176.272 269.929C176.223 269.174 175.55 268.55 174.796 268.55H173.68C172.925 268.55 172.351 269.174 172.4 269.929L174.041 293.451C174.369 298.048 178.356 301.79 182.95 301.79H206.444C207.199 301.79 207.773 301.166 207.724 300.411H207.74Z" fill="#6F868E"/>
<path d="M169.119 203.333H170.235C170.99 203.333 171.564 202.71 171.515 201.954L169.874 178.612C169.808 177.66 169.972 176.708 170.465 175.937C171.236 174.689 172.548 173.983 174.025 173.983H197.536C198.29 173.983 198.865 173.36 198.815 172.604L198.733 171.488C198.684 170.733 198.011 170.109 197.257 170.109H174.074C172.04 170.109 170.038 170.733 168.561 172.03C166.74 173.639 165.822 175.97 166.002 178.448L167.643 201.954C167.692 202.71 168.365 203.333 169.119 203.333Z" fill="#6F868E"/>
<path d="M297.912 301.79C300.39 301.79 302.621 300.723 304.114 298.786C305.312 297.227 305.788 295.191 305.64 293.139L304.016 269.929C303.966 269.174 303.294 268.55 302.539 268.55H301.423C300.669 268.55 300.094 269.174 300.144 269.929L301.784 293.287C301.85 294.239 301.686 295.191 301.194 295.963C300.406 297.21 299.11 297.916 297.633 297.916H274.123C273.368 297.916 272.794 298.54 272.843 299.295L272.925 300.411C272.974 301.166 273.647 301.79 274.402 301.79H297.912Z" fill="#6F868E"/>
<path d="M122.181 114.544H330.316L325.411 44.3369H117.275L122.181 114.544Z" fill="#6F868E"/>
<path opacity="0.2" d="M349.97 408.669C350.463 415.612 348.034 421.883 343.752 426.38L122.622 12.7385C126.757 8.60194 132.516 6.05762 139.046 6.05762H297.026C310.725 6.05762 322.604 17.1706 323.556 30.8607L349.954 408.652L349.97 408.669Z" fill="white"/>
<path d="M273.369 56.7793L276.535 102.101" stroke="#C7C6C4" stroke-miterlimit="10"/>
<path d="M221.474 56.7793L224.641 102.101" stroke="#C7C6C4" stroke-miterlimit="10"/>
<path d="M169.58 56.7793L172.746 102.101" stroke="#C7C6C4" stroke-miterlimit="10"/>
<path d="M286.841 180.516L287.152 184.915H282.755L282.444 180.516H286.841Z" fill="#2C3137"/>
<path d="M282.442 180.516L282.754 184.915H278.34L278.029 180.516H282.442Z" fill="#2C3137"/>
<path d="M278.03 180.516L278.342 184.915H273.945L273.633 180.516H278.03Z" fill="#2C3137"/>
<path d="M273.632 180.516L273.943 184.915H269.53L269.218 180.516H273.632Z" fill="#2C3137"/>
<path d="M269.22 180.516L269.531 184.915H265.134L264.823 180.516H269.22Z" fill="#2C3137"/>
<path d="M264.821 180.516L265.133 184.915H260.719L260.408 180.516H264.821Z" fill="#2C3137"/>
<path d="M260.409 180.516L260.721 184.915H256.307L256.012 180.516H260.409Z" fill="#2C3137"/>
<path d="M242.788 180.516L243.1 184.915H238.686L238.391 180.516H242.788Z" fill="#2C3137"/>
<path d="M229.58 180.516L229.875 184.915H225.478L225.166 180.516H229.58Z" fill="#2C3137"/>
<path d="M225.167 180.516L225.479 184.915H221.065L220.753 180.516H225.167Z" fill="#2C3137"/>
<path d="M220.753 180.516L221.064 184.915H216.667L216.356 180.516H220.753Z" fill="#2C3137"/>
<path d="M216.356 180.516L216.668 184.915H212.255L211.943 180.516H216.356Z" fill="#2C3137"/>
<path d="M207.546 180.516L207.857 184.915H203.444L203.132 180.516H207.546Z" fill="#2C3137"/>
<path d="M203.132 180.516L203.443 184.915H199.046L198.735 180.516H203.132Z" fill="#2C3137"/>
<path d="M198.735 180.516L199.047 184.915H194.633L194.322 180.516H198.735Z" fill="#2C3137"/>
<path d="M194.323 180.516L194.635 184.915H190.238L189.926 180.516H194.323Z" fill="#2C3137"/>
<path d="M189.925 180.516L190.236 184.915H185.823L185.511 180.516H189.925Z" fill="#2C3137"/>
<path d="M185.512 180.516L185.824 184.915H181.427L181.115 180.516H185.512Z" fill="#2C3137"/>
<path d="M181.114 180.516L181.426 184.915H177.012L176.701 180.516H181.114Z" fill="#2C3137"/>
<path d="M287.151 184.915L287.463 189.331H283.049L282.754 184.915H287.151Z" fill="#2C3137"/>
<path d="M260.72 184.915L261.031 189.331H256.618L256.306 184.915H260.72Z" fill="#2C3137"/>
<path d="M247.497 184.915L247.809 189.331H243.412L243.1 184.915H247.497Z" fill="#2C3137"/>
<path d="M225.479 184.915L225.791 189.331H221.378L221.066 184.915H225.479Z" fill="#2C3137"/>
<path d="M221.065 184.915L221.377 189.331H216.964L216.668 184.915H221.065Z" fill="#2C3137"/>
<path d="M216.668 184.915L216.963 189.331H212.566L212.254 184.915H216.668Z" fill="#2C3137"/>
<path d="M207.857 184.915L208.152 189.331H203.755L203.444 184.915H207.857Z" fill="#2C3137"/>
<path d="M181.427 184.915L181.723 189.331H177.326L177.014 184.915H181.427Z" fill="#2C3137"/>
<path d="M287.464 189.33L287.775 193.746H283.362L283.05 189.33H287.464Z" fill="#2C3137"/>
<path d="M278.653 189.33L278.965 193.746H274.551L274.24 189.33H278.653Z" fill="#2C3137"/>
<path d="M274.239 189.33L274.551 193.746H270.154L269.842 189.33H274.239Z" fill="#2C3137"/>
<path d="M269.843 189.33L270.154 193.746H265.741L265.429 189.33H269.843Z" fill="#2C3137"/>
<path d="M261.032 189.33L261.344 193.746H256.93L256.619 189.33H261.032Z" fill="#2C3137"/>
<path d="M252.222 189.33L252.518 193.746H248.121L247.809 189.33H252.222Z" fill="#2C3137"/>
<path d="M238.997 189.33L239.309 193.746H234.895L234.6 189.33H238.997Z" fill="#2C3137"/>
<path d="M225.791 189.33L226.086 193.746H221.689L221.377 189.33H225.791Z" fill="#2C3137"/>
<path d="M208.153 189.33L208.465 193.746H204.068L203.756 189.33H208.153Z" fill="#2C3137"/>
<path d="M199.343 189.33L199.654 193.746H195.257L194.946 189.33H199.343Z" fill="#2C3137"/>
<path d="M194.946 189.33L195.258 193.746H190.844L190.533 189.33H194.946Z" fill="#2C3137"/>
<path d="M190.532 189.33L190.844 193.746H186.447L186.135 189.33H190.532Z" fill="#2C3137"/>
<path d="M181.721 189.33L182.033 193.746H177.636L177.324 189.33H181.721Z" fill="#2C3137"/>
<path d="M287.775 193.746L288.07 198.145H283.673L283.362 193.746H287.775Z" fill="#2C3137"/>
<path d="M278.964 193.746L279.26 198.145H274.863L274.551 193.746H278.964Z" fill="#2C3137"/>
<path d="M274.552 193.746L274.863 198.145H270.45L270.155 193.746H274.552Z" fill="#2C3137"/>
<path d="M270.154 193.746L270.449 198.145H266.052L265.74 193.746H270.154Z" fill="#2C3137"/>
<path d="M261.343 193.746L261.639 198.145H257.242L256.93 193.746H261.343Z" fill="#2C3137"/>
<path d="M248.12 193.746L248.432 198.145H244.018L243.707 193.746H248.12Z" fill="#2C3137"/>
<path d="M226.085 193.746L226.396 198.145H221.999L221.688 193.746H226.085Z" fill="#2C3137"/>
<path d="M221.688 193.746L222 198.145H217.587L217.275 193.746H221.688Z" fill="#2C3137"/>
<path d="M208.466 193.746L208.777 198.145H204.364L204.069 193.746H208.466Z" fill="#2C3137"/>
<path d="M199.655 193.746L199.967 198.145H195.553L195.258 193.746H199.655Z" fill="#2C3137"/>
<path d="M195.257 193.746L195.553 198.145H191.156L190.844 193.746H195.257Z" fill="#2C3137"/>
<path d="M190.845 193.746L191.156 198.145H186.743L186.448 193.746H190.845Z" fill="#2C3137"/>
<path d="M182.034 193.746L182.346 198.145H177.932L177.637 193.746H182.034Z" fill="#2C3137"/>
<path d="M288.071 198.146L288.383 202.561H283.986L283.674 198.146H288.071Z" fill="#2C3137"/>
<path d="M279.261 198.146L279.572 202.561H275.175L274.864 198.146H279.261Z" fill="#2C3137"/>
<path d="M274.862 198.146L275.174 202.561H270.76L270.449 198.146H274.862Z" fill="#2C3137"/>
<path d="M270.45 198.146L270.762 202.561H266.365L266.053 198.146H270.45Z" fill="#2C3137"/>
<path d="M261.639 198.146L261.951 202.561H257.554L257.242 198.146H261.639Z" fill="#2C3137"/>
<path d="M248.432 198.146L248.744 202.561H244.331L244.019 198.146H248.432Z" fill="#2C3137"/>
<path d="M235.208 198.146L235.52 202.561H231.106L230.811 198.146H235.208Z" fill="#2C3137"/>
<path d="M230.81 198.146L231.105 202.561H226.708L226.397 198.146H230.81Z" fill="#2C3137"/>
<path d="M226.397 198.146L226.709 202.561H222.296L222 198.146H226.397Z" fill="#2C3137"/>
<path d="M222 198.146L222.295 202.561H217.898L217.586 198.146H222Z" fill="#2C3137"/>
<path d="M208.776 198.146L209.088 202.561H204.675L204.363 198.146H208.776Z" fill="#2C3137"/>
<path d="M199.966 198.146L200.277 202.561H195.864L195.552 198.146H199.966Z" fill="#2C3137"/>
<path d="M195.554 198.146L195.865 202.561H191.468L191.157 198.146H195.554Z" fill="#2C3137"/>
<path d="M191.155 198.146L191.467 202.561H187.053L186.742 198.146H191.155Z" fill="#2C3137"/>
<path d="M182.345 198.146L182.656 202.561H178.243L177.931 198.146H182.345Z" fill="#2C3137"/>
<path d="M288.382 202.561L288.693 206.96H284.28L283.985 202.561H288.382Z" fill="#2C3137"/>
<path d="M261.95 202.561L262.262 206.96H257.848L257.553 202.561H261.95Z" fill="#2C3137"/>
<path d="M244.329 202.561L244.641 206.96H240.227L239.916 202.561H244.329Z" fill="#2C3137"/>
<path d="M239.917 202.561L240.229 206.96H235.832L235.52 202.561H239.917Z" fill="#2C3137"/>
<path d="M231.106 202.561L231.418 206.96H227.021L226.709 202.561H231.106Z" fill="#2C3137"/>
<path d="M226.71 202.561L227.021 206.96H222.608L222.296 202.561H226.71Z" fill="#2C3137"/>
<path d="M222.296 202.561L222.607 206.96H218.21L217.899 202.561H222.296Z" fill="#2C3137"/>
<path d="M217.899 202.561L218.211 206.96H213.798L213.486 202.561H217.899Z" fill="#2C3137"/>
<path d="M209.089 202.561L209.4 206.96H204.987L204.675 202.561H209.089Z" fill="#2C3137"/>
<path d="M182.658 202.561L182.953 206.96H178.556L178.244 202.561H182.658Z" fill="#2C3137"/>
<path d="M288.694 206.96L289.006 211.376H284.592L284.281 206.96H288.694Z" fill="#2C3137"/>
<path d="M284.28 206.96L284.592 211.376H280.195L279.883 206.96H284.28Z" fill="#2C3137"/>
<path d="M279.884 206.96L280.195 211.376H275.782L275.47 206.96H279.884Z" fill="#2C3137"/>
<path d="M275.47 206.96L275.781 211.376H271.384L271.073 206.96H275.47Z" fill="#2C3137"/>
<path d="M271.073 206.96L271.385 211.376H266.971L266.66 206.96H271.073Z" fill="#2C3137"/>
<path d="M266.659 206.96L266.971 211.376H262.574L262.262 206.96H266.659Z" fill="#2C3137"/>
<path d="M262.262 206.96L262.574 211.376H258.161L257.849 206.96H262.262Z" fill="#2C3137"/>
<path d="M253.452 206.96L253.764 211.376H249.35L249.039 206.96H253.452Z" fill="#2C3137"/>
<path d="M244.641 206.96L244.953 211.376H240.54L240.228 206.96H244.641Z" fill="#2C3137"/>
<path d="M235.832 206.96L236.127 211.376H231.73L231.418 206.96H235.832Z" fill="#2C3137"/>
<path d="M227.021 206.96L227.316 211.376H222.919L222.608 206.96H227.021Z" fill="#2C3137"/>
<path d="M218.211 206.96L218.506 211.376H214.109L213.797 206.96H218.211Z" fill="#2C3137"/>
<path d="M209.4 206.96L209.695 211.376H205.298L204.987 206.96H209.4Z" fill="#2C3137"/>
<path d="M204.987 206.96L205.299 211.376H200.885L200.59 206.96H204.987Z" fill="#2C3137"/>
<path d="M200.589 206.96L200.885 211.376H196.488L196.176 206.96H200.589Z" fill="#2C3137"/>
<path d="M196.177 206.96L196.488 211.376H192.075L191.763 206.96H196.177Z" fill="#2C3137"/>
<path d="M191.762 206.96L192.074 211.376H187.677L187.365 206.96H191.762Z" fill="#2C3137"/>
<path d="M187.366 206.96L187.678 211.376H183.264L182.953 206.96H187.366Z" fill="#2C3137"/>
<path d="M182.952 206.96L183.264 211.376H178.867L178.555 206.96H182.952Z" fill="#2C3137"/>
<path d="M253.763 211.376L254.059 215.775H249.662L249.35 211.376H253.763Z" fill="#2C3137"/>
<path d="M236.126 211.376L236.438 215.775H232.041L231.729 211.376H236.126Z" fill="#2C3137"/>
<path d="M231.729 211.376L232.041 215.775H227.628L227.316 211.376H231.729Z" fill="#2C3137"/>
<path d="M218.507 211.376L218.818 215.775H214.421L214.11 211.376H218.507Z" fill="#2C3137"/>
<path d="M289.318 215.775L289.613 220.191H285.216L284.905 215.775H289.318Z" fill="#2C3137"/>
<path d="M284.903 215.775L285.215 220.191H280.801L280.506 215.775H284.903Z" fill="#2C3137"/>
<path d="M280.507 215.775L280.803 220.191H276.406L276.094 215.775H280.507Z" fill="#2C3137"/>
<path d="M271.68 215.775L271.992 220.191H267.595L267.283 215.775H271.68Z" fill="#2C3137"/>
<path d="M267.282 215.775L267.594 220.191H263.18L262.869 215.775H267.282Z" fill="#2C3137"/>
<path d="M262.87 215.775L263.182 220.191H258.785L258.473 215.775H262.87Z" fill="#2C3137"/>
<path d="M258.471 215.775L258.783 220.191H254.37L254.058 215.775H258.471Z" fill="#2C3137"/>
<path d="M254.059 215.775L254.371 220.191H249.974L249.662 215.775H254.059Z" fill="#2C3137"/>
<path d="M240.852 215.775L241.164 220.191H236.751L236.439 215.775H240.852Z" fill="#2C3137"/>
<path d="M236.438 215.775L236.75 220.191H232.353L232.041 215.775H236.438Z" fill="#2C3137"/>
<path d="M232.042 215.775L232.354 220.191H227.94L227.628 215.775H232.042Z" fill="#2C3137"/>
<path d="M218.817 215.775L219.129 220.191H214.716L214.42 215.775H218.817Z" fill="#2C3137"/>
<path d="M214.42 215.775L214.715 220.191H210.318L210.006 215.775H214.42Z" fill="#2C3137"/>
<path d="M210.007 215.775L210.318 220.191H205.905L205.61 215.775H210.007Z" fill="#2C3137"/>
<path d="M192.386 215.775L192.697 220.191H188.284L187.972 215.775H192.386Z" fill="#2C3137"/>
<path d="M280.802 220.19L281.113 224.59H276.716L276.405 220.19H280.802Z" fill="#2C3137"/>
<path d="M276.405 220.19L276.717 224.59H272.303L271.992 220.19H276.405Z" fill="#2C3137"/>
<path d="M271.991 220.19L272.303 224.59H267.906L267.594 220.19H271.991Z" fill="#2C3137"/>
<path d="M258.785 220.19L259.08 224.59H254.683L254.371 220.19H258.785Z" fill="#2C3137"/>
<path d="M254.37 220.19L254.682 224.59H250.268L249.973 220.19H254.37Z" fill="#2C3137"/>
<path d="M249.974 220.19L250.27 224.59H245.873L245.561 220.19H249.974Z" fill="#2C3137"/>
<path d="M241.164 220.19L241.459 224.59H237.062L236.75 220.19H241.164Z" fill="#2C3137"/>
<path d="M236.751 220.19L237.062 224.59H232.649L232.354 220.19H236.751Z" fill="#2C3137"/>
<path d="M219.13 220.19L219.441 224.59H215.028L214.716 220.19H219.13Z" fill="#2C3137"/>
<path d="M210.319 220.19L210.631 224.59H206.217L205.906 220.19H210.319Z" fill="#2C3137"/>
<path d="M183.887 220.19L184.199 224.59H179.786L179.474 220.19H183.887Z" fill="#2C3137"/>
<path d="M281.114 224.59L281.426 229.005H277.012L276.717 224.59H281.114Z" fill="#2C3137"/>
<path d="M263.493 224.59L263.805 229.005H259.391L259.08 224.59H263.493Z" fill="#2C3137"/>
<path d="M259.079 224.59L259.391 229.005H254.994L254.682 224.59H259.079Z" fill="#2C3137"/>
<path d="M245.872 224.59L246.184 229.005H241.77L241.458 224.59H245.872Z" fill="#2C3137"/>
<path d="M237.061 224.59L237.373 229.005H232.96L232.648 224.59H237.061Z" fill="#2C3137"/>
<path d="M228.251 224.59L228.562 229.005H224.149L223.837 224.59H228.251Z" fill="#2C3137"/>
<path d="M210.63 224.59L210.926 229.005H206.529L206.217 224.59H210.63Z" fill="#2C3137"/>
<path d="M206.218 224.59L206.529 229.005H202.116L201.821 224.59H206.218Z" fill="#2C3137"/>
<path d="M201.82 224.59L202.115 229.005H197.718L197.406 224.59H201.82Z" fill="#2C3137"/>
<path d="M193.009 224.59L193.305 229.005H188.908L188.596 224.59H193.009Z" fill="#2C3137"/>
<path d="M188.596 224.59L188.908 229.005H184.495L184.199 224.59H188.596Z" fill="#2C3137"/>
<path d="M184.199 224.59L184.494 229.005H180.097L179.785 224.59H184.199Z" fill="#2C3137"/>
<path d="M290.235 229.006L290.547 233.405H286.133L285.822 229.006H290.235Z" fill="#2C3137"/>
<path d="M285.823 229.006L286.135 233.405H281.738L281.426 229.006H285.823Z" fill="#2C3137"/>
<path d="M281.425 229.006L281.736 233.405H277.323L277.011 229.006H281.425Z" fill="#2C3137"/>
<path d="M272.614 229.006L272.926 233.405H268.512L268.201 229.006H272.614Z" fill="#2C3137"/>
<path d="M250.581 229.006L250.893 233.405H246.479L246.184 229.006H250.581Z" fill="#2C3137"/>
<path d="M246.183 229.006L246.479 233.405H242.082L241.77 229.006H246.183Z" fill="#2C3137"/>
<path d="M237.373 229.006L237.668 233.405H233.271L232.959 229.006H237.373Z" fill="#2C3137"/>
<path d="M232.96 229.006L233.271 233.405H228.858L228.563 229.006H232.96Z" fill="#2C3137"/>
<path d="M228.562 229.006L228.857 233.405H224.46L224.149 229.006H228.562Z" fill="#2C3137"/>
<path d="M224.149 229.006L224.461 233.405H220.048L219.736 229.006H224.149Z" fill="#2C3137"/>
<path d="M215.339 229.006L215.65 233.405H211.237L210.925 229.006H215.339Z" fill="#2C3137"/>
<path d="M210.927 229.006L211.238 233.405H206.841L206.53 229.006H210.927Z" fill="#2C3137"/>
<path d="M206.528 229.006L206.84 233.405H202.426L202.115 229.006H206.528Z" fill="#2C3137"/>
<path d="M188.907 229.006L189.219 233.405H184.805L184.494 229.006H188.907Z" fill="#2C3137"/>
<path d="M281.738 233.404L282.033 237.82H277.636L277.324 233.404H281.738Z" fill="#2C3137"/>
<path d="M277.323 233.404L277.635 237.82H273.221L272.926 233.404H277.323Z" fill="#2C3137"/>
<path d="M264.117 233.404L264.412 237.82H260.015L259.703 233.404H264.117Z" fill="#2C3137"/>
<path d="M255.29 233.404L255.602 237.82H251.205L250.893 233.404H255.29Z" fill="#2C3137"/>
<path d="M246.479 233.404L246.791 237.82H242.394L242.082 233.404H246.479Z" fill="#2C3137"/>
<path d="M233.272 233.404L233.584 237.82H229.171L228.859 233.404H233.272Z" fill="#2C3137"/>
<path d="M220.048 233.404L220.359 237.82H215.962L215.651 233.404H220.048Z" fill="#2C3137"/>
<path d="M215.651 233.404L215.963 237.82H211.549L211.238 233.404H215.651Z" fill="#2C3137"/>
<path d="M211.237 233.404L211.549 237.82H207.135L206.84 233.404H211.237Z" fill="#2C3137"/>
<path d="M206.841 233.404L207.137 237.82H202.74L202.428 233.404H206.841Z" fill="#2C3137"/>
<path d="M198.031 233.404L198.326 237.82H193.929L193.617 233.404H198.031Z" fill="#2C3137"/>
<path d="M189.22 233.404L189.516 237.82H185.119L184.807 233.404H189.22Z" fill="#2C3137"/>
<path d="M184.805 233.404L185.117 237.82H180.704L180.408 233.404H184.805Z" fill="#2C3137"/>
<path d="M268.825 237.82L269.137 242.22H264.723L264.412 237.82H268.825Z" fill="#2C3137"/>
<path d="M260.014 237.82L260.326 242.22H255.913L255.601 237.82H260.014Z" fill="#2C3137"/>
<path d="M255.6 237.82L255.912 242.22H251.515L251.203 237.82H255.6Z" fill="#2C3137"/>
<path d="M246.792 237.82L247.104 242.22H242.69L242.395 237.82H246.792Z" fill="#2C3137"/>
<path d="M237.981 237.82L238.293 242.22H233.88L233.584 237.82H237.981Z" fill="#2C3137"/>
<path d="M220.36 237.82L220.672 242.22H216.258L215.963 237.82H220.36Z" fill="#2C3137"/>
<path d="M215.963 237.82L216.258 242.22H211.861L211.549 237.82H215.963Z" fill="#2C3137"/>
<path d="M211.55 237.82L211.861 242.22H207.448L207.136 237.82H211.55Z" fill="#2C3137"/>
<path d="M198.325 237.82L198.637 242.22H194.24L193.928 237.82H198.325Z" fill="#2C3137"/>
<path d="M185.118 237.82L185.43 242.22H181.016L180.705 237.82H185.118Z" fill="#2C3137"/>
<path d="M291.155 242.22L291.467 246.635H287.053L286.758 242.22H291.155Z" fill="#2C3137"/>
<path d="M277.947 242.22L278.242 246.635H273.845L273.533 242.22H277.947Z" fill="#2C3137"/>
<path d="M273.534 242.22L273.846 246.635H269.432L269.137 242.22H273.534Z" fill="#2C3137"/>
<path d="M269.136 242.22L269.432 246.635H265.035L264.723 242.22H269.136Z" fill="#2C3137"/>
<path d="M264.723 242.22L265.035 246.635H260.622L260.326 242.22H264.723Z" fill="#2C3137"/>
<path d="M260.326 242.22L260.621 246.635H256.224L255.912 242.22H260.326Z" fill="#2C3137"/>
<path d="M251.515 242.22L251.811 246.635H247.414L247.102 242.22H251.515Z" fill="#2C3137"/>
<path d="M247.102 242.22L247.414 246.635H243.001L242.689 242.22H247.102Z" fill="#2C3137"/>
<path d="M233.88 242.22L234.191 246.635H229.794L229.483 242.22H233.88Z" fill="#2C3137"/>
<path d="M220.671 242.22L220.982 246.635H216.569L216.257 242.22H220.671Z" fill="#2C3137"/>
<path d="M216.259 242.22L216.57 246.635H212.173L211.862 242.22H216.259Z" fill="#2C3137"/>
<path d="M211.86 242.22L212.172 246.635H207.758L207.447 242.22H211.86Z" fill="#2C3137"/>
<path d="M207.448 242.22L207.76 246.635H203.346L203.051 242.22H207.448Z" fill="#2C3137"/>
<path d="M194.24 242.22L194.535 246.635H190.138L189.826 242.22H194.24Z" fill="#2C3137"/>
<path d="M189.827 242.22L190.139 246.635H185.725L185.43 242.22H189.827Z" fill="#2C3137"/>
<path d="M185.429 242.22L185.725 246.635H181.328L181.016 242.22H185.429Z" fill="#2C3137"/>
<path d="M287.054 246.636L287.365 251.035H282.968L282.656 246.636H287.054Z" fill="#2C3137"/>
<path d="M282.655 246.636L282.967 251.035H278.553L278.242 246.636H282.655Z" fill="#2C3137"/>
<path d="M269.432 246.636L269.744 251.035H265.347L265.035 246.636H269.432Z" fill="#2C3137"/>
<path d="M260.622 246.636L260.934 251.035H256.537L256.225 246.636H260.622Z" fill="#2C3137"/>
<path d="M251.811 246.636L252.123 251.035H247.726L247.414 246.636H251.811Z" fill="#2C3137"/>
<path d="M247.415 246.636L247.727 251.035H243.313L243.001 246.636H247.415Z" fill="#2C3137"/>
<path d="M234.19 246.636L234.502 251.035H230.089L229.793 246.636H234.19Z" fill="#2C3137"/>
<path d="M225.38 246.636L225.691 251.035H221.278L220.983 246.636H225.38Z" fill="#2C3137"/>
<path d="M212.173 246.636L212.469 251.035H208.072L207.76 246.636H212.173Z" fill="#2C3137"/>
<path d="M203.347 246.636L203.658 251.035H199.261L198.949 246.636H203.347Z" fill="#2C3137"/>
<path d="M190.137 246.636L190.449 251.035H186.036L185.724 246.636H190.137Z" fill="#2C3137"/>
<path d="M291.778 251.034L292.09 255.45H287.676L287.365 251.034H291.778Z" fill="#2C3137"/>
<path d="M282.968 251.034L283.279 255.45H278.866L278.554 251.034H282.968Z" fill="#2C3137"/>
<path d="M269.743 251.034L270.055 255.45H265.641L265.346 251.034H269.743Z" fill="#2C3137"/>
<path d="M265.347 251.034L265.643 255.45H261.246L260.934 251.034H265.347Z" fill="#2C3137"/>
<path d="M260.934 251.034L261.246 255.45H256.833L256.537 251.034H260.934Z" fill="#2C3137"/>
<path d="M234.503 251.034L234.814 255.45H230.401L230.089 251.034H234.503Z" fill="#2C3137"/>
<path d="M221.278 251.034L221.59 255.45H217.193L216.881 251.034H221.278Z" fill="#2C3137"/>
<path d="M216.882 251.034L217.193 255.45H212.78L212.468 251.034H216.882Z" fill="#2C3137"/>
<path d="M212.468 251.034L212.779 255.45H208.382L208.071 251.034H212.468Z" fill="#2C3137"/>
<path d="M208.071 251.034L208.383 255.45H203.969L203.658 251.034H208.071Z" fill="#2C3137"/>
<path d="M203.657 251.034L203.969 255.45H199.572L199.26 251.034H203.657Z" fill="#2C3137"/>
<path d="M199.261 251.034L199.572 255.45H195.159L194.847 251.034H199.261Z" fill="#2C3137"/>
<path d="M256.831 255.45L257.143 259.849H252.746L252.434 255.45H256.831Z" fill="#2C3137"/>
<path d="M248.022 255.45L248.334 259.849H243.937L243.625 255.45H248.022Z" fill="#2C3137"/>
<path d="M239.212 255.45L239.523 259.849H235.126L234.815 255.45H239.212Z" fill="#2C3137"/>
<path d="M221.591 255.45L221.902 259.849H217.489L217.194 255.45H221.591Z" fill="#2C3137"/>
<path d="M203.97 255.45L204.281 259.849H199.868L199.573 255.45H203.97Z" fill="#2C3137"/>
<path d="M199.572 255.45L199.867 259.849H195.47L195.158 255.45H199.572Z" fill="#2C3137"/>
<path d="M190.745 255.45L191.057 259.849H186.66L186.348 255.45H190.745Z" fill="#2C3137"/>
<path d="M186.348 255.45L186.66 259.849H182.247L181.935 255.45H186.348Z" fill="#2C3137"/>
<path d="M292.386 259.85L292.697 264.265H288.3L287.989 259.85H292.386Z" fill="#2C3137"/>
<path d="M287.989 259.85L288.301 264.265H283.887L283.576 259.85H287.989Z" fill="#2C3137"/>
<path d="M283.575 259.85L283.887 264.265H279.49L279.178 259.85H283.575Z" fill="#2C3137"/>
<path d="M279.179 259.85L279.49 264.265H275.077L274.765 259.85H279.179Z" fill="#2C3137"/>
<path d="M274.764 259.85L275.076 264.265H270.663L270.367 259.85H274.764Z" fill="#2C3137"/>
<path d="M270.367 259.85L270.662 264.265H266.265L265.953 259.85H270.367Z" fill="#2C3137"/>
<path d="M265.954 259.85L266.266 264.265H261.852L261.557 259.85H265.954Z" fill="#2C3137"/>
<path d="M257.143 259.85L257.455 264.265H253.042L252.746 259.85H257.143Z" fill="#2C3137"/>
<path d="M252.746 259.85L253.041 264.265H248.644L248.332 259.85H252.746Z" fill="#2C3137"/>
<path d="M248.333 259.85L248.645 264.265H244.231L243.936 259.85H248.333Z" fill="#2C3137"/>
<path d="M235.127 259.85L235.422 264.265H231.025L230.713 259.85H235.127Z" fill="#2C3137"/>
<path d="M230.712 259.85L231.023 264.265H226.61L226.298 259.85H230.712Z" fill="#2C3137"/>
<path d="M226.3 259.85L226.611 264.265H222.214L221.903 259.85H226.3Z" fill="#2C3137"/>
<path d="M221.901 259.85L222.213 264.265H217.799L217.488 259.85H221.901Z" fill="#2C3137"/>
<path d="M213.091 259.85L213.402 264.265H208.989L208.677 259.85H213.091Z" fill="#2C3137"/>
<path d="M204.28 259.85L204.592 264.265H200.178L199.867 259.85H204.28Z" fill="#2C3137"/>
<path d="M199.868 259.85L200.18 264.265H195.783L195.471 259.85H199.868Z" fill="#2C3137"/>
<path d="M191.057 259.85L191.369 264.265H186.956L186.66 259.85H191.057Z" fill="#2C3137"/>
<path d="M186.66 259.85L186.955 264.265H182.558L182.246 259.85H186.66Z" fill="#2C3137"/>
<path d="M292.696 264.265L293.008 268.664H288.594L288.299 264.265H292.696Z" fill="#2C3137"/>
<path d="M266.266 264.265L266.578 268.664H262.165L261.853 264.265H266.266Z" fill="#2C3137"/>
<path d="M257.456 264.265L257.768 268.664H253.354L253.042 264.265H257.456Z" fill="#2C3137"/>
<path d="M239.835 264.265L240.146 268.664H235.733L235.421 264.265H239.835Z" fill="#2C3137"/>
<path d="M235.421 264.265L235.732 268.664H231.335L231.024 264.265H235.421Z" fill="#2C3137"/>
<path d="M231.024 264.265L231.336 268.664H226.923L226.611 264.265H231.024Z" fill="#2C3137"/>
<path d="M222.214 264.265L222.51 268.664H218.113L217.801 264.265H222.214Z" fill="#2C3137"/>
<path d="M204.593 264.265L204.889 268.664H200.492L200.18 264.265H204.593Z" fill="#2C3137"/>
<path d="M200.179 264.265L200.49 268.664H196.077L195.782 264.265H200.179Z" fill="#2C3137"/>
<path d="M191.368 264.265L191.68 268.664H187.266L186.955 264.265H191.368Z" fill="#2C3137"/>
<path d="M293.009 268.664L293.32 273.08H288.907L288.595 268.664H293.009Z" fill="#2C3137"/>
<path d="M284.198 268.664L284.51 273.08H280.096L279.785 268.664H284.198Z" fill="#2C3137"/>
<path d="M279.784 268.664L280.096 273.08H275.699L275.387 268.664H279.784Z" fill="#2C3137"/>
<path d="M275.387 268.664L275.699 273.08H271.286L270.974 268.664H275.387Z" fill="#2C3137"/>
<path d="M266.577 268.664L266.889 273.08H262.475L262.164 268.664H266.577Z" fill="#2C3137"/>
<path d="M257.767 268.664L258.062 273.08H253.665L253.354 268.664H257.767Z" fill="#2C3137"/>
<path d="M244.544 268.664L244.855 273.08H240.442L240.147 268.664H244.544Z" fill="#2C3137"/>
<path d="M240.146 268.664L240.441 273.08H236.044L235.733 268.664H240.146Z" fill="#2C3137"/>
<path d="M235.733 268.664L236.045 273.08H231.632L231.336 268.664H235.733Z" fill="#2C3137"/>
<path d="M231.336 268.664L231.631 273.08H227.234L226.922 268.664H231.336Z" fill="#2C3137"/>
<path d="M222.509 268.664L222.82 273.08H218.423L218.112 268.664H222.509Z" fill="#2C3137"/>
<path d="M218.112 268.664L218.424 273.08H214.01L213.699 268.664H218.112Z" fill="#2C3137"/>
<path d="M213.698 268.664L214.01 273.08H209.613L209.301 268.664H213.698Z" fill="#2C3137"/>
<path d="M209.302 268.664L209.613 273.08H205.2L204.888 268.664H209.302Z" fill="#2C3137"/>
<path d="M204.887 268.664L205.199 273.08H200.802L200.49 268.664H204.887Z" fill="#2C3137"/>
<path d="M200.491 268.664L200.803 273.08H196.389L196.078 268.664H200.491Z" fill="#2C3137"/>
<path d="M191.68 268.664L191.992 273.08H187.579L187.267 268.664H191.68Z" fill="#2C3137"/>
<path d="M293.32 273.08L293.615 277.496H289.218L288.907 273.08H293.32Z" fill="#2C3137"/>
<path d="M284.509 273.08L284.805 277.496H280.408L280.096 273.08H284.509Z" fill="#2C3137"/>
<path d="M280.096 273.08L280.408 277.496H275.995L275.699 273.08H280.096Z" fill="#2C3137"/>
<path d="M275.699 273.08L275.994 277.496H271.597L271.285 273.08H275.699Z" fill="#2C3137"/>
<path d="M266.888 273.08L267.184 277.496H262.787L262.475 273.08H266.888Z" fill="#2C3137"/>
<path d="M253.665 273.08L253.977 277.496H249.563L249.251 273.08H253.665Z" fill="#2C3137"/>
<path d="M249.253 273.08L249.564 277.496H245.167L244.856 273.08H249.253Z" fill="#2C3137"/>
<path d="M240.442 273.08L240.754 277.496H236.357L236.045 273.08H240.442Z" fill="#2C3137"/>
<path d="M227.233 273.08L227.545 277.496H223.132L222.82 273.08H227.233Z" fill="#2C3137"/>
<path d="M222.821 273.08L223.133 277.496H218.736L218.424 273.08H222.821Z" fill="#2C3137"/>
<path d="M209.613 273.08L209.908 277.496H205.511L205.199 273.08H209.613Z" fill="#2C3137"/>
<path d="M205.2 273.08L205.512 277.496H201.098L200.803 273.08H205.2Z" fill="#2C3137"/>
<path d="M200.802 273.08L201.098 277.496H196.701L196.389 273.08H200.802Z" fill="#2C3137"/>
<path d="M196.389 273.08L196.701 277.496H192.288L191.992 273.08H196.389Z" fill="#2C3137"/>
<path d="M293.616 277.495L293.928 281.894H289.531L289.219 277.495H293.616Z" fill="#2C3137"/>
<path d="M284.805 277.495L285.117 281.894H280.72L280.408 277.495H284.805Z" fill="#2C3137"/>
<path d="M280.409 277.495L280.721 281.894H276.307L275.996 277.495H280.409Z" fill="#2C3137"/>
<path d="M275.995 277.495L276.307 281.894H271.91L271.598 277.495H275.995Z" fill="#2C3137"/>
<path d="M267.184 277.495L267.496 281.894H263.099L262.787 277.495H267.184Z" fill="#2C3137"/>
<path d="M258.374 277.495L258.686 281.894H254.289L253.977 277.495H258.374Z" fill="#2C3137"/>
<path d="M236.357 277.495L236.652 281.894H232.255L231.944 277.495H236.357Z" fill="#2C3137"/>
<path d="M227.546 277.495L227.842 281.894H223.445L223.133 277.495H227.546Z" fill="#2C3137"/>
<path d="M205.512 277.495L205.824 281.894H201.411L201.099 277.495H205.512Z" fill="#2C3137"/>
<path d="M187.891 277.495L188.203 281.894H183.79L183.478 277.495H187.891Z" fill="#2C3137"/>
<path d="M293.927 281.895L294.238 286.31H289.825L289.53 281.895H293.927Z" fill="#2C3137"/>
<path d="M267.497 281.895L267.809 286.31H263.395L263.1 281.895H267.497Z" fill="#2C3137"/>
<path d="M258.686 281.895L258.998 286.31H254.585L254.289 281.895H258.686Z" fill="#2C3137"/>
<path d="M254.289 281.895L254.584 286.31H250.187L249.875 281.895H254.289Z" fill="#2C3137"/>
<path d="M245.462 281.895L245.773 286.31H241.376L241.065 281.895H245.462Z" fill="#2C3137"/>
<path d="M236.651 281.895L236.963 286.31H232.566L232.254 281.895H236.651Z" fill="#2C3137"/>
<path d="M232.255 281.895L232.566 286.31H228.153L227.841 281.895H232.255Z" fill="#2C3137"/>
<path d="M227.841 281.895L228.152 286.31H223.755L223.444 281.895H227.841Z" fill="#2C3137"/>
<path d="M223.444 281.895L223.756 286.31H219.342L219.031 281.895H223.444Z" fill="#2C3137"/>
<path d="M214.634 281.895L214.945 286.31H210.532L210.22 281.895H214.634Z" fill="#2C3137"/>
<path d="M205.824 281.895L206.119 286.31H201.722L201.41 281.895H205.824Z" fill="#2C3137"/>
<path d="M201.409 281.895L201.721 286.31H197.307L197.012 281.895H201.409Z" fill="#2C3137"/>
<path d="M192.6 281.895L192.912 286.31H188.499L188.203 281.895H192.6Z" fill="#2C3137"/>
<path d="M294.239 286.311L294.551 290.71H290.137L289.826 286.311H294.239Z" fill="#2C3137"/>
<path d="M289.825 286.311L290.137 290.71H285.74L285.428 286.311H289.825Z" fill="#2C3137"/>
<path d="M285.429 286.311L285.74 290.71H281.327L281.015 286.311H285.429Z" fill="#2C3137"/>
<path d="M281.014 286.311L281.326 290.71H276.929L276.617 286.311H281.014Z" fill="#2C3137"/>
<path d="M276.618 286.311L276.93 290.71H272.516L272.205 286.311H276.618Z" fill="#2C3137"/>
<path d="M272.204 286.311L272.516 290.71H268.119L267.807 286.311H272.204Z" fill="#2C3137"/>
<path d="M267.807 286.311L268.119 290.71H263.706L263.394 286.311H267.807Z" fill="#2C3137"/>
<path d="M258.997 286.311L259.309 290.71H254.895L254.583 286.311H258.997Z" fill="#2C3137"/>
<path d="M254.585 286.311L254.896 290.71H250.499L250.188 286.311H254.585Z" fill="#2C3137"/>
<path d="M250.186 286.311L250.498 290.71H246.085L245.773 286.311H250.186Z" fill="#2C3137"/>
<path d="M245.774 286.311L246.086 290.71H241.673L241.377 286.311H245.774Z" fill="#2C3137"/>
<path d="M241.377 286.311L241.672 290.71H237.275L236.963 286.311H241.377Z" fill="#2C3137"/>
<path d="M236.964 286.311L237.275 290.71H232.862L232.567 286.311H236.964Z" fill="#2C3137"/>
<path d="M223.755 286.311L224.051 290.71H219.654L219.342 286.311H223.755Z" fill="#2C3137"/>
<path d="M219.343 286.311L219.654 290.71H215.241L214.946 286.311H219.343Z" fill="#2C3137"/>
<path d="M210.532 286.311L210.844 290.71H206.43L206.119 286.311H210.532Z" fill="#2C3137"/>
<path d="M192.911 286.311L193.223 290.71H188.809L188.498 286.311H192.911Z" fill="#2C3137"/>
<path d="M188.497 286.311L188.809 290.71H184.412L184.1 286.311H188.497Z" fill="#2C3137"/>
<path d="M411.447 558.046L398.65 554.96L405.262 525.216L418.043 528.302L411.447 558.046Z" fill="#FF9528"/>
<path d="M399.127 551.874L413.105 555.255C413.614 555.37 413.975 555.846 413.958 556.388L413.483 568.272C413.433 569.372 412.498 570.209 411.399 570.16C411.268 570.16 411.153 570.144 411.038 570.111C406.034 568.798 398.831 566.746 392.482 565.219C385.083 563.43 384.377 563.693 375.714 561.592C370.464 560.328 370.415 554.697 372.745 554.746C383.327 554.976 385.755 555.321 395.813 552.087C396.879 551.726 398.028 551.644 399.127 551.89V551.874Z" fill="#2C3137"/>
<path opacity="0.2" d="M405.246 525.232L401.85 540.564L414.63 543.65L418.043 528.318L405.246 525.232Z" fill="black"/>
<path d="M397.536 551.036C397.634 551.036 397.732 551.004 397.798 550.922C397.896 550.79 397.88 550.61 397.749 550.495C397.257 550.052 392.86 546.26 391.12 546.769C390.792 546.851 390.53 547.097 390.431 547.425C390.218 547.95 390.284 548.541 390.595 549.001C391.35 549.822 392.367 550.363 393.467 550.528C394.796 550.823 396.157 550.987 397.519 551.02L397.536 551.036ZM396.715 550.38C393.795 550.183 391.76 549.559 391.186 548.689C390.973 548.377 390.924 547.983 391.088 547.639C391.121 547.507 391.219 547.392 391.35 547.36C391.547 547.327 391.744 547.343 391.941 547.392C393.696 548.115 395.321 549.116 396.732 550.38H396.715Z" fill="#6F868E"/>
<path d="M397.715 551.07C397.814 551.02 397.879 550.922 397.912 550.823C397.929 550.676 398.454 547.212 397.24 545.521C396.879 545.012 396.337 544.684 395.73 544.618C394.877 544.487 394.483 544.848 394.401 545.177C393.794 546.555 396.042 549.97 397.42 551.02L397.535 551.053C397.535 551.053 397.666 551.07 397.732 551.053L397.715 551.07ZM396.731 545.899C397.371 547.228 397.568 548.706 397.322 550.167C396.009 548.87 394.549 546.244 394.893 545.439C394.926 545.374 395.041 545.111 395.566 545.242L395.747 545.292C396.14 545.374 396.485 545.587 396.715 545.915L396.731 545.899Z" fill="#6F868E"/>
<path d="M509.871 555.485L496.877 557.521L491.61 527.514L504.605 525.479L509.871 555.485Z" fill="#FF9528"/>
<path d="M496.762 555.994L510.97 553.762C511.495 553.68 512.003 553.975 512.184 554.484L516.269 565.646C516.63 566.68 516.105 567.813 515.071 568.174C514.957 568.223 514.842 568.24 514.71 568.273C509.575 568.978 502.143 569.832 495.695 570.85C488.181 572.032 487.623 572.54 478.813 573.919C473.48 574.756 471.282 569.586 473.448 568.732C483.324 564.907 485.703 564.284 493.759 557.455C494.612 556.7 495.646 556.207 496.745 555.994H496.762Z" fill="#2C3137"/>
<path opacity="0.2" d="M491.61 527.531L494.661 544.947L507.672 542.911L504.604 525.495L491.61 527.531Z" fill="black"/>
<path d="M494.958 555.847C495.056 555.814 495.138 555.748 495.171 555.65C495.22 555.485 495.122 555.321 494.974 555.272C494.35 555.059 488.838 553.237 487.427 554.369C487.148 554.566 487 554.911 487.033 555.239C487.033 555.797 487.312 556.323 487.788 556.634C488.805 557.111 489.937 557.209 491.02 556.946C492.365 556.7 493.678 556.339 494.958 555.847ZM493.957 555.551C491.184 556.487 489.067 556.684 488.198 556.109C487.886 555.912 487.689 555.551 487.706 555.19C487.689 555.059 487.739 554.927 487.837 554.829C488.001 554.73 488.198 554.665 488.395 554.632C490.282 554.632 492.168 554.944 493.957 555.568V555.551Z" fill="#6F868E"/>
<path d="M495.154 555.797C495.22 555.715 495.252 555.6 495.236 555.502C495.203 555.37 494.366 551.956 492.595 550.856C492.07 550.528 491.446 550.429 490.855 550.61C490.035 550.823 489.789 551.299 489.838 551.628C489.805 553.138 493.185 555.42 494.859 555.879H494.99C494.99 555.879 495.121 555.83 495.17 555.797H495.154ZM492.266 551.398C493.366 552.383 494.12 553.68 494.449 555.108C492.742 554.402 490.38 552.547 490.396 551.66C490.396 551.578 490.396 551.316 490.954 551.217L491.134 551.184C491.528 551.102 491.922 551.184 492.266 551.398Z" fill="#6F868E"/>
<path d="M445.818 365.202C435.564 365.76 426.113 366.417 415.843 366.072C414.826 354.089 416.384 337.133 420.584 325.872C429.067 321.341 438.993 324.329 448.082 327.431L445.818 365.202Z" fill="#6F868E"/>
<path opacity="0.2" d="M445.818 365.202C435.564 365.76 426.113 366.417 415.843 366.072C414.826 354.089 416.384 337.133 420.584 325.872C429.067 321.341 438.993 324.329 448.082 327.431L445.818 365.202Z" fill="black"/>
<path opacity="0.2" d="M448.082 327.596L444.637 329.089L439.829 362.018L415.662 363.479L415.843 366.237L445.818 365.367L448.082 327.596Z" fill="black"/>
<path opacity="0.2" d="M420.584 325.872L419.124 330.353L427.541 333.489L441.355 331.322L448.082 327.431C448.082 327.431 442.274 324.427 433.611 323.557C424.932 322.671 420.584 325.872 420.584 325.872Z" fill="white"/>
<path d="M430.643 271.521L411.874 429.861L397.945 529.713C397.617 532.405 399.224 534.835 401.603 535.196L417.091 539.135C419.339 539.464 421.505 537.822 422.095 535.327C427.05 514.693 440.241 474.427 442.735 434.884C442.735 434.884 469.068 334.013 474.384 302.808L476.008 274.607L430.643 271.538V271.521Z" fill="#6F868E"/>
<path opacity="0.2" d="M453.907 309.752C453.907 309.752 449.117 354.647 453.907 391.138C453.907 391.138 463.981 349.263 468.559 332.733L453.907 309.752Z" fill="black"/>
<path d="M450.118 263.807L465.983 442.385L486.065 537.822C486.557 540.35 488.755 541.91 491.036 541.368L508.066 537.822C510.265 537.281 511.807 534.966 511.61 532.455C510.002 511.87 510.954 478.236 500.896 441.877C500.896 441.877 499.764 318.764 495.482 264.119L450.134 263.807H450.118Z" fill="#6F868E"/>
<path d="M351.053 183.34L347.608 178.58L335.172 186.229C337.698 188.38 340.438 190.235 343.358 191.811C345.36 192.828 347.772 192.598 349.544 191.203L350.02 190.842C352.333 189.02 352.792 185.704 351.053 183.34Z" fill="#FF9A28"/>
<path d="M337.551 171.537L331.054 182.798L335.172 186.245L347.592 178.579L337.551 171.537Z" fill="#FF9A28"/>
<path d="M436.501 196.8C422.605 200.395 402.096 203.185 397.141 203.842C390.595 204.696 362.605 198.261 350.53 196.16C349.841 196.045 349.102 195.897 348.627 195.372C348.02 194.699 348.118 193.665 348.233 192.778L349.709 182.273C349.857 181.271 350.021 180.188 350.743 179.482C351.793 178.448 353.483 178.612 354.943 178.858C370.858 181.534 393.679 183.192 393.679 183.192C404.967 181.567 417.059 176.872 427.379 172.194C458.174 158.29 443.326 195.044 436.485 196.816L436.501 196.8Z" fill="#2C3137"/>
<path opacity="0.1" d="M436.501 196.8C422.605 200.395 402.096 203.185 397.141 203.842C390.595 204.696 362.605 198.261 350.53 196.16C349.841 196.045 349.102 195.897 348.627 195.372C348.02 194.699 348.118 193.665 348.233 192.778L349.709 182.273C349.857 181.271 350.021 180.188 350.743 179.482C351.793 178.448 353.483 178.612 354.943 178.858C370.858 181.534 393.679 183.192 393.679 183.192C404.967 181.567 417.059 176.872 427.379 172.194C458.174 158.29 443.326 195.044 436.485 196.816L436.501 196.8Z" fill="black"/>
<path d="M326.821 192.548L340.947 189.741L332.301 160.03L318.175 162.837L326.821 192.548Z" fill="#6F868E"/>
<path d="M315.271 161.705L324.951 194.946C325.197 195.75 326.018 196.242 326.838 196.078L327.658 195.914C326.838 196.078 326.018 195.569 325.788 194.782L316.108 161.541C315.845 160.622 316.42 159.67 317.355 159.489L316.534 159.653C315.599 159.834 315.009 160.786 315.271 161.705Z" fill="#6F868E"/>
<path opacity="0.3" d="M315.271 161.705L324.951 194.946C325.197 195.75 326.018 196.242 326.838 196.078L327.658 195.914C326.838 196.078 326.018 195.569 325.788 194.782L316.108 161.541C315.845 160.622 316.42 159.67 317.355 159.489L316.534 159.653C315.599 159.834 315.009 160.786 315.271 161.705Z" fill="black"/>
<path d="M317.355 159.472L331.448 156.665C332.269 156.501 333.089 156.994 333.319 157.798L342.999 191.038C343.261 191.958 342.687 192.91 341.752 193.09L327.658 195.897C326.838 196.061 326.018 195.552 325.788 194.765L316.108 161.524C315.846 160.605 316.42 159.653 317.355 159.472ZM326.822 192.548L340.948 189.742L332.302 160.03L318.175 162.837L326.822 192.548Z" fill="#6F868E"/>
<path d="M318.175 162.837L326.821 192.548L340.947 189.741L332.301 160.03L318.175 162.837Z" fill="#6F868E"/>
<path opacity="0.7" d="M318.175 162.837L326.821 192.548L340.947 189.741L332.301 160.03L318.175 162.837Z" fill="white"/>
<path d="M341.391 174.229L338.225 170.848C337.913 170.52 337.372 170.634 337.224 171.061L336.781 172.342C336.502 173.146 336.617 174.032 337.076 174.755L341.916 182.338L347.609 178.563L341.408 174.213L341.391 174.229Z" fill="#FF9A28"/>
<path d="M428.264 215.153C428.018 258.373 425.442 274.591 431.857 274.591C443.785 274.591 487.361 276.167 489.904 275.806C508.706 273.13 497.172 230.271 497.435 223.557C497.599 219.42 497.944 215.284 498.485 211.229C498.813 208.849 499.289 206.321 500.109 203.99C501.487 200.034 503.719 196.604 507.558 195.34C510.987 194.191 514.777 195.192 518.386 194.962C521.996 194.732 526.147 192.188 525.704 188.593C525.474 186.869 524.276 185.507 523.095 184.243C517.828 178.629 511.873 173.048 509.806 165.628C508.92 162.51 508.739 159.095 506.984 156.37C499.732 145.208 482.456 156.091 473.809 159.259C468.28 161.295 463.26 164.332 457.763 166.4C452.005 168.567 441.882 169.076 434.499 169.371C427.854 169.634 428.264 215.169 428.264 215.169V215.153Z" fill="#2C3137"/>
<path d="M477.205 144.01C475.384 151.298 475.794 163.166 475.745 171.374C475.696 179.007 456.024 185.326 456.024 185.326C456.024 185.326 447.919 178.465 454.203 173.343C459.469 169.043 460.208 164.052 459.026 158.012L477.205 144.01Z" fill="#FF9A28"/>
<path opacity="0.2" d="M469.773 149.771L459.01 158.028C459.354 159.703 459.568 161.41 459.633 163.117C463.555 162.756 469.116 158.767 469.74 154.712C470.052 153.087 470.068 151.413 469.773 149.771Z" fill="black"/>
<path d="M478.994 130.336C477.599 142.664 477.402 149.952 470.84 155.976C460.963 165.037 445.984 158.586 443.67 146.078C441.587 134.834 444.228 116.547 456.582 112.263C465.376 109.144 475.04 113.757 478.157 122.555C479.043 125.034 479.322 127.693 478.994 130.32V130.336Z" fill="#FF9A28"/>
<path d="M443.013 142.418C442.373 147.227 441.553 155.73 440.126 160.54C448.559 160.524 456.565 160.983 464.998 160.967C466.163 160.08 476.483 151.052 475.728 150.281C472.89 147.342 469.379 144.026 472.709 140.711C473.71 139.709 473.185 137.887 473.333 136.476C470.281 141.072 458.632 144.388 453.218 143.403L443.03 142.451L443.013 142.418Z" fill="#2C3137"/>
<path d="M456.221 144.929C458.01 145.569 455.418 148.212 452.579 148.36H447.51C446.263 148.36 445.032 147.753 444.458 146.669C443.933 145.701 443.966 144.667 444.77 144.371C444.77 144.371 445.278 144.026 448.56 144.026C448.56 144.026 454.302 144.191 456.238 144.946L456.221 144.929Z" fill="#FF9A28"/>
<path d="M446.886 146.029C449.708 146.899 452.792 146.341 455.122 144.535C455.237 144.404 455.22 144.19 455.073 144.092C454.974 144.01 454.827 143.993 454.712 144.059C452.513 145.733 449.642 146.242 447.001 145.438C446.837 145.389 446.656 145.487 446.607 145.668C446.574 145.832 446.672 145.996 446.837 146.029C446.837 146.029 446.853 146.029 446.869 146.029H446.886Z" fill="#2C3137"/>
<path d="M449.067 139.02C451.757 138.675 454.333 139.775 456.729 140.792C459.14 141.81 461.815 142.779 464.473 142.188C462.225 143.878 459.665 144.88 456.778 145.241C454.071 145.586 451.593 145.208 448.443 143.731C445.49 145.684 440.978 145.848 438.402 144.634C441.52 145.389 442.783 141.121 446.015 139.611C446.721 139.282 448.296 139.102 449.067 139.003V139.02Z" fill="#2C3137"/>
<path opacity="0.1" d="M449.067 139.02C451.757 138.675 454.333 139.775 456.729 140.792C459.14 141.81 461.815 142.779 464.473 142.188C462.225 143.878 459.665 144.88 456.778 145.241C454.071 145.586 451.593 145.208 448.443 143.731C445.49 145.684 440.978 145.848 438.402 144.634C441.52 145.389 442.783 141.121 446.015 139.611C446.721 139.282 448.296 139.102 449.067 139.003V139.02Z" fill="black"/>
<path d="M468.395 127.463C467.607 128.825 467.197 130.418 467.246 132.01C468.526 133.29 469.724 134.751 470.659 136.294C472.053 138.592 472.496 141.481 474.285 143.484C474.219 143.451 474.695 143.73 474.613 143.697C476.057 141.055 477.353 138.346 478.518 135.572C475.728 132.387 472.152 129.383 468.395 127.463Z" fill="#2C3137"/>
<path d="M483.587 142.368C482.225 145.175 479.797 147.326 476.844 148.36C472.922 149.689 470.74 146.242 471.659 142.385C472.463 138.954 475.482 134.128 479.502 134.456C483.521 134.785 485.211 138.938 483.587 142.368Z" fill="#FF9A28"/>
<path d="M458.008 132.848C458.025 133.849 457.385 134.637 456.729 134.604C456.056 134.571 455.58 133.734 455.629 132.733C455.695 131.731 456.269 130.927 456.909 130.96C457.565 130.993 458.058 131.83 458.008 132.848Z" fill="#2C3137"/>
<path d="M447.492 132.256C447.509 133.274 446.853 134.062 446.213 134.029C445.556 133.996 445.064 133.159 445.114 132.141C445.163 131.123 445.737 130.352 446.393 130.385C447.066 130.418 447.525 131.255 447.492 132.256Z" fill="#2C3137"/>
<path d="M450.807 131.633C448.903 134.341 446.738 135.622 444.178 137.723C445.524 139.742 448.838 139.512 448.838 139.512L450.807 131.633Z" fill="#B07249"/>
<path d="M461.732 129.351C461.519 129.383 461.289 129.285 461.174 129.104C460.37 127.824 458.992 127.02 457.483 126.921C457.155 126.921 456.892 126.675 456.876 126.347C456.876 126.018 457.122 125.756 457.45 125.739C459.353 125.821 461.109 126.823 462.142 128.431C462.323 128.694 462.257 129.072 461.995 129.252C461.929 129.318 461.831 129.351 461.732 129.351Z" fill="#2C3137"/>
<path d="M443.998 128.777C443.883 128.809 443.769 128.826 443.654 128.777C443.358 128.612 443.26 128.251 443.408 127.956C444.31 126.249 445.984 125.083 447.903 124.837C448.231 124.837 448.51 125.067 448.527 125.379C448.543 125.707 448.297 125.986 447.985 126.002C446.492 126.232 445.196 127.168 444.523 128.514C444.408 128.678 444.212 128.76 444.015 128.744L443.998 128.777Z" fill="#2C3137"/>
<path opacity="0.4" d="M488.509 185.392C488.509 185.392 487.853 207.585 492.25 217.86C494.006 221.964 495.696 224.033 497.09 225.05C497.746 220.947 498.583 216.892 499.6 212.936C500.207 210.605 500.995 208.159 502.078 205.943L502.455 200.805L488.493 185.392H488.509Z" fill="black"/>
<path opacity="0.2" d="M484.588 278.219C484.736 278.925 485.146 282.569 485.704 285.031C486.705 289.381 490.741 294.683 494.088 296.423C497.435 298.163 495.466 282.881 495.466 282.881L494.826 277.611L484.572 278.219H484.588Z" fill="black"/>
<path d="M498.107 278.219L485.474 283.948C486.343 288.692 489.05 292.91 493.004 295.668L494.087 296.423C494.087 296.423 506.343 284.736 504.686 281.223L498.09 278.219H498.107Z" fill="#FF9A28"/>
<path d="M523.193 240.119C523.193 258.258 517.024 264.988 511.659 280.598C510.577 283.767 507.262 285.589 503.997 284.85C497.976 283.504 492.053 279.072 495.86 271.242C495.86 271.242 499.502 261.097 501.947 241.071C502.275 238.313 502.619 235.539 501.979 232.847C500.142 225.116 492.857 209.718 491.167 199.41C489.724 190.595 487.919 179.581 492.07 175.92C511.413 158.799 523.193 205.336 523.193 240.119Z" fill="#2C3137"/>
<path opacity="0.4" d="M500.814 167.63C500.814 167.63 500.814 167.68 500.814 167.696C500.24 170.24 497.484 171.685 495.138 170.536C491.167 168.599 480.125 172.309 475.778 171.357C475.778 171.357 475.778 165.431 475.778 163.789C475.778 162.016 490.544 156.485 494.891 156.123C502.291 155.483 502.192 161.737 500.847 167.614L500.814 167.63Z" fill="black"/>
<path d="M445.622 123.523C450.298 120.897 456.057 121.8 460.684 124.262C464.802 126.445 468.198 129.745 471.545 132.995C475.023 136.376 478.354 139.528 481.783 142.827C482.751 143.763 484.342 143.484 484.916 142.269C485.31 141.432 485.688 140.595 486.18 139.758C486.459 139.265 486.557 138.691 486.393 138.149C485.999 136.918 485.589 135.654 485.212 134.423C488.149 125.641 486.393 115.431 480.667 108.126C476.844 103.251 469.478 103.136 463.424 104.466C457.37 105.812 451.923 109.718 448.723 115.037C447.526 114.495 446.147 115.217 445.048 115.956C443.965 116.711 443.227 117.877 442.768 119.108C442.325 120.322 442.144 121.751 442.8 122.85C443.358 123.786 444.654 124.032 445.622 123.507V123.523Z" fill="#6F868E"/>
<path d="M454.465 113.034C453.612 113.839 452.956 115.267 452.562 116.383C454.925 116.465 457.287 116.875 459.437 117.86C459.88 116.645 460.52 115.496 461.34 114.495C458.961 113.97 456.844 113.559 454.465 113.034Z" fill="white"/>
<path d="M483.539 365.201C493.793 365.759 503.243 366.416 513.514 366.071C514.531 354.088 512.972 337.132 508.772 325.871C500.29 321.34 490.364 324.328 481.274 327.43L483.539 365.201Z" fill="#6F868E"/>
<path opacity="0.2" d="M481.274 327.595L484.72 329.088L489.527 362.017L513.678 363.478L513.497 366.236L483.539 365.366L481.274 327.595Z" fill="black"/>
<path opacity="0.2" d="M508.772 325.871L510.232 330.352L501.816 333.488L488.001 331.321L481.275 327.43C481.275 327.43 487.083 324.427 495.745 323.557C504.424 322.67 508.756 325.871 508.756 325.871H508.772Z" fill="white"/>
</g>
<defs>
<clipPath id="clip0_1572_1723">
<rect width="628" height="574" fill="white" transform="matrix(-1 0 0 1 628 0)"/>
</clipPath>
</defs>
</svg>
