<svg width="259" height="64" viewBox="0 0 259 64" fill="none" xmlns="http://www.w3.org/2000/svg">
<g clip-path="url(#clip0_875_1651)">
<path d="M6.06161 6.83577V14.958C6.13401 15.7661 6.37102 16.5492 6.75705 17.2557C7.14307 17.9621 7.66934 18.5758 8.30116 19.0564L23.2844 28.2406L32.0547 22.8557L6.06161 6.83577ZM23.2844 35.4653L8.28671 44.6644C7.65089 45.1421 7.12091 45.7549 6.73221 46.4617C6.34349 47.1684 6.10502 47.953 6.03271 48.7629V56.8401L32.0402 40.8801L23.2844 35.4653ZM5.07911 63.646C4.36688 63.6306 3.66536 63.4636 3.01825 63.1553C2.37112 62.8469 1.7923 62.4039 1.31786 61.8537C0.843399 61.3036 0.483488 60.6582 0.260554 59.9578C0.0376203 59.2574 -0.0435582 58.5169 0.022079 57.7826V48.8078C0.0953097 46.9161 0.605916 45.0704 1.51102 43.4254C2.41611 41.7805 3.68928 40.3843 5.22359 39.3544L17.3749 31.8754L5.23804 24.3964C3.70216 23.3704 2.42674 21.9777 1.51906 20.3352C0.611381 18.6927 0.0979919 16.8486 0.022079 14.958V5.84856C-0.0437156 5.11371 0.0379214 4.37272 0.261866 3.67208C0.485812 2.97144 0.84723 2.32629 1.32344 1.77712C1.79965 1.22794 2.38036 0.786598 3.02915 0.480781C3.67793 0.174965 4.38077 0.0112801 5.09356 0C6.23007 0.0176456 7.33991 0.359228 8.30116 0.987224L35.7535 17.8897C36.6341 18.3682 37.3762 19.08 37.9042 19.9525C38.4321 20.8248 38.7271 21.8267 38.7589 22.8557C38.7271 23.8847 38.4321 24.8866 37.9042 25.759C37.3762 26.6315 36.6341 27.3433 35.7535 27.8218L29.1795 31.8604L35.7535 35.899C36.6542 36.3513 37.4136 37.057 37.945 37.9352C38.4764 38.8135 38.7582 39.8288 38.7582 40.8651C38.7582 41.9013 38.4764 42.9168 37.945 43.795C37.4136 44.6732 36.6542 45.3788 35.7535 45.8312L8.30116 62.6738C7.33991 63.3018 6.23007 63.6433 5.09356 63.661" fill="#FE5000"/>
<path d="M59.0594 42.3756C59.5129 43.3574 60.2292 44.1838 61.123 44.7565C62.0169 45.3293 63.0509 45.6243 64.102 45.6065C68.1186 45.6065 70.5172 42.256 70.5172 37.8433C70.5172 33.4307 68.1186 30.0202 64.102 30.0202C63.0558 30.0271 62.0317 30.3323 61.1421 30.9022C60.2526 31.4723 59.532 32.285 59.0594 33.2512V42.3756ZM59.0594 51.6945H51.5605V11.3076H59.0594V26.2657C59.9311 25.3353 60.9758 24.5972 62.1306 24.0959C63.2852 23.5946 64.526 23.3405 65.778 23.3489C73.5658 23.3489 77.9438 29.9304 77.9438 37.8733C77.9438 45.816 73.5658 52.3527 65.778 52.3527C64.5203 52.3549 63.2753 52.0907 62.1199 51.5762C60.9644 51.0617 59.9229 50.3078 59.0594 49.361V51.6945Z" fill="#333333"/>
<path d="M110.525 23.3162C116.045 23.3162 119.354 27.2954 119.354 33.5633V51.694H111.912V35.2387C111.912 32.2469 110.655 30.2722 108.069 30.2722C107.077 30.2626 106.116 30.6209 105.357 31.2822C104.599 31.9436 104.095 32.8643 103.936 33.8775V51.8286H96.4375V35.3733C96.4375 32.3815 95.2526 30.4068 92.6664 30.4068C91.6666 30.3946 90.695 30.7502 89.925 31.4104C89.1549 32.0708 88.6364 32.9928 88.4618 34.0121V51.9632H81.0352V23.9295H88.4618V26.2183C89.3137 25.2407 90.3651 24.4719 91.5397 23.9672C92.7142 23.4627 93.9826 23.2351 95.2526 23.3012C96.6395 23.265 98.0152 23.5655 99.2696 24.1784C100.524 24.7915 101.623 25.7001 102.477 26.8316C103.499 25.672 104.751 24.7559 106.148 24.1463C107.545 23.5368 109.053 23.2485 110.568 23.3012" fill="#333333"/>
<path d="M135.189 23.3184C141.908 23.3184 146.171 27.4171 146.951 33.3109H139.64C139.431 32.2774 138.862 31.3597 138.04 30.7332C137.22 30.1069 136.205 29.8157 135.189 29.9152C131.78 29.9152 129.684 33.1464 129.684 37.8584C129.684 42.5704 131.78 45.7567 135.189 45.7567C136.206 45.8523 137.221 45.5577 138.043 44.9289C138.863 44.2999 139.431 43.3807 139.64 42.3461H146.951C146.171 48.3296 141.908 52.3236 135.189 52.3236C127.59 52.3236 122.301 46.4298 122.301 37.8584C122.301 29.287 127.59 23.3333 135.189 23.3333" fill="#333333"/>
<path d="M180.456 33.0114C179.922 27.9102 177.479 24.7987 173.738 23.7515C173.098 23.5317 172.431 23.4108 171.758 23.3924C170.313 23.2878 165.979 22.9137 163.089 26.0852V11.2754H155.633V51.6657H163.089V33.6098C163.089 32.1138 165.328 29.6156 168.001 29.6156C168.568 29.6099 169.133 29.6549 169.692 29.7502C171.83 30.2888 173.116 32.2634 173.116 35.9284V51.6358H180.63V35.1805C180.632 34.4536 180.573 33.7279 180.456 33.0114Z" fill="#009AF0"/>
<path d="M211.072 51.6786V11.293H218.513V51.6786H211.072Z" fill="#009AF0"/>
<path d="M222.199 18.7717V11.4424H229.654V18.7717H222.199ZM222.199 51.6786V23.4385H229.654V51.6786H222.199Z" fill="#009AF0"/>
<path d="M259 51.6784H250.244L245.072 42.1051H244.971L239.87 51.6784H231.1L240.462 37.1539L231.692 23.4072H240.362L245.044 31.7091H245.144L249.825 23.4072H258.494L249.739 37.1539L259 51.6784Z" fill="#009AF0"/>
<path d="M208.082 33.4151C206.854 27.0725 202.029 23.3926 195.815 23.3926C187.752 23.3926 183.043 29.6155 183.043 37.6784C183.1 46.3696 187.854 52.3531 195.93 52.3531C198.816 52.5279 201.662 51.6011 203.931 49.7484C206.2 47.8957 207.733 45.2458 208.242 42.3007H201.306C201.041 43.5935 200.324 44.7387 199.29 45.5151C198.257 46.2916 196.984 46.6439 195.715 46.5042C192.666 46.5042 189.805 43.9612 189.805 39.0247H208.429C208.558 37.1472 208.441 35.2603 208.082 33.4151ZM195.656 29.2715H195.772C197.067 29.3091 198.307 29.8168 199.276 30.7055C200.245 31.5942 200.882 32.8075 201.075 34.1331L201.161 34.6717H189.891C189.906 34.49 189.936 34.3099 189.978 34.1331C190.232 32.7551 190.946 31.5133 191.994 30.6247C193.043 29.7361 194.359 29.2571 195.715 29.2715H195.656Z" fill="#009AF0"/>
</g>
<defs>
<clipPath id="clip0_875_1651">
<rect width="259" height="64" fill="white"/>
</clipPath>
</defs>
</svg>
