<svg width="384" height="595" viewBox="0 0 384 595" fill="none" xmlns="http://www.w3.org/2000/svg">
<g clip-path="url(#clip0_863_1815)">
<path d="M227.922 64.4609C196.216 79.6325 175.386 111.208 200.006 109.733C246.228 106.965 215.032 132.771 239.34 132.011C263.65 131.252 301.278 126.055 325.899 100.482C350.52 74.9096 326.587 68.7975 316.608 69.7866C283.751 73.0459 327.232 16.9365 227.92 64.4597L227.922 64.4609Z" fill="#BDD0FB"/>
<path d="M217.18 144.577C217.247 148.177 219.888 154.082 225.821 153.973C231.753 153.863 238.729 147.779 238.663 144.18C238.596 140.581 233.734 137.753 227.802 137.862C221.87 137.972 217.114 140.978 217.18 144.576V144.577Z" fill="#BDD0FB"/>
<path d="M208.274 159.081C208.305 160.824 209.834 162.208 211.689 162.174C213.543 162.14 217.21 160.288 217.178 158.545C217.146 156.802 214.846 155.06 212.992 155.094C211.137 155.128 208.241 157.338 208.274 159.081Z" fill="#BDD0FB"/>
<path d="M276.71 93.0448C276.661 92.4408 276.046 91.9185 275.005 91.4995C276.137 90.874 276.764 90.2033 276.71 89.5452C276.549 87.5543 270.262 86.4394 262.665 87.0535C255.068 87.6676 249.039 89.7792 249.199 91.7688C249.247 92.3728 249.863 92.8951 250.903 93.3141C249.771 93.9396 249.145 94.6103 249.199 95.2685C249.247 95.8725 249.863 96.3948 250.903 96.8138C249.771 97.4393 249.145 98.11 249.199 98.7682C249.247 99.3722 249.863 99.8944 250.903 100.314C249.771 100.939 249.145 101.61 249.199 102.268C249.269 103.147 250.541 103.857 252.592 104.322C252.566 104.972 252.581 105.686 252.644 106.472C252.941 110.139 257.057 113.015 262.5 113.015C267.944 113.015 272.656 109.094 272.708 105.415C272.721 104.513 272.683 103.72 272.602 103.014C275.207 102.142 276.793 101.077 276.71 100.044C276.661 99.4402 276.046 98.9179 275.005 98.4988C276.137 97.8734 276.764 97.2027 276.71 96.5445C276.661 95.9405 276.046 95.4182 275.005 94.9992C276.137 94.3737 276.764 93.703 276.71 93.0448Z" fill="url(#paint0_linear_863_1815)"/>
<path d="M259.149 105.112C256.892 105.112 254.828 104.946 253.122 104.619C253.023 104.6 252.959 104.504 252.978 104.405C252.997 104.306 253.092 104.241 253.191 104.26C255.86 104.772 259.425 104.886 263.229 104.577C266.341 104.326 269.253 103.822 271.648 103.121C271.745 103.094 271.846 103.149 271.874 103.246C271.902 103.343 271.846 103.445 271.75 103.472C269.332 104.18 266.395 104.688 263.258 104.941C261.844 105.056 260.464 105.112 259.149 105.112Z" fill="url(#paint1_linear_863_1815)"/>
<path d="M259.187 101.61C256.256 101.61 253.636 101.333 251.789 100.806C251.692 100.778 251.636 100.677 251.663 100.579C251.691 100.482 251.791 100.426 251.889 100.453C254.522 101.205 258.762 101.437 263.231 101.076C267.652 100.719 271.773 99.8204 274.259 98.6714C274.351 98.6286 274.459 98.6689 274.502 98.7608C274.544 98.8526 274.504 98.9608 274.412 99.0036C271.89 100.169 267.722 101.08 263.261 101.441C261.869 101.553 260.498 101.609 259.19 101.609L259.187 101.61Z" fill="url(#paint2_linear_863_1815)"/>
<path d="M259.149 98.1125C255.984 98.1125 253.215 97.7878 251.35 97.1712C251.255 97.1397 251.202 97.0366 251.234 96.9409C251.265 96.8453 251.368 96.7924 251.465 96.8239C254.058 97.6809 258.458 97.9628 263.23 97.5777C267.65 97.2203 271.772 96.3218 274.258 95.1728C274.349 95.1313 274.457 95.1703 274.5 95.2622C274.543 95.354 274.503 95.4623 274.411 95.505C271.889 96.6703 267.721 97.5827 263.26 97.9426C261.846 98.0571 260.464 98.1125 259.151 98.1125H259.149Z" fill="url(#paint3_linear_863_1815)"/>
<path d="M259.174 94.6119C256.663 94.6119 254.379 94.4081 252.604 94.0129C252.506 93.9915 252.443 93.8934 252.466 93.7952C252.487 93.6971 252.585 93.6341 252.683 93.6568C255.352 94.2508 259.196 94.4056 263.229 94.0796C267.609 93.726 271.711 92.8363 274.2 91.6999C274.292 91.6584 274.4 91.6987 274.441 91.7905C274.483 91.8824 274.443 91.9906 274.351 92.0322C271.825 93.1849 267.678 94.0859 263.258 94.4433C261.86 94.5566 260.486 94.6119 259.172 94.6119H259.174Z" fill="url(#paint4_linear_863_1815)"/>
<path d="M244.1 75.3809C243.177 72.1053 241.611 69.0435 239.5 66.3769C234.978 60.6637 227.6 49.0446 226.692 33.1872C225.37 10.1215 245.779 -1.42707 264.402 0.140926C283.026 1.70892 301.402 15.6082 299.391 37.0669C298.153 50.2703 290.78 60.2849 285.291 66.0371C281.806 69.6891 279.319 74.1628 277.973 79.0341C276.326 84.9966 272.405 92.4263 263.087 92.8793C251.029 93.4658 246.021 82.1991 244.1 75.3835V75.3809Z" fill="url(#paint5_linear_863_1815)"/>
<path d="M266.167 88.2782L272.683 45.795C272.817 44.9178 273.248 44.3276 273.646 44.4787C274.042 44.6297 274.256 45.4627 274.12 46.3411C274.116 46.365 274.111 46.394 274.108 46.4166L266.685 88.5047C266.63 88.8205 266.469 89.0206 266.327 88.9514C266.189 88.8835 266.12 88.5852 266.167 88.2794V88.2782Z" fill="url(#paint6_linear_863_1815)"/>
<path d="M259.403 88.6161L252.887 46.1329C252.752 45.2557 252.322 44.6655 251.924 44.8165C251.526 44.9676 251.314 45.8006 251.449 46.6778C251.453 46.7017 251.458 46.7306 251.462 46.7533L258.884 88.8413C258.939 89.1572 259.1 89.3573 259.242 89.2881C259.38 89.2201 259.449 88.9219 259.403 88.6161Z" fill="url(#paint7_linear_863_1815)"/>
<path opacity="0.79" d="M272.636 42.1476C272.47 41.8808 272.087 41.7814 271.781 41.9248L268.153 43.6237L266.893 40.0271C266.827 39.8396 266.673 39.6735 266.453 39.5816C266.036 39.4092 265.536 39.564 265.338 39.9265L265.332 39.9378L262.347 45.3918L259.578 37.6286L259.573 37.616C259.505 37.426 259.362 37.2561 259.153 37.1428C258.689 36.8886 258.076 37.0094 257.784 37.4134L253.612 43.1694C253.442 43.4047 253.5 43.7219 253.759 43.8955C254.035 44.0818 254.432 44.039 254.646 43.7986L258.32 39.6911L261.627 47.0768L261.629 47.0819C261.682 47.2002 261.782 47.3033 261.921 47.3688C262.231 47.5148 262.619 47.4141 262.786 47.1448L265.977 42.0117L267.178 44.6078L267.189 44.6305C267.197 44.6493 267.207 44.6669 267.219 44.6858C267.384 44.9526 267.766 45.052 268.074 44.9086L272.381 42.8913C272.689 42.7478 272.803 42.4144 272.637 42.1476H272.636Z" fill="white"/>
<path opacity="0.79" d="M285.434 60.3663C285.302 60.3663 285.17 60.3261 285.056 60.2405C284.773 60.0316 284.715 59.6327 284.924 59.3495C286.037 57.8457 287.058 56.2903 287.958 54.7286C288.133 54.4241 288.522 54.3196 288.826 54.4958C289.13 54.672 289.234 55.0608 289.058 55.3654C288.134 56.9699 287.086 58.5655 285.943 60.1084C285.819 60.277 285.627 60.3651 285.434 60.3651V60.3663Z" fill="white"/>
<path opacity="0.79" d="M290.793 51.1455C290.709 51.1455 290.622 51.1279 290.54 51.0927C290.219 50.953 290.071 50.578 290.211 50.2558C297.12 34.3078 291.158 20.8628 291.096 20.7281C290.951 20.4085 291.091 20.031 291.41 19.885C291.728 19.739 292.106 19.8787 292.252 20.1983C292.316 20.3368 298.52 34.2738 291.376 50.763C291.272 51.0021 291.039 51.1455 290.794 51.1455H290.793Z" fill="white"/>
<path d="M95.6743 463.976H83.8164V592.52H95.6743V463.976Z" fill="url(#paint8_linear_863_1815)"/>
<path d="M38.1276 587.261H141.361C141.535 587.261 141.676 587.402 141.676 587.577V594.999H37.8125V587.577C37.8125 587.403 37.9531 587.261 38.1276 587.261Z" fill="url(#paint9_linear_863_1815)"/>
<path d="M144.337 435.173H39.255C32.2117 435.173 26.502 440.896 26.502 447.956V459.513C26.502 466.573 32.2117 472.296 39.255 472.296H144.337C151.38 472.296 157.09 466.573 157.09 459.513V447.956C157.09 440.896 151.38 435.173 144.337 435.173Z" fill="url(#paint10_linear_863_1815)"/>
<path d="M326.299 572.991C331.616 570.403 372.36 555.867 382.538 540.335C382.052 539.968 381.463 539.707 380.776 539.624C369.265 538.233 346.272 536.853 325.903 544.13L315.104 553.403C315.104 553.403 311.468 562.149 318.574 572.823C320.357 573.778 323.107 574.545 326.3 572.991H326.299Z" fill="url(#paint11_linear_863_1815)"/>
<path d="M382.537 540.335C372.359 555.865 331.617 570.403 326.298 572.991C323.106 574.545 320.355 573.776 318.572 572.822C318.585 572.841 318.594 572.86 318.607 572.879C320.405 575.567 323.86 576.596 326.863 575.407C338.323 570.871 367.548 558.621 382.69 546.063C384.619 544.464 384.291 541.663 382.537 540.335Z" fill="url(#paint12_linear_863_1815)"/>
<path d="M324.893 586.571C330.21 583.983 370.953 569.445 381.132 553.915C380.646 553.548 380.058 553.287 379.37 553.204C367.859 551.814 344.866 550.433 324.497 557.711L313.698 566.983C313.698 566.983 310.062 575.729 317.168 586.403C318.951 587.358 321.701 588.125 324.894 586.571H324.893Z" fill="url(#paint13_linear_863_1815)"/>
<path d="M381.129 553.915C370.951 569.445 330.208 583.983 324.89 586.571C321.698 588.125 318.947 587.356 317.164 586.403C317.177 586.421 317.185 586.44 317.199 586.459C318.997 589.147 322.452 590.177 325.455 588.987C336.915 584.451 366.14 572.201 381.282 559.643C383.211 558.044 382.883 555.243 381.129 553.915Z" fill="url(#paint14_linear_863_1815)"/>
<path d="M317.469 535.293C315.904 539.161 312.505 543.902 305.191 547.833L315.837 555.262C319.818 555.379 322.376 554.23 324.016 552.783C326.352 550.72 326.66 547.161 324.777 544.676C322.359 541.484 319.921 538.361 317.47 535.294L317.469 535.293Z" fill="url(#paint15_linear_863_1815)"/>
<path d="M317.685 531.925C231.325 425.159 124.73 397.355 124.73 397.355L127.434 423.789L306.911 549.6C312.912 546.374 316.331 540.47 318.229 536.318C318.892 534.869 318.687 533.164 317.685 531.925Z" fill="url(#paint16_linear_863_1815)"/>
<path d="M315.151 544.961C314.686 548.653 312.558 555.191 303.932 560.622C307.187 563.136 310.333 565.667 313.341 568.213C314.55 569.236 316.142 569.665 317.693 569.349C320.663 568.741 325.208 566.868 326.558 561.104C326.9 559.639 326.526 558.098 325.565 556.942C323.768 554.784 320.218 550.595 315.152 544.961H315.151Z" fill="url(#paint17_linear_863_1815)"/>
<path d="M315.817 543.467C288.885 513.877 222.588 449.448 149.77 422.703C143.711 420.478 138.781 415.935 135.99 410.103L125.096 387.342C125.096 387.342 71.9983 374.87 39.2832 409.206C39.2832 409.206 41.2769 441.866 82.366 453.806C120.723 464.952 234.382 510.206 301.422 560.916C302.96 562.078 305.093 562.134 306.615 560.95C311.945 556.806 315.284 551.633 316.704 547.988C317.306 546.442 316.931 544.691 315.815 543.465L315.817 543.467Z" fill="url(#paint18_linear_863_1815)"/>
<path d="M33.5145 408.771C33.5145 408.771 44.3467 413.521 62.9164 404.917C81.4861 396.313 131.979 395.456 131.979 395.456C131.979 395.456 115.621 334.092 151.971 290.189C151.971 290.189 181.248 345.118 201.823 353.315L211.039 353.74V314.553C211.039 314.553 203.224 266.178 153.789 230.054L138.397 216.148C138.397 216.148 84.2732 205.21 47.4665 269.926C10.6611 334.642 33.5145 408.769 33.5145 408.769V408.771Z" fill="#D0C5ED"/>
<path d="M214.15 239.559C214.665 236.84 214.86 230.478 208.313 222.725C199.557 212.352 188.321 217.641 188.321 217.641C178.367 223.229 174.162 241.473 174.162 241.473L184.687 235.843C186.281 240.484 201.824 245.489 201.824 245.489L201.911 245.456C202.061 255.548 201.818 284.98 194.677 305.45C191.879 313.47 186.19 328.37 204.975 353.904L215.325 353.48C215.325 353.48 238.518 314.017 214.149 239.561L214.15 239.559Z" fill="url(#paint19_linear_863_1815)"/>
<path d="M161.538 179.739L132.716 220.532C130.843 223.183 131.098 226.78 133.314 229.151C137.197 233.306 143.745 239.16 150.805 240.497C152.997 240.912 155.227 239.989 156.445 238.116L171.773 214.532C171.773 214.532 174.708 177.483 161.538 179.739Z" fill="url(#paint20_linear_863_1815)"/>
<path d="M180.676 153.223C181.157 153.864 196.749 204.543 196.749 204.543L167.691 212.852L145.793 167.02C145.793 167.02 172.635 142.482 180.676 153.223Z" fill="url(#paint21_linear_863_1815)"/>
<path d="M157.326 174.545L166.574 198.552C166.776 199.075 167.054 199.558 167.402 199.998C168.955 201.951 173.469 206.552 178.469 201.627C182.256 197.897 186.608 199.596 190.01 197.882C193.007 196.372 195.857 192.891 196.812 196.115C198.245 200.946 200.501 209.242 201.678 217.149C202.104 220.007 200.236 222.707 197.415 223.299C191.5 224.539 181.178 226.349 172.135 226.138C170.13 226.091 168.331 224.906 167.441 223.104C164.093 216.322 155.688 199.489 152.525 195.005C149.618 190.883 143.052 190.907 139.703 191.223C138.149 191.37 136.616 190.849 135.477 189.777C132.808 187.265 129.231 182.201 134.325 175.911C136.096 173.724 135.948 170.613 133.999 168.584C131.18 165.65 128.845 160.968 133.297 155.086C138.013 148.854 144.39 149.191 148.688 150.428C150.783 151.031 152.922 150.111 154.298 148.416C154.7 147.923 155.269 147.544 156.073 147.414C158.7 146.99 160.719 144.964 160.793 142.3C160.903 138.361 162.601 133.782 169.085 131.549C181.758 127.186 190.092 139.338 191.15 148.554C192.208 157.772 178.201 161.719 169.886 161.338C164.124 161.073 159.874 166.371 157.807 169.648C156.882 171.114 156.702 172.925 157.325 174.545H157.326Z" fill="url(#paint22_linear_863_1815)"/>
<path d="M156.128 204.084C156.128 204.084 153.597 188.102 146.915 187.511C140.235 186.92 133.913 192.592 140.795 201.404C149.353 212.364 156.128 204.084 156.128 204.084Z" fill="url(#paint23_linear_863_1815)"/>
<path d="M83.8143 222.072C83.8143 222.072 25.7173 259.214 12.9981 302.335C0.278948 345.456 28.7455 353.939 55.8487 357.76L57.8888 324.833C57.8888 324.833 38.9023 324.833 51.0138 306.835C63.1254 288.837 95.6735 276.838 95.6735 276.838C95.6735 276.838 178.14 198.846 83.8156 222.074L83.8143 222.072Z" fill="#B3A3EF"/>
<path d="M57.8878 325.583C57.5551 325.583 49.7084 325.525 47.0631 320.538C45.2577 317.134 46.3776 312.382 50.3938 306.416C62.5016 288.423 94.0767 276.628 95.4151 276.135C95.803 275.993 96.2336 276.191 96.3755 276.58C96.5174 276.969 96.319 277.4 95.9323 277.543C95.6084 277.663 63.4708 289.668 51.6342 307.256C47.9545 312.725 46.8597 316.956 48.3826 319.831C50.6035 324.025 57.8162 324.085 57.889 324.085C58.3021 324.085 58.636 324.421 58.636 324.836C58.636 325.25 58.3008 325.585 57.8878 325.585V325.583Z" fill="url(#paint24_linear_863_1815)"/>
<path d="M55.8491 357.76C55.8491 357.76 47.3621 343.698 58.5396 326.898L133.57 339.351C133.57 339.351 169.486 333.26 171.203 333.383C172.921 333.506 196.36 347.978 196.36 347.978C196.36 347.978 195.573 349.656 189.995 349.346C184.417 349.037 188.079 350.022 188.079 350.022L187.877 352.846C187.877 352.846 183.994 353.738 180.879 350.417C177.764 347.096 169.107 345.488 169.107 345.488C169.107 345.488 150.704 359.118 132.626 352.523L55.8491 357.759V357.76Z" fill="url(#paint25_linear_863_1815)"/>
<path d="M165.014 595.001C164.427 595.001 163.83 594.88 163.255 594.628C160.994 593.628 159.95 590.938 160.923 588.616L254.385 365.54C255.358 363.219 257.976 362.148 260.239 363.145C262.5 364.144 263.545 366.835 262.572 369.157L169.11 592.233C168.384 593.964 166.741 595.001 165.014 595.001Z" fill="url(#paint26_linear_863_1815)"/>
<path d="M270.305 595.002C268.577 595.002 266.934 593.965 266.209 592.233L172.747 369.157C171.774 366.835 172.818 364.145 175.08 363.145C177.339 362.146 179.961 363.218 180.934 365.54L274.396 588.616C275.369 590.938 274.325 593.629 272.064 594.628C271.49 594.881 270.892 595.002 270.305 595.002Z" fill="url(#paint27_linear_863_1815)"/>
<path d="M339.438 358.877C339.573 357.494 339.389 356.064 338.933 354.977C338.479 353.891 337.801 353.262 337.086 353.262H94.9094C93.9691 353.262 93.094 354.206 92.5868 355.766C92.0808 357.326 92.0118 359.288 92.406 360.97L95.0299 372.161C95.6313 374.724 96.9332 376.364 98.3657 376.364H335.423C336.756 376.364 337.901 374.501 338.155 371.923L339.436 358.876L339.438 358.877Z" fill="url(#paint28_linear_863_1815)"/>
</g>
<defs>
<linearGradient id="paint0_linear_863_1815" x1="277.989" y1="83.6897" x2="329.853" y2="35.8853" gradientUnits="userSpaceOnUse">
<stop stop-color="#09005D"/>
<stop offset="1" stop-color="#1A0F91"/>
</linearGradient>
<linearGradient id="paint1_linear_863_1815" x1="248.404" y1="136.019" x2="322.341" y2="-32.7064" gradientUnits="userSpaceOnUse">
<stop stop-color="#4F52FF"/>
<stop offset="1" stop-color="#4042E2"/>
</linearGradient>
<linearGradient id="paint2_linear_863_1815" x1="247.444" y1="135.597" x2="321.382" y2="-33.1268" gradientUnits="userSpaceOnUse">
<stop stop-color="#4F52FF"/>
<stop offset="1" stop-color="#4042E2"/>
</linearGradient>
<linearGradient id="paint3_linear_863_1815" x1="245.957" y1="134.945" x2="319.895" y2="-33.779" gradientUnits="userSpaceOnUse">
<stop stop-color="#4F52FF"/>
<stop offset="1" stop-color="#4042E2"/>
</linearGradient>
<linearGradient id="paint4_linear_863_1815" x1="245.238" y1="134.631" x2="319.175" y2="-34.0932" gradientUnits="userSpaceOnUse">
<stop stop-color="#4F52FF"/>
<stop offset="1" stop-color="#4042E2"/>
</linearGradient>
<linearGradient id="paint5_linear_863_1815" x1="263.545" y1="23.0644" x2="259.08" y2="114.06" gradientUnits="userSpaceOnUse">
<stop stop-color="#FF928E"/>
<stop offset="1" stop-color="#FE7062"/>
</linearGradient>
<linearGradient id="paint6_linear_863_1815" x1="348.28" y1="-2.08938" x2="240.771" y2="91.8381" gradientUnits="userSpaceOnUse">
<stop stop-color="#E1473D"/>
<stop offset="1" stop-color="#E9605A"/>
</linearGradient>
<linearGradient id="paint7_linear_863_1815" x1="342.226" y1="-9.01764" x2="234.718" y2="84.91" gradientUnits="userSpaceOnUse">
<stop stop-color="#E1473D"/>
<stop offset="1" stop-color="#E9605A"/>
</linearGradient>
<linearGradient id="paint8_linear_863_1815" x1="113.783" y1="453.074" x2="22.9931" y2="735.673" gradientUnits="userSpaceOnUse">
<stop stop-color="#8E53A1"/>
<stop offset="1" stop-color="#532B0E"/>
</linearGradient>
<linearGradient id="paint9_linear_863_1815" x1="133.807" y1="453.463" x2="39.7195" y2="746.33" gradientUnits="userSpaceOnUse">
<stop stop-color="#8E53A1"/>
<stop offset="1" stop-color="#532B0E"/>
</linearGradient>
<linearGradient id="paint10_linear_863_1815" x1="94.0363" y1="446.73" x2="3.24754" y2="729.329" gradientUnits="userSpaceOnUse">
<stop stop-color="#8E53A1"/>
<stop offset="1" stop-color="#532B0E"/>
</linearGradient>
<linearGradient id="paint11_linear_863_1815" x1="353.564" y1="523.989" x2="346.5" y2="557.411" gradientUnits="userSpaceOnUse">
<stop stop-color="#09005D"/>
<stop offset="1" stop-color="#1A0F91"/>
</linearGradient>
<linearGradient id="paint12_linear_863_1815" x1="365.035" y1="518.347" x2="354.544" y2="548.74" gradientUnits="userSpaceOnUse">
<stop stop-color="#53D8FF"/>
<stop offset="1" stop-color="#3840F7"/>
</linearGradient>
<linearGradient id="paint13_linear_863_1815" x1="344.214" y1="553.473" x2="360.645" y2="620.406" gradientUnits="userSpaceOnUse">
<stop stop-color="#09005D"/>
<stop offset="1" stop-color="#1A0F91"/>
</linearGradient>
<linearGradient id="paint14_linear_863_1815" x1="345.422" y1="553.178" x2="361.852" y2="620.109" gradientUnits="userSpaceOnUse">
<stop stop-color="#53D8FF"/>
<stop offset="1" stop-color="#3840F7"/>
</linearGradient>
<linearGradient id="paint15_linear_863_1815" x1="372.595" y1="462.343" x2="310.369" y2="556.485" gradientUnits="userSpaceOnUse">
<stop stop-color="#FEBBBA"/>
<stop offset="1" stop-color="#FF928E"/>
</linearGradient>
<linearGradient id="paint16_linear_863_1815" x1="272.307" y1="390.011" x2="206.89" y2="488.985" gradientUnits="userSpaceOnUse">
<stop stop-color="white"/>
<stop offset="1"/>
</linearGradient>
<linearGradient id="paint17_linear_863_1815" x1="327.905" y1="553.941" x2="144.681" y2="605.31" gradientUnits="userSpaceOnUse">
<stop stop-color="#FEBBBA"/>
<stop offset="1" stop-color="#FF928E"/>
</linearGradient>
<linearGradient id="paint18_linear_863_1815" x1="299.341" y1="444.336" x2="111.285" y2="497.059" gradientUnits="userSpaceOnUse">
<stop stop-color="white"/>
<stop offset="1"/>
</linearGradient>
<linearGradient id="paint19_linear_863_1815" x1="174.161" y1="285.098" x2="225.294" y2="285.098" gradientUnits="userSpaceOnUse">
<stop stop-color="#FEBBBA"/>
<stop offset="1" stop-color="#FF928E"/>
</linearGradient>
<linearGradient id="paint20_linear_863_1815" x1="119.059" y1="232.445" x2="178.557" y2="198.058" gradientUnits="userSpaceOnUse">
<stop stop-color="#FEBBBA"/>
<stop offset="1" stop-color="#FF928E"/>
</linearGradient>
<linearGradient id="paint21_linear_863_1815" x1="171.349" y1="160.654" x2="170.986" y2="261.545" gradientUnits="userSpaceOnUse">
<stop stop-color="#FEBBBA"/>
<stop offset="1" stop-color="#FF928E"/>
</linearGradient>
<linearGradient id="paint22_linear_863_1815" x1="145.742" y1="203.867" x2="203.834" y2="160.384" gradientUnits="userSpaceOnUse">
<stop stop-color="#09005D"/>
<stop offset="1" stop-color="#1A0F91"/>
</linearGradient>
<linearGradient id="paint23_linear_863_1815" x1="138.404" y1="265.114" x2="147.412" y2="195.787" gradientUnits="userSpaceOnUse">
<stop stop-color="#FEBBBA"/>
<stop offset="1" stop-color="#FF928E"/>
</linearGradient>
<linearGradient id="paint24_linear_863_1815" x1="84.9595" y1="-35.7685" x2="74.7537" y2="211.992" gradientUnits="userSpaceOnUse">
<stop stop-color="#09005D"/>
<stop offset="1" stop-color="#1A0F91"/>
</linearGradient>
<linearGradient id="paint25_linear_863_1815" x1="123.37" y1="362.607" x2="125.712" y2="330.096" gradientUnits="userSpaceOnUse">
<stop stop-color="#FEBBBA"/>
<stop offset="1" stop-color="#FF928E"/>
</linearGradient>
<linearGradient id="paint26_linear_863_1815" x1="160.559" y1="478.886" x2="262.937" y2="478.886" gradientUnits="userSpaceOnUse">
<stop stop-color="#9CFFFB"/>
<stop offset="1" stop-color="#9BFFFA"/>
</linearGradient>
<linearGradient id="paint27_linear_863_1815" x1="172.383" y1="478.885" x2="274.76" y2="478.885" gradientUnits="userSpaceOnUse">
<stop stop-color="#9CFFFB"/>
<stop offset="1" stop-color="#9BFFFA"/>
</linearGradient>
<linearGradient id="paint28_linear_863_1815" x1="53.4211" y1="556.533" x2="346.15" y2="211.191" gradientUnits="userSpaceOnUse">
<stop stop-color="#09005D"/>
<stop offset="1" stop-color="#1A0F91"/>
</linearGradient>
<clipPath id="clip0_863_1815">
<rect width="384" height="595" fill="white"/>
</clipPath>
</defs>
</svg>
