<svg width="162" height="32" viewBox="0 0 162 32" fill="none" xmlns="http://www.w3.org/2000/svg">
<path d="M4.08016 5.67269V11.7927H11.2802V14.5827H4.08016V20.9727H12.1802V23.7627H0.660156V2.88269H12.1802V5.67269H4.08016ZM15.2526 15.4227C15.2526 13.7627 15.5926 12.2927 16.2726 11.0127C16.9726 9.73269 17.9126 8.74269 19.0926 8.04269C20.2926 7.32269 21.6226 6.9627 23.0826 6.9627C24.3626 6.9627 25.4926 7.22269 26.4726 7.74269C27.4726 8.26269 28.2426 8.89269 28.7826 9.63269V7.2327H32.2326V31.6227H28.7826V21.3627C28.2426 22.1027 27.4626 22.7327 26.4426 23.2527C25.4226 23.7727 24.2626 24.0327 22.9626 24.0327C21.5426 24.0327 20.2426 23.6727 19.0626 22.9527C17.9026 22.2127 16.9726 21.1927 16.2726 19.8927C15.5926 18.5727 15.2526 17.0827 15.2526 15.4227ZM28.7826 15.4827C28.7826 14.3427 28.5426 13.3527 28.0626 12.5127C27.6026 11.6727 26.9926 11.0327 26.2326 10.5927C25.4726 10.1527 24.6526 9.93269 23.7726 9.93269C22.8926 9.93269 22.0726 10.1527 21.3126 10.5927C20.5526 11.0127 19.9326 11.6427 19.4526 12.4827C18.9926 13.3027 18.7626 14.2827 18.7626 15.4227C18.7626 16.5627 18.9926 17.5627 19.4526 18.4227C19.9326 19.2827 20.5526 19.9427 21.3126 20.4027C22.0926 20.8427 22.9126 21.0627 23.7726 21.0627C24.6526 21.0627 25.4726 20.8427 26.2326 20.4027C26.9926 19.9627 27.6026 19.3227 28.0626 18.4827C28.5426 17.6227 28.7826 16.6227 28.7826 15.4827ZM51.6946 7.2327V23.7627H48.2746V21.8127C47.7346 22.4927 47.0246 23.0327 46.1446 23.4327C45.2846 23.8127 44.3646 24.0027 43.3846 24.0027C42.0846 24.0027 40.9146 23.7327 39.8746 23.1927C38.8546 22.6527 38.0446 21.8527 37.4446 20.7927C36.8646 19.7327 36.5746 18.4527 36.5746 16.9527V7.2327H39.9646V16.4427C39.9646 17.9227 40.3346 19.0627 41.0746 19.8627C41.8146 20.6427 42.8246 21.0327 44.1046 21.0327C45.3846 21.0327 46.3946 20.6427 47.1346 19.8627C47.8946 19.0627 48.2746 17.9227 48.2746 16.4427V7.2327H51.6946ZM57.947 5.04269C57.327 5.04269 56.807 4.83269 56.387 4.41269C55.967 3.99269 55.757 3.47269 55.757 2.85269C55.757 2.23269 55.967 1.71269 56.387 1.29269C56.807 0.872694 57.327 0.662694 57.947 0.662694C58.547 0.662694 59.057 0.872694 59.477 1.29269C59.897 1.71269 60.107 2.23269 60.107 2.85269C60.107 3.47269 59.897 3.99269 59.477 4.41269C59.057 4.83269 58.547 5.04269 57.947 5.04269ZM59.627 7.2327V23.7627H56.207V7.2327H59.627ZM67.5372 9.66269C68.1172 8.90269 68.9072 8.26269 69.9072 7.74269C70.9072 7.22269 72.0372 6.9627 73.2972 6.9627C74.7372 6.9627 76.0472 7.32269 77.2272 8.04269C78.4272 8.74269 79.3672 9.73269 80.0472 11.0127C80.7272 12.2927 81.0672 13.7627 81.0672 15.4227C81.0672 17.0827 80.7272 18.5727 80.0472 19.8927C79.3672 21.1927 78.4272 22.2127 77.2272 22.9527C76.0472 23.6727 74.7372 24.0327 73.2972 24.0327C72.0372 24.0327 70.9172 23.7827 69.9372 23.2827C68.9572 22.7627 68.1572 22.1227 67.5372 21.3627V31.6227H64.1172V7.2327H67.5372V9.66269ZM77.5872 15.4227C77.5872 14.2827 77.3472 13.3027 76.8672 12.4827C76.4072 11.6427 75.7872 11.0127 75.0072 10.5927C74.2472 10.1527 73.4272 9.93269 72.5472 9.93269C71.6872 9.93269 70.8672 10.1527 70.0872 10.5927C69.3272 11.0327 68.7072 11.6727 68.2272 12.5127C67.7672 13.3527 67.5372 14.3427 67.5372 15.4827C67.5372 16.6227 67.7672 17.6227 68.2272 18.4827C68.7072 19.3227 69.3272 19.9627 70.0872 20.4027C70.8672 20.8427 71.6872 21.0627 72.5472 21.0627C73.4272 21.0627 74.2472 20.8427 75.0072 20.4027C75.7872 19.9427 76.4072 19.2827 76.8672 18.4227C77.3472 17.5627 77.5872 16.5627 77.5872 15.4227ZM104.459 6.9627C105.759 6.9627 106.919 7.23269 107.939 7.77269C108.979 8.31269 109.789 9.11269 110.369 10.1727C110.969 11.2327 111.269 12.5127 111.269 14.0127V23.7627H107.879V14.5227C107.879 13.0427 107.509 11.9127 106.769 11.1327C106.029 10.3327 105.019 9.93269 103.739 9.93269C102.459 9.93269 101.439 10.3327 100.679 11.1327C99.9392 11.9127 99.5692 13.0427 99.5692 14.5227V23.7627H96.1792V14.5227C96.1792 13.0427 95.8092 11.9127 95.0692 11.1327C94.3292 10.3327 93.3192 9.93269 92.0392 9.93269C90.7592 9.93269 89.7392 10.3327 88.9792 11.1327C88.2392 11.9127 87.8692 13.0427 87.8692 14.5227V23.7627H84.4492V7.2327H87.8692V9.12269C88.4292 8.44269 89.1392 7.91269 89.9992 7.5327C90.8592 7.1527 91.7792 6.9627 92.7592 6.9627C94.0792 6.9627 95.2592 7.2427 96.2992 7.8027C97.3392 8.3627 98.1392 9.17269 98.6992 10.2327C99.1992 9.23269 99.9792 8.44269 101.039 7.86269C102.099 7.26269 103.239 6.9627 104.459 6.9627ZM130.771 15.0927C130.771 15.7127 130.731 16.2727 130.651 16.7727H118.021C118.121 18.0927 118.611 19.1527 119.491 19.9527C120.371 20.7527 121.451 21.1527 122.731 21.1527C124.571 21.1527 125.871 20.3827 126.631 18.8427H130.321C129.821 20.3627 128.911 21.6127 127.591 22.5927C126.291 23.5527 124.671 24.0327 122.731 24.0327C121.151 24.0327 119.731 23.6827 118.471 22.9827C117.231 22.2627 116.251 21.2627 115.531 19.9827C114.831 18.6827 114.481 17.1827 114.481 15.4827C114.481 13.7827 114.821 12.2927 115.501 11.0127C116.201 9.7127 117.171 8.71269 118.411 8.01269C119.671 7.31269 121.111 6.9627 122.731 6.9627C124.291 6.9627 125.681 7.3027 126.901 7.98269C128.121 8.66269 129.071 9.62269 129.751 10.8627C130.431 12.0827 130.771 13.4927 130.771 15.0927ZM127.201 14.0127C127.181 12.7527 126.731 11.7427 125.851 10.9827C124.971 10.2227 123.881 9.84269 122.581 9.84269C121.401 9.84269 120.391 10.2227 119.551 10.9827C118.711 11.7227 118.211 12.7327 118.051 14.0127H127.201ZM142.477 6.9627C143.777 6.9627 144.937 7.23269 145.957 7.77269C146.997 8.31269 147.807 9.11269 148.387 10.1727C148.967 11.2327 149.257 12.5127 149.257 14.0127V23.7627H145.867V14.5227C145.867 13.0427 145.497 11.9127 144.757 11.1327C144.017 10.3327 143.007 9.93269 141.727 9.93269C140.447 9.93269 139.427 10.3327 138.667 11.1327C137.927 11.9127 137.557 13.0427 137.557 14.5227V23.7627H134.137V7.2327H137.557V9.12269C138.117 8.44269 138.827 7.91269 139.687 7.5327C140.567 7.1527 141.497 6.9627 142.477 6.9627ZM157.609 10.0227V19.1727C157.609 19.7927 157.749 20.2427 158.029 20.5227C158.329 20.7827 158.829 20.9127 159.529 20.9127H161.629V23.7627H158.929C157.389 23.7627 156.209 23.4027 155.389 22.6827C154.569 21.9627 154.159 20.7927 154.159 19.1727V10.0227H152.209V7.2327H154.159V3.12269H157.609V7.2327H161.629V10.0227H157.609Z" fill="#4B4B4B"/>
</svg>
