<svg width="271" height="158" viewBox="0 0 271 158" fill="none" xmlns="http://www.w3.org/2000/svg">
<g clip-path="url(#clip0_1227_12713)">
<path d="M123.758 85.6104H116.834V96.198H123.758V85.6104Z" fill="#BCBEC0"/>
<path d="M124.676 112.664H121.01V139.622H124.676V112.664Z" fill="#6D6E71"/>
<path opacity="0.2" d="M121.01 121.967V126.231L124.683 132.598V128.327L121.01 121.967Z" fill="#F1F2F2"/>
<path opacity="0.2" d="M121.01 127.005V129.144L124.683 135.512V133.365L121.01 127.005Z" fill="#F1F2F2"/>
<path opacity="0.2" d="M121.01 129.546V131.678L124.683 138.045V135.913L121.01 129.546Z" fill="#F1F2F2"/>
<path d="M106.762 147.508C106.216 147.362 105.691 147.428 105.225 147.632V145.34C105.225 144.865 104.889 144.485 104.474 144.485C104.059 144.485 103.723 144.865 103.723 145.34V149.334C103.541 149.86 103.483 150.466 103.607 151.094C103.847 152.32 104.766 153.255 105.851 153.394C107.528 153.605 108.927 152.014 108.752 150.1C108.635 148.852 107.819 147.8 106.748 147.516L106.762 147.508Z" fill="#E6E7E8"/>
<path d="M106.165 152.911C107.369 152.911 108.345 151.793 108.345 150.414C108.345 149.035 107.369 147.917 106.165 147.917C104.962 147.917 103.986 149.035 103.986 150.414C103.986 151.793 104.962 152.911 106.165 152.911Z" fill="#231F20"/>
<path d="M106.106 149.838C106.427 149.838 106.69 150.137 106.69 150.502C106.69 150.867 106.427 151.167 106.106 151.167C105.786 151.167 105.523 150.867 105.523 150.502C105.523 150.137 105.786 149.838 106.106 149.838Z" fill="#D1D3D4"/>
<path d="M104.751 145.391C104.751 145.545 104.642 145.676 104.504 145.676C104.365 145.676 104.256 145.552 104.256 145.391C104.256 145.231 104.365 145.106 104.504 145.106C104.642 145.106 104.751 145.231 104.751 145.391Z" fill="#414042"/>
<path d="M106.165 147.428C104.722 147.428 103.549 148.764 103.549 150.414C103.549 152.064 104.722 153.401 106.165 153.401C107.608 153.401 108.782 152.064 108.782 150.414C108.782 148.764 107.608 147.428 106.165 147.428ZM106.165 152.415C105.203 152.415 104.416 151.524 104.416 150.414C104.416 149.304 105.196 148.413 106.165 148.413C107.135 148.413 107.914 149.304 107.914 150.414C107.914 151.524 107.135 152.415 106.165 152.415Z" fill="#D1D3D4"/>
<path d="M138.057 147.508C138.604 147.362 139.129 147.428 139.595 147.632V145.34C139.595 144.865 139.93 144.485 140.346 144.485C140.761 144.485 141.096 144.865 141.096 145.34V149.334C141.278 149.86 141.337 150.466 141.213 151.094C140.972 152.32 140.054 153.255 138.968 153.394C137.292 153.605 135.893 152.014 136.068 150.1C136.184 148.852 137 147.8 138.072 147.516L138.057 147.508Z" fill="#E6E7E8"/>
<path d="M138.656 152.911C139.859 152.911 140.835 151.793 140.835 150.414C140.835 149.035 139.859 147.917 138.656 147.917C137.452 147.917 136.477 149.035 136.477 150.414C136.477 151.793 137.452 152.911 138.656 152.911Z" fill="#231F20"/>
<path d="M138.714 149.838C138.393 149.838 138.131 150.137 138.131 150.502C138.131 150.867 138.393 151.167 138.714 151.167C139.035 151.167 139.297 150.867 139.297 150.502C139.297 150.137 139.035 149.838 138.714 149.838Z" fill="#D1D3D4"/>
<path d="M140.07 145.391C140.07 145.545 140.18 145.676 140.318 145.676C140.457 145.676 140.566 145.552 140.566 145.391C140.566 145.231 140.457 145.106 140.318 145.106C140.18 145.106 140.07 145.231 140.07 145.391Z" fill="#414042"/>
<path d="M136.039 150.414C136.039 152.064 137.212 153.401 138.655 153.401C140.098 153.401 141.272 152.064 141.272 150.414C141.272 148.764 140.098 147.428 138.655 147.428C137.212 147.428 136.039 148.764 136.039 150.414ZM136.906 150.414C136.906 149.312 137.686 148.413 138.655 148.413C139.625 148.413 140.405 149.304 140.405 150.414C140.405 151.524 139.625 152.415 138.655 152.415C137.686 152.415 136.906 151.524 136.906 150.414Z" fill="#D1D3D4"/>
<path d="M121.952 148.254V145.961C121.952 145.486 122.287 145.106 122.703 145.106C123.118 145.106 123.453 145.486 123.453 145.961V149.955C123.635 150.481 121.493 148.049 121.959 148.254H121.952Z" fill="#E6E7E8"/>
<path d="M122.673 154.606C123.35 154.606 123.912 154.044 123.912 153.365V149.159C123.912 148.48 123.35 147.918 122.673 147.918C121.995 147.918 121.434 148.48 121.434 149.159V153.365C121.434 154.044 121.987 154.606 122.673 154.606Z" fill="#1E1E1E"/>
<path d="M122.432 146.019C122.432 146.172 122.541 146.304 122.679 146.304C122.818 146.304 122.927 146.18 122.927 146.019C122.927 145.859 122.818 145.734 122.679 145.734C122.541 145.734 122.432 145.859 122.432 146.019Z" fill="#414042"/>
<path d="M132.298 100.302V103.12C132.298 105.004 130.542 106.538 128.377 106.538H127.94V109.714C127.94 110.51 127.204 111.152 126.293 111.152H119.828C118.917 111.152 118.181 110.51 118.181 109.714V106.384C116.585 105.953 115.434 104.654 115.434 103.12V100.302H132.305H132.298Z" fill="#BCBEC0"/>
<path d="M120.398 116.701H125.135V110.151H120.398V116.701Z" fill="#BCBEC0"/>
<path d="M120.367 140.074H125.155V135.978V132.678H120.367V140.074Z" fill="#58595B"/>
<path d="M142.822 144.974L125.156 135.979V140.075L137.823 144.974V145.873H142.822V144.974Z" fill="#58595B"/>
<path d="M102.709 144.974L120.368 135.979V140.075L107.701 144.974V145.873H102.709V144.974Z" fill="#58595B"/>
<path d="M124.376 135.979V145.873H125.556V146.573H120.367V145.873H121.468L121.125 135.979H124.376Z" fill="#58595B"/>
<path d="M157.778 96.1978L161.444 85.0041C162.239 82.5872 161.867 79.9878 160.431 77.8921C158.995 75.7892 156.714 74.5114 154.178 74.3799L123.969 72.8027L123.758 76.8918L153.967 78.469C155.22 78.5347 156.35 79.1699 157.064 80.2068C157.778 81.2437 157.961 82.5288 157.567 83.7263L153.901 94.92L157.786 96.1978H157.778Z" fill="#1E1E1E"/>
<path d="M104.422 29.5755V88.735H139.871L136.715 28.9183C136.46 23.9896 133.37 20.1269 129.544 19.8056C129.383 19.7983 129.208 19.791 129.041 19.791H112.118C107.869 19.791 104.422 24.1721 104.422 29.5828V29.5755Z" fill="#A7A9AC"/>
<path opacity="0.28" d="M104.422 78.3445V88.7351H139.871L136.715 28.9184C136.46 23.9896 133.37 20.1269 129.544 19.8057C124.158 34.8256 115.58 56.6581 104.422 78.3518V78.3445Z" fill="#808285"/>
<path d="M105.646 101.47H152.29C152.29 96.8038 148.515 93.0215 143.858 93.0215H114.079C109.422 93.0215 105.646 96.8038 105.646 101.47Z" fill="#939598"/>
<path d="M107.891 19.7842H112.126C107.877 19.7842 104.43 24.1653 104.43 29.576V88.7428H100.195V29.576C100.195 24.1653 103.643 19.7842 107.891 19.7842Z" fill="#939598"/>
<path d="M115.332 101.47H161.975C161.975 96.8038 158.2 93.0215 153.543 93.0215H123.764C119.107 93.0215 115.332 96.8038 115.332 101.47Z" fill="#A7A9AC"/>
<path d="M93.1984 77.1405L103.3 101.47H124.675L130.178 86.5891C130.987 84.1284 130.586 81.4851 129.092 79.3675C127.613 77.2792 125.178 76.0744 122.628 75.943L95.4942 74.5264C94.0657 74.4534 92.9434 75.7312 93.1984 77.1405ZM97.2433 78.725L122.7 80.0539C123.954 80.1196 125.084 80.7549 125.798 81.7918C126.512 82.8286 126.694 84.1137 126.301 85.3112L121.163 98.1114H105.552L97.2433 78.725Z" fill="#1E1E1E"/>
<path d="M58.7695 39.0469L59.1558 99.5135L61.1964 114.884C61.1964 115.38 62.8654 115.782 64.9206 115.782C66.9759 115.782 68.6448 115.38 68.6448 114.884L70.394 99.5135V39.0469H58.7695Z" fill="#666769"/>
<path d="M65.8613 114.745C63.8061 114.745 62.1371 114.343 62.1371 113.847L60.0965 98.4766L59.7175 39.0469H58.7773L59.1636 99.5135L61.2043 114.884C61.2043 115.38 62.8732 115.782 64.9284 115.782C66.9837 115.782 68.6526 115.38 68.6526 114.884L68.7037 114.424C68.0186 114.621 67.0055 114.745 65.8613 114.745Z" fill="#58595B"/>
<path d="M62.9679 115.504C62.6472 115.453 61.3354 115.175 61.3572 114.883C60.7013 109.874 60.1037 105.135 59.1562 99.5127C59.6154 104.215 60.5847 111.802 61.0439 114.905V114.883C61.1459 116.336 68.5797 116.073 68.638 114.883C68.536 115.664 64.9867 115.847 62.9533 115.504H62.9679Z" fill="#414042"/>
<path d="M60.7383 101.718C63.1725 101.485 66.955 101.485 69.3965 101.718C66.9623 101.952 63.1798 101.952 60.7383 101.718Z" fill="#464547"/>
<path d="M70.3937 93.3579V93.5551C66.7206 93.6135 62.5227 93.5989 59.1191 93.5113V93.4018C62.5227 93.3214 66.7206 93.3068 70.3937 93.3579Z" fill="#86888B"/>
<path d="M70.3937 92.8317V93.0289C66.7206 93.0873 62.5227 93.0727 59.1191 92.985V92.8755C62.5299 92.7879 66.7278 92.7806 70.3937 92.8317Z" fill="#86888B"/>
<path d="M70.3952 92.313V92.5102C66.7293 92.5686 62.5241 92.554 59.1133 92.4664V92.3568C62.5241 92.2765 66.7293 92.2619 70.3952 92.313Z" fill="#86888B"/>
<path d="M70.3952 91.7953V91.9851C66.7293 92.0363 62.5241 92.0217 59.1133 91.9413V91.8318C62.5314 91.7515 66.7366 91.7369 70.3952 91.7953Z" fill="#86888B"/>
<path d="M70.3946 91.2692V91.4664C66.736 91.5248 62.5236 91.5102 59.1055 91.4225V91.313C62.5308 91.2254 66.736 91.2181 70.3946 91.2692Z" fill="#86888B"/>
<path d="M70.3946 90.7514V90.9412C66.736 90.9996 62.5236 90.985 59.1055 90.9047V90.7879C62.5308 90.7075 66.736 90.6929 70.3946 90.7514Z" fill="#86888B"/>
<path d="M70.3941 90.2328V90.4226C66.7355 90.4811 62.523 90.4665 59.0977 90.3861V90.2693C62.5303 90.189 66.7355 90.1744 70.3941 90.2328Z" fill="#86888B"/>
<path d="M70.3941 89.7064V89.8963C66.7355 89.9547 62.523 89.9401 59.0977 89.8598V89.7429C62.5303 89.6626 66.7428 89.648 70.3941 89.7064Z" fill="#86888B"/>
<path d="M70.3936 89.1879V89.3777C66.735 89.4361 62.5225 89.4215 59.0898 89.3412V89.2244C62.5298 89.1441 66.7423 89.1295 70.3936 89.1879Z" fill="#86888B"/>
<path d="M70.3936 88.6625V88.8523C66.7423 88.9107 62.5225 88.9034 59.0898 88.8158V88.699C62.5298 88.6187 66.7496 88.6041 70.3936 88.6625Z" fill="#86888B"/>
<path d="M70.395 88.1442V88.3267C66.7437 88.3852 62.5239 88.3779 59.084 88.2975V88.1807C62.5312 88.0931 66.7437 88.0858 70.395 88.1442Z" fill="#86888B"/>
<path d="M70.395 87.6252V87.8078C66.751 87.8735 62.5312 87.8589 59.084 87.7786V87.6544C62.5312 87.5741 66.751 87.5668 70.395 87.6252Z" fill="#86888B"/>
<path d="M70.3945 87.1004V87.2902C66.7505 87.3486 62.5307 87.3413 59.0762 87.261V87.1369C62.5307 87.0565 66.7505 87.0492 70.3945 87.1077V87.1004Z" fill="#86888B"/>
<path d="M70.3945 86.5813V86.7638C66.7505 86.8223 62.5307 86.815 59.0762 86.7346V86.6105C62.5307 86.5302 66.7505 86.5229 70.3945 86.5813Z" fill="#86888B"/>
<path d="M70.394 86.0627V86.2453C66.7499 86.3037 62.5302 86.2964 59.0684 86.2161V86.0919C62.5302 86.0116 66.7499 86.0043 70.394 86.0627Z" fill="#86888B"/>
<path d="M70.394 85.5373V85.7199C66.7499 85.7856 62.5302 85.771 59.0684 85.6907V85.5666C62.5375 85.4862 66.7572 85.4789 70.394 85.5373Z" fill="#86888B"/>
<path d="M70.3954 85.0189V85.1942C66.7587 85.2599 62.5316 85.2526 59.0625 85.1723V85.0408C62.5316 84.9605 66.7587 84.9605 70.3954 85.0189Z" fill="#86888B"/>
<path d="M70.3954 84.5004V84.6757C66.7587 84.7414 62.5316 84.7268 59.0625 84.6538V84.5223C62.5389 84.442 66.7587 84.4347 70.3954 84.5004Z" fill="#86888B"/>
<path d="M70.3954 83.9746V84.1571C66.766 84.2155 62.5389 84.2082 59.0625 84.1352V84.0038C62.5389 83.9234 66.766 83.9161 70.3954 83.9819V83.9746Z" fill="#86888B"/>
<path d="M70.3949 83.4564V83.6317C66.7654 83.6974 62.5384 83.6901 59.0547 83.6098V83.4783C62.5311 83.398 66.7654 83.398 70.3949 83.4564Z" fill="#86888B"/>
<path d="M70.3949 82.9379V83.1132C66.7654 83.1716 62.5384 83.1643 59.0547 83.0913V82.9598C62.5384 82.8795 66.7654 82.8722 70.3949 82.9379Z" fill="#86888B"/>
<path d="M70.3944 82.4121V82.5946C66.7722 82.6603 62.5378 82.653 59.0469 82.5727V82.4413C62.5378 82.3609 66.7649 82.3536 70.3944 82.4194V82.4121Z" fill="#86888B"/>
<path d="M70.3944 81.8942V82.0694C66.7722 82.1351 62.5378 82.1279 59.0469 82.0548V81.9161C62.5378 81.8431 66.7722 81.8358 70.3944 81.9015V81.8942Z" fill="#86888B"/>
<path d="M70.3938 81.3756V81.5509C66.7717 81.6166 62.5373 81.6093 59.0391 81.5363V81.3975C62.5373 81.3245 66.7717 81.3172 70.3938 81.3829V81.3756Z" fill="#86888B"/>
<path d="M70.3938 80.8493V81.0245C66.7717 81.0902 62.5373 81.0829 59.0391 81.0099V80.8712C62.5446 80.7982 66.779 80.7909 70.3938 80.8566V80.8493Z" fill="#86888B"/>
<path d="M70.3938 80.3308V80.4987C66.779 80.5645 62.5446 80.5572 59.0391 80.4841V80.3454C62.5446 80.2651 66.7862 80.2651 70.3938 80.3308Z" fill="#86888B"/>
<path d="M70.3953 79.8049V79.9802C66.7804 80.0459 62.5387 80.0386 59.0332 79.9656V79.8268C62.546 79.7465 66.7804 79.7465 70.3953 79.8122V79.8049Z" fill="#86888B"/>
<path d="M70.3953 79.2869V79.4548C66.7804 79.5205 62.5387 79.5205 59.0332 79.4402V79.3015C62.5533 79.2211 66.7877 79.2211 70.3953 79.2869Z" fill="#86888B"/>
<path d="M70.3947 78.7688V78.944C66.7799 79.0097 62.5455 79.0024 59.0254 78.9294V78.7907C62.5455 78.7104 66.7872 78.7031 70.3947 78.7761V78.7688Z" fill="#86888B"/>
<path d="M70.3947 78.2433V78.4185C66.7872 78.4843 62.5455 78.477 59.0254 78.4039V78.2579C62.5455 78.1849 66.7872 78.1776 70.3947 78.2433Z" fill="#86888B"/>
<path d="M70.3942 77.7246V77.8926C66.7866 77.9583 62.545 77.9583 59.0176 77.8853V77.7392C62.545 77.6662 66.7866 77.6589 70.3942 77.7319V77.7246Z" fill="#86888B"/>
<path d="M70.3942 77.2061V77.374C66.7866 77.4397 62.545 77.4397 59.0176 77.3667V77.2207C62.5523 77.1476 66.7939 77.1403 70.3942 77.2134V77.2061Z" fill="#86888B"/>
<path d="M70.3937 76.6875V76.8554C66.7861 76.9212 62.5445 76.9139 59.0098 76.8481V76.7021C62.5445 76.6291 66.7934 76.6218 70.3937 76.6948V76.6875Z" fill="#86888B"/>
<path d="M70.3937 76.1621V76.3301C66.7934 76.3958 62.5445 76.3958 59.0098 76.3228V76.1767C62.5518 76.1037 66.8007 76.0964 70.3937 76.1694V76.1621Z" fill="#86888B"/>
<path d="M70.3951 75.6436V75.8115C66.7948 75.8772 62.5459 75.8772 59.0039 75.8042V75.6582C62.5459 75.5851 66.7948 75.5778 70.3951 75.6509V75.6436Z" fill="#86888B"/>
<path d="M70.3951 75.1181V75.2861C66.8021 75.3518 62.5459 75.3518 59.0039 75.2788V75.1327C62.5532 75.0597 66.8021 75.0524 70.3951 75.1327V75.1181Z" fill="#86888B"/>
<path d="M70.3946 74.5992V74.7599C66.8016 74.8329 62.5454 74.8256 58.9961 74.7599V74.6065C62.5454 74.5335 66.8016 74.5335 70.3946 74.6065V74.5992Z" fill="#86888B"/>
<path d="M70.3946 74.0807V74.2413C66.8016 74.3143 62.5527 74.307 58.9961 74.2413V74.088C62.5527 74.0149 66.8089 74.0149 70.3946 74.088V74.0807Z" fill="#86888B"/>
<path d="M70.3941 73.5553V73.7159C66.8011 73.7889 62.5448 73.7816 58.9883 73.7159V73.5626C62.5521 73.4896 66.8083 73.4896 70.3941 73.5626V73.5553Z" fill="#86888B"/>
<path d="M70.3941 73.0367V73.1974C66.8083 73.2704 62.5521 73.2704 58.9883 73.1974V73.044C62.5521 72.971 66.8156 72.971 70.3941 73.044V73.0367Z" fill="#86888B"/>
<path d="M70.3935 72.5182V72.6788C66.8078 72.7445 62.5516 72.7445 58.9805 72.6788V72.5255C62.5516 72.4524 66.8078 72.4524 70.3935 72.5255V72.5182Z" fill="#86888B"/>
<path d="M70.3935 71.9928V72.1534C66.8078 72.2264 62.5516 72.2191 58.9805 72.1534V72.0001C62.5516 71.9271 66.8151 71.9271 70.3935 72.0001V71.9928Z" fill="#86888B"/>
<path d="M70.395 71.4742V71.6349C66.8165 71.7079 62.553 71.7079 58.9746 71.6349V71.4815C62.553 71.4085 66.8165 71.4085 70.395 71.4815V71.4742Z" fill="#86888B"/>
<path d="M70.395 70.9556V71.109C66.8165 71.182 62.553 71.182 58.9746 71.109V70.9483C62.5603 70.8753 66.8165 70.8753 70.395 70.9483V70.9556Z" fill="#86888B"/>
<path d="M70.3944 70.4373V70.5906C66.816 70.6637 62.5525 70.6637 58.9668 70.5906V70.43C62.5525 70.357 66.816 70.3643 70.3944 70.43V70.4373Z" fill="#86888B"/>
<path d="M70.3944 69.9119V70.0652C66.8233 70.1383 62.5525 70.1383 58.9668 70.0652V69.9046C62.5598 69.8316 66.8233 69.8389 70.3944 69.9046V69.9119Z" fill="#86888B"/>
<path d="M70.3939 69.3857V69.539C66.8228 69.612 62.552 69.612 58.959 69.539V69.3784C62.5593 69.3127 66.8228 69.3127 70.3939 69.3784V69.3857Z" fill="#86888B"/>
<path d="M70.3939 68.867V69.0203C66.8228 69.0933 62.552 69.0933 58.959 69.0203V68.8597C62.552 68.7867 66.8228 68.794 70.3939 68.8597V68.867Z" fill="#86888B"/>
<path d="M70.3939 68.3484V68.5018C66.8301 68.5748 62.552 68.5748 58.959 68.5018V68.3411C62.5593 68.2681 66.8301 68.2754 70.3939 68.3411V68.3484Z" fill="#86888B"/>
<path d="M70.3953 67.8303V67.9764C66.8315 68.0494 62.5607 68.0567 58.9531 67.9764V67.8157C62.5607 67.7427 66.8315 67.75 70.3953 67.8157V67.8303Z" fill="#86888B"/>
<path d="M70.3953 67.3051V67.4511C66.8315 67.5315 62.5607 67.5315 58.9531 67.4511V67.2905C62.5607 67.2248 66.8315 67.2248 70.3953 67.2905V67.3051Z" fill="#86888B"/>
<path d="M70.3953 66.7861V66.9322C66.8388 67.0052 62.5607 67.0052 58.9531 66.9322V66.7642C62.5607 66.6985 66.8461 66.6985 70.3953 66.7715V66.7861Z" fill="#86888B"/>
<path d="M70.3948 66.2678V66.4139C66.8383 66.4869 62.5602 66.4942 58.9453 66.4212V66.2532C62.5602 66.1802 66.8455 66.1875 70.3948 66.2532V66.2678Z" fill="#86888B"/>
<path d="M70.3948 65.7417V65.8878C66.8383 65.9608 62.5602 65.9681 58.9453 65.8951V65.7271C62.5602 65.6614 66.8455 65.6614 70.3948 65.7344V65.7417Z" fill="#86888B"/>
<path d="M70.3943 65.2232V65.3692C66.845 65.4422 62.5597 65.4495 58.9375 65.3765V65.2086C62.5597 65.1429 66.845 65.1428 70.3943 65.2159V65.2232Z" fill="#86888B"/>
<path d="M70.3943 64.7056V64.8516C66.845 64.9246 62.5597 64.9319 58.9375 64.8589V64.691C62.5669 64.6253 66.8523 64.6253 70.3943 64.6983V64.7056Z" fill="#86888B"/>
<path d="M70.3938 64.1794V64.3181C66.8445 64.3984 62.5591 64.3984 58.9297 64.3327V64.1648C62.5664 64.0991 66.8518 64.0991 70.3938 64.1794Z" fill="#86888B"/>
<path d="M70.3938 63.6608V63.7996C66.8518 63.8799 62.5591 63.8799 58.9297 63.8142V63.6462C62.5664 63.5805 66.8518 63.5805 70.3938 63.6608Z" fill="#86888B"/>
<path d="M70.3952 63.1423V63.281C66.8532 63.3613 62.5606 63.3613 58.9238 63.2956V63.1277C62.5678 63.062 66.8532 63.062 70.3952 63.1423Z" fill="#86888B"/>
<path d="M70.3952 62.6168V62.7555C66.8532 62.8358 62.5606 62.8358 58.9238 62.7701V62.5949C62.5678 62.5291 66.8605 62.5364 70.3952 62.6095V62.6168Z" fill="#86888B"/>
<path d="M70.3947 62.0983V62.2371C66.86 62.3174 62.5673 62.3174 58.916 62.2517V62.0837C62.5673 62.018 66.8527 62.018 70.3947 62.0983Z" fill="#86888B"/>
<path d="M70.3947 61.5728V61.7115C66.86 61.7919 62.5673 61.7992 58.916 61.7262V61.5509C62.5746 61.4852 66.8673 61.4925 70.3947 61.5655V61.5728Z" fill="#86888B"/>
<path d="M70.3941 61.0618V61.1933C66.8594 61.2736 62.5668 61.2736 58.9082 61.2079V61.0326C62.5668 60.9669 66.8594 60.9742 70.3941 61.0545V61.0618Z" fill="#86888B"/>
<path d="M70.3941 60.5363V60.6677C66.8667 60.7481 62.5668 60.7554 58.9082 60.6823V60.5144C62.5741 60.4487 66.8667 60.4487 70.3941 60.529V60.5363Z" fill="#86888B"/>
<path d="M70.3936 60.0174V60.1489C66.8662 60.2292 62.5663 60.2365 58.9004 60.1708V59.9955C62.5736 59.9298 66.8662 59.9371 70.3936 60.0174Z" fill="#86888B"/>
<path d="M70.3936 59.4989V59.6303C66.8662 59.7106 62.5663 59.7106 58.9004 59.6522V59.477C62.5736 59.4113 66.8735 59.4186 70.3936 59.4989Z" fill="#86888B"/>
<path d="M70.3951 58.9735V59.1049C66.8676 59.1852 62.5677 59.1925 58.8945 59.1268V58.9516C62.575 58.8859 66.8749 58.8932 70.3951 58.9735Z" fill="#86888B"/>
<path d="M70.3951 58.4544V58.5785C66.8749 58.6588 62.5677 58.6661 58.8945 58.6077V58.4252C62.575 58.3595 66.8822 58.3741 70.3951 58.4544Z" fill="#86888B"/>
<path d="M70.3945 57.929V58.0532C66.8744 58.1335 62.5672 58.1408 58.8867 58.0751V57.8998C62.5745 57.8341 66.8817 57.8414 70.3945 57.9217V57.929Z" fill="#86888B"/>
<path d="M70.3945 57.4105V57.5346C66.8817 57.6149 62.5672 57.6222 58.8867 57.5565V57.3813C62.5745 57.3156 66.8817 57.3229 70.3945 57.4032V57.4105Z" fill="#86888B"/>
<path d="M70.394 56.8919V57.016C66.8812 57.0963 62.5739 57.1036 58.8789 57.0452V56.8627C62.5739 56.797 66.8812 56.8116 70.394 56.8919Z" fill="#86888B"/>
<path d="M70.394 56.3737V56.4905C66.8812 56.5782 62.5739 56.5855 58.8789 56.5197V56.3445C62.5739 56.2788 66.8885 56.2861 70.394 56.3737Z" fill="#86888B"/>
<path d="M70.3954 55.8483V55.9651C66.8826 56.0528 62.5754 56.0601 58.873 55.9943V55.8191C62.5754 55.7534 66.8899 55.7607 70.3954 55.8483Z" fill="#86888B"/>
<path d="M70.3954 55.3294V55.4462C66.8899 55.5265 62.5754 55.5338 58.873 55.4754V55.3002C62.5754 55.2345 66.8899 55.2491 70.3954 55.3294Z" fill="#86888B"/>
<path d="M70.3949 54.8113V54.9281C66.8894 55.0157 62.5748 55.023 58.8652 54.9573V54.7748C62.5748 54.7091 66.8894 54.7237 70.3949 54.804V54.8113Z" fill="#86888B"/>
<path d="M70.3949 54.2852V54.402C66.8967 54.4896 62.5748 54.4969 58.8652 54.4385V54.2487C62.5748 54.1903 66.8967 54.1976 70.3949 54.2852Z" fill="#86888B"/>
<path d="M70.3949 53.7666V53.8762C66.8967 53.9638 62.5821 53.9711 58.8652 53.9127V53.7301C62.5821 53.6717 66.9039 53.679 70.3949 53.7666Z" fill="#86888B"/>
<path d="M70.3949 53.2482V53.3578C66.8967 53.4381 62.5821 53.4527 58.8652 53.3943V53.2117C62.5821 53.146 66.9039 53.1606 70.3949 53.2482Z" fill="#86888B"/>
<path d="M70.3944 52.7232V52.8327C66.9034 52.9203 62.5816 52.9276 58.8574 52.8692V52.6793C62.5816 52.6209 66.9034 52.6282 70.3944 52.7159V52.7232Z" fill="#86888B"/>
<path d="M70.3944 52.2043V52.3138C66.9107 52.4015 62.5816 52.4088 58.8574 52.3503V52.1678C62.5816 52.1021 66.9107 52.1167 70.3944 52.2043Z" fill="#86888B"/>
<path d="M70.3939 51.6857V51.7953C66.9102 51.8829 62.5811 51.8902 58.8496 51.8318V51.6492C62.5811 51.5835 66.9102 51.5981 70.3939 51.6857Z" fill="#86888B"/>
<path d="M70.3939 51.1677V51.27C66.9102 51.3576 62.5811 51.3722 58.8496 51.3138V51.1239C62.5884 51.0655 66.9175 51.0801 70.3939 51.1677Z" fill="#86888B"/>
<path d="M70.3953 50.6423V50.7446C66.9116 50.8322 62.5825 50.8468 58.8438 50.7884V50.5985C62.5898 50.5401 66.9189 50.5547 70.3953 50.6423Z" fill="#86888B"/>
<path d="M70.3953 50.1238V50.226C66.9189 50.3136 62.5825 50.3282 58.8438 50.2698V50.08C62.5898 50.0216 66.9262 50.0362 70.3953 50.1238Z" fill="#86888B"/>
<path d="M70.3948 49.6052V49.7075C66.9184 49.7951 62.5893 49.8097 58.8359 49.7513V49.5614C62.582 49.503 66.9184 49.5176 70.3948 49.6052Z" fill="#86888B"/>
<path d="M70.3948 49.0789V49.1811C66.9257 49.2687 62.5893 49.2833 58.8359 49.2249V49.035C62.5893 48.9766 66.9257 48.9912 70.3948 49.0789Z" fill="#86888B"/>
<path d="M70.3942 48.5613V48.6635C66.9251 48.7511 62.5888 48.7657 58.8281 48.7073V48.5175C62.5888 48.4591 66.9251 48.4737 70.3942 48.5613Z" fill="#86888B"/>
<path d="M70.3942 48.0349V48.1371C66.9251 48.2248 62.5888 48.2394 58.8281 48.181V47.9911C62.596 47.9327 66.9324 47.9473 70.3942 48.0349Z" fill="#86888B"/>
<path d="M70.3937 47.5168V47.6117C66.9319 47.7067 62.5882 47.714 58.8203 47.6556V47.4657C62.5955 47.4073 66.9319 47.4219 70.3937 47.5095V47.5168Z" fill="#86888B"/>
<path d="M70.3937 46.9978V47.0927C66.9319 47.1804 62.5882 47.195 58.8203 47.1439V46.9467C62.5955 46.8883 66.9392 46.9029 70.3937 46.9978Z" fill="#86888B"/>
<path d="M70.3951 46.4724V46.5674C66.9406 46.655 62.5897 46.6696 58.8145 46.6185V46.4213C62.5969 46.3629 66.9333 46.3775 70.3951 46.4724Z" fill="#86888B"/>
<path d="M70.3951 45.9539V46.0488C66.9406 46.1364 62.5897 46.151 58.8145 46.0999V45.9028C62.5969 45.8443 66.9479 45.8589 70.3951 45.9539Z" fill="#86888B"/>
<path d="M70.3946 45.4353V45.5302C66.9474 45.6179 62.5964 45.6325 58.8066 45.5814V45.3842C62.5964 45.3258 66.9401 45.3404 70.3946 45.4353Z" fill="#86888B"/>
<path d="M70.3946 44.9099V45.0048C66.9474 45.0924 62.5891 45.107 58.8066 45.0559V44.8588C62.5964 44.8004 66.9474 44.8223 70.3946 44.9099Z" fill="#86888B"/>
<path d="M70.3941 44.3918V44.4794C66.9469 44.567 62.5959 44.5889 58.7988 44.5305V44.3334C62.5959 44.275 66.9469 44.2969 70.3941 44.3845V44.3918Z" fill="#86888B"/>
<path d="M70.3941 43.8732V43.9609C66.9541 44.0558 62.5959 44.0704 58.7988 44.012V43.8148C62.5959 43.7564 66.9541 43.7783 70.3941 43.8659V43.8732Z" fill="#86888B"/>
<path d="M70.3936 43.3542V43.4491C66.9536 43.5368 62.5954 43.5587 58.791 43.5003V43.3031C62.5954 43.2447 66.9536 43.2666 70.3936 43.3542Z" fill="#86888B"/>
<path d="M70.3936 42.8286V42.9163C66.9536 43.0039 62.5954 43.0258 58.791 42.9747V42.7702C62.5954 42.7191 66.9536 42.7337 70.3936 42.8286Z" fill="#86888B"/>
<path d="M70.395 42.3103V42.3979C66.9623 42.4928 62.5968 42.5074 58.7852 42.4563V42.2592C62.5968 42.2007 66.9623 42.2227 70.395 42.3103Z" fill="#86888B"/>
<path d="M70.395 41.7925V41.8801C66.9623 41.9677 62.5968 41.9897 58.7852 41.9385V41.7341C62.6041 41.683 66.9623 41.6976 70.395 41.7925Z" fill="#86888B"/>
<path d="M70.3945 41.2664V41.354C66.9618 41.449 62.5963 41.4636 58.7773 41.4125V41.208C62.5963 41.1496 66.9618 41.1715 70.3945 41.2664Z" fill="#86888B"/>
<path d="M70.3945 40.7479V40.8355C66.9618 40.9304 62.6036 40.9523 58.7773 40.8939V40.6894C62.6036 40.631 66.9691 40.6529 70.3945 40.7479Z" fill="#86888B"/>
<path d="M60.7383 102.843C63.1725 102.61 66.955 102.61 69.3965 102.843C66.9623 103.077 63.1798 103.077 60.7383 102.843Z" fill="#464547"/>
<path d="M61.0371 103.975C63.4713 103.741 67.2538 103.741 69.6953 103.975C67.2611 104.209 63.4786 104.209 61.0371 103.975Z" fill="#464547"/>
<path d="M61.2109 104.924C63.6451 104.691 67.4276 104.691 69.8691 104.924C67.4349 105.158 63.6524 105.158 61.2109 104.924Z" fill="#464547"/>
<path d="M54.0907 94.3945H74.0308L73.6445 99.5131H53.9668L54.0907 94.3945Z" fill="#999B9E"/>
<path d="M20.85 115.782H23.1822L23.7288 113.985H20.3398L20.85 115.782Z" fill="#888A8D"/>
<path d="M46.286 28.0505C46.5994 27.5394 46.7597 26.9553 46.7597 26.3565V11.5776C46.7597 8.1311 43.9684 5.3418 40.5357 5.3418H13.14C9.70005 5.3418 6.91602 8.1384 6.91602 11.5776V26.3565C6.91602 26.9553 7.08364 27.5394 7.38974 28.0505C7.70312 28.5617 7.86346 29.1458 7.86346 29.7446V43.158C7.86346 43.545 7.79058 43.932 7.6594 44.2971L7.12737 45.7283C6.9889 46.0934 6.9233 46.4804 6.9233 46.8674V58.3897C6.9233 59.9085 7.63753 61.3396 8.85463 62.2451L19.5753 70.2552H34.1296L44.8503 62.2451C46.0674 61.3396 46.7816 59.9085 46.7816 58.3897V46.8674C46.7816 46.4804 46.7087 46.0934 46.5775 45.7283L46.0455 44.2971C45.907 43.932 45.8414 43.545 45.8414 43.158V29.7446C45.8414 29.1458 46.0091 28.5617 46.3152 28.0505H46.286ZM18.0011 41.0916C18.0011 42.625 16.7622 43.8663 15.2244 43.8663C13.6866 43.8663 12.4549 42.625 12.4549 41.0916V30.4893C12.4549 28.956 13.6939 27.7146 15.2244 27.7146C16.7549 27.7146 18.0011 28.956 18.0011 30.4893V41.0916Z" fill="#888A8D"/>
<path d="M45.8131 29.744V43.1575C45.8131 43.5445 45.886 43.9315 46.0172 44.3039L46.5492 45.7278C46.6877 46.0929 46.7533 46.4799 46.7533 46.8742V58.3965C46.7533 59.9153 46.039 61.3464 44.8219 62.2519L34.1012 70.2693H19.547L18.9275 69.8093C19.8895 69.5026 20.9172 69.2105 22.0176 68.9476C37.4027 65.2894 37.4246 35.5782 33.0226 21.4199C29.9981 11.6501 16.5808 8.41536 8.55664 7.34929C9.69357 6.11528 11.3261 5.33398 13.1335 5.33398H40.5293C43.9692 5.33398 46.7605 8.13059 46.7605 11.5771V26.356C46.7605 26.9547 46.5929 27.5389 46.2868 28.05C45.9807 28.5611 45.8131 29.1453 45.8131 29.744Z" fill="#808285"/>
<path d="M34.1074 70.2616C47.2332 59.8346 46.5044 62.0397 46.4534 55.95C46.4169 45.7493 46.4534 46.5014 46.2566 45.9246C46.242 45.888 45.6881 44.4204 45.7246 44.508C45.4476 43.7997 45.4695 43.3689 45.4622 42.8943C45.4622 42.8213 45.4768 39.8129 45.4768 39.8494C45.5205 28.7214 45.4403 29.2471 45.6808 28.5608C45.9505 27.7941 46.4971 27.5093 46.5117 26.3118C46.5117 26.2315 46.5408 23.6247 46.5408 23.7708C46.5408 23.7343 46.6137 16.6077 46.7595 11.584C46.8396 14.293 46.8761 17.002 46.9344 19.7109C47.0291 27.5823 47.1822 26.8886 46.4315 28.3636C45.914 29.364 46.1764 30.1453 46.1108 31.7298C46.1108 32.3504 46.1473 43.4346 46.2347 43.8362C46.4242 44.6759 47.0728 45.6836 47.0947 46.8154C47.0728 53.3505 47.0874 49.9333 47.051 57.9945C47.0291 59.5425 46.7157 60.7473 45.6152 61.8864C45.1852 62.3391 41.2206 65.1868 40.7104 65.5519C38.5094 67.1291 36.323 68.7209 34.1074 70.2762V70.2616Z" fill="#6D6E71"/>
<path d="M18.0001 41.0912C18.0074 41.9017 17.6357 42.6976 17.0235 43.2233C15.3254 44.7056 12.5923 43.6541 12.33 41.3759C12.3008 41.0693 12.1259 35.4906 12.1113 30.4889C12.1113 27.3491 16.3165 26.2173 17.8324 28.9555C18.5175 30.1822 18.0511 30.007 18.0074 41.0912H18.0001ZM18.0001 41.0912C17.9855 36.3888 17.8106 30.5838 17.7814 30.2406C17.5409 28.2472 15.1504 27.3272 13.6564 28.6269C12.279 29.8098 13.0515 30.5765 12.6288 40.1565C12.6142 41.0839 12.4903 41.6461 12.9349 42.4493C14.2759 44.8881 18.0001 43.8805 18.0001 41.0985V41.0912Z" fill="#6D6E71"/>
<path d="M19.4503 32.9053H44.1131C45.6144 32.9053 46.8315 34.1247 46.8315 35.6289V36.3298C46.8315 37.834 45.6144 39.0534 44.1131 39.0534H19.443C17.9417 39.0534 16.7246 37.834 16.7246 36.3298V35.6289C16.7246 34.1247 17.9417 32.9053 19.443 32.9053H19.4503Z" fill="#949698"/>
<path d="M7.85547 73.9198L10.7051 68.9473H44.4924L46.8246 73.9198H7.85547Z" fill="#1C191C"/>
<path d="M4.19727 154.263L5.24674 157.811H51.3217L52.8376 153.605L4.19727 154.263Z" fill="#989A9D"/>
<path d="M2.52843 154.496L0.779297 72.6055H55.9498L54.2006 154.496H2.52843Z" fill="#BCBEC0"/>
<path d="M47.5968 91.9043L44.2734 142.207H10.9962L10.7776 137.534L8.66406 91.9043H47.5968Z" fill="#A3A5A8"/>
<path d="M47.5985 91.9043L44.2678 142.207H10.9979L10.7793 137.534C17.2146 122.2 30.5445 95.38 47.5985 91.9043Z" fill="#999B9E"/>
<path d="M70.4012 39.0465C70.4012 39.3824 67.7994 39.6525 64.5854 39.6525C61.3714 39.6525 58.7695 39.3824 58.7695 39.0465C58.7695 38.7106 61.3714 38.4404 64.5854 38.4404C67.7994 38.4404 70.4012 38.7106 70.4012 39.0465Z" fill="#231F20"/>
<path d="M64.5857 38.2578C56.5615 38.2578 56.5688 39.8277 64.5857 39.8277C72.6025 39.8277 72.6025 38.2578 64.5857 38.2578ZM69.7675 39.1486C67.7851 39.5794 61.3789 39.5794 59.4039 39.1486C59.2946 39.1267 59.2946 38.9588 59.4039 38.9369C61.3862 38.5061 67.7924 38.5061 69.7675 38.9369C69.8768 38.9588 69.8768 39.1267 69.7675 39.1486Z" fill="#86888B"/>
<path d="M33.5171 106.91V103.091C33.5171 103.091 30.5946 102.762 30.1938 106.165C29.7929 109.567 30.1938 119.14 30.1938 119.14L31.5056 120.053V117.461L30.7768 117.059C30.7768 117.059 30.1938 107.37 30.7039 106.384C31.2141 105.398 32.2344 105.471 32.4166 105.471C32.5988 105.471 32.526 106.946 32.526 106.946L33.5098 106.917L33.5171 106.91Z" fill="#DDDFE0"/>
<path d="M34.6245 106.917V103.098C34.6245 103.098 37.547 102.777 37.9405 106.179C38.3341 109.582 37.9114 119.155 37.9114 119.155L36.5922 120.067V117.475L37.3283 117.074C37.3283 117.074 37.9332 107.384 37.4231 106.398C36.9129 105.413 35.8926 105.478 35.7104 105.478C35.5282 105.478 35.5938 106.953 35.5938 106.953L34.6172 106.917H34.6245Z" fill="#DDDFE0"/>
<path d="M31.5059 117.461L36.6002 117.468L36.5929 120.06L31.5059 120.053V117.461Z" fill="#888A8D"/>
<path d="M32.3203 113.985L32.8305 115.782H35.1626L35.7165 113.985H32.3203Z" fill="#939598"/>
<path d="M35.7107 113.985L35.1641 115.774H34.5009C34.5155 115.475 34.5155 115.139 34.4572 114.883C34.3697 114.504 33.6701 114.168 33.2109 113.985H35.7107Z" fill="#ABADB0"/>
<path d="M35.7165 106.384H32.3203V107.443H35.7165V106.384Z" fill="#A7A9AC"/>
<path d="M34.1432 106.858C32.6345 106.858 31.4102 107.085 31.4102 107.37L31.9568 114.423H36.0818L36.8835 107.37C36.8835 107.085 35.6591 106.858 34.1505 106.858H34.1432Z" fill="#D1D3D4"/>
<path d="M36.0092 114.35C34.4277 114.35 33.1158 114.394 31.957 114.431C33.1377 114.46 34.4787 114.511 36.0821 114.511H36.1549L36.1622 114.438C36.4173 112.35 36.7088 109.633 36.8837 107.377C36.7088 108.545 36.2351 112.218 36.0092 114.358V114.35Z" fill="#ABADB0"/>
<path d="M33.7055 107.092C33.2464 106.983 32.1021 107.18 31.8471 107.443C31.592 107.698 32.2333 114.19 32.2333 114.19H33.5962C33.5962 114.19 35.4619 107.509 33.7055 107.092Z" fill="#E6E7E8"/>
<path d="M34.2738 108.494C35.2156 108.494 35.9792 108.317 35.9792 108.099C35.9792 107.882 35.2156 107.705 34.2738 107.705C33.3319 107.705 32.5684 107.882 32.5684 108.099C32.5684 108.317 33.3319 108.494 34.2738 108.494Z" fill="#888A8D"/>
<path d="M10.998 142.207L15.5749 138.293H40.3324L44.2752 142.207H10.998Z" fill="#989A9D"/>
<path d="M8.6582 91.9043L15.4871 95.0003L15.5746 138.293L10.9977 142.207L8.6582 91.9043Z" fill="#AEB1B3"/>
<path d="M47.5982 91.9043H8.6582L15.4871 95.0003H43.0432L47.5982 91.9043Z" fill="#A9ABAD"/>
<path d="M40.332 138.293V95.0003L47.5982 91.9043L44.2749 142.207L40.332 138.293Z" fill="#AEB1B3"/>
<path d="M29.1884 74.6436H3.49805L5.71361 153.606V76.3741L29.1884 74.6436Z" fill="#D3D4D6"/>
<path d="M8.77334 15.2793H44.8564C46.5473 15.2793 47.9247 16.652 47.9247 18.3534C47.9247 20.0474 46.5545 21.4274 44.8564 21.4274H8.77334C7.08252 21.4274 5.70508 20.0547 5.70508 18.3534C5.70508 16.6593 7.07523 15.2793 8.77334 15.2793Z" fill="#949698"/>
<path d="M8.77334 50.5254H44.8564C46.5473 50.5254 47.9247 51.8981 47.9247 53.5995C47.9247 55.2935 46.5545 56.6735 44.8564 56.6735H8.77334C7.08252 56.6735 5.70508 55.3008 5.70508 53.5995C5.70508 51.9054 7.07523 50.5254 8.77334 50.5254Z" fill="#949698"/>
<path d="M21.6167 106.91V103.091C21.6167 103.091 18.6942 102.762 18.2934 106.165C17.8925 109.567 18.2934 119.14 18.2934 119.14L19.6052 120.053V117.461L18.8764 117.059C18.8764 117.059 18.2934 107.37 18.8035 106.384C19.3137 105.398 20.334 105.471 20.5162 105.471C20.6984 105.471 20.6256 106.946 20.6256 106.946L21.6094 106.917L21.6167 106.91Z" fill="#DDDFE0"/>
<path d="M22.7319 106.917V103.098C22.7319 103.098 25.6544 102.777 26.048 106.179C26.4415 109.582 26.0188 119.155 26.0188 119.155L24.6997 120.067V117.475L25.4358 117.074C25.4358 117.074 26.0407 107.384 25.5305 106.398C25.0203 105.413 24 105.478 23.8178 105.478C23.6356 105.478 23.7012 106.953 23.7012 106.953L22.7246 106.917H22.7319Z" fill="#DDDFE0"/>
<path d="M19.6055 117.461L24.6998 117.468V120.06L19.6055 120.053V117.461Z" fill="#F1F2F2"/>
<path d="M20.4199 113.985L20.9301 115.782H23.2695L23.8161 113.985H20.4199Z" fill="#939598"/>
<path d="M23.8162 113.985L23.2696 115.774H22.6064C22.621 115.475 22.621 115.139 22.5627 114.883C22.4752 114.504 21.7756 114.168 21.3164 113.985H23.8162Z" fill="#ABADB0"/>
<path d="M23.8161 106.384H20.4199V107.443H23.8161V106.384Z" fill="#A7A9AC"/>
<path d="M22.2428 106.858C20.7342 106.858 19.5098 107.085 19.5098 107.37L20.0564 114.423H24.1814L24.9831 107.37C24.9831 107.085 23.7587 106.858 22.2501 106.858H22.2428Z" fill="#D1D3D4"/>
<path d="M24.1088 114.35C22.5273 114.35 21.2154 114.394 20.0566 114.431C21.2373 114.46 22.5783 114.511 24.1817 114.511H24.2546L24.2618 114.438C24.5169 112.35 24.8084 109.633 24.9834 107.377C24.8084 108.545 24.3347 112.218 24.1088 114.358V114.35Z" fill="#ABADB0"/>
<path d="M21.8129 107.092C21.3538 106.983 20.2096 107.18 19.9545 107.443C19.6994 107.698 20.3408 114.19 20.3408 114.19H21.7036C21.7036 114.19 23.5694 107.509 21.8129 107.092Z" fill="#E6E7E8"/>
<path d="M22.3812 108.494C23.323 108.494 24.0866 108.317 24.0866 108.099C24.0866 107.882 23.323 107.705 22.3812 107.705C21.4393 107.705 20.6758 107.882 20.6758 108.099C20.6758 108.317 21.4393 108.494 22.3812 108.494Z" fill="#F1F2F2"/>
<path d="M196.828 41.748L192.215 42.7046L194.008 42.7411L196.828 41.748Z" fill="#E5E6E7"/>
<path d="M265.452 65.1801H194.008V42.7415L265.409 17.499L265.452 65.1801Z" fill="#010101"/>
<path d="M265.452 10.6055H252.945V65.1795H265.452V10.6055Z" fill="#9B9DA0"/>
<path d="M248.98 20.4264L252.945 10.6055V65.1795H248.98V20.4264Z" fill="#939598"/>
<path d="M249.899 0.5H237.393V65.1797H249.899V0.5Z" fill="#9B9DA0"/>
<path d="M235.221 12.1318L237.393 0.5V65.1797H235.221V12.1318Z" fill="#A3A5A8"/>
<path d="M226.782 28.8389H222.117V65.1801H226.782V28.8389Z" fill="#E5E6E7"/>
<path d="M247.349 3.11426H240.688V24.3918H247.349V3.11426Z" fill="#808285"/>
<path d="M242.32 10.5615H241.635V22.7775H242.32V10.5615Z" fill="#F1F2F2"/>
<path d="M263.331 12.8838H256.67V31.8175H263.331V12.8838Z" fill="#808285"/>
<path d="M263.331 13.877H256.67V16.4472H263.331V13.877Z" fill="#414042"/>
<path d="M258.296 17.9805H257.611V30.1965H258.296V17.9805Z" fill="#F1F2F2"/>
<path d="M259.483 61.7397C257.42 61.7397 255.744 60.0603 255.744 57.9939C255.744 55.9275 257.42 54.248 259.483 54.248C261.545 54.248 263.222 55.9275 263.222 57.9939C263.222 60.0603 261.545 61.7397 259.483 61.7397Z" fill="#A7A9AC"/>
<path d="M259.483 53.7373C257.136 53.7373 255.227 55.6431 255.227 58.0016C255.227 60.3601 257.129 62.2659 259.483 62.2659C261.837 62.2659 263.739 60.3601 263.739 58.0016C263.739 55.6431 261.837 53.7373 259.483 53.7373ZM259.483 61.229C257.704 61.229 256.261 59.7832 256.261 58.0016C256.261 56.2199 257.704 54.7742 259.483 54.7742C261.261 54.7742 262.704 56.2199 262.704 58.0016C262.704 59.7832 261.261 61.229 259.483 61.229Z" fill="#BCBEC0"/>
<path d="M244.018 61.7407C241.956 61.7407 240.279 60.0613 240.279 57.9949C240.279 55.9284 241.956 54.249 244.018 54.249C246.081 54.249 247.757 55.9284 247.757 57.9949C247.757 60.0613 246.081 61.7407 244.018 61.7407Z" fill="#A7A9AC"/>
<path d="M244.018 53.7373C241.671 53.7373 239.762 55.6431 239.762 58.0016C239.762 60.3601 241.664 62.2659 244.018 62.2659C246.372 62.2659 248.274 60.3601 248.274 58.0016C248.274 55.6431 246.372 53.7373 244.018 53.7373ZM244.018 61.229C242.24 61.229 240.797 59.7832 240.797 58.0016C240.797 56.2199 242.24 54.7742 244.018 54.7742C245.796 54.7742 247.239 56.2199 247.239 58.0016C247.239 59.7832 245.796 61.229 244.018 61.229Z" fill="#BCBEC0"/>
<path d="M206.513 12.3506H195.057V65.1794H206.513V12.3506Z" fill="#231F20"/>
<path d="M210.726 18.7324L206.514 12.3506V65.1794H210.726V18.7324Z" fill="#EAEAEB"/>
<path d="M203.941 17.498H197.936V36.4317H203.941V17.498Z" fill="#808285"/>
<path d="M203.941 18.4912H197.936V21.0615H203.941V18.4912Z" fill="#414042"/>
<path d="M199.409 22.5947H198.789V34.8107H199.409V22.5947Z" fill="#F1F2F2"/>
<path d="M201.485 60.7915C200.1 60.7915 198.971 59.5355 198.971 57.9948C198.971 56.4542 200.1 55.1982 201.485 55.1982C202.87 55.1982 203.999 56.4542 203.999 57.9948C203.999 59.5355 202.87 60.7915 201.485 60.7915Z" fill="#E6E7E8"/>
<path d="M201.485 54.8184C199.904 54.8184 198.621 56.2422 198.621 58.002C198.621 59.7617 199.904 61.1783 201.485 61.1783C203.067 61.1783 204.35 59.7544 204.35 58.002C204.35 56.2495 203.067 54.8184 201.485 54.8184ZM201.485 60.4043C200.29 60.4043 199.321 59.3236 199.321 57.9947C199.321 56.6657 200.29 55.5851 201.485 55.5851C202.681 55.5851 203.65 56.6657 203.65 57.9947C203.65 59.3236 202.681 60.4043 201.485 60.4043Z" fill="#BCBEC0"/>
<path d="M265.452 60.7988H192.215V70.0868H265.452V60.7988Z" fill="#E5E6E7"/>
<path d="M194.008 42.7051H192.215V70.087H194.008V42.7051Z" fill="#E5E6E7"/>
<path d="M194.008 60.7985L194.649 60.5795L265.452 60.543V60.7985H194.008Z" fill="#E9EAEB"/>
<path d="M247.349 4.17969H240.688V6.74994H247.349V4.17969Z" fill="#414042"/>
<path d="M192.215 42.705V70.0869H268.542V20.6315C268.542 18.901 267.143 17.499 265.416 17.499V65.1801H194.008V42.7415L192.215 42.705Z" fill="#D1D3D4"/>
<path d="M186.9 70.0869L189.692 155.898H196.244V155.19C196.244 152.642 198.328 150.553 200.872 150.553H255.831C258.374 150.553 260.459 152.642 260.459 155.19V155.898H267.011L270.786 70.0869H186.915H186.9Z" fill="#7C7E80"/>
<path d="M186.9 70.0869H270.778L267.003 155.898L268.461 72.2994L186.9 70.0869Z" fill="#737477"/>
<path d="M262.514 76.0889H196.244V93.0437H262.514V76.0889Z" fill="#86888B"/>
<path d="M262.514 98.0967H196.244V115.052H262.514V98.0967Z" fill="#86888B"/>
<path d="M203.729 122.083L196.244 125.77H262.522L258.134 122.083H203.729Z" fill="#6D6E71"/>
<path d="M196.244 142.725L207.927 150.56H264.088V132.539L262.522 125.771L196.244 142.725Z" fill="#58595B"/>
<path d="M262.514 125.771H196.244V142.725H262.514V125.771Z" fill="#86888B"/>
<path opacity="0.65" d="M232.19 82.405C232.19 83.3396 230.441 84.099 228.283 84.099C226.126 84.099 224.377 82.8723 224.377 81.9376C224.377 81.003 226.126 80.7109 228.283 80.7109C230.441 80.7109 232.19 81.4703 232.19 82.405Z" fill="#737477"/>
<path d="M227.867 83.1644C229.799 83.1644 231.366 82.6151 231.366 81.9376C231.366 81.2602 229.799 80.7109 227.867 80.7109C225.935 80.7109 224.369 81.2602 224.369 81.9376C224.369 82.6151 225.935 83.1644 227.867 83.1644Z" fill="#B6B8BA"/>
<path opacity="0.65" d="M232.19 103.617C232.19 104.552 230.441 105.311 228.283 105.311C226.126 105.311 224.377 104.084 224.377 103.15C224.377 102.215 226.126 101.923 228.283 101.923C230.441 101.923 232.19 102.682 232.19 103.617Z" fill="#737477"/>
<path d="M227.867 104.376C229.799 104.376 231.366 103.827 231.366 103.15C231.366 102.472 229.799 101.923 227.867 101.923C225.935 101.923 224.369 102.472 224.369 103.15C224.369 103.827 225.935 104.376 227.867 104.376Z" fill="#B6B8BA"/>
<path opacity="0.65" d="M232.19 131.429C232.19 132.364 230.441 133.123 228.283 133.123C226.126 133.123 224.377 131.897 224.377 130.962C224.377 130.027 226.126 129.735 228.283 129.735C230.441 129.735 232.19 130.495 232.19 131.429Z" fill="#737477"/>
<path d="M227.867 132.189C229.799 132.189 231.366 131.64 231.366 130.962C231.366 130.285 229.799 129.735 227.867 129.735C225.935 129.735 224.369 130.285 224.369 130.962C224.369 131.64 225.935 132.189 227.867 132.189Z" fill="#B6B8BA"/>
</g>
<defs>
<clipPath id="clip0_1227_12713">
<rect width="270" height="157.311" fill="white" transform="translate(0.779297 0.5)"/>
</clipPath>
</defs>
</svg>
