<svg width="118" height="118" viewBox="0 0 118 118" fill="none" xmlns="http://www.w3.org/2000/svg">
<g clip-path="url(#clip0_885_1950)">
<path fill-rule="evenodd" clip-rule="evenodd" d="M0 0H118V118H0V0Z" fill="white"/>
<path fill-rule="evenodd" clip-rule="evenodd" d="M116.265 116.231V1.76758H1.73438V116.231H116.265Z" fill="#072F5E"/>
<path fill-rule="evenodd" clip-rule="evenodd" d="M83.9928 31.3512H86.354C88.6496 31.2857 89.6334 33.3848 89.6334 35.0248V59.6232C89.6989 61.3942 88.6496 63.0342 86.6154 63.0342H83.9922V31.3512H83.9928ZM86.4201 30.4329H76.9743V31.3512H79.4658V86.6488H76.9743V87.6325H87.5998V86.6488H83.9922V64.1489H87.1406C91.6015 64.1489 94.1592 61.7878 94.1592 58.5739V36.4683C94.1598 33.2538 91.9951 30.4329 86.4201 30.4329ZM36.4362 31.1547C36.4362 32.0729 35.9115 32.0074 35.5179 31.6793C33.9434 30.63 32.1069 29.8428 30.4014 29.8428C27.6466 29.8428 23.7764 31.2202 23.7109 36.9923V79.367C23.7764 86.7798 27.3191 88.1571 30.795 88.1571C33.5498 88.2214 34.8623 86.7798 35.9115 86.2551C36.5017 86.058 37.1579 86.5826 37.1579 87.698H38.2727V60.7379H40.5683V59.8197H30.9921V60.7379H33.7469V83.894C33.7469 85.796 32.5005 87.2395 30.8605 87.2395C29.2866 87.2395 28.1057 85.7305 28.1057 83.894V35.2874C28.1057 33.9749 28.3683 30.892 30.4014 30.892C34.337 30.892 36.4362 42.437 36.4362 48.4063H37.5509V30.3674H36.4362V31.1547ZM53.8188 63.0991L56.5736 38.3703L59.3945 63.0991H53.8188ZM59.5249 64.0834L62.0838 86.6488H59.591V87.6325H69.0368V86.6488H66.5453L60.2473 30.3674H56.2455L50.3423 83.5003C50.0142 85.4011 49.8832 86.5826 47.1284 86.6488V87.6325H54.2125V86.6488C52.1788 86.6488 51.2606 85.3369 51.4577 84.0244L53.6878 64.0834H59.5249Z" fill="white"/>
</g>
<defs>
<clipPath id="clip0_885_1950">
<rect width="118" height="118" fill="white"/>
</clipPath>
</defs>
</svg>
