<svg width="266" height="159" viewBox="0 0 266 159" fill="none" xmlns="http://www.w3.org/2000/svg">
<g clip-path="url(#clip0_1227_12959)">
<path d="M35.0489 59.7764H32.0742V84.8061H35.0489V59.7764Z" fill="#414042"/>
<path d="M98.3556 59.7764H95.3809V84.8061H98.3556V59.7764Z" fill="#414042"/>
<path d="M66.6622 59.7764H63.6875V125.848H66.6622V59.7764Z" fill="#414042"/>
<path d="M120.785 37.1676C118.629 37.1676 116.583 37.6159 114.716 38.423C114.986 37.3071 115.145 36.1512 115.145 34.9555C115.145 26.9245 108.627 20.418 100.581 20.418C98.9643 20.418 97.427 20.687 95.9696 21.1753C94.3625 12.666 86.8958 6.22918 77.9118 6.22918C69.8162 6.22918 62.9585 11.4603 60.5028 18.7141C57.7378 8.51094 48.4343 0.998047 37.3341 0.998047C24.0678 0.998047 13.307 11.7393 13.307 24.9815C13.307 28.9173 14.2752 32.6339 15.9622 35.9121C7.55722 36.3405 0.869141 43.2556 0.869141 51.7549C0.869141 60.2543 7.99644 67.6376 16.7808 67.6376H120.785C129.21 67.6376 136.048 60.8222 136.048 52.4026C136.048 43.983 129.22 37.1676 120.785 37.1676Z" fill="url(#paint0_linear_1227_12959)" stroke="#231F20" stroke-miterlimit="10"/>
<path d="M40.1197 111.001H27.4023L30.3171 101.217H37.2149L40.1197 111.001Z" fill="#414042"/>
<path d="M51.539 76.6953H15.9824V102.941H51.539V76.6953Z" fill="#58595B"/>
<path d="M49.2339 79.3359H18.2891V100.3H49.2339V79.3359Z" fill="#231F20"/>
<path d="M40.789 109.288H26.7441C25.8013 109.288 25.0371 110.051 25.0371 110.992V111.022C25.0371 111.963 25.8013 112.726 26.7441 112.726H40.789C41.7318 112.726 42.496 111.963 42.496 111.022V110.992C42.496 110.051 41.7318 109.288 40.789 109.288Z" fill="#58595B"/>
<path d="M103.227 111.001H90.5098L93.4246 101.217H100.312L103.227 111.001Z" fill="#414042"/>
<path d="M114.646 76.6953H79.0898V102.941H114.646V76.6953Z" fill="#58595B"/>
<path d="M112.341 79.3359H81.3965V100.3H112.341V79.3359Z" fill="#231F20"/>
<path d="M103.896 109.288H89.8515C88.9088 109.288 88.1445 110.051 88.1445 110.992V111.022C88.1445 111.963 88.9088 112.726 89.8515 112.726H103.896C104.839 112.726 105.603 111.963 105.603 111.022V110.992C105.603 110.051 104.839 109.288 103.896 109.288Z" fill="#58595B"/>
<path d="M71.5337 147.031H58.8164L61.7312 137.246H68.6289L71.5337 147.031Z" fill="#414042"/>
<path d="M82.9531 112.725H47.3965V138.96H82.9531V112.725Z" fill="#58595B"/>
<path d="M80.648 115.365H49.7031V136.33H80.648V115.365Z" fill="#231F20"/>
<path d="M72.1931 145.307H58.1581C57.2154 145.307 56.4512 146.069 56.4512 147.01V147.04C56.4512 147.981 57.2154 148.744 58.1581 148.744H72.1931C73.1358 148.744 73.9001 147.981 73.9001 147.04V147.01C73.9001 146.069 73.1358 145.307 72.1931 145.307Z" fill="#58595B"/>
<path d="M243.858 30.9298C242.161 30.9298 240.554 31.2885 239.096 31.9162C239.316 31.0394 239.436 30.1327 239.436 29.196C239.436 22.8888 234.315 17.7772 227.996 17.7772C226.728 17.7772 225.521 17.9964 224.383 18.3751C223.125 11.6992 217.255 6.63742 210.198 6.63742C203.839 6.63742 198.449 10.7426 196.522 16.442C194.346 8.43095 187.039 2.53223 178.325 2.53223C167.903 2.53223 159.448 10.9618 159.448 21.3743C159.448 24.4731 160.207 27.3826 161.535 29.9533C154.936 30.2821 149.676 35.7225 149.676 42.3884C149.676 49.0544 155.266 54.8634 162.174 54.8634H243.868C250.486 54.8634 255.856 49.5028 255.856 42.8966C255.856 36.2904 250.486 30.9298 243.868 30.9298H243.858Z" fill="#6D6E71"/>
<g style="mix-blend-mode:multiply" opacity="0.5">
<path d="M238.837 54.7045C240.404 44.7903 239.396 36.0817 239.396 36.0817C226.589 33.9892 210.847 20.9961 210.847 20.9961C210.847 20.9961 195.105 33.9892 182.298 36.0817C182.298 36.0817 181.29 44.7903 182.857 54.7045H238.837Z" fill="#808285"/>
</g>
<path d="M229.063 36.0709C216.256 33.9785 200.514 20.9854 200.514 20.9854C200.514 20.9854 184.772 33.9785 171.965 36.0709C171.965 36.0709 166.505 83.0116 200.514 83.0116C234.524 83.0116 229.063 36.0709 229.063 36.0709Z" fill="#414042"/>
<path d="M221.179 53.8867C222.307 46.6229 221.578 40.2558 221.578 40.2558C212.135 38.7114 200.516 29.126 200.516 29.126V53.8867H221.179Z" fill="#231F20"/>
<path d="M200.505 29.126C200.505 29.126 188.886 38.7114 179.443 40.2558C179.443 40.2558 178.704 46.6229 179.842 53.8867H200.505V29.126Z" fill="#58595B"/>
<path d="M200.506 53.8867V74.881C214.84 74.881 219.662 63.5817 221.169 53.8867H200.506Z" fill="#58595B"/>
<path d="M179.842 53.8867C181.349 63.5718 186.171 74.881 200.505 74.881V53.8867H179.842Z" fill="#231F20"/>
<path d="M179.892 100.738H177.766V108.002H179.892V100.738Z" fill="#353744"/>
<path d="M188.357 100.738H186.23V108.002H188.357V100.738Z" fill="#353744"/>
<path d="M196.822 100.738H194.695V108.002H196.822V100.738Z" fill="#353744"/>
<path d="M205.286 100.738H203.16V108.002H205.286V100.738Z" fill="#353744"/>
<path d="M213.751 100.738H211.625V108.002H213.751V100.738Z" fill="#353744"/>
<path d="M179.892 151.286H177.766V158.5H179.892V151.286Z" fill="#353744"/>
<path d="M188.357 151.286H186.23V158.5H188.357V151.286Z" fill="#353744"/>
<path d="M196.822 151.286H194.695V158.5H196.822V151.286Z" fill="#353744"/>
<path d="M205.286 151.286H203.16V158.5H205.286V151.286Z" fill="#353744"/>
<path d="M213.751 151.286H211.625V158.5H213.751V151.286Z" fill="#353744"/>
<path d="M174.012 145.417H166.176V147.539H174.012V145.417Z" fill="#353744"/>
<path d="M174.012 136.968H166.176V139.09H174.012V136.968Z" fill="#353744"/>
<path d="M174.012 128.518H166.176V130.64H174.012V128.518Z" fill="#353744"/>
<path d="M174.012 120.068H166.176V122.191H174.012V120.068Z" fill="#353744"/>
<path d="M174.012 111.619H166.176V113.741H174.012V111.619Z" fill="#353744"/>
<path d="M225.011 145.417H217.375V147.539H225.011V145.417Z" fill="#353744"/>
<path d="M225.011 136.968H217.375V139.09H225.011V136.968Z" fill="#353744"/>
<path d="M225.011 128.518H217.375V130.64H225.011V128.518Z" fill="#353744"/>
<path d="M225.011 120.068H217.375V122.191H225.011V120.068Z" fill="#353744"/>
<path d="M225.011 111.619H217.375V113.741H225.011V111.619Z" fill="#353744"/>
<path d="M218.204 107.025H172.984V152.163H218.204V107.025Z" fill="#353744"/>
<path d="M205.196 120.009H185.99V139.18H205.196V120.009Z" fill="#F4E9D4"/>
<path d="M181.088 104.973H176.566V109.576H181.088V104.973Z" fill="#4EC6DB"/>
<path d="M189.553 104.973H185.031V109.576H189.553V104.973Z" fill="#4EC6DB"/>
<path d="M197.979 104.973H193.457V109.576H197.979V104.973Z" fill="#4EC6DB"/>
<path d="M206.395 104.973H201.873V109.576H206.395V104.973Z" fill="#4EC6DB"/>
<path d="M214.819 104.973H210.297V109.576H214.819V104.973Z" fill="#4EC6DB"/>
<path d="M181.088 149.712H176.566V154.315H181.088V149.712Z" fill="#4EC6DB"/>
<path d="M189.553 149.712H185.031V154.315H189.553V149.712Z" fill="#4EC6DB"/>
<path d="M197.979 149.712H193.457V154.315H197.979V149.712Z" fill="#4EC6DB"/>
<path d="M206.395 149.712H201.873V154.315H206.395V149.712Z" fill="#4EC6DB"/>
<path d="M214.819 149.712H210.297V154.315H214.819V149.712Z" fill="#4EC6DB"/>
<path d="M175.588 144.222H170.977V148.735H175.588V144.222Z" fill="#4EC6DB"/>
<path d="M175.588 135.771H170.977V140.285H175.588V135.771Z" fill="#4EC6DB"/>
<path d="M175.588 127.372H170.977V131.886H175.588V127.372Z" fill="#4EC6DB"/>
<path d="M175.588 118.963H170.977V123.477H175.588V118.963Z" fill="#4EC6DB"/>
<path d="M175.588 110.562H170.977V115.076H175.588V110.562Z" fill="#4EC6DB"/>
<path d="M220.409 144.222H215.797V148.735H220.409V144.222Z" fill="#4EC6DB"/>
<path d="M220.409 135.771H215.797V140.285H220.409V135.771Z" fill="#4EC6DB"/>
<path d="M220.409 127.372H215.797V131.886H220.409V127.372Z" fill="#4EC6DB"/>
<path d="M220.409 118.963H215.797V123.477H220.409V118.963Z" fill="#4EC6DB"/>
<path d="M220.409 110.562H215.797V115.076H220.409V110.562Z" fill="#4EC6DB"/>
<g style="mix-blend-mode:multiply" opacity="0.5">
<path d="M220.408 115.067V113.741H225.01V111.619H220.408V110.563H218.202V107.026H214.808V104.973H213.75V100.738H211.624V104.973H210.296V107.026H206.393V104.973H205.285V100.738H203.159V104.973H201.871V107.026H197.968V104.973H196.82V100.738H195.562V158.5H196.82V154.315H197.968V152.163H201.871V154.315H203.159V158.5H205.285V154.315H206.393V152.163H210.296V154.315H211.624V158.5H213.75V154.315H214.808V152.163H218.202V148.735H220.408V147.539H225.01V145.417H220.408V144.221H218.202V140.286H220.408V139.09H225.01V136.968H220.408V135.772H218.202V131.876H220.408V130.64H225.01V128.518H220.408V127.372H218.202V123.476H220.408V122.191H225.01V120.069H220.408V118.963H218.202V115.067H220.408Z" fill="#9E9E9E"/>
</g>
</g>
<defs>
<linearGradient id="paint0_linear_1227_12959" x1="0.869141" y1="34.3178" x2="136.048" y2="34.3178" gradientUnits="userSpaceOnUse">
<stop stop-color="white"/>
<stop offset="1" stop-color="#231F20"/>
</linearGradient>
<clipPath id="clip0_1227_12959">
<rect width="265.477" height="158" fill="white" transform="translate(0.369141 0.5)"/>
</clipPath>
</defs>
</svg>
