<svg width="408" height="359" viewBox="0 0 408 359" fill="none" xmlns="http://www.w3.org/2000/svg">
<path d="M194.333 181.035H159.83V214.909H194.333V181.035Z" fill="#58595B"/>
<path d="M181.082 184.137H163.637V184.801H181.082V184.137Z" fill="black"/>
<path d="M189.805 211.272H172.359V211.937H189.805V211.272Z" fill="black"/>
<path d="M175.095 186.111H163.637V186.776H175.095V186.111Z" fill="black"/>
<path d="M170.123 188.29H163.637V188.955H170.123V188.29Z" fill="black"/>
<path d="M178.846 209.813H172.359V210.478H178.846V209.813Z" fill="black"/>
<path d="M178.478 194.64C178.478 194.64 178.33 194.64 178.256 194.64L177.498 194.788C177.498 194.788 177.369 194.788 177.295 194.788L176.685 194.714C176.685 194.714 176.556 194.714 176.482 194.714L176.057 194.788V181.017H179.217V193.975C179.217 194.363 178.866 194.677 178.478 194.621V194.64Z" fill="#D1D3D4"/>
<path d="M192.983 193.477H188.215C187.858 193.477 187.568 193.766 187.568 194.123V195.47C187.568 195.827 187.858 196.116 188.215 196.116H192.983C193.34 196.116 193.63 195.827 193.63 195.47V194.123C193.63 193.766 193.34 193.477 192.983 193.477Z" fill="#414042"/>
<path d="M166.002 204.94H164.616C164.075 204.94 163.637 205.378 163.637 205.919V207.303C163.637 207.844 164.075 208.282 164.616 208.282H166.002C166.543 208.282 166.982 207.844 166.982 207.303V205.919C166.982 205.378 166.543 204.94 166.002 204.94Z" fill="black"/>
<path d="M169.901 204.94H168.515C167.974 204.94 167.535 205.378 167.535 205.919V207.303C167.535 207.844 167.974 208.282 168.515 208.282H169.901C170.442 208.282 170.88 207.844 170.88 207.303V205.919C170.88 205.378 170.442 204.94 169.901 204.94Z" fill="black"/>
<path d="M166.002 208.817H164.616C164.075 208.817 163.637 209.255 163.637 209.796V211.18C163.637 211.721 164.075 212.159 164.616 212.159H166.002C166.543 212.159 166.982 211.721 166.982 211.18V209.796C166.982 209.255 166.543 208.817 166.002 208.817Z" fill="black"/>
<path d="M169.901 208.817H168.515C167.974 208.817 167.535 209.255 167.535 209.796V211.18C167.535 211.721 167.974 212.159 168.515 212.159H169.901C170.442 212.159 170.88 211.721 170.88 211.18V209.796C170.88 209.255 170.442 208.817 169.901 208.817Z" fill="black"/>
<path d="M89.863 122.389H119.857C126.214 122.389 131.37 127.539 131.37 133.889V198.35H78.3496V133.908C78.3496 127.557 83.5057 122.407 89.863 122.407V122.389Z" fill="#A7A9AC"/>
<path d="M84.3927 134.258C84.3927 131.065 86.6843 128.351 89.826 127.798C99.7685 126.044 119.949 122.481 120.504 122.444C120.411 122.444 120.337 122.444 120.245 122.444H119.69L89.863 122.426C83.5057 122.426 78.3496 127.576 78.3496 133.926V198.387H131.37V196.837L87.1648 192.074C85.594 191.908 84.3927 190.579 84.3927 188.991V134.277V134.258Z" fill="#939598"/>
<path d="M123.793 122.389H85.9266C81.7685 122.389 78.3496 118.992 78.3496 114.82C78.3496 110.667 81.75 107.252 85.9266 107.252H123.793C127.951 107.252 131.37 110.649 131.37 114.82C131.37 118.974 127.97 122.389 123.793 122.389Z" fill="#BCBEC0"/>
<path d="M124.052 114.839H86.832C85.4829 114.839 84.3926 113.75 84.3926 112.403C84.3926 111.055 85.4829 109.966 86.832 109.966H124.052C125.401 109.966 126.491 111.055 126.491 112.403C126.491 113.75 125.401 114.839 124.052 114.839Z" fill="#808285"/>
<path d="M113.001 119.159H97.4033C96.8674 119.159 96.4238 118.716 96.4238 118.181C96.4238 117.645 96.8674 117.202 97.4033 117.202H113.001C113.537 117.202 113.98 117.645 113.98 118.181C113.98 118.716 113.537 119.159 113.001 119.159Z" fill="#6D6E71"/>
<path d="M125.234 112.403C125.234 113.215 124.569 113.879 123.756 113.879C122.943 113.879 122.277 113.215 122.277 112.403C122.277 111.59 122.943 110.926 123.756 110.926C124.569 110.926 125.234 111.59 125.234 112.403Z" fill="#231F20"/>
<path d="M96.2932 142.325L94.168 174.98H113.443L113.979 173.448L96.2932 142.325Z" fill="#939598"/>
<path d="M113.979 144.78H96.7363V173.448H113.979V144.78Z" fill="#BCBEC0"/>
<path d="M140.295 136.492H103.889V149.82H140.295V136.492Z" fill="#BCBEC0"/>
<path d="M131.369 149.82V152.072L113.979 154.103V148.823L131.369 149.82Z" fill="#939598"/>
<path d="M177.348 136.492H148.943V149.82H177.348V136.492Z" fill="#BCBEC0"/>
<path d="M184.02 161.007V143.156H170.677V161.007H184.02Z" fill="#BCBEC0"/>
<path d="M179.66 147.826H105.59V149.82H179.66V147.826Z" fill="#A7A9AC"/>
<path d="M105.441 152.349C110.513 152.349 114.625 148.241 114.625 143.174C114.625 138.108 110.513 134 105.441 134C100.368 134 96.2559 138.108 96.2559 143.174C96.2559 148.241 100.368 152.349 105.441 152.349Z" fill="#6D6E71"/>
<path d="M150.534 143.156C150.534 148.232 146.413 152.33 141.349 152.33C136.285 152.33 132.164 148.214 132.164 143.156C132.164 138.098 136.285 133.981 141.349 133.981C146.413 133.981 150.534 138.098 150.534 143.156Z" fill="#6D6E71"/>
<path d="M186.09 181.035V160.379H168.607V181.035H186.09Z" fill="#808285"/>
<path d="M173.819 147.826H170.695V160.397H173.819V147.826Z" fill="#A7A9AC"/>
<path d="M186.551 143.156C186.551 148.232 182.43 152.33 177.366 152.33C172.303 152.33 168.182 148.214 168.182 143.156C168.182 138.098 172.303 133.981 177.366 133.981C182.43 133.981 186.551 138.098 186.551 143.156Z" fill="#6D6E71"/>
<path d="M73.8585 257.588C72.3985 257.588 71.1973 256.388 71.1973 254.93V247.73C71.1973 246.272 72.3985 245.072 73.8585 245.072C75.3184 245.072 76.5196 246.272 76.5196 247.73V254.93C76.5196 256.388 75.3184 257.588 73.8585 257.588Z" fill="#6D6E71"/>
<path d="M135.878 257.588C134.418 257.588 133.217 256.388 133.217 254.93V247.73C133.217 246.272 134.418 245.072 135.878 245.072C137.338 245.072 138.539 246.272 138.539 247.73V254.93C138.539 256.388 137.338 257.588 135.878 257.588Z" fill="#6D6E71"/>
<path d="M68 218.768H141.719V247.62C141.719 249.06 140.536 250.241 139.094 250.241H70.6242C69.1828 250.241 68 249.06 68 247.62V218.768Z" fill="#BCBEC0"/>
<path d="M70.2916 211.716H139.409C140.684 211.716 141.7 212.75 141.7 214.005V218.749H68V214.005C68 212.731 69.0349 211.716 70.2916 211.716Z" fill="#808285"/>
<path d="M139.612 204.683H69.959V211.734H139.612V204.683Z" fill="#BCBEC0"/>
<path d="M139.52 197.631H70.1992C68.9846 197.631 68 198.614 68 199.828V202.486C68 203.699 68.9846 204.682 70.1992 204.682H139.52C140.734 204.682 141.719 203.699 141.719 202.486V199.828C141.719 198.614 140.734 197.631 139.52 197.631Z" fill="#808285"/>
<path d="M116.622 225.689H93.2812V236.341H116.622V225.689Z" fill="#A7A9AC"/>
<path d="M113.407 227.554H96.4785V234.476H113.407V227.554Z" fill="#6D6E71"/>
<path d="M113.444 204.683H96.4785V211.734H113.444V204.683Z" fill="#A7A9AC"/>
<path d="M107.493 208.209C107.493 209.612 106.366 210.738 104.962 210.738C103.557 210.738 102.43 209.612 102.43 208.209C102.43 206.806 103.557 205.68 104.962 205.68C106.366 205.68 107.493 206.806 107.493 208.209Z" fill="#6D6E71"/>
<g style="mix-blend-mode:multiply">
<path d="M139.52 204.683L139.612 205.679L69.959 208.208V204.683H139.52Z" fill="#A7A9AC"/>
</g>
<path d="M111.541 228.662H101.543V233.148H111.541V228.662Z" fill="#808285"/>
<g style="mix-blend-mode:multiply">
<path d="M141.719 218.768V220.041L68 222.293V218.768H141.719Z" fill="#A7A9AC"/>
</g>
<g style="mix-blend-mode:multiply">
<path d="M93.2812 225.689L116.622 236.341V225.689H93.2812Z" fill="#A7A9AC"/>
</g>
<path d="M106.052 208.208C106.052 208.799 105.571 209.279 104.98 209.279C104.389 209.279 103.908 208.799 103.908 208.208C103.908 207.618 104.389 207.138 104.98 207.138C105.571 207.138 106.052 207.618 106.052 208.208Z" fill="#231F20"/>
<path d="M100.359 232.077C100.359 232.667 99.8781 233.147 99.2867 233.147C98.6953 233.147 98.2148 232.667 98.2148 232.077C98.2148 231.486 98.6953 231.006 99.2867 231.006C99.8781 231.006 100.359 231.486 100.359 232.077Z" fill="#231F20"/>
<path d="M338.001 103.947H250.348V243.54H338.001V103.947Z" fill="#939598"/>
<path d="M317.228 116.795H313.514V120.505H317.228V116.795Z" fill="#414042"/>
<path d="M324.398 116.795H320.684V120.505H324.398V116.795Z" fill="#414042"/>
<path d="M331.57 116.795H327.855V120.505H331.57V116.795Z" fill="#414042"/>
<path d="M317.228 123.902H313.514V127.613H317.228V123.902Z" fill="#414042"/>
<path d="M324.398 123.902H320.684V127.613H324.398V123.902Z" fill="#414042"/>
<path d="M331.57 123.902H327.855V127.613H331.57V123.902Z" fill="#414042"/>
<path d="M317.228 130.99H313.514V134.701H317.228V130.99Z" fill="#414042"/>
<path d="M324.398 130.99H320.684V134.701H324.398V130.99Z" fill="#414042"/>
<path d="M331.57 130.99H327.855V134.701H331.57V130.99Z" fill="#414042"/>
<path d="M317.228 138.098H313.514V141.808H317.228V138.098Z" fill="#414042"/>
<path d="M324.398 138.098H320.684V141.808H324.398V138.098Z" fill="#231F20"/>
<path d="M331.57 138.098H327.855V141.808H331.57V138.098Z" fill="#58595B"/>
<path d="M276.387 158.717C276.387 161.283 274.298 163.351 271.748 163.351C269.198 163.351 267.109 161.265 267.109 158.717C267.109 156.17 269.198 154.084 271.748 154.084C274.298 154.084 276.387 156.17 276.387 158.717Z" fill="#231F20"/>
<path d="M289.933 158.717C289.933 161.283 287.845 163.351 285.295 163.351C282.745 163.351 280.656 161.265 280.656 158.717C280.656 156.17 282.745 154.084 285.295 154.084C287.845 154.084 289.933 156.17 289.933 158.717Z" fill="#808285"/>
<path d="M303.478 158.717C303.478 161.283 301.39 163.351 298.84 163.351C296.289 163.351 294.201 161.265 294.201 158.717C294.201 156.17 296.289 154.084 298.84 154.084C301.39 154.084 303.478 156.17 303.478 158.717Z" fill="#808285"/>
<path d="M317.025 158.717C317.025 161.283 314.937 163.351 312.387 163.351C309.836 163.351 307.748 161.265 307.748 158.717C307.748 156.17 309.836 154.084 312.387 154.084C314.937 154.084 317.025 156.17 317.025 158.717Z" fill="#808285"/>
<path d="M330.572 158.717C330.572 161.283 328.484 163.351 325.934 163.351C323.383 163.351 321.295 161.265 321.295 158.717C321.295 156.17 323.383 154.084 325.934 154.084C328.484 154.084 330.572 156.17 330.572 158.717Z" fill="#58595B"/>
<path d="M262.434 99H250.348V243.54H262.434V99Z" fill="#58595B"/>
<path d="M258.146 103.947H254.672V237.854H258.146V103.947Z" fill="#414042"/>
<path d="M329.722 175.977H269.291V177.712H329.722V175.977Z" fill="#808285"/>
<path d="M329.722 179.945H269.291V181.681H329.722V179.945Z" fill="#808285"/>
<path d="M329.722 183.896H269.291V185.631H329.722V183.896Z" fill="#808285"/>
<path d="M329.722 187.864H269.291V189.599H329.722V187.864Z" fill="#808285"/>
<path d="M329.722 191.815H269.291V193.551H329.722V191.815Z" fill="#808285"/>
<path d="M329.722 195.784H269.291V197.519H329.722V195.784Z" fill="#808285"/>
<path d="M329.722 199.734H269.291V201.47H329.722V199.734Z" fill="#808285"/>
<path d="M329.722 203.703H269.291V205.438H329.722V203.703Z" fill="#808285"/>
<path d="M329.722 207.653H269.291V209.389H329.722V207.653Z" fill="#808285"/>
<path d="M329.722 211.622H269.291V213.357H329.722V211.622Z" fill="#808285"/>
<path d="M329.722 215.572H269.291V217.307H329.722V215.572Z" fill="#808285"/>
<path d="M329.722 219.541H269.291V221.276H329.722V219.541Z" fill="#808285"/>
<path d="M329.722 223.492H269.291V225.227H329.722V223.492Z" fill="#808285"/>
<path d="M329.722 227.461H269.291V229.196H329.722V227.461Z" fill="#808285"/>
<path d="M262.434 243.539H256.391V250.96H262.434V243.539Z" fill="#414042"/>
<path d="M332.752 243.539H326.709V250.96H332.752V243.539Z" fill="#414042"/>
<path d="M308.895 114.783H267.092V143.968H308.895V114.783Z" fill="#58595B"/>
<path d="M267.092 114.783L304.422 118.66L308.876 143.968V114.783H267.092Z" fill="#6D6E71"/>
<rect x="8.4707" y="8" width="390" height="340" stroke="#36CCCC" stroke-opacity="0.1" stroke-width="10"/>
</svg>
