<svg width="151" height="152" viewBox="0 0 151 152" fill="none" xmlns="http://www.w3.org/2000/svg">
<g clip-path="url(#clip0_885_1935)">
<path fill-rule="evenodd" clip-rule="evenodd" d="M0 0.525391H151V151.525H0V0.525391Z" fill="white"/>
<path fill-rule="evenodd" clip-rule="evenodd" d="M107.721 31.9172C98.2033 27.3478 87.3521 24.7783 76.0253 24.7783C64.6985 24.7783 53.8479 27.3478 44.33 32.012C40.9975 40.0079 39.1895 48.86 39.1895 57.9981C39.1895 67.2309 40.9983 75.9875 44.33 84.0782C53.8479 88.6468 64.6985 91.3118 76.0253 91.3118C87.3521 91.3118 98.2033 88.6468 107.721 84.0782C111.054 76.0838 112.957 67.2317 112.957 57.9981C112.957 48.86 111.054 40.0079 107.721 31.9172Z" fill="#0C0E0F"/>
<path fill-rule="evenodd" clip-rule="evenodd" d="M105.437 33.9156C96.5858 29.8232 86.4951 27.4434 76.0253 27.4434C65.5555 27.4434 55.4657 29.8232 46.6136 33.9156C43.6634 41.436 42.0449 49.5259 42.0449 57.9973C42.0449 66.4687 43.6626 74.6542 46.6136 82.079C55.4657 86.2669 65.5555 88.5512 76.0253 88.5512C86.4951 88.5512 96.6805 86.2669 105.437 82.079C108.482 74.6542 110.101 66.5643 110.101 57.9973C110.101 49.5259 108.388 41.4352 105.437 33.9156Z" fill="white"/>
<path fill-rule="evenodd" clip-rule="evenodd" d="M65.7452 50.287C64.2223 53.4284 63.1757 56.8548 62.6994 60.7576C62.6038 60.7576 61.8424 60.8532 61.8424 60.8532C58.5107 61.1391 55.1798 61.4243 51.9429 62.6612L52.1333 63.8989C57.4641 70.4667 65.554 74.4643 65.554 74.4643L64.0311 71.5133C63.6504 71.2282 62.5083 70.9422 62.5083 70.9422C58.8914 69.8001 56.3212 65.0411 55.9405 64.2797C58.8914 64.2797 61.5565 65.1359 64.0311 65.9929C65.7444 66.4692 67.3628 67.0395 68.9805 67.2306C71.8359 67.7061 74.7869 67.2306 77.5467 66.8491C79.7362 66.564 81.831 66.564 83.9257 66.7535C84.2101 67.0395 86.3996 69.7045 88.5891 70.8467C91.2542 72.1792 98.9641 74.5583 99.3448 74.6539C99.5344 74.7494 102.486 77.7944 104.389 81.2217C95.6309 85.22 85.8285 87.3124 76.0238 87.3124C66.2199 87.3124 56.416 85.2192 47.6594 81.2217C44.804 73.7976 43.2811 65.9921 43.2811 57.997C43.2811 50.0967 44.804 42.2911 47.6594 34.8679C56.416 30.8695 66.2199 28.7764 76.0238 28.7764C85.9233 28.7764 95.7272 30.8703 104.389 34.8679C107.244 42.2919 108.766 50.0967 108.766 57.997C108.774 65.2264 107.551 72.4042 105.15 79.2233C102.39 74.4635 101.248 73.0362 101.248 73.0362C101.154 73.0362 97.3457 71.037 96.3939 70.18C95.6317 69.5134 95.2525 68.1816 94.7754 66.658C94.2043 64.4692 93.4445 61.8034 91.3497 59.6147L93.7288 58.6621C93.063 54.189 87.7329 51.3336 87.6381 51.3336L87.5418 51.4292C89.6365 53.9987 90.0172 56.0926 90.0172 57.4259C90.0172 58.0918 89.9224 58.5673 89.8276 58.7577C89.2558 58.4725 85.3538 57.2348 76.3113 57.6155C75.0736 57.6155 73.17 57.5207 72.0278 56.4733C71.3612 55.9023 71.076 54.9505 71.076 53.9031C71.076 50.7625 72.4085 46.5738 72.5989 46.0035L74.884 46.2887C77.7394 44.7658 78.786 43.3377 78.8808 43.1481C76.5017 43.4341 73.3611 44.0044 73.3611 44.0044C73.5515 43.5281 74.1226 41.7201 74.1226 39.7209C74.1226 37.5314 73.4567 35.1522 70.6961 33.7242L70.5049 33.8197C70.6005 33.9145 72.1226 35.6278 72.1226 37.9121C72.1226 38.5787 72.0278 39.3402 71.7419 40.006C70.7901 39.7209 70.219 39.6261 69.1716 39.6261C68.6013 37.7217 66.9837 36.1988 64.7941 35.4374L64.6986 35.5322C64.6986 35.5322 67.0785 37.2462 67.1733 39.6261C66.0311 39.7209 65.3652 39.9112 63.9371 40.292C63.2705 39.3402 61.938 38.5787 60.1292 38.3884V38.5795C60.1292 38.5795 62.2231 39.2454 62.6038 40.8638C61.3677 41.4349 59.844 42.2911 58.987 43.0534L59.0826 43.1489C64.4126 41.1498 69.362 40.6742 70.5997 42.1971C70.8849 42.4823 70.9804 42.7682 70.9804 43.1489C70.9804 43.5289 70.7893 44.1007 70.4094 44.6718C67.8399 45.2429 63.8423 46.2895 60.6062 47.5272L61.0817 48.8597C61.0817 48.8597 64.3179 49.5264 65.5556 49.8123C65.5556 49.8123 66.0311 49.9071 65.7452 50.287ZM6.58398 114.947C6.58398 114.947 8.30584 115.573 10.2361 115.573C12.323 115.573 13.5748 115.261 14.3049 114.529C14.8791 113.956 15.14 112.964 15.0883 111.452V101.643H18.1662V111.922C18.1145 116.46 15.9234 118.391 10.8103 118.391C8.30584 118.391 6.58398 117.974 6.58398 117.974V114.947ZM27.1389 104.618C32.0429 104.618 34.9124 107.227 34.9124 111.609C34.9124 114.739 32.8779 118.391 27.1389 118.391C21.3482 118.391 19.3138 114.739 19.3138 111.609C19.313 107.227 22.2342 104.618 27.1389 104.618ZM31.8862 111.453C31.8862 108.793 30.1651 107.279 27.1389 107.279C24.1128 107.279 22.34 108.793 22.34 111.453C22.34 115.156 25.3654 115.679 27.1389 115.679C28.9125 115.679 31.8862 115.155 31.8862 111.453ZM47.1714 104.931V110.148H39.2938V104.931H36.2684V118.078H39.2938V112.808H47.1714V118.078H50.25V104.931H47.1714ZM92.9768 115.365V112.808H99.9669V110.148H92.9768V107.591H102.002V104.931H89.8981V118.078H102.002V115.365H92.9768ZM106.646 115.365V112.808H113.637V110.148H106.646V107.591H115.722V104.931H103.619V118.078H115.722V115.365H106.646ZM135.339 115.365V112.808H142.329V110.148H135.339V107.591H144.416V104.931H132.312V118.078H144.416V115.365H135.339ZM79.5169 104.358C83.4815 104.358 85.7776 106.339 85.7776 109.782C85.7776 114.635 81.8654 115.365 79.5169 115.365H75.1864V104.358H79.5169ZM79.5169 101.643H72.161V118.078H79.5169C86.4035 118.078 88.803 113.696 88.803 109.992C88.8022 104.774 85.3076 101.643 79.5169 101.643ZM127.512 113.07C129.86 112.496 130.694 110.721 130.694 109.156C130.694 106.496 128.973 104.931 126 104.931H117.392V118.077H120.417V113.277H124.017L127.669 118.077H131.374L127.512 113.07ZM120.418 110.565V107.591H126.001C127.043 107.591 127.67 108.166 127.67 109.052C127.67 110.357 126.627 110.565 126.001 110.565H120.418ZM63.0316 118.078L55.1007 109.104V118.078H52.0761V104.931H55.1007L63.0316 113.8V104.931H66.0569V118.078H63.0316Z" fill="#0C0E0F"/>
</g>
<defs>
<clipPath id="clip0_885_1935">
<rect width="151" height="151" fill="white" transform="translate(0 0.525391)"/>
</clipPath>
</defs>
</svg>
