<svg width="249" height="106" viewBox="0 0 249 106" fill="none" xmlns="http://www.w3.org/2000/svg">
<g clip-path="url(#clip0_894_2210)">
<path fill-rule="evenodd" clip-rule="evenodd" d="M80.1971 52.3755C80.1971 52.3755 79.1197 49.1289 79.5512 46.5316C80.6285 36.3592 86.6651 34.1957 90.9771 33.9788C95.5048 33.7619 97.0136 35.4943 97.0136 35.4943V27.0531C97.445 24.8882 95.9362 22.9403 95.9362 22.9403H102.404C103.482 22.9403 106.5 22.5078 106.5 22.5078C106.5 22.5078 106.285 56.9195 106.716 58.0026C106.932 59.2986 108.441 61.4648 108.441 61.4648H97.0149V42.8525C97.0149 40.2552 93.7815 40.0383 93.3501 40.0383C92.9186 40.0383 89.4695 40.6877 89.2538 47.3965C89.0381 56.2702 96.3677 56.0546 96.3677 56.0546C96.3677 56.0546 93.7815 61.6804 93.5658 61.6804C82.3518 61.4661 80.1971 52.3755 80.1971 52.3755Z" fill="black"/>
<path d="M22.418 72.0713H241.459" stroke="black" stroke-width="6.23846" stroke-miterlimit="2.613"/>
<path fill-rule="evenodd" clip-rule="evenodd" d="M24.1429 87.2184C24.1429 89.1664 24.1429 89.6001 23.0655 89.6001H22.4196C22.2039 89.8157 22.2039 90.0339 22.4196 90.2495C23.497 90.0339 24.1441 90.0339 25.0058 90.0339H26.7303C28.2404 90.0339 29.9649 90.0339 31.6895 90.2495C31.9052 89.6001 32.3354 88.0859 32.5511 87.4366C32.5511 87.4366 32.1209 87.2184 32.1209 87.4366C31.6895 88.3015 31.0436 88.9508 30.8279 89.1664C30.3964 89.3846 29.7505 89.6001 28.2417 89.6001C26.7316 89.6001 26.3014 89.3846 26.0857 89.1664C25.7925 88.5599 25.6452 87.8926 25.6555 87.2184V84.4055C25.6555 83.9744 25.8713 83.9744 26.3014 83.9744H28.8876C29.3178 84.19 29.3178 84.4055 29.5335 84.8393V85.4886C29.7492 85.7042 29.9649 85.7042 30.1794 85.4886C30.1794 85.0549 29.9637 84.4055 29.9637 83.7562C29.9637 82.8913 30.1794 82.242 30.1794 81.8082C29.9637 81.5926 29.7492 81.5926 29.5335 81.8082V82.4576C29.3178 82.8913 29.3178 83.1069 29.102 83.1069C28.8863 83.3251 28.2404 83.3251 27.3775 83.3251H26.3001C25.8687 83.3251 25.6542 83.3251 25.6542 82.6757V78.9953C25.6542 78.346 25.6542 78.1304 26.3001 78.1304H27.5932C28.4548 78.1304 29.102 78.346 29.5335 78.346C30.3951 78.5616 30.6108 79.2109 30.8266 80.0784C31.0423 80.294 31.2567 80.294 31.2567 80.0784C31.2567 79.2109 31.2567 77.9123 31.041 77.6967H22.8485C22.6328 77.6967 22.6328 77.9123 22.6328 78.1304H23.0642C24.1416 78.1304 24.1416 78.5616 24.1416 80.5096L24.1429 87.2184ZM38.5889 88.0859C38.5889 89.3846 38.5889 89.6001 37.9417 89.6001H37.5103V90.2495C38.1575 90.0339 38.5889 90.0339 39.4506 90.0339C40.0977 90.0339 40.5292 90.0339 40.9594 90.2495C41.1751 90.0339 41.1751 89.8157 41.1751 89.6001H40.7449C40.0977 89.6001 40.0977 89.3846 40.0977 88.0859V85.0549C40.0977 84.6211 40.0977 84.19 40.3135 83.9744C40.5292 83.5406 41.1751 83.3251 41.8223 83.3251C43.1154 83.3251 43.7612 84.19 43.7612 85.2704V88.0859C43.7612 89.3846 43.7612 89.6001 42.8996 89.6001H42.6839C42.4682 89.8157 42.4682 90.0339 42.6839 90.2495C43.1141 90.0339 43.7612 90.0339 44.4084 90.0339C45.0556 90.0339 45.7015 90.0339 46.133 90.2495C46.3487 90.0339 46.3487 89.8157 46.133 89.6001H45.7015C45.0556 89.6001 45.0556 89.3846 45.0556 88.0859V84.8393C45.0556 83.5406 44.4084 82.4576 42.8996 82.4576C41.8223 82.4576 40.9594 82.8913 40.3135 83.3251C40.0977 83.3251 40.0977 83.3251 40.0977 83.1069V82.242H39.882C39.4505 82.4576 38.3732 82.8913 37.9417 83.1069V83.3251L38.1575 83.5406C38.5889 83.7562 38.5889 83.9744 38.5889 84.6211V88.0859ZM56.0513 83.5406C56.2671 83.3251 56.2671 82.8913 56.0513 82.6757H53.8953C53.6796 82.6757 53.4652 82.6757 53.4652 82.242V81.3771H53.2481C53.0324 81.8082 52.601 82.242 52.3852 82.4576C52.1695 82.6757 51.7393 82.8913 51.0921 83.1069C51.0921 83.1069 51.0921 83.3251 51.3079 83.5406H51.738C52.1682 83.5406 52.1682 83.5406 52.1682 83.9744V88.3015C52.1682 89.3846 52.3839 90.465 54.1085 90.465C54.9701 90.465 55.833 89.8157 56.0487 89.3846C56.0487 89.3846 56.0487 89.1664 55.833 89.1664C55.833 89.1664 55.6173 89.3846 55.4016 89.3846C55.1858 89.3846 55.1858 89.6001 54.9714 89.6001C53.6783 89.6001 53.4626 88.5171 53.4626 87.4366V83.9744C53.4626 83.5406 53.4626 83.5406 53.8927 83.5406H56.0513ZM66.83 85.2704C67.4759 85.2704 67.9074 85.2704 67.9074 85.0549V84.6211C67.9074 83.5406 66.83 82.4576 65.3199 82.4576C62.9482 82.4576 61.4394 84.4055 61.4394 86.5717C61.4394 87.4366 61.6551 88.3015 62.301 89.1664C62.7312 89.8157 63.8098 90.465 65.1029 90.465C65.9658 90.465 67.2589 89.8157 67.9061 88.5171C67.9061 88.5171 67.9061 88.3015 67.6903 88.3015C67.0432 89.1664 66.613 89.3846 65.9658 89.3846C63.8098 89.3846 62.7312 87.6522 62.7312 85.7042C62.7312 85.2704 62.7312 85.2704 63.3783 85.2704H66.83ZM63.1652 84.6211H62.9495C62.9495 83.9744 64.0281 82.8913 65.1055 82.8913C66.1828 82.8913 66.6143 83.5406 66.6143 84.19C66.6143 84.4055 66.3986 84.4055 66.3986 84.6211H63.1652ZM74.5924 88.0859C74.5924 89.3846 74.5924 89.6001 73.9452 89.6001H73.5137C73.5137 89.8157 73.5137 90.0339 73.7295 90.2495C74.1609 90.0339 74.8068 90.0339 75.454 90.0339C76.1012 90.0339 76.5326 90.0339 77.3943 90.2495C77.61 90.0339 77.61 89.8157 77.61 89.6001H76.7484C76.1012 89.6001 76.1012 89.3846 76.1012 88.0859V85.4886C76.1012 84.8393 76.1012 84.19 76.3169 83.9744C76.5326 83.7562 76.7484 83.5406 76.9628 83.5406C77.1785 83.5406 77.61 83.7562 77.8244 83.9744H78.2559C78.4716 83.9744 79.1175 83.7562 79.1175 83.1069C79.1175 82.6757 78.686 82.4576 78.2559 82.4576C77.61 82.4576 76.7471 82.8913 76.0999 83.5406V82.242H75.8842C75.4527 82.4576 74.3754 82.8913 73.9439 83.1069V83.3251L74.1596 83.5406C74.5911 83.7562 74.5911 83.9744 74.5911 84.6211L74.5924 88.0859ZM85.3711 92.8468C85.3711 94.1454 85.3711 94.361 84.7252 94.361L84.2937 94.5766V95.0103H88.1742C88.39 95.0103 88.39 94.5766 88.1742 94.5766L87.5283 94.361C86.8812 94.361 86.8811 94.1454 86.8811 92.8468V90.8988C86.8811 90.465 86.8811 90.2495 87.0969 90.2495C87.3126 90.2495 87.7428 90.465 88.1742 90.465C90.7617 90.465 92.702 88.5171 92.702 85.9198C92.702 83.9744 91.4089 82.4576 89.6843 82.4576C88.3913 82.4576 87.0982 83.1069 86.8825 83.3251V83.1069V82.242C86.8825 82.0264 86.6667 82.0264 86.6667 82.0264C86.2353 82.4576 85.1579 82.8913 84.7264 83.1069V83.3251L84.9422 83.5406C85.3723 83.7562 85.3723 83.9744 85.3723 84.6211L85.3711 92.8468ZM86.8799 85.0549C86.8799 84.4055 86.8799 83.9744 87.0956 83.7562C87.3113 83.5406 87.7415 83.3251 88.6044 83.3251C90.3289 83.3251 91.1919 84.8393 91.1919 86.3535C91.1919 88.3015 90.3302 89.8157 88.8201 89.8157C88.3887 89.8157 87.7428 89.6001 87.3113 89.3846C87.0956 88.9508 86.8799 88.7352 86.8799 88.0859V85.0549ZM99.8158 88.0859C99.8158 89.3846 99.8158 89.6001 98.9529 89.6001H98.7372C98.5215 89.8157 98.5215 90.0339 98.7372 90.2495C99.1686 90.0339 99.8158 90.0339 100.462 90.0339C101.108 90.0339 101.755 90.0339 102.618 90.2495V89.6001H101.972C101.109 89.6001 101.109 89.3846 101.109 88.0859V85.4886C101.109 84.8393 101.109 84.19 101.325 83.9744C101.54 83.7562 101.756 83.5406 102.186 83.5406C102.402 83.5406 102.618 83.7562 102.833 83.9744H103.264C103.695 83.9744 104.125 83.7562 104.125 83.1069C104.125 82.6757 103.695 82.4576 103.264 82.4576C102.618 82.4576 101.971 82.8913 101.108 83.5406V82.242C100.462 82.4576 99.5988 82.8913 99.1674 83.1069C98.9516 83.1069 98.9516 83.3251 99.1674 83.3251V83.5406C99.8145 83.7562 99.8145 83.9744 99.8145 84.6211L99.8158 88.0859ZM110.81 88.0859C110.81 89.3846 110.81 89.6001 109.949 89.6001H109.733C109.517 89.8157 109.517 90.0339 109.733 90.2495C110.164 90.0339 110.81 90.0339 111.457 90.0339C112.105 90.0339 112.752 90.0339 113.182 90.2495C113.398 90.0339 113.398 89.8157 113.182 89.6001H112.966C112.105 89.6001 112.105 89.3846 112.105 88.0859V84.6211C112.105 83.7562 112.105 82.8913 112.32 82.242H112.105C111.673 82.4576 110.596 82.8913 110.164 83.1069C109.949 83.1069 109.949 83.3251 110.164 83.3251V83.5406C110.81 83.7562 110.81 83.9744 110.81 84.6211V88.0859ZM111.457 77.6967C110.812 77.6967 110.38 77.9123 110.38 78.5616C110.38 79.2109 110.81 79.4291 111.242 79.4291C111.889 79.4291 112.32 79.2109 112.32 78.5616C112.32 78.1304 111.889 77.6967 111.457 77.6967ZM121.806 82.4576C120.297 82.4576 119.22 83.1069 119.22 84.6211C119.22 85.4886 120.081 86.3535 121.16 86.7873C121.806 87.2184 122.669 87.6522 122.669 88.5171C122.669 89.3846 122.022 89.8157 121.376 89.8157C120.298 89.8157 119.651 88.9508 119.22 87.8677C119.22 87.6522 119.004 87.8677 118.79 87.8677C118.79 88.5171 119.005 89.3846 119.005 89.8157C119.651 90.2495 120.298 90.465 121.16 90.465C122.453 90.465 123.747 89.6001 123.747 88.3015C123.747 86.7873 122.886 86.1379 121.807 85.7042C121.161 85.2704 120.514 84.8393 120.514 84.19C120.514 83.3251 120.944 82.8913 121.592 82.8913C122.453 82.8913 123.1 83.5406 123.316 84.4055C123.316 84.4055 123.746 84.4055 123.746 84.19C123.746 83.7562 123.53 83.1069 123.53 82.6757C123.315 82.6757 122.668 82.4576 121.806 82.4576ZM134.958 85.2704C135.821 85.2704 136.035 85.2704 136.249 85.0549V84.6211C136.249 83.5406 135.172 82.4576 133.663 82.4576C131.292 82.4576 129.783 84.4055 129.783 86.5717C129.783 87.4366 129.997 88.3015 130.646 89.1664C131.077 89.8157 132.154 90.465 133.232 90.465C134.312 90.465 135.604 89.8157 136.249 88.5171C136.249 88.5171 136.035 88.3015 135.821 88.3015C135.389 89.1664 134.741 89.3846 134.095 89.3846C132.154 89.3846 131.077 87.6522 131.077 85.7042C131.077 85.2704 131.077 85.2704 131.509 85.2704H134.958ZM131.509 84.6211H131.292C131.292 83.9744 132.154 82.8913 133.449 82.8913C134.526 82.8913 134.741 83.5406 134.741 84.19V84.6211H131.509ZM159.319 87.0028C159.319 85.0549 158.24 83.9744 156.948 83.3251L155.439 82.242C154.79 81.8082 153.928 81.1589 153.928 80.0784C153.928 79.2109 154.359 77.9123 156.085 77.9123C158.025 77.9123 158.457 79.2109 158.671 80.0784H159.102C159.102 79.2109 158.888 78.1304 158.888 77.6967H158.24C157.594 77.4811 156.948 77.2655 156.299 77.2655C153.928 77.2655 152.636 78.7798 152.636 80.5096C152.636 82.242 153.713 83.1069 154.576 83.7562L156.299 85.0549C157.808 85.9198 158.025 86.7873 158.025 87.6522C158.025 88.7352 157.162 89.8157 155.653 89.8157C153.496 89.8157 152.636 87.8677 152.419 87.0028C152.204 86.7873 151.987 87.0028 151.987 87.0028C151.987 87.8677 152.204 89.3846 152.419 89.6001C152.85 89.8157 153.713 90.465 155.439 90.465C157.808 90.465 159.319 88.9508 159.319 87.0028ZM167.943 82.4576C165.786 82.4576 164.06 84.19 164.06 86.5717C164.059 87.0842 164.159 87.592 164.353 88.0656C164.548 88.5393 164.834 88.9695 165.195 89.3315C165.556 89.6934 165.985 89.9799 166.457 90.1745C166.928 90.369 167.434 90.4678 167.943 90.465C170.098 90.465 171.824 88.7352 171.824 86.3535C171.824 83.9744 170.098 82.4576 167.943 82.4576ZM170.098 86.5717C170.098 88.0859 169.667 89.8157 167.943 89.8157C166.432 89.8157 165.572 87.8677 165.572 86.1379C165.572 84.19 166.432 82.8913 167.726 82.8913C169.667 82.8913 170.098 85.0549 170.098 86.5717ZM181.094 83.5406C181.308 83.3251 181.308 82.8913 181.094 82.6757H178.937C178.722 82.6757 178.722 82.6757 178.722 82.242V81.5926C178.722 80.7277 178.722 79.2109 179.154 78.346C179.368 77.6967 179.799 77.2655 180.448 77.2655C181.094 77.2655 181.525 77.6967 181.957 78.1304C182.171 78.346 182.171 78.346 182.388 78.346C182.82 78.346 183.034 78.1304 183.034 77.6967C183.034 77.0474 182.388 76.6162 181.308 76.6162C179.368 76.6162 178.291 77.9123 177.859 78.9953C177.428 80.0784 177.213 81.1589 177.213 82.242C177.213 82.4576 177.213 82.6757 176.996 82.6757L176.136 83.1069C176.136 83.1069 176.136 83.3251 176.35 83.5406H176.996C177.213 83.5406 177.213 83.5406 177.213 83.9744V88.0859C177.213 89.3846 177.213 89.6001 176.567 89.6001H176.136V90.2495C176.782 90.0339 177.428 90.0339 178.076 90.0339C178.722 90.0339 179.154 90.0339 180.017 90.2495C180.231 90.0339 180.231 89.8157 180.017 89.6001H179.368C178.722 89.6001 178.722 89.3846 178.722 88.0859V83.9744C178.722 83.5406 178.722 83.5406 178.937 83.5406H181.094ZM191.011 83.5406C191.225 83.3251 191.225 82.8913 191.011 82.6757H188.854C188.639 82.6757 188.639 82.6757 188.639 82.242V81.3771H188.208C187.991 81.8082 187.776 82.242 187.345 82.4576C187.345 82.6757 186.699 82.8913 186.267 83.1069C186.05 83.1069 186.267 83.3251 186.267 83.5406H186.913C187.13 83.5406 187.13 83.5406 187.13 83.9744V88.3015C187.13 89.3846 187.559 90.465 189.071 90.465C190.148 90.465 190.794 89.8157 191.225 89.3846L191.011 89.1664C190.794 89.1664 190.579 89.3846 190.362 89.3846C190.362 89.3846 190.148 89.6001 189.931 89.6001C188.639 89.6001 188.639 88.5171 188.639 87.4366V83.9744C188.639 83.5406 188.639 83.5406 188.854 83.5406H191.011ZM198.341 88.7352C198.341 89.1664 198.772 90.0339 198.772 90.2495L198.986 90.465C199.203 90.465 199.203 90.465 199.203 90.2495C199.418 89.8157 199.635 89.1664 200.064 88.3015L200.927 86.1379C201.144 85.7042 201.358 85.0549 201.358 85.0549C201.358 85.0549 201.79 85.7042 201.79 86.1379L202.653 88.3015C203.084 88.9508 203.515 90.0339 203.515 90.2495C203.515 90.465 203.73 90.465 203.73 90.465C203.73 90.465 203.947 90.465 203.947 90.2495C204.161 89.8157 204.378 89.3846 204.593 88.5171C205.024 87.6522 205.887 85.4886 206.316 84.4055C206.747 83.5406 206.965 83.3251 207.396 83.1069H207.827C207.827 82.8913 207.827 82.6757 207.61 82.6757H205.024C204.807 82.6757 204.807 82.8913 205.024 83.1069H205.456C205.67 83.1069 205.887 83.3251 205.887 83.3251C205.887 83.5406 205.67 83.7562 205.67 84.19C205.239 85.0549 204.593 87.0028 204.378 87.4366C204.161 87.8677 204.161 88.0859 204.161 88.0859C203.947 88.0859 203.947 87.8677 203.73 87.4366C203.515 87.0028 202.653 84.6211 202.436 83.9744C202.221 83.3251 202.221 83.3251 202.867 83.1069H203.298V82.6757H199.849C199.635 82.6757 199.635 82.8913 199.849 83.1069H200.064C200.495 83.3251 200.927 83.3251 200.927 83.7562C201.144 83.9744 201.144 84.19 200.927 84.8393L199.849 87.2184C199.635 87.6522 199.635 88.0859 199.418 88.0859C199.418 88.0859 199.203 87.6522 199.203 87.2184L197.909 84.4055C197.695 83.9744 197.695 83.5406 197.695 83.3251C197.695 83.3251 197.909 83.1069 198.124 83.1069H198.555V82.6757H195.106V83.1069H195.323C195.969 83.3251 196.183 83.5406 196.615 84.4055L198.341 88.7352ZM213.648 87.0028C212.354 87.4366 211.922 87.8677 211.922 88.5171C211.922 89.1664 212.139 89.6001 212.568 90.0339C213 90.2495 213.431 90.465 213.863 90.465C214.509 90.465 214.94 90.0339 215.157 89.8157C215.589 89.6001 215.803 89.6001 216.02 89.6001C216.02 89.6001 216.234 89.6001 216.234 89.8157C216.666 90.2495 217.097 90.465 217.529 90.465C218.392 90.465 219.038 89.6001 219.038 89.6001V89.3846H218.823C218.606 89.3846 218.392 89.6001 218.175 89.6001C217.529 89.6001 217.312 88.7352 217.312 87.8677L217.529 84.6211C217.529 83.1069 216.883 82.4576 215.589 82.4576C214.08 82.4576 212.139 83.7562 212.139 84.6211C212.139 84.8393 212.139 85.0549 212.354 85.0549C212.568 85.0549 213 84.8393 213.431 84.6211C213.431 84.6211 213.648 84.19 213.648 83.9744C213.648 83.3251 214.294 83.1069 214.726 83.1069C216.02 83.1069 216.234 83.9744 216.234 84.8393L216.02 85.7042C216.02 85.9198 216.02 86.1379 215.803 86.1379L213.648 87.0028ZM213.431 88.3015C213.431 87.6522 214.08 87.4366 215.157 87.0028C215.371 86.7873 215.803 86.7873 215.803 86.7873C216.02 86.7873 216.02 86.7873 216.02 87.0028V88.0859C216.02 88.5171 216.02 88.7352 215.803 88.9508C215.589 89.1664 214.94 89.6001 214.726 89.6001C213.648 89.6001 213.431 88.7352 213.431 88.3015ZM225.289 88.0859C225.289 89.3846 225.289 89.6001 224.643 89.6001H224.211V90.2495C224.857 90.0339 225.289 90.0339 226.151 90.0339C226.797 90.0339 227.229 90.0339 228.092 90.2495C228.306 90.0339 228.306 89.8157 228.092 89.6001H227.443C226.797 89.6001 226.797 89.3846 226.797 88.0859V85.4886C226.797 84.8393 226.797 84.19 227.014 83.9744C227.229 83.7562 227.443 83.5406 227.66 83.5406C227.875 83.5406 228.306 83.7562 228.523 83.9744H228.955C229.169 83.9744 229.601 83.7562 229.601 83.1069C229.601 82.6757 229.386 82.4576 228.955 82.4576C228.092 82.4576 227.443 82.8913 226.797 83.5406V82.242H226.583C226.151 82.4576 225.074 82.8913 224.643 83.1069V83.3251L224.857 83.5406C225.289 83.7562 225.289 83.9744 225.289 84.6211V88.0859ZM239.95 85.2704C240.811 85.2704 241.028 85.2704 241.242 85.0549V84.6211C241.242 83.5406 240.165 82.4576 238.656 82.4576C236.284 82.4576 234.775 84.4055 234.775 86.5717C234.775 87.4366 234.99 88.3015 235.638 89.1664C236.067 89.8157 237.147 90.465 238.225 90.465C239.302 90.465 240.596 89.8157 241.242 88.5171C241.242 88.5171 241.028 88.3015 240.811 88.3015C240.379 89.1664 239.733 89.3846 239.087 89.3846C237.147 89.3846 236.067 87.6522 236.067 85.7042C236.067 85.2704 236.067 85.2704 236.499 85.2704H239.95ZM236.499 84.6211H236.284C236.284 83.9744 237.147 82.8913 238.439 82.8913C239.519 82.8913 239.733 83.5406 239.733 84.19V84.6211H236.499Z" fill="black"/>
<path d="M239.52 31.8161C239.52 30.3006 240.811 29.002 242.32 29.002C244.046 29.002 245.34 30.3006 245.34 31.8161C245.34 33.3304 244.046 34.629 242.32 34.629C240.811 34.629 239.52 33.3304 239.52 31.8161Z" stroke="black" stroke-width="7.02961" stroke-miterlimit="2.613"/>
<path fill-rule="evenodd" clip-rule="evenodd" d="M241.674 30.7345V31.6007H242.968C242.968 31.3838 243.182 31.3838 243.182 31.1682C243.182 30.9513 242.968 30.7358 242.968 30.7358L241.674 30.7345ZM243.182 30.3007C243.399 30.3007 243.399 30.3007 243.614 30.5176V30.7345C243.831 30.7345 243.831 30.9513 243.831 31.1669C243.831 31.1669 243.831 31.3838 243.614 31.5994C243.614 31.5994 243.399 31.8162 243.182 31.8162C243.399 31.8162 243.614 32.0331 243.614 32.0331V33.1162L243.831 33.3331V33.5499H242.968V33.3331V32.6824V32.25C242.751 32.25 242.751 32.0331 242.536 32.0331H241.674V33.5486H241.028V30.0851H242.751C242.968 30.0851 243.182 30.0851 243.182 30.3007ZM55.4041 42.8535C55.4041 53.4583 46.1342 61.8982 39.2348 61.8982H21.5566C21.5566 61.8982 23.4969 59.9503 23.4969 56.2725V41.3393H32.7668V54.5414C32.7668 54.5414 45.2713 59.0866 45.2713 41.9886C45.2713 25.7567 32.7668 30.3007 32.7668 30.3007V41.3393H23.4969V29.4358C23.7126 24.0243 21.7724 23.375 21.7724 23.375H39.2348C48.0745 23.375 55.4041 30.7345 55.4041 42.8535Z" fill="black"/>
<path fill-rule="evenodd" clip-rule="evenodd" d="M77.1794 61.4668H54.7578C57.1295 58.8695 57.3453 56.2722 57.3453 56.2722V19.9125C57.1295 16.8828 55.1893 15.1504 55.1893 15.1504H75.885V22.9423C74.1605 20.5619 72.2202 20.9943 72.2202 20.9943H67.0453V29.6511H75.885C75.885 29.6511 76.1007 37.6586 75.885 37.6586C73.9447 35.9275 72.6517 36.1444 72.6517 36.1444H67.0466V54.1074C68.9869 54.9736 68.7711 54.9736 70.7114 55.1891C75.6693 55.4073 79.1197 52.3763 79.1197 52.3763L77.1794 61.4668ZM138.839 61.4668L134.959 59.95C132.372 59.0851 131.078 56.0566 131.078 56.0566L128.06 47.8323L123.317 61.4681L119.868 60.3851C116.85 59.5202 115.987 56.9228 115.987 56.9228L106.933 33.7653C106.933 33.7653 113.617 33.9822 114.478 33.7653C116.85 33.5484 117.496 33.1159 117.496 33.1159L122.238 47.3998C122.238 47.3998 124.826 40.4741 125.257 38.9586C125.689 37.4444 125.041 36.3613 125.041 36.3613L123.317 33.764H133.45C134.313 34.6302 134.959 37.2275 134.959 37.2275L138.408 47.6154C138.408 47.6154 141.211 38.7417 141.642 37.8768C142.074 37.0119 141.857 36.1457 141.857 36.1457L140.348 33.7653H149.186L138.839 61.4668ZM169.885 61.4668C158.672 62.1162 158.672 54.5411 158.672 54.5411V48.4816C158.672 48.4816 154.36 50.2127 153.928 52.5931C153.283 56.9216 158.457 56.4891 158.457 56.4891L155.869 61.4681C141.641 62.7668 143.796 51.0789 143.796 51.0789C145.09 46.1012 150.696 44.8025 152.851 44.3688C155.008 43.7194 158.457 43.5026 158.24 41.5546C158.026 39.6066 157.163 39.6066 154.791 39.3897C153.068 39.3897 148.325 40.9053 148.325 40.9053L150.696 34.6289C156.517 33.7627 156.732 33.7627 159.966 33.7627C167.944 33.9796 167.944 41.3377 167.944 41.3377V51.7256C168.159 56.4865 172.685 56.2709 172.685 56.2709L169.885 61.4668Z" fill="black"/>
<path fill-rule="evenodd" clip-rule="evenodd" d="M190.363 41.9887C190.363 41.9887 188.208 41.5563 185.836 41.7719C183.465 41.9887 182.819 45.2341 182.819 45.2341V58.0037C183.033 60.5984 184.759 61.4659 184.759 61.4659H171.176C173.333 59.9491 173.116 56.2713 173.116 56.2713V38.0915C172.902 37.4422 171.607 35.2773 171.607 35.2773H178.722C179.8 35.2773 182.82 34.628 182.82 34.628V37.6577C182.82 37.6577 184.329 36.1435 185.406 35.4942C188.209 33.3293 190.364 34.8448 190.364 34.8448L190.363 41.9887ZM217.312 57.5713C217.529 60.1686 219.252 61.4672 219.252 61.4672H207.396V42.2043C206.748 40.4732 206.102 40.2563 204.162 40.0395C202.004 40.0395 200.064 42.6368 200.064 47.182C200.064 56.4882 206.748 56.0557 206.748 56.0557L203.947 61.8971C200.064 61.6815 196.832 60.8166 192.951 56.4869C188.422 51.726 191.011 41.9874 191.011 41.9874C191.443 39.1733 194.243 36.5759 194.46 36.5759C201.79 30.9489 207.611 35.4942 207.611 35.4942V26.4036C207.396 24.6725 206.533 23.157 206.533 23.157C206.533 23.157 209.768 23.3725 211.923 23.157C213.863 23.157 217.312 22.0752 217.312 22.0752V57.5713Z" fill="black"/>
<path fill-rule="evenodd" clip-rule="evenodd" d="M218.174 52.809C223.134 56.0556 227.444 56.2725 228.738 56.2725C233.267 55.6231 231.973 52.3765 230.247 51.9441C229.17 51.7272 226.366 50.8623 225.504 50.4298C221.192 48.4818 219.037 46.9663 219.037 41.5561C218.822 35.9291 224.643 33.3318 230.247 33.3318C235.853 33.3318 239.302 34.6304 239.302 34.6304V40.2575C238.225 39.6082 236.068 38.5264 233.267 38.3095C231.11 38.0926 229.601 38.742 229.601 40.2575C229.601 41.5561 230.464 41.773 233.05 42.6379C235.639 43.5041 241.891 45.6677 242.106 51.296C242.537 60.6009 234.127 60.819 230.464 61.4684C226.583 62.3333 219.9 60.1697 219.9 60.1697L218.174 52.809ZM20.0472 23.375C20.0472 23.375 17.8912 24.2412 17.8912 29.4358V61.4671C17.8912 61.4671 18.9685 69.6901 3.66211 72.0719C3.66211 72.0719 6.89546 68.3915 7.75837 61.0333V28.7865C7.75837 24.2412 6.03383 23.375 6.03383 23.375H20.0472Z" fill="black"/>
</g>
<defs>
<clipPath id="clip0_894_2210">
<rect width="249" height="106" fill="white"/>
</clipPath>
</defs>
</svg>
