<svg width="265" height="207" viewBox="0 0 265 207" fill="none" xmlns="http://www.w3.org/2000/svg">
<g clip-path="url(#clip0_1223_12238)">
<path d="M132.218 169.691H121.66V113.396C121.66 112.125 122.689 111.09 123.965 111.09H129.92C131.19 111.09 132.224 112.119 132.224 113.396V169.691H132.218Z" fill="#808082"/>
<path d="M136.826 169.691H134.521V118.586H132.217V116.28H136.826V169.691Z" fill="#808082"/>
<path d="M129.627 108.402H124.25V111.09H129.627V108.402Z" fill="#808082"/>
<path d="M135.677 123.58H132.217V125.886H135.677V123.58Z" fill="#808082"/>
<path d="M135.677 131.172H132.217V133.478H135.677V131.172Z" fill="#808082"/>
<path d="M168.501 139.526V129.729L158.902 139.526V129.729L149.302 139.526V129.729L139.703 139.526V172.956H177.624V139.526H168.501Z" fill="#59595B"/>
<path d="M116.474 106.675H94.5898V174.494H116.474V106.675Z" fill="#59595B"/>
<path d="M88.6406 199.563V161.044L119.641 147.976V155.853H149.302V167.765V199.563H88.6406Z" fill="#424243"/>
<path d="M194.226 199.563H149.303V172.956H185.014L194.226 182.174V199.563Z" fill="#A5A7A9"/>
<path d="M139.702 172.956H99.5781V199.569H139.702V172.956Z" fill="#6D6E70"/>
<path d="M156.311 172.956H151.512V160.873C151.512 159.431 152.54 158.262 153.816 158.262H154.007C155.276 158.262 156.311 159.431 156.311 160.873V172.956Z" fill="#808082"/>
<path d="M163.7 172.956H158.9V160.873C158.9 159.431 159.929 158.262 161.205 158.262H161.395C162.665 158.262 163.7 159.431 163.7 160.873V172.956Z" fill="#808082"/>
<path d="M162.456 159.989H160.152V150.187H144.699V155.853H142.395V147.887H162.456V159.989Z" fill="#808082"/>
<path d="M155.162 149.037H152.857V159.99H155.162V149.037Z" fill="#808082"/>
<path d="M99.58 99.0889H97.2754V106.674H99.58V99.0889Z" fill="#59595B"/>
<path d="M109.756 103.987H102.461V106.675H109.756V103.987Z" fill="#59595B"/>
<path d="M158.705 201.513L146.503 188.229H139.703V182.467H149.036L162.946 197.613L158.705 201.513Z" fill="#6D6E70"/>
<path d="M114.105 109.362H96.957V112.818H114.105V109.362Z" fill="#808082"/>
<path d="M114.105 117.456H96.957V120.912H114.105V117.456Z" fill="#808082"/>
<path d="M114.105 125.55H96.957V129.006H114.105V125.55Z" fill="#808082"/>
<path d="M114.105 133.644H96.957V137.1H114.105V133.644Z" fill="#808082"/>
<path d="M114.105 141.737H96.957V145.193H114.105V141.737Z" fill="#808082"/>
<path d="M167.63 141.928H143.543V145.384H167.63V141.928Z" fill="#424243"/>
<path d="M117.456 176.075H103.02V179.531H117.456V176.075Z" fill="#272525"/>
<path d="M136.261 176.075H121.824V179.531H136.261V176.075Z" fill="#272525"/>
<path d="M117.456 182.804H103.02V186.26H117.456V182.804Z" fill="#272525"/>
<path d="M136.261 182.804H121.824V186.26H136.261V182.804Z" fill="#272525"/>
<path d="M189.812 187.27H184.822V199.563H189.812V187.27Z" fill="#808082"/>
<path d="M99.1921 162.728H91.707V170.218H99.1921V162.728Z" fill="#59595B"/>
<path d="M110.956 162.728H103.471V170.218H110.956V162.728Z" fill="#59595B"/>
<path d="M122.714 162.728H115.229V170.218H122.714V162.728Z" fill="#59595B"/>
<path d="M134.471 162.728H126.986V170.218H134.471V162.728Z" fill="#59595B"/>
<path d="M146.229 162.728H138.744V170.218H146.229V162.728Z" fill="#59595B"/>
<path d="M96.3162 176.075H91.707V191.062H96.3162V176.075Z" fill="#59595B"/>
<path d="M183.299 176.075H179.846V185.3H183.299V176.075Z" fill="#919395"/>
<path d="M176.411 176.075H172.957V185.3H176.411V176.075Z" fill="#919395"/>
<path d="M169.53 176.075H166.076V185.3H169.53V176.075Z" fill="#919395"/>
<path d="M162.647 176.075H159.193V185.3H162.647V176.075Z" fill="#919395"/>
<path d="M180.995 188.47H173.51V195.96H180.995V188.47Z" fill="#919395"/>
<path d="M170.614 188.47H163.129V195.96H170.614V188.47Z" fill="#919395"/>
<path d="M198.987 197.416H84.5645V201.514H198.987V197.416Z" fill="#808082"/>
<path d="M202.616 61.6943H175.107V205.998H202.616V61.6943Z" fill="#DBDBDB"/>
<path d="M184.726 66.3828H179.381V71.8909H184.726V66.3828Z" fill="#EBEBEB"/>
<path d="M191.564 66.3828H186.219V71.8909H191.564V66.3828Z" fill="#EBEBEB"/>
<path d="M184.726 75.7412H179.381V81.2493H184.726V75.7412Z" fill="#EBEBEB"/>
<path d="M191.564 75.7412H186.219V81.2493H191.564V75.7412Z" fill="#EBEBEB"/>
<path d="M184.726 85.0928H179.381V90.6009H184.726V85.0928Z" fill="#EBEBEB"/>
<path d="M191.564 85.0928H186.219V90.6009H191.564V85.0928Z" fill="#EBEBEB"/>
<path d="M184.726 94.4512H179.381V99.9593H184.726V94.4512Z" fill="#EBEBEB"/>
<path d="M191.564 94.4512H186.219V99.9593H191.564V94.4512Z" fill="#EBEBEB"/>
<path d="M184.726 103.803H179.381V109.311H184.726V103.803Z" fill="#EBEBEB"/>
<path d="M191.564 103.803H186.219V109.311H191.564V103.803Z" fill="#EBEBEB"/>
<path d="M184.726 113.16H179.381V118.668H184.726V113.16Z" fill="#EBEBEB"/>
<path d="M191.564 113.16H186.219V118.668H191.564V113.16Z" fill="#EBEBEB"/>
<path d="M184.726 122.513H179.381V128.021H184.726V122.513Z" fill="#EBEBEB"/>
<path d="M191.564 122.513H186.219V128.021H191.564V122.513Z" fill="#EBEBEB"/>
<path d="M184.726 131.87H179.381V137.378H184.726V131.87Z" fill="#EBEBEB"/>
<path d="M191.564 131.87H186.219V137.378H191.564V131.87Z" fill="#EBEBEB"/>
<path d="M184.726 141.223H179.381V146.731H184.726V141.223Z" fill="#EBEBEB"/>
<path d="M191.564 141.223H186.219V146.731H191.564V141.223Z" fill="#EBEBEB"/>
<path d="M184.726 150.58H179.381V156.088H184.726V150.58Z" fill="#EBEBEB"/>
<path d="M191.564 150.58H186.219V156.088H191.564V150.58Z" fill="#EBEBEB"/>
<path d="M184.726 159.932H179.381V165.44H184.726V159.932Z" fill="#EBEBEB"/>
<path d="M191.564 159.932H186.219V165.44H191.564V159.932Z" fill="#EBEBEB"/>
<path d="M184.726 169.29H179.381V174.798H184.726V169.29Z" fill="#EBEBEB"/>
<path d="M191.564 169.29H186.219V174.798H191.564V169.29Z" fill="#EBEBEB"/>
<path d="M184.726 178.642H179.381V184.15H184.726V178.642Z" fill="#EBEBEB"/>
<path d="M191.564 178.642H186.219V184.15H191.564V178.642Z" fill="#EBEBEB"/>
<path d="M184.726 188H179.381V193.508H184.726V188Z" fill="#EBEBEB"/>
<path d="M193.006 193.502H198.352V187.994H193.006V193.502Z" fill="#EBEBEB"/>
<path d="M193.006 184.15H198.352V178.642H193.006V184.15Z" fill="#EBEBEB"/>
<path d="M193.006 174.792H198.352V169.284H193.006V174.792Z" fill="#EBEBEB"/>
<path d="M193.006 165.44H198.352V159.932H193.006V165.44Z" fill="#EBEBEB"/>
<path d="M193.006 156.082H198.352V150.574H193.006V156.082Z" fill="#EBEBEB"/>
<path d="M193.006 146.73H198.352V141.222H193.006V146.73Z" fill="#EBEBEB"/>
<path d="M193.006 137.372H198.352V131.864H193.006V137.372Z" fill="#EBEBEB"/>
<path d="M193.006 128.021H198.352V122.512H193.006V128.021Z" fill="#EBEBEB"/>
<path d="M193.006 118.662H198.352V113.154H193.006V118.662Z" fill="#EBEBEB"/>
<path d="M193.006 109.311H198.352V103.802H193.006V109.311Z" fill="#EBEBEB"/>
<path d="M193.006 99.9521H198.352V94.444H193.006V99.9521Z" fill="#EBEBEB"/>
<path d="M193.006 90.6006H198.352V85.0925H193.006V90.6006Z" fill="#EBEBEB"/>
<path d="M193.006 81.2432H198.352V75.735H193.006V81.2432Z" fill="#EBEBEB"/>
<path d="M193.006 71.8906H198.352V66.3825H193.006V71.8906Z" fill="#EBEBEB"/>
<path d="M191.564 188H186.219V193.508H191.564V188Z" fill="#EBEBEB"/>
<path d="M224.304 61.6943H202.617V205.998H224.304V61.6943Z" fill="#A6A6A6"/>
<path d="M217.652 193.502H222.07V187.994H217.652V193.502Z" fill="#C7C7C7"/>
<path d="M212.007 193.502H216.426V187.994H212.007V193.502Z" fill="#C7C7C7"/>
<path d="M217.652 184.15H222.07V178.642H217.652V184.15Z" fill="#C7C7C7"/>
<path d="M212.007 184.15H216.426V178.642H212.007V184.15Z" fill="#C7C7C7"/>
<path d="M217.652 174.792H222.07V169.284H217.652V174.792Z" fill="#C7C7C7"/>
<path d="M212.007 174.792H216.426V169.284H212.007V174.792Z" fill="#C7C7C7"/>
<path d="M217.652 165.44H222.07V159.932H217.652V165.44Z" fill="#C7C7C7"/>
<path d="M212.007 165.44H216.426V159.932H212.007V165.44Z" fill="#C7C7C7"/>
<path d="M217.652 156.082H222.07V150.574H217.652V156.082Z" fill="#C7C7C7"/>
<path d="M212.007 156.082H216.426V150.574H212.007V156.082Z" fill="#C7C7C7"/>
<path d="M217.652 146.73H222.07V141.222H217.652V146.73Z" fill="#C7C7C7"/>
<path d="M212.007 146.73H216.426V141.222H212.007V146.73Z" fill="#C7C7C7"/>
<path d="M217.652 137.372H222.07V131.864H217.652V137.372Z" fill="#C7C7C7"/>
<path d="M212.007 137.372H216.426V131.864H212.007V137.372Z" fill="#C7C7C7"/>
<path d="M217.652 128.021H222.07V122.512H217.652V128.021Z" fill="#C7C7C7"/>
<path d="M212.007 128.021H216.426V122.512H212.007V128.021Z" fill="#C7C7C7"/>
<path d="M217.652 118.662H222.07V113.154H217.652V118.662Z" fill="#C7C7C7"/>
<path d="M212.007 118.662H216.426V113.154H212.007V118.662Z" fill="#C7C7C7"/>
<path d="M217.652 109.311H222.07V103.802H217.652V109.311Z" fill="#C7C7C7"/>
<path d="M212.007 109.311H216.426V103.802H212.007V109.311Z" fill="#C7C7C7"/>
<path d="M217.652 99.9521H222.07V94.444H217.652V99.9521Z" fill="#C7C7C7"/>
<path d="M212.007 99.9521H216.426V94.444H212.007V99.9521Z" fill="#C7C7C7"/>
<path d="M217.652 90.6006H222.07V85.0925H217.652V90.6006Z" fill="#C7C7C7"/>
<path d="M212.007 90.6006H216.426V85.0925H212.007V90.6006Z" fill="#C7C7C7"/>
<path d="M217.652 81.2432H222.07V75.735H217.652V81.2432Z" fill="#C7C7C7"/>
<path d="M212.007 81.2432H216.426V75.735H212.007V81.2432Z" fill="#C7C7C7"/>
<path d="M217.652 71.8906H222.07V66.3825H217.652V71.8906Z" fill="#C7C7C7"/>
<path d="M210.827 66.3828H206.408V71.8909H210.827V66.3828Z" fill="#C7C7C7"/>
<path d="M210.827 75.7412H206.408V81.2493H210.827V75.7412Z" fill="#C7C7C7"/>
<path d="M210.827 85.0928H206.408V90.6009H210.827V85.0928Z" fill="#C7C7C7"/>
<path d="M210.827 94.4512H206.408V99.9593H210.827V94.4512Z" fill="#C7C7C7"/>
<path d="M210.827 103.803H206.408V109.311H210.827V103.803Z" fill="#C7C7C7"/>
<path d="M210.827 113.16H206.408V118.668H210.827V113.16Z" fill="#C7C7C7"/>
<path d="M210.827 122.513H206.408V128.021H210.827V122.513Z" fill="#C7C7C7"/>
<path d="M210.827 131.87H206.408V137.378H210.827V131.87Z" fill="#C7C7C7"/>
<path d="M210.827 141.223H206.408V146.731H210.827V141.223Z" fill="#C7C7C7"/>
<path d="M210.827 150.58H206.408V156.088H210.827V150.58Z" fill="#C7C7C7"/>
<path d="M210.827 159.932H206.408V165.44H210.827V159.932Z" fill="#C7C7C7"/>
<path d="M210.827 169.29H206.408V174.798H210.827V169.29Z" fill="#C7C7C7"/>
<path d="M210.827 178.642H206.408V184.15H210.827V178.642Z" fill="#C7C7C7"/>
<path d="M210.827 188H206.408V193.508H210.827V188Z" fill="#C7C7C7"/>
<path d="M212.007 71.8906H216.426V66.3825H212.007V71.8906Z" fill="#C7C7C7"/>
<path d="M62.946 58.5498H34.25V206.005H62.946V58.5498Z" fill="#EBEBEB"/>
<path d="M62.9466 55.6084H33.5586V58.5435H62.9466V55.6084Z" fill="#C7C7C7"/>
<path d="M39.7495 62.876H36.8418V206.005H39.7495V62.876Z" fill="white"/>
<path d="M44.9038 62.876H41.9961V206.005H44.9038V62.876Z" fill="white"/>
<path d="M50.0542 62.876H47.1465V206.005H50.0542V62.876Z" fill="white"/>
<path d="M55.2026 62.876H52.2949V206.005H55.2026V62.876Z" fill="white"/>
<path d="M60.351 62.876H57.4434V206.005H60.351V62.876Z" fill="white"/>
<path d="M39.7495 66.5859H36.8418V72.38H39.7495V66.5859Z" fill="#EBEBEB"/>
<path d="M44.9038 66.5859H41.9961V72.38H44.9038V66.5859Z" fill="#EBEBEB"/>
<path d="M50.0542 66.5859H47.1465V72.38H50.0542V66.5859Z" fill="#EBEBEB"/>
<path d="M55.2026 66.5859H52.2949V72.38H55.2026V66.5859Z" fill="#EBEBEB"/>
<path d="M60.351 66.5859H57.4434V72.38H60.351V66.5859Z" fill="#EBEBEB"/>
<path d="M39.7495 76.0078H36.8418V81.8018H39.7495V76.0078Z" fill="#EBEBEB"/>
<path d="M44.9038 76.0078H41.9961V81.8018H44.9038V76.0078Z" fill="#EBEBEB"/>
<path d="M50.0542 76.0078H47.1465V81.8018H50.0542V76.0078Z" fill="#EBEBEB"/>
<path d="M55.2026 76.0078H52.2949V81.8018H55.2026V76.0078Z" fill="#EBEBEB"/>
<path d="M60.351 76.0078H57.4434V81.8018H60.351V76.0078Z" fill="#EBEBEB"/>
<path d="M39.7495 85.4229H36.8418V91.2169H39.7495V85.4229Z" fill="#EBEBEB"/>
<path d="M44.9038 85.4229H41.9961V91.2169H44.9038V85.4229Z" fill="#EBEBEB"/>
<path d="M50.0542 85.4229H47.1465V91.2169H50.0542V85.4229Z" fill="#EBEBEB"/>
<path d="M55.2026 85.4229H52.2949V91.2169H55.2026V85.4229Z" fill="#EBEBEB"/>
<path d="M60.351 85.4229H57.4434V91.2169H60.351V85.4229Z" fill="#EBEBEB"/>
<path d="M39.7495 94.8447H36.8418V100.639H39.7495V94.8447Z" fill="#EBEBEB"/>
<path d="M44.9038 94.8447H41.9961V100.639H44.9038V94.8447Z" fill="#EBEBEB"/>
<path d="M50.0542 94.8447H47.1465V100.639H50.0542V94.8447Z" fill="#EBEBEB"/>
<path d="M55.2026 94.8447H52.2949V100.639H55.2026V94.8447Z" fill="#EBEBEB"/>
<path d="M60.351 94.8447H57.4434V100.639H60.351V94.8447Z" fill="#EBEBEB"/>
<path d="M39.7495 104.267H36.8418V110.061H39.7495V104.267Z" fill="#EBEBEB"/>
<path d="M44.9038 104.267H41.9961V110.061H44.9038V104.267Z" fill="#EBEBEB"/>
<path d="M50.0542 104.267H47.1465V110.061H50.0542V104.267Z" fill="#EBEBEB"/>
<path d="M55.2026 104.267H52.2949V110.061H55.2026V104.267Z" fill="#EBEBEB"/>
<path d="M60.351 104.267H57.4434V110.061H60.351V104.267Z" fill="#EBEBEB"/>
<path d="M39.7495 113.688H36.8418V119.482H39.7495V113.688Z" fill="#EBEBEB"/>
<path d="M44.9038 113.688H41.9961V119.482H44.9038V113.688Z" fill="#EBEBEB"/>
<path d="M50.0542 113.688H47.1465V119.482H50.0542V113.688Z" fill="#EBEBEB"/>
<path d="M55.2026 113.688H52.2949V119.482H55.2026V113.688Z" fill="#EBEBEB"/>
<path d="M60.351 113.688H57.4434V119.482H60.351V113.688Z" fill="#EBEBEB"/>
<path d="M39.7495 123.109H36.8418V128.903H39.7495V123.109Z" fill="#EBEBEB"/>
<path d="M44.9038 123.109H41.9961V128.903H44.9038V123.109Z" fill="#EBEBEB"/>
<path d="M50.0542 123.109H47.1465V128.903H50.0542V123.109Z" fill="#EBEBEB"/>
<path d="M55.2026 123.109H52.2949V128.903H55.2026V123.109Z" fill="#EBEBEB"/>
<path d="M60.351 123.109H57.4434V128.903H60.351V123.109Z" fill="#EBEBEB"/>
<path d="M39.7495 132.524H36.8418V138.318H39.7495V132.524Z" fill="#EBEBEB"/>
<path d="M44.9038 132.524H41.9961V138.318H44.9038V132.524Z" fill="#EBEBEB"/>
<path d="M50.0542 132.524H47.1465V138.318H50.0542V132.524Z" fill="#EBEBEB"/>
<path d="M55.2026 132.524H52.2949V138.318H55.2026V132.524Z" fill="#EBEBEB"/>
<path d="M60.351 132.524H57.4434V138.318H60.351V132.524Z" fill="#EBEBEB"/>
<path d="M39.7495 141.946H36.8418V147.74H39.7495V141.946Z" fill="#EBEBEB"/>
<path d="M44.9038 141.946H41.9961V147.74H44.9038V141.946Z" fill="#EBEBEB"/>
<path d="M50.0542 141.946H47.1465V147.74H50.0542V141.946Z" fill="#EBEBEB"/>
<path d="M55.2026 141.946H52.2949V147.74H55.2026V141.946Z" fill="#EBEBEB"/>
<path d="M60.351 141.946H57.4434V147.74H60.351V141.946Z" fill="#EBEBEB"/>
<path d="M39.7495 151.368H36.8418V157.162H39.7495V151.368Z" fill="#EBEBEB"/>
<path d="M44.9038 151.368H41.9961V157.162H44.9038V151.368Z" fill="#EBEBEB"/>
<path d="M50.0542 151.368H47.1465V157.162H50.0542V151.368Z" fill="#EBEBEB"/>
<path d="M55.2026 151.368H52.2949V157.162H55.2026V151.368Z" fill="#EBEBEB"/>
<path d="M60.351 151.368H57.4434V157.162H60.351V151.368Z" fill="#EBEBEB"/>
<path d="M39.7495 160.79H36.8418V166.584H39.7495V160.79Z" fill="#EBEBEB"/>
<path d="M44.9038 160.79H41.9961V166.584H44.9038V160.79Z" fill="#EBEBEB"/>
<path d="M50.0542 160.79H47.1465V166.584H50.0542V160.79Z" fill="#EBEBEB"/>
<path d="M55.2026 160.79H52.2949V166.584H55.2026V160.79Z" fill="#EBEBEB"/>
<path d="M60.351 160.79H57.4434V166.584H60.351V160.79Z" fill="#EBEBEB"/>
<path d="M39.7495 170.211H36.8418V176.005H39.7495V170.211Z" fill="#EBEBEB"/>
<path d="M44.9038 170.211H41.9961V176.005H44.9038V170.211Z" fill="#EBEBEB"/>
<path d="M50.0542 170.211H47.1465V176.005H50.0542V170.211Z" fill="#EBEBEB"/>
<path d="M55.2026 170.211H52.2949V176.005H55.2026V170.211Z" fill="#EBEBEB"/>
<path d="M60.351 170.211H57.4434V176.005H60.351V170.211Z" fill="#EBEBEB"/>
<path d="M39.7495 179.627H36.8418V185.421H39.7495V179.627Z" fill="#EBEBEB"/>
<path d="M44.9038 179.627H41.9961V185.421H44.9038V179.627Z" fill="#EBEBEB"/>
<path d="M50.0542 179.627H47.1465V185.421H50.0542V179.627Z" fill="#EBEBEB"/>
<path d="M55.2026 179.627H52.2949V185.421H55.2026V179.627Z" fill="#EBEBEB"/>
<path d="M60.351 179.627H57.4434V185.421H60.351V179.627Z" fill="#EBEBEB"/>
<path d="M39.7495 189.048H36.8418V206.004H39.7495V189.048Z" fill="#EBEBEB"/>
<path d="M44.9038 189.048H41.9961V206.004H44.9038V189.048Z" fill="#EBEBEB"/>
<path d="M50.0542 189.048H47.1465V206.004H50.0542V189.048Z" fill="#EBEBEB"/>
<path d="M55.2026 189.048H52.2949V206.004H55.2026V189.048Z" fill="#EBEBEB"/>
<path d="M60.351 189.048H57.4434V206.004H60.351V189.048Z" fill="#EBEBEB"/>
<path d="M81.3711 58.5498H62.9473V206.005H81.3711V58.5498Z" fill="#DBDBDB"/>
<path d="M82.171 55.6084H62.9473V58.5435H82.171V55.6084Z" fill="#C7C7C7"/>
<path d="M68.4507 62.876H65.543V206.005H68.4507V62.876Z" fill="#C7C7C7"/>
<path d="M73.5991 62.876H70.6914V206.005H73.5991V62.876Z" fill="#C7C7C7"/>
<path d="M78.7475 62.876H75.8398V206.005H78.7475V62.876Z" fill="#C7C7C7"/>
<path d="M68.4507 66.5859H65.543V72.38H68.4507V66.5859Z" fill="#DBDBDB"/>
<path d="M73.5991 66.5859H70.6914V72.38H73.5991V66.5859Z" fill="#DBDBDB"/>
<path d="M78.7475 66.5859H75.8398V72.38H78.7475V66.5859Z" fill="#DBDBDB"/>
<path d="M68.4507 76.0078H65.543V81.8018H68.4507V76.0078Z" fill="#DBDBDB"/>
<path d="M73.5991 76.0078H70.6914V81.8018H73.5991V76.0078Z" fill="#DBDBDB"/>
<path d="M78.7475 76.0078H75.8398V81.8018H78.7475V76.0078Z" fill="#DBDBDB"/>
<path d="M68.4507 85.4229H65.543V91.2169H68.4507V85.4229Z" fill="#DBDBDB"/>
<path d="M73.5991 85.4229H70.6914V91.2169H73.5991V85.4229Z" fill="#DBDBDB"/>
<path d="M78.7475 85.4229H75.8398V91.2169H78.7475V85.4229Z" fill="#DBDBDB"/>
<path d="M68.4507 94.8447H65.543V100.639H68.4507V94.8447Z" fill="#DBDBDB"/>
<path d="M73.5991 94.8447H70.6914V100.639H73.5991V94.8447Z" fill="#DBDBDB"/>
<path d="M78.7475 94.8447H75.8398V100.639H78.7475V94.8447Z" fill="#DBDBDB"/>
<path d="M68.4507 104.267H65.543V110.061H68.4507V104.267Z" fill="#DBDBDB"/>
<path d="M73.5991 104.267H70.6914V110.061H73.5991V104.267Z" fill="#DBDBDB"/>
<path d="M78.7475 104.267H75.8398V110.061H78.7475V104.267Z" fill="#DBDBDB"/>
<path d="M68.4507 113.688H65.543V119.482H68.4507V113.688Z" fill="#DBDBDB"/>
<path d="M73.5991 113.688H70.6914V119.482H73.5991V113.688Z" fill="#DBDBDB"/>
<path d="M78.7475 113.688H75.8398V119.482H78.7475V113.688Z" fill="#DBDBDB"/>
<path d="M68.4507 123.109H65.543V128.903H68.4507V123.109Z" fill="#DBDBDB"/>
<path d="M73.5991 123.109H70.6914V128.903H73.5991V123.109Z" fill="#DBDBDB"/>
<path d="M78.7475 123.109H75.8398V128.903H78.7475V123.109Z" fill="#DBDBDB"/>
<path d="M68.4507 132.524H65.543V138.318H68.4507V132.524Z" fill="#DBDBDB"/>
<path d="M73.5991 132.524H70.6914V138.318H73.5991V132.524Z" fill="#DBDBDB"/>
<path d="M78.7475 132.524H75.8398V138.318H78.7475V132.524Z" fill="#DBDBDB"/>
<path d="M68.4507 141.946H65.543V147.74H68.4507V141.946Z" fill="#DBDBDB"/>
<path d="M73.5991 141.946H70.6914V147.74H73.5991V141.946Z" fill="#DBDBDB"/>
<path d="M78.7475 141.946H75.8398V147.74H78.7475V141.946Z" fill="#DBDBDB"/>
<path d="M68.4507 151.368H65.543V157.162H68.4507V151.368Z" fill="#DBDBDB"/>
<path d="M73.5991 151.368H70.6914V157.162H73.5991V151.368Z" fill="#DBDBDB"/>
<path d="M78.7475 151.368H75.8398V157.162H78.7475V151.368Z" fill="#DBDBDB"/>
<path d="M68.4507 160.79H65.543V166.584H68.4507V160.79Z" fill="#DBDBDB"/>
<path d="M73.5991 160.79H70.6914V166.584H73.5991V160.79Z" fill="#DBDBDB"/>
<path d="M78.7475 160.79H75.8398V166.584H78.7475V160.79Z" fill="#DBDBDB"/>
<path d="M68.4507 170.211H65.543V176.005H68.4507V170.211Z" fill="#DBDBDB"/>
<path d="M73.5991 170.211H70.6914V176.005H73.5991V170.211Z" fill="#DBDBDB"/>
<path d="M78.7475 170.211H75.8398V176.005H78.7475V170.211Z" fill="#DBDBDB"/>
<path d="M68.4507 179.627H65.543V185.421H68.4507V179.627Z" fill="#DBDBDB"/>
<path d="M73.5991 179.627H70.6914V185.421H73.5991V179.627Z" fill="#DBDBDB"/>
<path d="M78.7475 179.627H75.8398V185.421H78.7475V179.627Z" fill="#DBDBDB"/>
<path d="M68.4507 189.048H65.543V206.004H68.4507V189.048Z" fill="#DBDBDB"/>
<path d="M73.5991 189.048H70.6914V206.004H73.5991V189.048Z" fill="#DBDBDB"/>
<path d="M78.7475 189.048H75.8398V206.004H78.7475V189.048Z" fill="#DBDBDB"/>
<path d="M29.4316 102.71H2.21484V206.005H29.4316V102.71Z" fill="#EBEBEB"/>
<path d="M29.4261 95.8613H6.08203V102.71H29.4261V95.8613Z" fill="#C7C7C7"/>
<path d="M26.4482 106.287H5.19922V183.503H26.4482V106.287Z" fill="#DBDBDB"/>
<path d="M26.4482 113.656H5.19922V115.48H26.4482V113.656Z" fill="white"/>
<path d="M26.4482 121.21H5.19922V123.033H26.4482V121.21Z" fill="white"/>
<path d="M26.4482 128.771H5.19922V130.594H26.4482V128.771Z" fill="white"/>
<path d="M26.4482 136.33H5.19922V138.153H26.4482V136.33Z" fill="white"/>
<path d="M26.4482 143.891H5.19922V145.714H26.4482V143.891Z" fill="white"/>
<path d="M26.4482 151.444H5.19922V153.268H26.4482V151.444Z" fill="white"/>
<path d="M26.4482 159.005H5.19922V160.828H26.4482V159.005Z" fill="white"/>
<path d="M26.4482 166.564H5.19922V168.388H26.4482V166.564Z" fill="white"/>
<path d="M26.4482 174.118H5.19922V175.941H26.4482V174.118Z" fill="white"/>
<path d="M26.4482 181.679H5.19922V183.502H26.4482V181.679Z" fill="white"/>
<path d="M46.4778 102.71H29.4316V206.005H46.4778V102.71Z" fill="#DBDBDB"/>
<path d="M43.9193 95.8613H29.4316V102.71H43.9193V95.8613Z" fill="#A6A6A6"/>
<path d="M44.8913 106.287H31.7812V183.503H44.8913V106.287Z" fill="#C7C7C7"/>
<path d="M44.8913 113.656H31.7812V115.48H44.8913V113.656Z" fill="white"/>
<path d="M44.8913 121.21H31.7812V123.033H44.8913V121.21Z" fill="white"/>
<path d="M44.8913 128.771H31.7812V130.594H44.8913V128.771Z" fill="white"/>
<path d="M44.8913 136.33H31.7812V138.153H44.8913V136.33Z" fill="white"/>
<path d="M44.8913 143.891H31.7812V145.714H44.8913V143.891Z" fill="white"/>
<path d="M44.8913 151.444H31.7812V153.268H44.8913V151.444Z" fill="white"/>
<path d="M44.8913 159.005H31.7812V160.828H44.8913V159.005Z" fill="white"/>
<path d="M44.8913 166.564H31.7812V168.388H44.8913V166.564Z" fill="white"/>
<path d="M44.8913 174.118H31.7812V175.941H44.8913V174.118Z" fill="white"/>
<path d="M44.8913 181.679H31.7812V183.502H44.8913V181.679Z" fill="white"/>
<path d="M240.429 104.451H225.891V121.636H240.429V104.451Z" fill="#DBDBDB"/>
<path d="M249.648 104.451H240.43V122.265H249.648V104.451Z" fill="#C7C7C7"/>
<path d="M250.256 112.043H241.107V122.271H250.256V112.043Z" fill="#DBDBDB"/>
<path d="M255.963 112.043H250.256V122.271H255.963V112.043Z" fill="#C7C7C7"/>
<path d="M243.819 120.519H220.316V206.006H243.819V120.519Z" fill="#EBEBEB"/>
<path d="M230.392 124.19H223.002V127.215H230.392V124.19Z" fill="white"/>
<path d="M239.851 124.19H232.461V127.215H239.851V124.19Z" fill="white"/>
<path d="M230.392 129.323H223.002V132.347H230.392V129.323Z" fill="white"/>
<path d="M239.851 129.323H232.461V132.347H239.851V129.323Z" fill="white"/>
<path d="M230.392 134.457H223.002V137.481H230.392V134.457Z" fill="white"/>
<path d="M239.851 134.457H232.461V137.481H239.851V134.457Z" fill="white"/>
<path d="M230.392 139.584H223.002V142.608H230.392V139.584Z" fill="white"/>
<path d="M239.851 139.584H232.461V142.608H239.851V139.584Z" fill="white"/>
<path d="M230.392 144.717H223.002V147.741H230.392V144.717Z" fill="white"/>
<path d="M239.851 144.717H232.461V147.741H239.851V144.717Z" fill="white"/>
<path d="M230.392 149.851H223.002V152.875H230.392V149.851Z" fill="white"/>
<path d="M239.851 149.851H232.461V152.875H239.851V149.851Z" fill="white"/>
<path d="M230.392 154.978H223.002V158.002H230.392V154.978Z" fill="white"/>
<path d="M239.851 154.978H232.461V158.002H239.851V154.978Z" fill="white"/>
<path d="M230.392 160.11H223.002V163.134H230.392V160.11Z" fill="white"/>
<path d="M239.851 160.11H232.461V163.134H239.851V160.11Z" fill="white"/>
<path d="M230.392 165.244H223.002V168.268H230.392V165.244Z" fill="white"/>
<path d="M239.851 165.244H232.461V168.268H239.851V165.244Z" fill="white"/>
<path d="M230.392 170.371H223.002V173.395H230.392V170.371Z" fill="white"/>
<path d="M239.851 170.371H232.461V173.395H239.851V170.371Z" fill="white"/>
<path d="M230.392 175.504H223.002V178.528H230.392V175.504Z" fill="white"/>
<path d="M239.851 175.504H232.461V178.528H239.851V175.504Z" fill="white"/>
<path d="M230.392 180.638H223.002V183.662H230.392V180.638Z" fill="white"/>
<path d="M239.851 180.638H232.461V183.662H239.851V180.638Z" fill="white"/>
<path d="M230.392 185.765H223.002V188.789H230.392V185.765Z" fill="white"/>
<path d="M239.851 185.765H232.461V188.789H239.851V185.765Z" fill="white"/>
<path d="M230.392 190.897H223.002V193.922H230.392V190.897Z" fill="white"/>
<path d="M239.851 190.897H232.461V193.922H239.851V190.897Z" fill="white"/>
<path d="M262.864 120.519H243.818V206.006H262.864V120.519Z" fill="#C7C7C7"/>
<path d="M254.886 193.923H260.955V190.899H254.886V193.923Z" fill="#EBEBEB"/>
<path d="M247.126 193.923H253.195V190.899H247.126V193.923Z" fill="#EBEBEB"/>
<path d="M254.886 188.789H260.955V185.765H254.886V188.789Z" fill="#EBEBEB"/>
<path d="M247.126 188.789H253.195V185.765H247.126V188.789Z" fill="#EBEBEB"/>
<path d="M254.886 183.656H260.955V180.632H254.886V183.656Z" fill="#EBEBEB"/>
<path d="M247.126 183.656H253.195V180.632H247.126V183.656Z" fill="#EBEBEB"/>
<path d="M254.886 178.529H260.955V175.505H254.886V178.529Z" fill="#EBEBEB"/>
<path d="M247.126 178.529H253.195V175.505H247.126V178.529Z" fill="#EBEBEB"/>
<path d="M254.886 173.396H260.955V170.371H254.886V173.396Z" fill="#EBEBEB"/>
<path d="M247.126 173.396H253.195V170.371H247.126V173.396Z" fill="#EBEBEB"/>
<path d="M254.886 168.263H260.955V165.239H254.886V168.263Z" fill="#EBEBEB"/>
<path d="M247.126 168.263H253.195V165.239H247.126V168.263Z" fill="#EBEBEB"/>
<path d="M254.886 163.136H260.955V160.112H254.886V163.136Z" fill="#EBEBEB"/>
<path d="M247.126 163.136H253.195V160.112H247.126V163.136Z" fill="#EBEBEB"/>
<path d="M254.886 158.002H260.955V154.978H254.886V158.002Z" fill="#EBEBEB"/>
<path d="M247.126 158.002H253.195V154.978H247.126V158.002Z" fill="#EBEBEB"/>
<path d="M254.886 152.869H260.955V149.845H254.886V152.869Z" fill="#EBEBEB"/>
<path d="M247.126 152.869H253.195V149.845H247.126V152.869Z" fill="#EBEBEB"/>
<path d="M254.886 147.742H260.955V144.718H254.886V147.742Z" fill="#EBEBEB"/>
<path d="M247.126 147.742H253.195V144.718H247.126V147.742Z" fill="#EBEBEB"/>
<path d="M254.886 142.615H260.955V139.591H254.886V142.615Z" fill="#EBEBEB"/>
<path d="M247.126 142.615H253.195V139.591H247.126V142.615Z" fill="#EBEBEB"/>
<path d="M254.886 137.476H260.955V134.452H254.886V137.476Z" fill="#EBEBEB"/>
<path d="M247.126 137.476H253.195V134.452H247.126V137.476Z" fill="#EBEBEB"/>
<path d="M254.886 132.349H260.955V129.325H254.886V132.349Z" fill="#EBEBEB"/>
<path d="M247.126 132.349H253.195V129.325H247.126V132.349Z" fill="#EBEBEB"/>
<path d="M254.886 127.222H260.955V124.198H254.886V127.222Z" fill="#EBEBEB"/>
<path d="M247.126 127.222H253.195V124.198H247.126V127.222Z" fill="#EBEBEB"/>
<path d="M158.92 150.302H131.195V206.006H158.92V150.302Z" fill="#C7C7C7"/>
<path d="M140.464 155.123H135.557V158.535H140.464V155.123Z" fill="#DBDBDB"/>
<path d="M140.464 162.41H135.557V165.822H140.464V162.41Z" fill="#DBDBDB"/>
<path d="M140.464 169.697H135.557V173.109H140.464V169.697Z" fill="#DBDBDB"/>
<path d="M140.464 176.99H135.557V180.402H140.464V176.99Z" fill="#DBDBDB"/>
<path d="M140.464 184.277H135.557V187.689H140.464V184.277Z" fill="#DBDBDB"/>
<path d="M140.464 191.57H135.557V194.982H140.464V191.57Z" fill="#DBDBDB"/>
<path d="M140.464 198.857H135.557V202.269H140.464V198.857Z" fill="#DBDBDB"/>
<path d="M147.525 155.123H142.617V158.535H147.525V155.123Z" fill="#DBDBDB"/>
<path d="M147.525 162.41H142.617V165.822H147.525V162.41Z" fill="#DBDBDB"/>
<path d="M147.525 169.697H142.617V173.109H147.525V169.697Z" fill="#DBDBDB"/>
<path d="M147.525 176.99H142.617V180.402H147.525V176.99Z" fill="#DBDBDB"/>
<path d="M147.525 184.277H142.617V187.689H147.525V184.277Z" fill="#DBDBDB"/>
<path d="M147.525 191.57H142.617V194.982H147.525V191.57Z" fill="#DBDBDB"/>
<path d="M147.525 198.857H142.617V202.269H147.525V198.857Z" fill="#DBDBDB"/>
<path d="M154.564 155.123H149.656V158.535H154.564V155.123Z" fill="#DBDBDB"/>
<path d="M154.564 162.41H149.656V165.822H154.564V162.41Z" fill="#DBDBDB"/>
<path d="M154.564 169.697H149.656V173.109H154.564V169.697Z" fill="#DBDBDB"/>
<path d="M154.564 176.99H149.656V180.402H154.564V176.99Z" fill="#DBDBDB"/>
<path d="M154.564 184.277H149.656V187.689H154.564V184.277Z" fill="#DBDBDB"/>
<path d="M154.564 191.57H149.656V194.982H154.564V191.57Z" fill="#DBDBDB"/>
<path d="M154.564 198.857H149.656V202.269H154.564V198.857Z" fill="#DBDBDB"/>
<path d="M158.92 144.495H140.465V150.302H158.92V144.495Z" fill="#DBDBDB"/>
<path d="M158.919 140.905H147.219V144.501H158.919V140.905Z" fill="#EBEBEB"/>
<path d="M178.372 150.302H158.92V206.006H178.372V150.302Z" fill="#A6A6A6"/>
<path d="M172.393 201.729H176.387V198.318H172.393V201.729Z" fill="#C7C7C7"/>
<path d="M172.393 194.437H176.387V191.025H172.393V194.437Z" fill="#C7C7C7"/>
<path d="M172.393 187.144H176.387V183.732H172.393V187.144Z" fill="#C7C7C7"/>
<path d="M172.393 179.862H176.387V176.451H172.393V179.862Z" fill="#C7C7C7"/>
<path d="M172.393 172.569H176.387V169.158H172.393V172.569Z" fill="#C7C7C7"/>
<path d="M172.393 165.282H176.387V161.871H172.393V165.282Z" fill="#C7C7C7"/>
<path d="M172.393 157.988H176.387V154.577H172.393V157.988Z" fill="#C7C7C7"/>
<path d="M166.641 201.729H170.635V198.318H166.641V201.729Z" fill="#C7C7C7"/>
<path d="M166.641 194.437H170.635V191.025H166.641V194.437Z" fill="#C7C7C7"/>
<path d="M166.641 187.144H170.635V183.732H166.641V187.144Z" fill="#C7C7C7"/>
<path d="M166.641 179.862H170.635V176.451H166.641V179.862Z" fill="#C7C7C7"/>
<path d="M166.641 172.569H170.635V169.158H166.641V172.569Z" fill="#C7C7C7"/>
<path d="M166.641 165.282H170.635V161.871H166.641V165.282Z" fill="#C7C7C7"/>
<path d="M166.641 157.988H170.635V154.577H166.641V157.988Z" fill="#C7C7C7"/>
<path d="M160.915 201.729H164.908V198.318H160.915V201.729Z" fill="#C7C7C7"/>
<path d="M160.915 194.437H164.908V191.025H160.915V194.437Z" fill="#C7C7C7"/>
<path d="M160.915 187.144H164.908V183.732H160.915V187.144Z" fill="#C7C7C7"/>
<path d="M160.915 179.862H164.908V176.451H160.915V179.862Z" fill="#C7C7C7"/>
<path d="M160.915 172.569H164.908V169.158H160.915V172.569Z" fill="#C7C7C7"/>
<path d="M160.915 165.282H164.908V161.871H160.915V165.282Z" fill="#C7C7C7"/>
<path d="M160.915 157.988H164.908V154.577H160.915V157.988Z" fill="#C7C7C7"/>
<path d="M175.426 144.495H158.92V150.302H175.426V144.495Z" fill="#C7C7C7"/>
<path d="M167.865 140.905H158.92V144.501H167.865V140.905Z" fill="#DBDBDB"/>
<path d="M29.9594 201.387C29.9594 201.387 29.4261 198.89 28.3595 198.509C27.293 198.121 26.6454 199.246 26.6454 199.246C26.6454 199.246 26.3914 196.863 24.8805 196.145C23.3695 195.434 22.2331 196.895 22.2331 196.895C22.2331 196.895 21.0713 193.871 18.9952 193.871C16.9192 193.871 15.8717 198.299 15.8717 198.299C15.8717 198.299 14.6464 196.978 13.3957 197.727C12.1387 198.471 12.1387 201.393 12.1387 201.393H29.9594V201.387Z" fill="#37474F"/>
<path d="M206.987 201.387C206.987 201.387 206.453 198.89 205.387 198.509C204.32 198.121 203.673 199.246 203.673 199.246C203.673 199.246 203.419 196.863 201.908 196.145C200.397 195.434 199.26 196.895 199.26 196.895C199.26 196.895 198.099 193.871 196.023 193.871C193.947 193.871 192.899 198.299 192.899 198.299C192.899 198.299 191.674 196.978 190.423 197.727C189.166 198.471 189.166 201.393 189.166 201.393H206.987V201.387Z" fill="#455A64"/>
<path d="M77.1178 201.387H58.3574C58.3574 201.387 58.9732 198.737 60.2176 198.553C61.4619 198.363 62.0397 199.595 62.0397 199.595C62.0397 199.595 61.9825 195.904 64.3061 195.275C66.6297 194.646 68.5788 197.905 68.5788 197.905C68.5788 197.905 70.0326 196.044 72.0198 196.164C74.0069 196.285 74.5085 199.354 74.5085 199.354C74.5085 199.354 76.3178 198.286 77.1114 201.387H77.1178Z" fill="#37474F"/>
<path d="M13.2882 201.387H3.41602C3.41602 201.387 3.44141 199.913 4.41276 199.525C5.3841 199.138 5.96183 199.894 5.96183 199.894C5.96183 199.894 6.35545 197.188 8.16482 197.188C9.9742 197.188 10.8376 199.519 10.8376 199.519C10.8376 199.519 11.2439 198.814 12.247 198.947C13.2501 199.081 13.2882 201.381 13.2882 201.381V201.387Z" fill="#455A64"/>
<path d="M84.8702 201.387H74.998C74.998 201.387 75.0234 199.913 75.9884 199.525C76.9598 199.138 77.5375 199.894 77.5375 199.894C77.5375 199.894 77.9311 197.188 79.7405 197.188C81.5499 197.188 82.4133 199.519 82.4133 199.519C82.4133 199.519 82.8196 198.814 83.8227 198.947C84.8258 199.081 84.8639 201.381 84.8639 201.381L84.8702 201.387Z" fill="#455A64"/>
<path d="M247.261 201.387H237.383C237.383 201.387 237.408 199.913 238.38 199.525C239.351 199.138 239.929 199.894 239.929 199.894C239.929 199.894 240.322 197.188 242.132 197.188C243.941 197.188 244.804 199.519 244.804 199.519C244.804 199.519 245.211 198.814 246.214 198.947C247.217 199.081 247.255 201.381 247.255 201.381L247.261 201.387Z" fill="#455A64"/>
<path d="M261.667 201.387H245.389C245.389 201.387 245.427 198.96 247.027 198.319C248.627 197.677 249.579 198.929 249.579 198.929C249.579 198.929 250.233 194.469 253.217 194.469C256.2 194.469 257.629 198.312 257.629 198.312C257.629 198.312 258.296 197.15 259.953 197.366C261.61 197.582 261.673 201.381 261.673 201.381L261.667 201.387Z" fill="#37474F"/>
<path d="M264.993 201.387H0.0820312V206.005H264.993V201.387Z" fill="#C7C7C7"/>
<path d="M18.6573 201.387C18.9049 202.155 18.962 202.924 18.9747 203.693C18.9684 204.462 18.9112 205.23 18.6573 205.999C18.4097 205.23 18.3525 204.462 18.3398 203.693C18.3525 202.924 18.4033 202.155 18.6573 201.387Z" fill="#263238"/>
<path d="M39.3604 201.387C39.608 202.155 39.6651 202.924 39.6778 203.693C39.6715 204.462 39.6143 205.23 39.3604 205.999C39.1128 205.23 39.0557 204.462 39.043 203.693C39.0557 202.924 39.1065 202.155 39.3604 201.387Z" fill="#263238"/>
<path d="M60.0694 201.387C60.317 202.155 60.3741 202.924 60.3868 203.693C60.3805 204.462 60.3233 205.23 60.0694 205.999C59.8218 205.23 59.7647 204.462 59.752 203.693C59.7647 202.924 59.8154 202.155 60.0694 201.387Z" fill="#263238"/>
<path d="M80.7725 201.387C81.0201 202.155 81.0772 202.924 81.0899 203.693C81.0836 204.462 81.0265 205.23 80.7725 205.999C80.5249 205.23 80.4678 204.462 80.4551 203.693C80.4678 202.924 80.5186 202.155 80.7725 201.387Z" fill="#263238"/>
<path d="M101.481 201.387C101.729 202.155 101.786 202.924 101.799 203.693C101.793 204.462 101.735 205.23 101.481 205.999C101.234 205.23 101.177 204.462 101.164 203.693C101.177 202.924 101.228 202.155 101.481 201.387Z" fill="#263238"/>
<path d="M122.185 201.387C122.432 202.155 122.489 202.924 122.502 203.693C122.496 204.462 122.439 205.23 122.185 205.999C121.937 205.23 121.88 204.462 121.867 203.693C121.88 202.924 121.931 202.155 122.185 201.387Z" fill="#263238"/>
<path d="M142.894 201.387C143.141 202.155 143.198 202.924 143.211 203.693C143.205 204.462 143.148 205.23 142.894 205.999C142.646 205.23 142.589 204.462 142.576 203.693C142.589 202.924 142.64 202.155 142.894 201.387Z" fill="#263238"/>
<path d="M163.597 201.387C163.844 202.155 163.901 202.924 163.914 203.693C163.908 204.462 163.851 205.23 163.597 205.999C163.349 205.23 163.292 204.462 163.279 203.693C163.292 202.924 163.343 202.155 163.597 201.387Z" fill="#263238"/>
<path d="M184.308 201.387C184.555 202.155 184.612 202.924 184.625 203.693C184.619 204.462 184.562 205.23 184.308 205.999C184.06 205.23 184.003 204.462 183.99 203.693C184.003 202.924 184.054 202.155 184.308 201.387Z" fill="#263238"/>
<path d="M205.011 201.387C205.258 202.155 205.316 202.924 205.328 203.693C205.322 204.462 205.265 205.23 205.011 205.999C204.763 205.23 204.706 204.462 204.693 203.693C204.706 202.924 204.757 202.155 205.011 201.387Z" fill="#263238"/>
<path d="M225.72 201.387C225.967 202.155 226.025 202.924 226.037 203.693C226.031 204.462 225.974 205.23 225.72 205.999C225.472 205.23 225.415 204.462 225.402 203.693C225.415 202.924 225.466 202.155 225.72 201.387Z" fill="#263238"/>
<path d="M246.423 201.387C246.671 202.155 246.728 202.924 246.74 203.693C246.734 204.462 246.677 205.23 246.423 205.999C246.175 205.23 246.118 204.462 246.105 203.693C246.118 202.924 246.169 202.155 246.423 201.387Z" fill="#263238"/>
<path d="M2.04492 206.005C85.6506 205.617 179.433 205.611 263.033 206.005C179.427 206.399 85.6443 206.392 2.04492 206.005Z" fill="#263238"/>
</g>
<defs>
<clipPath id="clip0_1223_12238">
<rect width="265" height="206.297" fill="white"/>
</clipPath>
</defs>
</svg>
