<svg width="271" height="160" viewBox="0 0 271 160" fill="none" xmlns="http://www.w3.org/2000/svg">
<g clip-path="url(#clip0_1216_1516)">
<path d="M126.544 82.5352H92.041V116.409H126.544V82.5352Z" fill="#58595B"/>
<path d="M113.293 85.6367H95.8477V86.3013H113.293V85.6367Z" fill="black"/>
<path d="M122.016 112.772H104.57V113.437H122.016V112.772Z" fill="black"/>
<path d="M107.306 87.6113H95.8477V88.2759H107.306V87.6113Z" fill="black"/>
<path d="M102.334 89.79H95.8477V90.4546H102.334V89.79Z" fill="black"/>
<path d="M111.057 111.313H104.57V111.978H111.057V111.313Z" fill="black"/>
<path d="M110.689 96.1399C110.689 96.1399 110.541 96.1399 110.467 96.1399L109.709 96.2875C109.709 96.2875 109.58 96.2875 109.506 96.2875L108.896 96.2137C108.896 96.2137 108.767 96.2137 108.693 96.2137L108.268 96.2875V82.5166H111.428V95.4753C111.428 95.863 111.077 96.1768 110.689 96.1214V96.1399Z" fill="#D1D3D4"/>
<path d="M125.194 94.9766H120.426C120.069 94.9766 119.779 95.2658 119.779 95.6226V96.9702C119.779 97.327 120.069 97.6163 120.426 97.6163H125.194C125.551 97.6163 125.841 97.327 125.841 96.9702V95.6226C125.841 95.2658 125.551 94.9766 125.194 94.9766Z" fill="#414042"/>
<path d="M98.2132 106.44H96.8271C96.2862 106.44 95.8477 106.878 95.8477 107.419V108.803C95.8477 109.344 96.2862 109.782 96.8271 109.782H98.2132C98.7541 109.782 99.1926 109.344 99.1926 108.803V107.419C99.1926 106.878 98.7541 106.44 98.2132 106.44Z" fill="black"/>
<path d="M102.112 106.44H100.726C100.185 106.44 99.7461 106.878 99.7461 107.419V108.803C99.7461 109.344 100.185 109.782 100.726 109.782H102.112C102.653 109.782 103.091 109.344 103.091 108.803V107.419C103.091 106.878 102.653 106.44 102.112 106.44Z" fill="black"/>
<path d="M98.2132 110.317H96.8271C96.2862 110.317 95.8477 110.755 95.8477 111.296V112.68C95.8477 113.221 96.2862 113.659 96.8271 113.659H98.2132C98.7541 113.659 99.1926 113.221 99.1926 112.68V111.296C99.1926 110.755 98.7541 110.317 98.2132 110.317Z" fill="black"/>
<path d="M102.112 110.317H100.726C100.185 110.317 99.7461 110.755 99.7461 111.296V112.68C99.7461 113.221 100.185 113.659 100.726 113.659H102.112C102.653 113.659 103.091 113.221 103.091 112.68V111.296C103.091 110.755 102.653 110.317 102.112 110.317Z" fill="black"/>
<path d="M22.0739 23.8887H52.0677C58.425 23.8887 63.5811 29.0389 63.5811 35.3891V99.8504H10.5605V35.4075C10.5605 29.0574 15.7166 23.9071 22.0739 23.9071V23.8887Z" fill="#A7A9AC"/>
<path d="M16.6037 35.7585C16.6037 32.5649 18.8953 29.8513 22.0369 29.2976C31.9794 27.5439 52.1601 23.9812 52.7146 23.9442C52.6221 23.9442 52.5482 23.9442 52.4558 23.9442H51.9014L22.0739 23.9258C15.7166 23.9258 10.5605 29.076 10.5605 35.4262V99.8875H63.5811V98.3369L19.3757 93.5743C17.8049 93.4081 16.6037 92.079 16.6037 90.4915V35.7769V35.7585Z" fill="#939598"/>
<path d="M56.0041 23.8889H18.1375C13.9794 23.8889 10.5605 20.4923 10.5605 16.3204C10.5605 12.167 13.961 8.75195 18.1375 8.75195H56.0041C60.1622 8.75195 63.5811 12.1485 63.5811 16.3204C63.5811 20.4739 60.1807 23.8889 56.0041 23.8889Z" fill="#BCBEC0"/>
<path d="M56.2627 16.3392H19.0429C17.6939 16.3392 16.6035 15.2501 16.6035 13.9025C16.6035 12.5549 17.6939 11.4658 19.0429 11.4658H56.2627C57.6117 11.4658 58.7021 12.5549 58.7021 13.9025C58.7021 15.2501 57.6117 16.3392 56.2627 16.3392Z" fill="#808285"/>
<path d="M45.2118 20.6589H29.6142C29.0783 20.6589 28.6348 20.2158 28.6348 19.6805C28.6348 19.1452 29.0783 18.7021 29.6142 18.7021H45.2118C45.7477 18.7021 46.1912 19.1452 46.1912 19.6805C46.1912 20.2158 45.7477 20.6589 45.2118 20.6589Z" fill="#6D6E71"/>
<path d="M57.4452 13.9026C57.4452 14.7148 56.7799 15.3793 55.9667 15.3793C55.1536 15.3793 54.4883 14.7148 54.4883 13.9026C54.4883 13.0903 55.1536 12.4258 55.9667 12.4258C56.7799 12.4258 57.4452 13.0903 57.4452 13.9026Z" fill="#231F20"/>
<path d="M28.5042 43.8252L26.3789 76.4804H45.6541L46.19 74.9483L28.5042 43.8252Z" fill="#939598"/>
<path d="M46.1896 46.2803H28.9473V74.9482H46.1896V46.2803Z" fill="#BCBEC0"/>
<path d="M72.5062 37.9922H36.0996V51.3201H72.5062V37.9922Z" fill="#BCBEC0"/>
<path d="M63.5796 51.3201V53.5722L46.1895 55.6027V50.3232L63.5796 51.3201Z" fill="#939598"/>
<path d="M109.559 37.9922H81.1543V51.3201H109.559V37.9922Z" fill="#BCBEC0"/>
<path d="M116.23 62.5068V44.6562H102.888V62.5068H116.23Z" fill="#BCBEC0"/>
<path d="M111.871 49.3262H37.8008V51.3198H111.871V49.3262Z" fill="#A7A9AC"/>
<path d="M37.6516 53.849C42.7242 53.849 46.8364 49.7414 46.8364 44.6745C46.8364 39.6076 42.7242 35.5 37.6516 35.5C32.579 35.5 28.4668 39.6076 28.4668 44.6745C28.4668 49.7414 32.579 53.849 37.6516 53.849Z" fill="#6D6E71"/>
<path d="M82.7446 44.6559C82.7446 49.7323 78.6235 53.8304 73.5598 53.8304C68.4961 53.8304 64.375 49.7139 64.375 44.6559C64.375 39.598 68.4961 35.4814 73.5598 35.4814C78.6235 35.4814 82.7446 39.598 82.7446 44.6559Z" fill="#6D6E71"/>
<path d="M118.301 82.5353V61.8789H100.818V82.5353H118.301Z" fill="#808285"/>
<path d="M106.029 49.3262H102.906V61.8972H106.029V49.3262Z" fill="#A7A9AC"/>
<path d="M118.762 44.6559C118.762 49.7323 114.641 53.8304 109.577 53.8304C104.514 53.8304 100.393 49.7139 100.393 44.6559C100.393 39.598 104.514 35.4814 109.577 35.4814C114.641 35.4814 118.762 39.598 118.762 44.6559Z" fill="#6D6E71"/>
<path d="M6.06939 159.088C4.60944 159.088 3.4082 157.888 3.4082 156.43V149.23C3.4082 147.772 4.60944 146.572 6.06939 146.572C7.52935 146.572 8.73059 147.772 8.73059 149.23V156.43C8.73059 157.888 7.52935 159.088 6.06939 159.088Z" fill="#6D6E71"/>
<path d="M68.0889 159.088C66.629 159.088 65.4277 157.888 65.4277 156.43V149.23C65.4277 147.772 66.629 146.572 68.0889 146.572C69.5489 146.572 70.7501 147.772 70.7501 149.23V156.43C70.7501 157.888 69.5489 159.088 68.0889 159.088Z" fill="#6D6E71"/>
<path d="M0.210938 120.268H73.9296V149.12C73.9296 150.56 72.7469 151.741 71.3054 151.741H2.83517C1.39369 151.741 0.210938 150.56 0.210938 149.12V120.268Z" fill="#BCBEC0"/>
<path d="M2.50252 113.216H71.6196C72.8947 113.216 73.9111 114.25 73.9111 115.505V120.249H0.210938V115.505C0.210938 114.231 1.24585 113.216 2.50252 113.216Z" fill="#808285"/>
<path d="M71.8229 106.183H2.16992V113.234H71.8229V106.183Z" fill="#BCBEC0"/>
<path d="M71.7304 99.1309H2.41012C1.19554 99.1309 0.210938 100.114 0.210938 101.328V103.986C0.210938 105.199 1.19554 106.182 2.41012 106.182H71.7304C72.945 106.182 73.9296 105.199 73.9296 103.986V101.328C73.9296 100.114 72.945 99.1309 71.7304 99.1309Z" fill="#808285"/>
<path d="M48.833 127.189H25.4922V137.841H48.833V127.189Z" fill="#A7A9AC"/>
<path d="M45.6176 129.054H28.6895V135.976H45.6176V129.054Z" fill="#6D6E71"/>
<path d="M45.6545 106.183H28.6895V113.234H45.6545V106.183Z" fill="#A7A9AC"/>
<path d="M39.7043 109.709C39.7043 111.112 38.577 112.238 37.1725 112.238C35.7679 112.238 34.6406 111.112 34.6406 109.709C34.6406 108.306 35.7679 107.18 37.1725 107.18C38.577 107.18 39.7043 108.306 39.7043 109.709Z" fill="#6D6E71"/>
<g style="mix-blend-mode:multiply">
<path d="M71.7305 106.183L71.8229 107.179L2.16992 109.708V106.183H71.7305Z" fill="#A7A9AC"/>
</g>
<path d="M43.7519 130.162H33.7539V134.648H43.7519V130.162Z" fill="#808285"/>
<g style="mix-blend-mode:multiply">
<path d="M73.9296 120.268V121.541L0.210938 123.793V120.268H73.9296Z" fill="#A7A9AC"/>
</g>
<g style="mix-blend-mode:multiply">
<path d="M25.4922 127.189L48.833 137.841V127.189H25.4922Z" fill="#A7A9AC"/>
</g>
<path d="M38.2629 109.708C38.2629 110.299 37.7824 110.779 37.191 110.779C36.5996 110.779 36.1191 110.299 36.1191 109.708C36.1191 109.118 36.5996 108.638 37.191 108.638C37.7824 108.638 38.2629 109.118 38.2629 109.708Z" fill="#231F20"/>
<path d="M32.5695 133.577C32.5695 134.167 32.089 134.647 31.4976 134.647C30.9063 134.647 30.4258 134.167 30.4258 133.577C30.4258 132.986 30.9063 132.506 31.4976 132.506C32.089 132.506 32.5695 132.986 32.5695 133.577Z" fill="#231F20"/>
<path d="M270.212 5.44727H182.559V145.04H270.212V5.44727Z" fill="#939598"/>
<path d="M249.439 18.2949H245.725V22.0053H249.439V18.2949Z" fill="#414042"/>
<path d="M256.609 18.2949H252.895V22.0053H256.609V18.2949Z" fill="#414042"/>
<path d="M263.781 18.2949H260.066V22.0053H263.781V18.2949Z" fill="#414042"/>
<path d="M249.439 25.4023H245.725V29.1127H249.439V25.4023Z" fill="#414042"/>
<path d="M256.609 25.4023H252.895V29.1127H256.609V25.4023Z" fill="#414042"/>
<path d="M263.781 25.4023H260.066V29.1127H263.781V25.4023Z" fill="#414042"/>
<path d="M249.439 32.4902H245.725V36.2006H249.439V32.4902Z" fill="#414042"/>
<path d="M256.609 32.4902H252.895V36.2006H256.609V32.4902Z" fill="#414042"/>
<path d="M263.781 32.4902H260.066V36.2006H263.781V32.4902Z" fill="#414042"/>
<path d="M249.439 39.5977H245.725V43.3081H249.439V39.5977Z" fill="#414042"/>
<path d="M256.609 39.5977H252.895V43.3081H256.609V39.5977Z" fill="#231F20"/>
<path d="M263.781 39.5977H260.066V43.3081H263.781V39.5977Z" fill="#58595B"/>
<path d="M208.598 60.2174C208.598 62.7833 206.509 64.8508 203.959 64.8508C201.409 64.8508 199.32 62.7648 199.32 60.2174C199.32 57.6699 201.409 55.584 203.959 55.584C206.509 55.584 208.598 57.6699 208.598 60.2174Z" fill="#231F20"/>
<path d="M222.144 60.2174C222.144 62.7833 220.056 64.8508 217.506 64.8508C214.955 64.8508 212.867 62.7648 212.867 60.2174C212.867 57.6699 214.955 55.584 217.506 55.584C220.056 55.584 222.144 57.6699 222.144 60.2174Z" fill="#808285"/>
<path d="M235.689 60.2174C235.689 62.7833 233.601 64.8508 231.051 64.8508C228.5 64.8508 226.412 62.7648 226.412 60.2174C226.412 57.6699 228.5 55.584 231.051 55.584C233.601 55.584 235.689 57.6699 235.689 60.2174Z" fill="#808285"/>
<path d="M249.236 60.2174C249.236 62.7833 247.148 64.8508 244.598 64.8508C242.047 64.8508 239.959 62.7648 239.959 60.2174C239.959 57.6699 242.047 55.584 244.598 55.584C247.148 55.584 249.236 57.6699 249.236 60.2174Z" fill="#808285"/>
<path d="M262.783 60.2174C262.783 62.7833 260.695 64.8508 258.144 64.8508C255.594 64.8508 253.506 62.7648 253.506 60.2174C253.506 57.6699 255.594 55.584 258.144 55.584C260.695 55.584 262.783 57.6699 262.783 60.2174Z" fill="#58595B"/>
<path d="M194.645 0.5H182.559V145.04H194.645V0.5Z" fill="#58595B"/>
<path d="M190.357 5.44727H186.883V139.354H190.357V5.44727Z" fill="#414042"/>
<path d="M261.933 77.4766H201.502V79.2118H261.933V77.4766Z" fill="#808285"/>
<path d="M261.933 81.4453H201.502V83.1805H261.933V81.4453Z" fill="#808285"/>
<path d="M261.933 85.3955H201.502V87.1307H261.933V85.3955Z" fill="#808285"/>
<path d="M261.933 89.3643H201.502V91.0995H261.933V89.3643Z" fill="#808285"/>
<path d="M261.933 93.3154H201.502V95.0506H261.933V93.3154Z" fill="#808285"/>
<path d="M261.933 97.2842H201.502V99.0194H261.933V97.2842Z" fill="#808285"/>
<path d="M261.933 101.234H201.502V102.97H261.933V101.234Z" fill="#808285"/>
<path d="M261.933 105.203H201.502V106.938H261.933V105.203Z" fill="#808285"/>
<path d="M261.933 109.153H201.502V110.889H261.933V109.153Z" fill="#808285"/>
<path d="M261.933 113.122H201.502V114.857H261.933V113.122Z" fill="#808285"/>
<path d="M261.933 117.072H201.502V118.807H261.933V117.072Z" fill="#808285"/>
<path d="M261.933 121.041H201.502V122.776H261.933V121.041Z" fill="#808285"/>
<path d="M261.933 124.992H201.502V126.727H261.933V124.992Z" fill="#808285"/>
<path d="M261.933 128.961H201.502V130.696H261.933V128.961Z" fill="#808285"/>
<path d="M194.645 145.039H188.602V152.46H194.645V145.039Z" fill="#414042"/>
<path d="M264.963 145.039H258.92V152.46H264.963V145.039Z" fill="#414042"/>
<path d="M241.106 16.2832H199.303V45.468H241.106V16.2832Z" fill="#58595B"/>
<path d="M199.303 16.2832L236.633 20.1597L241.087 45.468V16.2832H199.303Z" fill="#6D6E71"/>
</g>
<defs>
<clipPath id="clip0_1216_1516">
<rect width="270" height="158.587" fill="white" transform="translate(0.210938 0.5)"/>
</clipPath>
</defs>
</svg>
