<svg width="279" height="50" viewBox="0 0 279 50" fill="none" xmlns="http://www.w3.org/2000/svg">
<g clip-path="url(#clip0_875_1620)">
<path fill-rule="evenodd" clip-rule="evenodd" d="M265.867 1.88086C282.265 13.2695 275.422 39.6977 257.896 42.5554C280.404 42.5731 287.711 12.0938 265.867 1.88086Z" fill="#FFCD22"/>
<path fill-rule="evenodd" clip-rule="evenodd" d="M248.402 1.71098C267.956 -1.1645 275.973 22.9584 267.417 34.1097C281.575 19.8598 270.247 -5.30774 248.402 1.71098Z" fill="#0078B6"/>
<path fill-rule="evenodd" clip-rule="evenodd" d="M236.857 13.4821C246.498 -0.778438 266.527 8.04631 268.534 22.4591C270.835 4.64673 247.324 -5.22622 236.857 13.4821Z" fill="#009A50"/>
<path fill-rule="evenodd" clip-rule="evenodd" d="M236.385 24.1451C238.728 9.34274 258.016 7.79168 264.966 18.1887C259.286 3.45721 236.761 5.2597 236.385 24.1451Z" fill="#CA2031"/>
<path d="M0 16.2617H7.84288L14.3774 33.3906L20.7524 16.2617H28.4499V42.4385H22.5429V24.056L15.2922 42.4385H12.6082L5.32195 24.056V42.4385H0V16.2617Z" fill="#231F20"/>
<path d="M44.451 40.1297C43.0895 42.1518 41.0685 42.8458 38.7922 42.8458C35.0693 42.8458 32.2754 40.9867 32.2754 37.1586C32.2754 32.2965 36.8209 30.9898 40.9586 30.9898H44.3943C44.3943 28.4153 44.1425 26.6801 41.1359 26.6801C39.4517 26.6801 37.7888 27.4486 37.2144 29.1484L33.1512 27.3777C34.4028 23.9286 38.2887 22.8379 41.7457 22.8379C46.3833 22.8379 49.6418 24.821 49.6418 29.9558V42.4351H44.451V40.1297ZM42.3555 34.1238C40.4586 34.1238 37.4697 34.2654 37.4697 36.8399C37.4697 38.5397 38.739 39.1453 40.2814 39.1453C42.3591 39.1453 44.3978 38.0546 44.3978 35.7315V34.1238H42.3555Z" fill="#231F20"/>
<path d="M54.2227 23.2876H59.5411V26.326C60.7749 23.9675 63.3916 22.8379 66.0224 22.8379C70.497 22.8379 72.4152 26.0746 72.4152 30.2391V42.4351H67.0967V31.0111C67.0967 28.6313 66.0224 27.1653 63.5511 27.1653C60.9203 27.1653 59.5411 28.8474 59.5411 31.3864V42.4351H54.2227V23.2841V23.2876Z" fill="#231F20"/>
<path d="M87.9354 40.1297C86.5739 42.1518 84.5529 42.8458 82.2766 42.8458C78.5537 42.8458 75.7598 40.9867 75.7598 37.1586C75.7598 32.2965 80.3052 30.9898 84.443 30.9898H87.8786C87.8786 28.4153 87.6269 26.6801 84.6202 26.6801C82.9361 26.6801 81.2732 27.4486 80.6988 29.1484L76.6355 27.3777C77.8871 23.9286 81.7731 22.8379 85.2301 22.8379C89.8677 22.8379 93.1261 24.821 93.1261 29.9558V42.4351H87.9354V40.1297ZM85.8399 34.1238C83.943 34.1238 80.9541 34.2654 80.9541 36.8399C80.9541 38.5397 82.2234 39.1453 83.7657 39.1453C85.8435 39.1453 87.8822 38.0546 87.8822 35.7315V34.1238H85.8399Z" fill="#231F20"/>
<path d="M101.415 43.0619C102.219 45.0095 104.262 45.6186 106.247 45.6186C109.343 45.6186 111.062 44.1348 111.062 40.9336V38.0368C109.811 40.1828 107.393 41.5958 104.903 41.5958C99.461 41.5958 96.543 37.2684 96.543 32.1903C96.543 27.1122 99.7482 22.8379 105.12 22.8379C107.609 22.8379 109.757 23.7869 111.062 26.1454V23.2841H116.345V40.93C116.345 47.1697 111.871 49.4963 106.247 49.4963C102.648 49.4963 98.6739 48.5472 97.2415 44.882L101.411 43.0583L101.415 43.0619ZM111.208 32.1549C111.208 29.1696 109.757 26.8784 106.552 26.8784C103.347 26.8784 101.968 29.3998 101.968 32.4382C101.968 35.2109 103.489 37.6048 106.605 37.6048C109.722 37.6048 111.208 35.1012 111.208 32.1513V32.1549Z" fill="#231F20"/>
<path d="M138.597 38.3414C137.112 41.7941 133.336 42.8458 130.06 42.8458C123.724 42.8458 119.873 38.9292 119.873 32.7958C119.873 27.0555 123.954 22.8379 129.772 22.8379C133.495 22.8379 136.842 24.5554 138.275 28.0577C139.08 30.023 139.08 32.0451 139.08 34.0459H125.259C125.401 36.9957 126.886 39.0709 130.021 39.0709C132.098 39.0709 133.673 38.5362 134.676 36.6027L138.597 38.3379V38.3414ZM133.907 30.795C133.765 28.1674 132.492 26.5031 129.843 26.5031C127.195 26.5031 125.674 28.3268 125.333 30.795H133.91H133.907Z" fill="#231F20"/>
<path d="M143.25 16.2617H159.865V19.5161H147.317V27.491H157.557V30.6922H147.317V39.1841H160.492V42.4385H143.254V16.2617H143.25Z" fill="#231F20"/>
<path d="M164.697 23.2698H168.509V26.3081C169.654 23.9284 172.196 22.9121 174.792 22.9121C179.447 22.9121 181.631 26.2196 181.631 30.6355V42.4349H177.82V30.7418C177.82 27.7919 176.423 26.1098 173.487 26.1098C170.388 26.1098 168.509 27.9867 168.509 30.9897V42.4314H164.697V23.2627V23.2698Z" fill="#231F20"/>
<path d="M189.311 43.4902C190.315 45.7247 192.804 46.4578 195.059 46.4578C198.586 46.4578 201.036 44.6694 201.036 40.9688V38.1429C199.693 40.3952 196.991 41.7373 194.396 41.7373C189.006 41.7373 185.822 37.4984 185.822 32.4947C185.822 27.4909 189.293 22.9121 194.594 22.9121C197.189 22.9121 199.696 23.9497 201.04 26.2373V23.2698H204.816V41.0786C204.816 46.9075 200.43 49.4643 194.97 49.4643C191.424 49.4643 187.935 48.3913 186.304 44.8146L189.311 43.4902ZM201.146 32.1547C201.146 28.6312 199.196 25.9151 195.47 25.9151C191.548 25.9151 189.705 28.918 189.705 32.5124C189.705 35.7491 191.836 38.7343 195.271 38.7343C199.065 38.7343 201.143 35.7845 201.143 32.1547H201.146Z" fill="#231F20"/>
<path d="M211.762 15.4541C213.031 15.4541 214.127 16.4386 214.127 17.7594C214.127 19.0803 213.052 20.0648 211.762 20.0648C210.471 20.0648 209.4 19.0449 209.4 17.7594C209.4 16.474 210.475 15.4541 211.762 15.4541ZM209.918 23.3227H213.694V42.4383H209.918V23.3227Z" fill="#231F20"/>
<path d="M219.512 23.2698H223.323V26.3081C224.468 23.9284 227.011 22.9121 229.606 22.9121C234.261 22.9121 236.446 26.2196 236.446 30.6355V42.4349H232.634V30.7418C232.634 27.7919 231.237 26.1098 228.301 26.1098C225.202 26.1098 223.323 27.9867 223.323 30.9897V42.4314H219.512V23.2627V23.2698Z" fill="#231F20"/>
<path d="M258.375 38.1465C256.691 41.4009 253.685 42.7961 250.249 42.7961C244.196 42.7961 240.637 38.5041 240.637 32.9267C240.637 27.3493 244.253 22.9121 249.908 22.9121C256.62 22.9121 258.751 27.668 258.751 33.6385H244.519C244.519 37.162 246.398 39.8427 250.068 39.8427C252.412 39.8427 254.202 38.7343 255.223 36.8044L258.375 38.1465ZM254.975 30.9224C254.777 27.8309 253.167 25.8088 250.05 25.8088C246.934 25.8088 245.055 28.0434 244.626 30.9224H254.972H254.975Z" fill="#231F20"/>
</g>
<defs>
<clipPath id="clip0_875_1620">
<rect width="279" height="49" fill="white" transform="translate(0 0.5)"/>
</clipPath>
</defs>
</svg>
