<svg width="366" height="48" viewBox="0 0 366 48" fill="none" xmlns="http://www.w3.org/2000/svg">
<g clip-path="url(#clip0_875_1366)">
<path d="M158.017 30.6511H182.191L169.409 10.4615L145.949 46.9651H135.272L163.807 3.11616C165.047 1.34489 167.115 0.274414 169.409 0.274414C171.627 0.274414 173.694 1.30771 174.898 3.0425L203.545 46.9651H192.868L187.831 38.8081H163.357L158.018 30.6511H158.017ZM268.923 38.8074V0.717056H259.863V42.5358C259.863 43.68 260.313 44.7876 261.178 45.6364C262.043 46.4852 263.208 46.9651 264.486 46.9651H305.803L311.142 38.8081H268.922L268.923 38.8074ZM119.031 31.9791C127.829 31.9791 134.972 25.0034 134.972 16.3667C134.972 7.72918 127.829 0.716354 119.031 0.716354H79.3942V46.9658H88.4515V8.87471H118.43C122.64 8.87471 126.024 12.2342 126.024 16.3681C126.024 20.5013 122.64 23.86 118.43 23.86L92.8879 23.8235L119.933 46.9658H133.092L114.896 31.9805H119.031L119.031 31.9791ZM23.6417 46.9651C10.6374 46.9658 0.0839844 36.6307 0.0839844 23.86C0.0839844 11.0886 10.6374 0.717757 23.6417 0.717757H51.0221C64.0292 0.717757 74.5748 11.0886 74.5748 23.86C74.5748 36.6307 64.0292 46.9651 51.0214 46.9651H23.6417ZM50.4133 38.8081C58.8382 38.8081 65.6619 32.1271 65.6619 23.8593C65.6619 15.5922 58.8382 8.87471 50.4133 8.87471H24.2476C15.8256 8.87471 8.99833 15.5922 8.99833 23.86C8.99833 32.1271 15.8256 38.8081 24.2469 38.8081H50.4126H50.4133ZM222.455 46.9651C209.448 46.9651 198.883 36.6307 198.883 23.86C198.883 11.0886 209.448 0.717757 222.455 0.717757H254.976L249.674 8.87471H223.057C214.636 8.87471 207.793 15.5922 207.793 23.86C207.793 32.1271 214.636 38.8081 223.057 38.8081H255.727L250.388 46.9651H222.455ZM333.249 38.8081C326.294 38.8081 320.391 34.2316 318.587 27.9195H357.309L362.648 19.7626H318.587C320.391 13.4877 326.294 8.87471 333.249 8.87471H359.829L365.203 0.716354H332.646C319.638 0.716354 309.074 11.0879 309.074 23.8586C309.074 36.63 319.638 46.9644 332.646 46.9644H360.58L365.918 38.8081H333.248H333.249Z" fill="#EA1B22"/>
</g>
<defs>
<clipPath id="clip0_875_1366">
<rect width="366" height="47" fill="white" transform="translate(0 0.274414)"/>
</clipPath>
</defs>
</svg>
