<svg width="475" height="609" viewBox="0 0 475 609" fill="none" xmlns="http://www.w3.org/2000/svg">
<g clip-path="url(#clip0_1607_4458)">
<path d="M466.108 123.703L469.256 123.837C470.21 123.87 471.098 122.764 471.231 121.357L474.731 84.9093C474.865 83.5016 474.195 82.3286 473.258 82.2784L470.11 82.1443C469.155 82.1108 468.268 83.2168 468.134 84.6244L464.634 121.072C464.5 122.48 465.17 123.653 466.125 123.703H466.108Z" fill="url(#paint0_linear_1607_4458)"/>
<path d="M181.037 144.063L184.184 144.197C185.139 144.231 186.026 143.125 186.16 141.717L189.66 105.27C189.794 103.862 189.124 102.689 188.17 102.639L185.022 102.505C184.067 102.471 183.18 103.577 183.046 104.985L179.546 141.432C179.412 142.84 180.082 144.013 181.037 144.063Z" fill="url(#paint1_linear_1607_4458)"/>
<path d="M460.582 181.45L463.73 181.584C464.685 181.617 465.572 180.511 465.706 179.104L469.206 142.656C469.34 141.249 468.67 140.076 467.732 140.025L464.584 139.891C463.63 139.858 462.742 140.964 462.608 142.371L459.109 178.819C458.975 180.227 459.645 181.4 460.599 181.45H460.582Z" fill="url(#paint2_linear_1607_4458)"/>
<path d="M182.879 553.918L386.12 562.146C407.871 563.034 427.21 545.975 429.32 524.056L474.814 49.5347C476.907 27.616 460.983 9.14923 439.233 8.26108L235.975 0.0331644C214.224 -0.854981 194.884 16.2041 192.775 38.1229L147.281 512.644C145.187 534.563 161.111 553.03 182.862 553.918H182.879Z" fill="url(#paint3_linear_1607_4458)"/>
<path style="mix-blend-mode:screen" d="M383.105 558.845L186.478 550.885C164.727 549.997 148.787 531.53 150.896 509.611L151.432 503.947C149.339 525.866 165.263 544.333 187.014 545.221L383.641 553.181C405.392 554.069 424.731 537.01 426.841 515.091L426.305 520.755C424.212 542.674 404.873 559.716 383.105 558.845Z" fill="url(#paint4_linear_1607_4458)"/>
<path style="mix-blend-mode:screen" d="M238.436 3.15054L436.185 11.1439C458.07 12.032 474.094 30.5155 472.001 52.4175L471.465 58.0815C473.558 36.1628 457.534 17.6793 435.649 16.8079L237.9 8.79781C216.015 7.90966 196.575 24.952 194.482 46.8708L195.018 41.2068C197.111 19.288 216.551 2.24564 238.436 3.13378V3.15054Z" fill="url(#paint5_linear_1607_4458)"/>
<path d="M374.868 36.1116L279.66 32.2573C278.773 32.2238 278.137 31.4697 278.22 30.5816L278.488 27.7831C278.572 26.895 279.359 26.2079 280.246 26.2414L375.454 30.0956C376.341 30.1291 376.978 30.8832 376.894 31.7714L376.626 34.5699C376.542 35.458 375.755 36.1451 374.868 36.1116Z" fill="url(#paint6_linear_1607_4458)"/>
<path d="M391.595 33.765C391.427 35.424 389.971 36.7144 388.313 36.6473C386.655 36.5803 385.45 35.1727 385.617 33.5137C385.785 31.8547 387.241 30.5644 388.899 30.6314C390.557 30.6984 391.762 32.1061 391.595 33.765Z" fill="url(#paint7_linear_1607_4458)"/>
<path d="M300.104 526.619C299.434 533.607 293.273 539.037 286.341 538.752C279.408 538.467 274.335 532.585 275.005 525.597C275.674 518.609 281.836 513.18 288.768 513.465C295.701 513.75 300.774 519.632 300.104 526.619Z" fill="url(#paint8_linear_1607_4458)"/>
<path d="M451.339 57.2762L214.593 47.691C207.359 47.4061 200.913 53.0701 200.21 60.3596L159.789 482.011C159.086 489.301 164.394 495.451 171.627 495.752L408.374 505.337C415.607 505.622 422.054 499.958 422.757 492.669L463.178 71.0174C463.881 63.7279 458.573 57.5779 451.339 57.2762Z" fill="url(#paint9_linear_1607_4458)"/>
<path d="M453.751 65.2531L452.93 65.2196L453.047 63.9293L438.48 63.3428L437.643 72.1237L452.21 72.7102L452.327 71.4199L453.148 71.4534L453.751 65.2364V65.2531ZM445.864 71.1685L446.467 64.9515L450.887 65.1358L450.284 71.3528L445.864 71.1685Z" fill="black"/>
<path d="M433.424 71.9562L432.018 71.9059L432.855 63.125L434.261 63.1753L433.424 71.9562Z" fill="black"/>
<path d="M431.012 71.8553L429.605 71.805L430.325 64.3145L431.732 64.3647L431.012 71.8553Z" fill="black"/>
<path d="M428.584 71.7551L427.178 71.7048L427.781 65.5381L429.187 65.5884L428.584 71.7551Z" fill="black"/>
<path d="M426.174 71.6715L424.768 71.6044L425.236 66.6777L426.643 66.728L426.174 71.6715Z" fill="black"/>
<path d="M423.762 71.5705L422.355 71.5035L422.707 67.7666L424.114 67.8169L423.762 71.5705Z" fill="black"/>
<path d="M215.008 58.582L214.658 67.2149L213.613 67.1725L213.918 59.6356L213.867 59.6335L211.703 60.9475L211.746 59.8853L213.962 58.5396L215.008 58.582ZM219.989 67.5505C219.348 67.5245 218.808 67.3277 218.371 66.9603C217.934 66.59 217.61 66.0665 217.399 65.3898C217.187 64.7102 217.101 63.8964 217.139 62.9483C217.177 62.0059 217.329 61.206 217.594 60.5486C217.863 59.8884 218.23 59.3915 218.695 59.0578C219.164 58.7214 219.716 58.5661 220.352 58.5919C220.988 58.6177 221.524 58.8171 221.961 59.1903C222.401 59.5607 222.727 60.0856 222.938 60.7652C223.152 61.4421 223.24 62.2517 223.202 63.1941C223.164 64.1422 223.012 64.9464 222.746 65.6066C222.481 66.264 222.115 66.7595 221.65 67.0932C221.184 67.4241 220.631 67.5765 219.989 67.5505ZM220.027 66.6137C220.663 66.6395 221.169 66.353 221.546 65.7541C221.923 65.1553 222.134 64.2881 222.18 63.1527C222.211 62.3976 222.156 61.7514 222.016 61.214C221.878 60.6768 221.665 60.2629 221.375 59.9726C221.088 59.6823 220.735 59.5286 220.315 59.5116C219.685 59.4861 219.18 59.7769 218.8 60.3842C218.42 60.9886 218.207 61.8571 218.161 62.9897C218.13 63.7448 218.184 64.3895 218.322 64.9239C218.459 65.4584 218.671 65.8693 218.958 66.1567C219.248 66.4442 219.604 66.5966 220.027 66.6137ZM225.086 67.7059C224.876 67.6974 224.699 67.6149 224.554 67.4584C224.41 67.3018 224.342 67.1185 224.351 66.9085C224.359 66.6984 224.442 66.5212 224.598 66.3769C224.755 66.2325 224.938 66.1646 225.148 66.1731C225.358 66.1816 225.535 66.2642 225.68 66.4207C225.824 66.5772 225.892 66.7605 225.883 66.9706C225.878 67.1097 225.837 67.236 225.761 67.3495C225.689 67.4631 225.593 67.553 225.473 67.6193C225.357 67.6828 225.228 67.7117 225.086 67.7059ZM230.255 67.9667C229.693 67.9439 229.196 67.8271 228.764 67.6162C228.334 67.4055 227.998 67.1231 227.753 66.7692C227.512 66.4125 227.389 66.0052 227.385 65.5473L228.458 65.5908C228.469 65.8727 228.556 66.1194 228.718 66.3306C228.88 66.5391 229.096 66.7042 229.367 66.8261C229.638 66.948 229.941 67.0157 230.276 67.0293C230.651 67.0445 230.985 66.9927 231.28 66.8738C231.575 66.755 231.809 66.5825 231.984 66.3564C232.158 66.1303 232.251 65.864 232.263 65.5575C232.276 65.2367 232.208 64.951 232.059 64.7005C231.91 64.4471 231.685 64.2446 231.384 64.0931C231.083 63.9416 230.711 63.8568 230.269 63.8389L229.57 63.8106L229.608 62.8738L230.307 62.9021C230.653 62.9162 230.959 62.866 231.225 62.7517C231.494 62.6375 231.707 62.4699 231.864 62.2488C232.024 62.0278 232.11 61.764 232.122 61.4575C232.134 61.1622 232.079 60.9027 231.958 60.6788C231.836 60.455 231.658 60.2772 231.425 60.1455C231.194 60.0138 230.918 59.9415 230.598 59.9285C230.297 59.9163 230.011 59.9602 229.739 60.0601C229.471 60.1572 229.249 60.306 229.073 60.5064C228.897 60.704 228.796 60.9473 228.77 61.2363L227.749 61.1948C227.784 60.7385 227.938 60.3438 228.21 60.0109C228.482 59.675 228.831 59.4191 229.256 59.2429C229.684 59.067 230.149 58.9891 230.652 59.0095C231.191 59.0314 231.649 59.1594 232.027 59.3937C232.404 59.625 232.689 59.9223 232.882 60.2856C233.075 60.6488 233.163 61.0362 233.146 61.4478C233.126 61.9389 232.98 62.3523 232.708 62.6882C232.438 63.0241 232.081 63.2499 231.636 63.3654L231.633 63.4336C232.18 63.5467 232.6 63.7984 232.894 64.1884C233.189 64.5757 233.325 65.0461 233.302 65.5996C233.283 66.0736 233.137 66.4942 232.863 66.8612C232.592 67.2256 232.231 67.5066 231.78 67.7044C231.328 67.9022 230.82 67.9896 230.255 67.9667ZM237.787 68.2721C237.146 68.2461 236.606 68.0494 236.169 67.6819C235.732 67.3116 235.408 66.7881 235.196 66.1114C234.985 65.4318 234.899 64.618 234.937 63.6699C234.975 62.7275 235.127 61.9276 235.392 61.2702C235.661 60.6101 236.028 60.1132 236.493 59.7795C236.962 59.4431 237.514 59.2878 238.15 59.3135C238.786 59.3393 239.322 59.5388 239.759 59.9119C240.199 60.2823 240.525 60.8073 240.736 61.4868C240.95 62.1637 241.038 62.9733 241 63.9157C240.962 64.8638 240.81 65.668 240.544 66.3282C240.279 66.9856 239.913 67.4812 239.448 67.8149C238.982 68.1457 238.429 68.2981 237.787 68.2721ZM237.825 67.3354C238.461 67.3612 238.967 67.0746 239.344 66.4758C239.721 65.8769 239.932 65.0097 239.978 63.8743C240.009 63.1192 239.954 62.473 239.814 61.9356C239.676 61.3984 239.463 60.9846 239.173 60.6942C238.886 60.4039 238.533 60.2503 238.113 60.2332C237.483 60.2077 236.977 60.4985 236.597 61.1058C236.218 61.7102 236.005 62.5787 235.959 63.7113C235.928 64.4664 235.982 65.1111 236.119 65.6456C236.257 66.18 236.469 66.5909 236.756 66.8783C237.046 67.1659 237.402 67.3182 237.825 67.3354Z" fill="#010101"/>
<path d="M220.862 289.856L219.532 289.725C218.62 289.634 217.994 288.917 218.138 288.121L222.492 263.372C223.339 258.532 228.514 255.036 234.015 255.557L262.147 258.258C263.059 258.349 263.685 259.067 263.542 259.863L263.333 261.024C263.19 261.82 262.342 262.407 261.43 262.315L233.298 259.615C230.352 259.328 227.589 261.206 227.119 263.803L222.765 288.551C222.622 289.347 221.775 289.934 220.862 289.843V289.856Z" fill="#648890"/>
<path d="M327.77 405.341L327.978 404.18C328.122 403.384 328.969 402.797 329.882 402.888L358.013 405.589C360.959 405.876 363.723 403.997 364.179 401.401L368.546 376.665C368.69 375.869 369.537 375.282 370.449 375.374L371.779 375.504C372.692 375.595 373.317 376.313 373.174 377.109L368.807 401.844C367.96 406.685 362.797 410.181 357.283 409.659L329.152 406.959C328.239 406.867 327.613 406.15 327.757 405.354L327.77 405.341Z" fill="#648890"/>
<path d="M385.113 306.686L383.783 306.555C382.87 306.464 382.245 305.746 382.388 304.951L386.716 280.398C386.885 279.406 386.794 278.375 386.286 277.488C385.478 276.079 383.979 275.179 382.232 275.009L354.087 272.309C353.175 272.218 352.549 271.5 352.692 270.704L352.901 269.543C353.044 268.747 353.892 268.16 354.804 268.252L382.571 270.926C385.008 271.161 387.342 272.035 388.971 273.601C390.979 275.518 391.839 278.088 391.383 280.698L387.029 305.42C386.886 306.216 386.038 306.803 385.126 306.712L385.113 306.686Z" fill="#648890"/>
<path d="M213.224 394.095C210.264 393.808 207.696 392.412 206.119 390.194C204.841 388.394 204.476 386.189 204.854 384.037L208.126 359.627C208.27 358.831 209.117 358.244 210.03 358.336L211.359 358.466C212.272 358.557 212.898 359.275 212.754 360.071L209.456 384.65C209.287 385.641 209.378 386.672 209.886 387.546C210.695 388.955 212.194 389.855 213.94 390.025L242.085 392.725C242.998 392.817 243.623 393.534 243.48 394.33L243.271 395.491C243.128 396.287 242.281 396.874 241.368 396.783L213.224 394.082V394.095Z" fill="#648890"/>
<path d="M455.642 149.695L192.607 143.042L198.133 82.1455L463.127 89.6193L455.642 149.695Z" fill="#648890"/>
<path opacity="0.2" d="M172.966 486.687C172.43 494.111 175.126 500.797 179.915 505.606L427.428 63.7119C422.79 59.288 416.36 56.5732 409.042 56.5732H232.207C216.869 56.5732 203.574 68.4375 202.503 83.0836L172.949 486.704L172.966 486.687Z" fill="white"/>
<path d="M351.492 274.554L274.334 267.148C272.961 267.014 271.622 267.432 270.55 268.304L231.168 300.813C230.096 301.685 229.443 302.942 229.309 304.299L221.908 381.517C221.64 384.349 223.716 386.88 226.563 387.148L339.67 398.007C342.5 398.275 345.028 396.197 345.296 393.348L356.146 280.151C356.414 277.319 354.338 274.789 351.492 274.521V274.554ZM227.049 382.037L234.449 304.818L273.832 272.309L350.989 279.716L340.139 392.912L227.032 382.054L227.049 382.037Z" fill="#0076A4"/>
<path d="M300.539 318.995L279.977 317.018C278.554 316.884 277.298 317.923 277.164 319.347L275.188 339.925C275.054 341.349 276.092 342.606 277.515 342.74L298.077 344.718C299.501 344.852 300.756 343.813 300.89 342.388L301.627 334.663L314.487 335.903C317.316 336.171 319.845 334.094 320.113 331.245L322.34 308.086C322.608 305.254 320.531 302.724 317.685 302.455L287.897 299.59C286.524 299.456 285.184 299.875 284.113 300.746L260.403 320.319C259.331 321.19 258.678 322.43 258.544 323.821L255.681 353.633C255.413 356.465 257.489 358.995 260.336 359.263L327.162 365.681C329.992 365.949 332.52 363.872 332.788 361.023L339.201 294.144C339.469 291.312 337.393 288.781 334.546 288.513L281.635 283.436C280.262 283.302 278.922 283.721 277.85 284.592L245.701 311.136C244.63 312.007 243.977 313.247 243.843 314.638L238.769 367.592C238.501 370.424 240.578 372.954 243.424 373.222L328.25 381.366C329.674 381.5 330.93 380.461 331.063 379.037C331.197 377.613 330.159 376.356 328.736 376.222L243.91 368.078L248.983 315.124L281.132 288.58L334.044 293.658L327.631 360.537L260.805 354.119L263.668 324.307L287.378 304.734L317.166 307.6L314.939 330.759L302.079 329.519L302.816 321.794C302.95 320.369 301.912 319.112 300.489 318.978L300.539 318.995ZM296.001 339.322L280.58 337.847L282.053 322.414L297.475 323.888L296.001 339.322Z" fill="#0076A4"/>
<path d="M117.996 592.711L131.04 589.561L124.309 559.196L111.248 562.347L117.996 592.711Z" fill="#F5C5B5"/>
<path d="M130.553 586.411L116.287 589.863C115.768 589.98 115.4 590.466 115.417 591.019L115.902 603.151C115.952 604.274 116.907 605.129 118.029 605.078C118.163 605.078 118.28 605.062 118.397 605.028C123.504 603.688 130.855 601.593 137.335 600.034C144.886 598.208 145.606 598.476 154.447 596.331C159.805 595.041 159.856 589.293 157.478 589.343C146.678 589.578 144.2 589.93 133.936 586.628C132.847 586.26 131.675 586.176 130.553 586.427V586.411Z" fill="#422510"/>
<path opacity="0.2" d="M124.309 559.196L127.792 574.864L114.732 578.015L111.266 562.363L124.309 559.196Z" fill="black"/>
<path d="M17.5469 590.098L30.8083 592.176L36.1832 561.526L22.905 559.448L17.5469 590.098Z" fill="#F5C5B5"/>
<path d="M30.9097 590.617L16.4092 588.338C15.8734 588.254 15.3543 588.556 15.1701 589.075L11.0008 600.47C10.6324 601.526 11.1683 602.682 12.2231 603.051C12.3403 603.101 12.4576 603.118 12.5915 603.152C17.8325 603.872 25.4176 604.744 31.9981 605.783C39.6669 606.989 40.2362 607.509 49.2279 608.916C54.6697 609.771 56.9135 604.492 54.7032 603.621C44.6232 599.716 42.1953 599.08 33.9739 592.109C33.1032 591.338 32.0483 590.835 30.9264 590.617H30.9097Z" fill="#422510"/>
<path opacity="0.2" d="M36.1669 561.543L33.0524 579.339L19.791 577.261L22.9054 559.465L36.1669 561.543Z" fill="black"/>
<path d="M98.4052 300.193L117.561 461.836L131.776 563.772C132.111 566.52 130.47 569 128.042 569.369L112.236 573.39C109.942 573.726 107.732 572.05 107.129 569.503C102.072 548.439 88.6098 507.332 86.0647 466.964C86.0647 466.964 59.1902 363.989 53.7651 332.133L52.1074 303.344L98.4052 300.21V300.193Z" fill="#289FA8"/>
<path opacity="0.2" d="M74.6616 339.238C74.6616 339.238 79.5509 385.07 74.6616 422.322C74.6616 422.322 64.3806 379.574 59.709 362.699L74.6616 339.238Z" fill="black"/>
<path d="M78.5129 292.334L62.3212 474.638L41.8263 572.066C41.324 574.647 39.0802 576.239 36.7528 575.686L19.3723 572.066C17.1286 571.513 15.5546 569.151 15.7555 566.587C17.3965 545.573 16.4253 511.237 26.6895 474.119C26.6895 474.119 27.8449 348.438 32.2151 292.652L78.4961 292.334H78.5129Z" fill="#289FA8"/>
<path d="M179.632 210.189L183.149 205.329L195.841 213.138C193.262 215.333 190.466 217.227 187.486 218.836C185.443 219.875 182.981 219.64 181.173 218.216L180.687 217.847C178.326 215.987 177.858 212.602 179.632 210.189Z" fill="#F5C5B5"/>
<path d="M193.396 198.141L200.043 209.619L195.841 213.155L183.148 205.33L193.396 198.141Z" fill="#F8972E"/>
<path d="M95.8615 220.779C109.692 224.365 130.053 227.432 134.959 228.153C141.456 229.108 168.933 224.215 180.805 222.706C181.475 222.623 187.837 218.902 188.29 218.467C188.859 217.88 184.355 219.506 184.204 218.701C183.618 215.585 181.793 213.54 181.207 210.44C181.039 209.552 182.965 210.959 182.245 210.306C181.19 209.351 177.623 209.837 176.2 210.021C160.544 211.931 137.789 209.971 137.789 209.971C126.587 208.211 114.498 203.703 104.167 199.279C73.3405 186.091 89.0633 219.037 95.8782 220.796L95.8615 220.779Z" fill="#F5C5B5"/>
<path d="M204.346 219.59L189.93 216.725L198.771 186.394L213.187 189.259L204.346 219.59Z" fill="#648890"/>
<path d="M216.152 188.085L206.273 222.019C206.021 222.841 205.184 223.343 204.347 223.176L203.51 223.008C204.347 223.176 205.184 222.656 205.419 221.852L215.298 187.918C215.566 186.98 214.98 186.008 214.025 185.823L214.862 185.991C215.817 186.175 216.42 187.147 216.152 188.085Z" fill="#648890"/>
<path opacity="0.3" d="M216.152 188.085L206.273 222.019C206.021 222.841 205.184 223.343 204.347 223.176L203.51 223.008C204.347 223.176 205.184 222.656 205.419 221.852L215.298 187.918C215.566 186.98 214.98 186.008 214.025 185.823L214.862 185.991C215.817 186.175 216.42 187.147 216.152 188.085Z" fill="black"/>
<path d="M214.025 185.823L199.642 182.958C198.805 182.79 197.968 183.293 197.733 184.114L187.854 218.048C187.586 218.986 188.172 219.958 189.127 220.143L203.51 223.008C204.347 223.176 205.184 222.656 205.419 221.852L215.298 187.918C215.566 186.98 214.98 186.008 214.025 185.823ZM204.347 219.59L189.93 216.724L198.755 186.393L213.171 189.259L204.347 219.59Z" fill="#2A7BBF"/>
<path d="M213.187 189.259L204.346 219.59L189.93 216.725L198.771 186.394L213.187 189.259Z" fill="#648890"/>
<path opacity="0.7" d="M213.187 189.259L204.346 219.59L189.93 216.725L198.771 186.394L213.187 189.259Z" fill="white"/>
<path d="M189.477 200.889L192.709 197.437C193.027 197.102 193.579 197.219 193.73 197.655L194.182 198.962C194.467 199.783 194.349 200.688 193.881 201.425L188.941 209.167L183.131 205.313L189.46 200.872L189.477 200.889Z" fill="#F5C5B5"/>
<path d="M100.834 242.665C101.085 286.787 103.714 303.343 97.1667 303.343C84.9937 303.343 40.521 304.952 37.9257 304.583C18.7368 301.852 30.508 258.098 30.2401 251.244C30.0726 247.022 29.721 242.799 29.1685 238.66C28.8336 236.23 28.348 233.649 27.5108 231.27C26.1043 227.231 23.8271 223.729 19.9089 222.438C16.4094 221.265 24.2624 222.288 20.5787 222.053C16.8949 221.818 22.7052 219.221 23.1573 215.551C23.3917 213.792 24.614 212.401 25.8196 211.11C31.1945 205.379 13.8308 219.791 15.9405 212.216C16.8447 209.032 17.3303 205.714 18.8205 202.765C25.2336 190.063 43.3341 184.868 54.3518 185.605C60.3629 186.008 68.1155 186.678 73.7248 188.789C79.602 191.001 87.07 194.453 94.4542 195.928C101.118 197.269 100.817 242.681 100.817 242.681L100.834 242.665Z" fill="#262E35"/>
<path d="M50.8867 170.038C52.7453 177.478 52.3267 189.594 52.377 197.973C52.4272 205.765 72.5035 212.217 72.5035 212.217C72.5035 212.217 80.7752 205.212 74.3621 199.984C68.9872 195.593 68.2337 190.499 69.4393 184.332L50.8867 170.038Z" fill="#F5C5B5"/>
<path opacity="0.2" d="M58.4542 175.903L69.4385 184.332C69.0868 186.042 68.8691 187.784 68.8022 189.527C64.8003 189.158 59.124 185.086 58.4877 180.947C58.1696 179.288 58.1528 177.579 58.4542 175.903Z" fill="black"/>
<path d="M49.0615 156.062C50.4848 168.647 50.6857 176.088 57.3834 182.238C67.4634 191.488 82.7509 184.902 85.1119 172.133C87.2384 160.654 84.5425 141.986 71.9341 137.612C62.9425 134.429 53.0969 139.137 49.9155 148.119C49.0113 150.65 48.7267 153.364 49.0615 156.046V156.062Z" fill="#F5C5B5"/>
<path d="M72.3024 170.976C70.4772 171.63 73.1228 174.328 76.0196 174.479H81.1935C82.4661 174.479 83.7219 173.859 84.308 172.753C84.8438 171.764 84.8103 170.708 83.9898 170.407C83.9898 170.407 83.4707 170.055 80.1219 170.055C80.1219 170.055 74.2614 170.222 72.2856 170.993L72.3024 170.976Z" fill="#F5C5B5"/>
<path d="M81.8126 172.099C78.9326 172.987 75.7847 172.418 73.407 170.574C73.2898 170.44 73.3065 170.222 73.4572 170.122C73.5577 170.038 73.7084 170.021 73.8256 170.088C76.0693 171.797 78.9996 172.317 81.6954 171.496C81.8628 171.446 82.047 171.546 82.0972 171.73C82.1307 171.898 82.0303 172.066 81.8628 172.099C81.8628 172.099 81.8461 172.099 81.8293 172.099H81.8126Z" fill="#262E35"/>
<path d="M50.7365 146.611C51.5402 148.002 57.9867 150.281 57.9365 151.89C56.6304 153.197 55.3411 157.118 54.3867 158.71C52.9634 161.056 52.5114 164.006 50.6862 166.05C50.7532 166.016 50.2676 166.301 50.3513 166.268C48.8779 163.57 46.7513 163.654 45.5625 160.822C48.409 157.571 46.902 148.555 50.7532 146.611H50.7365Z" fill="#262E35"/>
<path d="M44.373 168.363C45.7628 171.228 48.2409 173.424 51.2549 174.479C55.2568 175.837 57.4837 172.318 56.5461 168.38C55.7256 164.877 52.6447 159.951 48.5423 160.286C44.44 160.621 42.7153 164.861 44.373 168.363Z" fill="#F5C5B5"/>
<path d="M71.4989 157.369C70.4775 157.453 69.7407 158.174 69.8412 158.844C69.9417 159.514 70.8459 159.933 71.8505 159.765C72.8552 159.615 73.6086 158.944 73.5082 158.274C73.4077 157.621 72.5035 157.185 71.4821 157.352L71.4989 157.369Z" fill="#262E35"/>
<path d="M82.3493 156.766C81.3112 156.766 80.5242 157.42 80.5577 158.09C80.5912 158.761 81.4619 159.263 82.5 159.196C83.5381 159.129 84.3251 158.559 84.2749 157.872C84.2414 157.185 83.3707 156.716 82.3493 156.766Z" fill="#262E35"/>
<path d="M77.8281 157.403C79.7705 160.168 81.9807 161.475 84.5928 163.62C83.2198 165.682 79.8374 165.447 79.8374 165.447L77.8281 157.403Z" fill="#E8A691"/>
<path d="M66.1741 154.186C66.375 154.303 66.6262 154.286 66.8103 154.152C68.0327 153.214 69.6234 152.912 71.1136 153.348C71.4317 153.465 71.7666 153.314 71.9006 152.996C72.0178 152.678 71.8671 152.342 71.549 152.208C69.6903 151.622 67.6643 151.974 66.1238 153.147C65.8559 153.348 65.7889 153.716 65.9899 153.985C66.0401 154.068 66.1071 154.135 66.2076 154.169L66.1741 154.186Z" fill="#262E35"/>
<path d="M84.7609 154.488C84.8781 154.521 84.9953 154.538 85.1125 154.488C85.4139 154.32 85.5144 153.951 85.3637 153.65C84.4427 151.907 82.7348 150.717 80.7757 150.466C80.4409 150.466 80.1562 150.7 80.1395 151.019C80.1227 151.354 80.3739 151.639 80.692 151.656C82.2157 151.89 83.5385 152.845 84.2251 154.219C84.3423 154.387 84.5432 154.471 84.7441 154.454L84.7609 154.488Z" fill="#262E35"/>
<path opacity="0.4" d="M39.3322 212.284C39.3322 212.284 40.002 234.94 35.5145 245.43C33.7229 249.62 31.9982 251.731 30.575 252.77C29.9052 248.581 29.0512 244.442 28.0131 240.403C27.3936 238.024 26.5898 235.527 25.4847 233.265L25.0996 228.019L39.3489 212.284H39.3322Z" fill="black"/>
<path d="M205.853 198.007L201.784 196.75C201.784 196.75 201.633 196.75 201.566 196.767L199.088 198.074C199.088 198.074 198.971 198.174 198.954 198.241L197.698 202.313C197.648 202.464 197.732 202.615 197.882 202.665L203.843 204.509C203.994 204.559 204.145 204.475 204.195 204.324L206.037 198.359C206.087 198.208 206.003 198.057 205.853 198.007ZM197.966 202.397L199.222 198.325L201.7 197.018L205.769 198.275L203.927 204.241L197.966 202.397Z" fill="#006479"/>
<path d="M202.621 199.816L201.532 199.481C201.532 199.481 201.382 199.498 201.348 199.582L201.013 200.671C201.013 200.671 201.03 200.822 201.114 200.855L202.202 201.19C202.202 201.19 202.353 201.174 202.386 201.09L202.52 200.688L203.19 200.906C203.341 200.956 203.492 200.872 203.542 200.721L203.927 199.498C203.977 199.347 203.893 199.196 203.743 199.146L202.169 198.66C202.169 198.66 202.018 198.66 201.951 198.677L200.461 199.464C200.461 199.464 200.344 199.565 200.327 199.632L199.841 201.207C199.791 201.358 199.875 201.509 200.025 201.559L203.542 202.648C203.692 202.699 203.843 202.615 203.893 202.464L204.982 198.945C205.032 198.794 204.948 198.643 204.798 198.593L202.001 197.722C202.001 197.722 201.851 197.722 201.784 197.738L199.758 198.811C199.758 198.811 199.64 198.911 199.624 198.978L198.753 201.777C198.703 201.928 198.786 202.079 198.937 202.129L203.408 203.52C203.408 203.52 203.558 203.503 203.592 203.419C203.625 203.335 203.575 203.268 203.492 203.235L199.021 201.844L199.891 199.046L201.918 197.973L204.714 198.844L203.625 202.364L200.109 201.274L200.595 199.699L202.085 198.911L203.659 199.397L203.274 200.621L202.604 200.403L202.738 200.001C202.738 200.001 202.721 199.85 202.638 199.816H202.621ZM202.135 200.872L201.315 200.621L201.566 199.8L202.386 200.051L202.135 200.872Z" fill="#006479"/>
<path d="M81.8456 146.812L80.4559 144.768C80.4559 144.768 78.7479 145.941 74.947 146.762C69.12 148.035 62.2716 147.667 62.2716 147.667C62.2716 147.667 63.427 149.359 63.1591 155.409C62.8912 161.491 56.6456 164.877 56.6456 164.877C54.4521 163.318 52.5935 162.43 51.0363 161.961C50.3665 161.76 49.7637 161.642 49.2111 161.575C45.6111 161.223 44.2549 163.469 44.2549 163.469C44.2549 163.469 35.9497 150.113 45.5442 140.528C52.2753 133.842 61.3005 134.261 66.0726 135.132C67.6968 135.434 68.8186 135.769 69.2372 135.903C69.3544 135.936 69.4047 135.953 69.4047 135.953C69.4047 135.953 83.788 132.518 86.1824 134.663C88.5768 136.791 83.5703 146.896 81.8456 146.812Z" fill="#010101"/>
<path d="M35.4969 192.056C31.8299 191.453 27.3425 192.727 21.5155 201.156C17.0615 207.591 2.91268 248.713 0.0829033 259.354C-0.80454 272.509 7.38338 313.716 7.23269 316.045C6.98152 319.933 5.40757 323.552 5.29036 327.423C5.22338 329.719 6.37873 333.305 6.37873 333.305C6.57966 334.076 7.45036 335.199 8.9406 336.204C9.52664 336.59 10.4141 337.092 10.4141 337.092C10.4141 337.092 11.2848 337.83 11.8039 338.098C12.6578 338.533 13.428 338.433 13.428 338.433C13.428 338.433 13.7462 338.751 14.1648 339.087C15.8894 340.477 16.7099 341.567 17.5639 341.65C17.7648 341.667 17.8485 340.896 17.5304 340.226C16.8941 338.885 15.3871 337.076 15.2197 336.623C14.9518 335.936 14.7843 333.841 14.868 333.221C14.935 332.601 14.9015 329.082 15.0355 328.931C15.1694 328.781 15.3201 329.669 15.3871 330.842C15.4541 332.015 15.7722 333.205 16.1239 334.126C16.4922 335.048 17.3629 335.417 17.5471 335.249C17.7313 335.065 17.6476 334.059 17.6308 332.802C17.6308 331.546 18.0829 328.412 18.1834 327.004C18.2839 325.597 17.8653 323.82 17.1453 322.128C16.5592 320.754 15.0355 317.939 14.215 315.944C13.4615 313.364 16.8271 277.754 16.1071 264.063C16.1071 264.063 35.2458 229.342 38.9797 219.555C48.2225 195.341 39.1304 192.66 35.4634 192.04L35.4969 192.056Z" fill="#F5C5B4"/>
<path d="M36.5519 191.671C33.0022 190.549 24.6133 192.727 19.7742 201.776C15.5547 209.669 11.084 224.382 8.10352 231.99C18.9203 238.458 31.2775 240.301 31.2775 240.301C52.5092 196.866 41.1734 193.146 36.5519 191.671Z" fill="#13191D"/>
<path d="M94.3359 202.263C96.4121 206.502 97.8354 215.736 100.481 223.964C101.553 227.298 112.872 223.846 120.155 226.008C125.296 215.317 125.782 206.167 125.782 206.167C78.3116 190.499 90.1665 193.783 94.3359 202.263Z" fill="#13191D"/>
</g>
<defs>
<linearGradient id="paint0_linear_1607_4458" x1="484.087" y1="124.091" x2="485.77" y2="82.5833" gradientUnits="userSpaceOnUse">
<stop stop-color="#808080"/>
<stop offset="0.01" stop-color="#727272"/>
<stop offset="0.06" stop-color="#505050"/>
<stop offset="0.1" stop-color="#333333"/>
<stop offset="0.15" stop-color="#1D1D1D"/>
<stop offset="0.2" stop-color="#0D0D0D"/>
<stop offset="0.26" stop-color="#030303"/>
<stop offset="0.34" stop-color="#010101"/>
<stop offset="0.7" stop-color="#010101"/>
<stop offset="0.75" stop-color="#050505"/>
<stop offset="0.8" stop-color="#131313"/>
<stop offset="0.86" stop-color="#2B2B2B"/>
<stop offset="0.92" stop-color="#4B4B4B"/>
<stop offset="0.99" stop-color="#757575"/>
<stop offset="1" stop-color="#808080"/>
</linearGradient>
<linearGradient id="paint1_linear_1607_4458" x1="199.405" y1="144.313" x2="201.087" y2="102.822" gradientUnits="userSpaceOnUse">
<stop stop-color="#808080"/>
<stop offset="0.01" stop-color="#727272"/>
<stop offset="0.06" stop-color="#505050"/>
<stop offset="0.1" stop-color="#333333"/>
<stop offset="0.15" stop-color="#1D1D1D"/>
<stop offset="0.2" stop-color="#0D0D0D"/>
<stop offset="0.26" stop-color="#030303"/>
<stop offset="0.34" stop-color="#010101"/>
<stop offset="0.7" stop-color="#010101"/>
<stop offset="0.75" stop-color="#050505"/>
<stop offset="0.8" stop-color="#131313"/>
<stop offset="0.86" stop-color="#2B2B2B"/>
<stop offset="0.92" stop-color="#4B4B4B"/>
<stop offset="0.99" stop-color="#757575"/>
<stop offset="1" stop-color="#808080"/>
</linearGradient>
<linearGradient id="paint2_linear_1607_4458" x1="481.754" y1="181.74" x2="483.437" y2="140.233" gradientUnits="userSpaceOnUse">
<stop stop-color="#808080"/>
<stop offset="0.01" stop-color="#727272"/>
<stop offset="0.06" stop-color="#505050"/>
<stop offset="0.1" stop-color="#333333"/>
<stop offset="0.15" stop-color="#1D1D1D"/>
<stop offset="0.2" stop-color="#0D0D0D"/>
<stop offset="0.26" stop-color="#030303"/>
<stop offset="0.34" stop-color="#010101"/>
<stop offset="0.7" stop-color="#010101"/>
<stop offset="0.75" stop-color="#050505"/>
<stop offset="0.8" stop-color="#131313"/>
<stop offset="0.86" stop-color="#2B2B2B"/>
<stop offset="0.92" stop-color="#4B4B4B"/>
<stop offset="0.99" stop-color="#757575"/>
<stop offset="1" stop-color="#808080"/>
</linearGradient>
<linearGradient id="paint3_linear_1607_4458" x1="484.375" y1="287.119" x2="188.612" y2="275.146" gradientUnits="userSpaceOnUse">
<stop stop-color="#333333"/>
<stop offset="0.03" stop-color="#1C1C1C"/>
<stop offset="0.06" stop-color="#0D0D0D"/>
<stop offset="0.1" stop-color="#030303"/>
<stop offset="0.15" stop-color="#010101"/>
<stop offset="0.87" stop-color="#010101"/>
<stop offset="0.91" stop-color="#050505"/>
<stop offset="0.95" stop-color="#131313"/>
<stop offset="0.99" stop-color="#2B2B2B"/>
<stop offset="1" stop-color="#333333"/>
</linearGradient>
<linearGradient id="paint4_linear_1607_4458" x1="461.218" y1="532.476" x2="460.392" y2="552.836" gradientUnits="userSpaceOnUse">
<stop stop-color="#010101"/>
<stop offset="0.16" stop-color="#050505"/>
<stop offset="0.34" stop-color="#131313"/>
<stop offset="0.54" stop-color="#2B2B2B"/>
<stop offset="0.74" stop-color="#4B4B4B"/>
<stop offset="0.95" stop-color="#757575"/>
<stop offset="1" stop-color="#808080"/>
</linearGradient>
<linearGradient id="paint5_linear_1607_4458" x1="346.26" y1="22.9076" x2="347.085" y2="2.56404" gradientUnits="userSpaceOnUse">
<stop stop-color="#010101"/>
<stop offset="0.16" stop-color="#050505"/>
<stop offset="0.34" stop-color="#131313"/>
<stop offset="0.54" stop-color="#2B2B2B"/>
<stop offset="0.74" stop-color="#4B4B4B"/>
<stop offset="0.95" stop-color="#757575"/>
<stop offset="1" stop-color="#808080"/>
</linearGradient>
<linearGradient id="paint6_linear_1607_4458" x1="331.74" y1="21.5833" x2="331.098" y2="37.4229" gradientUnits="userSpaceOnUse">
<stop stop-color="#010101"/>
<stop offset="0.14" stop-color="#050505"/>
<stop offset="0.3" stop-color="#131313"/>
<stop offset="0.47" stop-color="#2B2B2B"/>
<stop offset="0.65" stop-color="#4B4B4B"/>
<stop offset="0.84" stop-color="#757575"/>
<stop offset="1" stop-color="#A1A1A1"/>
</linearGradient>
<linearGradient id="paint7_linear_1607_4458" x1="393.073" y1="24.0697" x2="392.431" y2="39.9092" gradientUnits="userSpaceOnUse">
<stop stop-color="#010101"/>
<stop offset="0.14" stop-color="#050505"/>
<stop offset="0.3" stop-color="#131313"/>
<stop offset="0.47" stop-color="#2B2B2B"/>
<stop offset="0.65" stop-color="#4B4B4B"/>
<stop offset="0.84" stop-color="#757575"/>
<stop offset="1" stop-color="#A1A1A1"/>
</linearGradient>
<linearGradient id="paint8_linear_1607_4458" x1="318.293" y1="537.944" x2="319.316" y2="512.711" gradientUnits="userSpaceOnUse">
<stop stop-color="#D7D8D8"/>
<stop offset="0.89" stop-color="white"/>
</linearGradient>
<linearGradient id="paint9_linear_1607_4458" x1="198.361" y1="367.314" x2="820.058" y2="-66.2259" gradientUnits="userSpaceOnUse">
<stop stop-color="#D7D8D8"/>
<stop offset="0.06" stop-color="#DCDCDC"/>
<stop offset="0.37" stop-color="#EFEFEF"/>
<stop offset="0.68" stop-color="#FBFBFB"/>
<stop offset="1" stop-color="white"/>
</linearGradient>
<clipPath id="clip0_1607_4458">
<rect width="475" height="609" fill="white"/>
</clipPath>
</defs>
</svg>
