<svg width="298" height="94" viewBox="0 0 298 94" fill="none" xmlns="http://www.w3.org/2000/svg">
<path d="M14.319 4.00639C14.9779 3.05435 15.3269 1.81539 16.4066 1.22852C22.1184 1.30677 27.8301 1.24482 33.5386 1.25786C37.2932 1.15027 41.0118 2.97936 43.3898 5.85179C45.4612 8.27754 46.0516 11.6488 45.6536 14.7397C45.2916 17.1328 44.4271 19.5586 42.6787 21.2931C41.1912 22.8125 39.234 23.7482 37.2344 24.4003C40.379 27.8987 43.4257 31.5048 46.8867 34.7032C51.522 38.6451 57.1619 41.1197 62.8182 43.2227C64.4818 43.8683 66.1552 44.4943 67.8808 44.9605C67.0588 46.6657 65.2451 47.6243 63.5848 48.3611C59.2431 50.0435 54.3305 49.437 50.0802 47.7677C44.2608 45.368 39.3776 41.1947 35.15 36.6106C32.8014 33.9859 30.6681 31.1559 28.9131 28.0976C28.9588 30.8135 28.7826 33.5523 29.0403 36.2519C30.1396 37.5626 32.6709 37.618 33.0591 39.6036C32.1099 40.7872 31.5553 42.238 30.518 43.3531C25.6935 43.4118 20.8527 43.4574 16.038 43.3335C15.1116 41.837 13.8492 40.3764 13.5883 38.5929C14.8963 37.7224 16.4197 37.2529 17.7082 36.353C17.7865 35.7922 17.8647 35.2347 17.8811 34.6706C17.8876 26.5163 17.8745 18.3587 17.8876 10.2044C17.8289 9.43499 17.9528 8.44382 17.2058 7.96128C16.0543 7.12987 14.681 6.68972 13.4023 6.09632C13.4545 5.30078 13.8819 4.63891 14.319 4.00639ZM16.6643 2.83264C16.2011 3.6184 15.7966 4.44655 15.5292 5.32034C16.8959 5.89743 18.5237 6.45497 19.1989 7.89607C19.5055 8.84485 19.3424 9.87514 19.375 10.8565C19.3685 19.2391 19.3718 27.6183 19.3685 36.0009C19.362 36.5486 19.3424 37.1909 18.8401 37.5398C17.7799 38.3027 16.5045 38.6744 15.3269 39.2124C15.7347 40.1579 16.2468 41.048 16.8274 41.899C21.1169 41.8794 25.4097 41.925 29.696 41.8794C30.4332 41.2599 30.7398 40.2394 31.3139 39.4667C30.3321 38.3353 28.5543 38.4592 27.6311 37.2692C27.3865 36.6497 27.4485 35.965 27.4224 35.3129C27.468 32.1014 27.3669 28.8899 27.3832 25.6784C27.99 25.6816 28.5934 25.6849 29.2002 25.6849C33.2809 33.0763 39.084 39.6395 46.2734 44.1324C49.8616 46.4244 54.0435 47.9144 58.3363 47.8688C60.7958 47.8818 63.2325 47.1645 65.268 45.7821C58.0949 43.0564 50.6445 40.3046 44.9425 34.9706C41.6577 31.733 38.611 28.2672 35.6328 24.7492C35.3099 24.3677 35.0456 23.9406 34.7912 23.5135C37.5345 22.8777 40.3757 21.8409 42.2155 19.601C44.2706 16.7774 44.7925 12.9823 43.8106 9.6567C42.8842 6.68319 40.2518 4.48567 37.4041 3.41952C35.3392 2.56855 33.0754 2.80004 30.8997 2.77721C26.1535 2.8196 21.4073 2.71201 16.6643 2.83264Z" fill="#D9A606"/>
<path d="M27.4483 7.34858C29.5686 7.23772 31.8585 7.28989 33.6918 8.50603C34.9835 9.36678 35.5511 10.9872 35.4369 12.4935C35.2901 15.1377 34.0832 17.7363 32.1325 19.5328C30.8604 20.7619 28.9032 20.925 27.2559 20.5141C27.432 16.1289 27.3309 11.7371 27.4483 7.34858ZM28.9227 8.77664C28.8869 12.1055 28.8412 15.4377 28.851 18.7666C28.9195 18.8742 29.0532 19.0861 29.1217 19.1904C30.9321 19.1709 32.1586 17.5635 32.8991 16.0865C33.7016 14.4432 34.3637 12.4446 33.6689 10.6546C32.6936 9.05704 30.6092 8.88749 28.9227 8.77664ZM56.5518 7.8572C59.1549 7.27685 61.9341 7.57681 64.3284 8.76034C68.4483 10.7557 71.4395 14.8638 72.1669 19.373C72.7769 23.1518 72.1539 27.198 70.0662 30.4486C68.4613 33.1646 65.8452 35.261 62.8442 36.2359C58.9657 37.4064 54.5554 36.5652 51.3522 34.097C49.4602 32.7864 48.1261 30.8105 47.2127 28.7304C45.3599 23.905 45.6535 18.1797 48.4457 13.7683C50.3116 10.9122 53.2083 8.66253 56.5518 7.8572ZM56.7703 9.34395C52.9701 10.3319 49.8647 13.3706 48.4816 17.0059C47.5161 19.5556 47.3693 22.3628 47.7412 25.0429C48.25 28.3163 49.956 31.5474 52.8396 33.3113C55.9973 35.4729 60.3129 35.9359 63.7901 34.2731C65.6951 33.3602 67.2609 31.8408 68.4841 30.1389C70.9306 26.6144 71.4819 21.965 70.2587 17.8895C69.2735 14.515 66.7912 11.6393 63.6531 10.071C61.5231 9.07986 59.0635 8.79946 56.7703 9.34395ZM72.3235 8.47668C73.1879 8.29736 74.085 8.40169 74.9657 8.37887C78.2212 8.41473 81.4832 8.30714 84.7386 8.44082C85.2834 9.76129 86.1152 11.0068 86.2261 12.4674C85.7694 12.8033 85.3193 13.1456 84.8626 13.4814C85.453 14.6421 86.2848 15.6463 87.022 16.7092C87.8734 15.9007 88.5193 14.9062 89.1325 13.9118C89.4326 13.2402 88.5617 12.8815 88.1996 12.4805C88.4508 11.1176 88.8716 9.79715 89.2663 8.47342C92.1075 8.28432 94.9585 8.43756 97.8029 8.39843C98.4357 8.35931 99.062 8.47342 99.6329 8.75382C100.041 10.1525 101.013 11.398 101.006 12.9043C99.5122 13.5238 97.7703 13.9574 96.8341 15.4018C95.0531 17.8928 93.3666 20.4489 91.5986 22.9497C90.5091 24.3484 91.0865 26.1971 90.9951 27.8175C91.093 28.5804 90.8288 29.6074 91.5823 30.1063C92.3913 30.5888 93.272 30.9377 94.1234 31.3387C94.2506 32.4929 93.3666 33.3537 92.8936 34.3188C92.5576 34.7915 92.3489 35.6001 91.6345 35.5708C88.5813 35.6686 85.5248 35.5838 82.4683 35.6425C81.78 35.6001 80.834 35.7892 80.4361 35.0556C79.8098 33.9927 79.0139 32.9298 78.929 31.6583C79.7445 31.0746 80.5535 30.4389 81.5354 30.1617C82.2432 29.0727 81.979 27.7131 81.9953 26.484C82.0442 25.47 81.4277 24.6321 80.9123 23.8202C79.2683 21.3586 77.4644 19.0046 75.7714 16.5756C75.1843 15.7474 74.5743 14.903 73.7033 14.352C72.852 13.739 71.7885 13.5108 70.9372 12.9043C70.7349 12.0925 71.1949 11.3067 71.3775 10.5307C71.6548 9.83628 71.6972 8.97227 72.3235 8.47668ZM73.1031 9.95365C72.9041 10.6579 72.7084 11.3654 72.516 12.0729C74.1731 12.5913 75.6768 13.6086 76.5674 15.1279C78.2179 17.4787 79.9305 19.7871 81.5973 22.128C82.5531 23.4159 83.61 24.8342 83.5219 26.5231C83.4599 27.8827 83.6002 29.2879 83.2838 30.6117C82.5792 31.4105 81.4571 31.6876 80.5731 32.2549C80.9058 32.8744 81.2418 33.4939 81.568 34.1166C84.8104 34.1296 88.0528 34.1427 91.292 34.1003C91.6443 33.4808 92.0129 32.8679 92.3815 32.2549C91.429 31.6941 90.3688 31.2703 89.586 30.4617C89.5207 28.4859 89.3968 26.5133 89.4457 24.5375C89.4816 23.204 90.3786 22.1411 91.0767 21.0782C92.6849 18.7861 94.2571 16.4614 95.8686 14.1694C96.6612 12.9826 98.028 12.4674 99.3002 11.9751C99.0359 11.3035 98.775 10.6318 98.5206 9.95365C95.7805 9.81671 93.0339 9.84606 90.2971 9.94713C90.1731 10.6253 90.0655 11.3067 89.9709 11.9882C90.4667 12.2359 90.9495 12.5066 91.4159 12.8098C90.3493 15.242 88.6367 17.3418 87.0742 19.4741C85.8053 17.1527 83.61 15.3236 82.8532 12.7478C83.4338 12.4674 84.0145 12.1936 84.5984 11.9197C84.357 11.2611 84.1189 10.6025 83.8873 9.94061C80.2932 9.83573 76.6969 9.84008 73.1031 9.95365ZM107.543 8.36909C110.078 8.40169 112.616 8.28432 115.147 8.43756C117.841 15.4507 120.252 22.578 122.972 29.5846C123.987 29.9922 125.116 30.2791 125.931 31.0518C126.084 32.5483 125.044 33.8884 124.678 35.3099C124.228 35.5186 123.755 35.6849 123.253 35.6392C120.311 35.6229 117.368 35.6327 114.426 35.6392C113.937 35.6197 113.255 35.6783 113.036 35.1208C112.645 34.0058 112.289 32.8711 112.028 31.7169C111.908 30.9149 112.788 30.5758 113.271 30.1226C113.196 29.6727 113.076 29.2325 112.847 28.8347C110.848 28.8543 108.848 28.7695 106.852 28.8706C106.718 29.2977 106.581 29.7216 106.447 30.1487C106.953 30.4421 107.478 30.7095 107.935 31.0812C108.202 31.5507 107.954 32.0593 107.801 32.5157C107.423 33.5493 107.018 34.5763 106.558 35.5773C103.453 35.6262 100.321 35.737 97.2255 35.5284C96.4883 34.1981 96.0675 32.7179 95.3466 31.3779C95.4575 31.2181 95.6859 30.8921 95.7968 30.7323C96.9352 30.3997 98.0345 29.9531 99.1175 29.477C100.908 24.5864 102.944 19.7871 104.816 14.9258C105.72 12.7413 106.454 10.4753 107.543 8.36909ZM108.368 9.91779C105.977 16.2006 103.423 22.4215 100.996 28.6913C100.673 29.4999 100.377 30.4062 99.6101 30.9051C98.8598 31.3224 98.0182 31.5376 97.219 31.8408C97.5419 32.5907 97.8486 33.3504 98.1258 34.1199C100.595 34.1883 103.068 34.0677 105.537 34.1786C105.844 33.4352 106.154 32.6951 106.46 31.9517C105.824 31.4594 104.558 31.179 104.855 30.1454C105.067 29.1673 105.547 28.2772 105.902 27.348C108.587 27.3252 111.268 27.3773 113.953 27.3154C114.436 28.5217 115.095 29.7216 115.052 31.0616C114.547 31.2735 114.048 31.4887 113.545 31.7039C113.79 32.5288 114.038 33.3537 114.302 34.1753C117.342 34.1557 120.382 34.0905 123.423 34.1786C123.821 33.3863 124.137 32.5581 124.401 31.7104C123.468 31.3387 122.405 31.1007 121.69 30.3508C120.924 28.8282 120.497 27.1556 119.857 25.5776C118.011 20.3544 115.972 15.1964 114.214 9.94387C112.267 9.81345 110.316 9.81671 108.368 9.91779ZM129.105 8.46038C132.866 8.26475 136.643 8.39191 140.411 8.39843C141.109 9.64391 142.404 10.834 142.313 12.3403C141.501 13.1228 140.437 13.5564 139.445 14.0553C139.295 19.1056 139.322 24.1691 139.429 29.2195C142.665 29.6792 146.42 29.0988 148.703 26.559C149.13 26.2297 149.636 25.3559 150.236 25.8808C151.309 26.9502 152.673 27.7718 153.459 29.0956C152.105 31.58 150.471 33.8982 149.088 36.363C147.682 37.0999 145.819 36.9988 144.769 35.7273C139.886 35.4729 134.967 35.7142 130.071 35.6131C129.568 35.6327 129.076 35.411 128.844 34.9545C128.211 33.8982 127.357 32.8972 127.177 31.6387C128.143 30.9442 129.144 30.2987 130.24 29.8259C130.514 27.4197 130.328 24.994 130.384 22.578C130.325 19.7414 130.511 16.8951 130.266 14.065C129.196 13.4456 128.015 12.9337 127.233 11.9327C127.82 10.7557 128.56 9.66021 129.105 8.46038ZM129.079 11.7632C130.11 12.3468 131.832 12.6239 131.855 14.1009C131.917 19.2067 131.858 24.3158 131.884 29.4216C132.106 31.1659 130.054 31.4659 128.906 32.1082C129.268 32.7961 129.659 33.4645 130.074 34.1231C134.761 34.1199 139.449 34.1166 144.136 34.1231C145.588 33.9797 146.449 35.6979 147.966 35.248C149.212 33.2265 150.53 31.2474 151.675 29.164C151.104 28.6326 150.523 28.1109 149.933 27.6023C147.685 29.9694 144.338 30.8529 141.161 30.879C140.134 30.8627 138.946 31.0518 138.105 30.328C137.867 29.6238 137.873 28.8673 137.867 28.1337C137.916 23.3507 137.844 18.5644 137.899 13.7846C138.105 12.4935 139.674 12.5 140.509 11.7958C140.447 11.1144 140.016 10.547 139.729 9.94387C136.503 9.79063 133.271 9.91453 130.044 9.86562C129.685 10.4781 129.362 11.1117 129.079 11.7632Z" fill="#D9A606"/>
<path d="M58.4828 12.7057C59.6343 12.2623 60.8118 13.0056 61.4186 13.9642C62.8375 16.1356 63.4801 18.7374 63.653 21.3034C63.7868 24.1432 63.4084 27.0939 62.1036 29.6468C61.4479 30.7553 60.3976 32.0008 58.9688 31.828C57.2008 31.6846 56.2842 29.8979 55.6807 28.4502C54.2389 24.5801 54.1541 20.159 55.5861 16.2726C56.2092 14.8869 56.9855 13.3056 58.4828 12.7057ZM56.3494 18.9722C55.746 22.6173 56.0069 26.6994 58.1533 29.8229C58.4436 30.025 58.7307 30.2304 59.0177 30.4391C60.4987 30.1228 61.0402 28.5741 61.4577 27.3058C62.6549 23.3738 62.3939 18.9396 60.5085 15.2651C60.2638 14.6978 59.7452 14.3294 59.3113 13.9185C57.4357 14.8478 56.7931 17.0844 56.3494 18.9722ZM107.243 24.0584C108.094 21.5936 109.2 19.2265 110.13 16.7942C111.056 19.1972 111.898 21.6327 112.798 24.0454C110.945 24.0324 109.096 24.0584 107.243 24.0584ZM109.406 22.5652C109.709 22.5652 110.316 22.5717 110.619 22.5717C110.453 22.0305 110.286 21.4892 110.117 20.9513C109.872 21.486 109.641 22.0272 109.406 22.5652ZM92.8707 40.8268C93.3404 40.4062 93.6307 39.803 94.1689 39.4607C95.278 39.3498 96.3969 39.4313 97.5125 39.4052C99.1076 41.4886 100.275 43.859 101.717 46.0467C102.265 47.1585 103.257 48.1203 103.41 49.3821C102.33 50.6993 101 51.7948 99.7567 52.9523C99.2283 53.4022 98.7586 52.6164 98.3899 52.3165C95.5716 49.2256 91.1418 47.7649 87.0317 48.4138C86.2553 48.5311 86.3924 49.4245 86.3206 50.0016C86.2586 52.6621 86.3173 55.3258 86.2847 57.9864C87.2992 58.0548 88.3137 58.0744 89.3314 58.0711C89.6935 57.6864 90.0556 57.3017 90.4144 56.9104C91.7844 56.9495 93.8525 56.1475 94.5963 57.7549C96.1914 60.3828 97.9007 62.9389 99.5219 65.5473C100.191 66.4276 99.1696 67.1742 98.5955 67.7317C97.5908 68.5664 96.8764 69.8282 95.5846 70.2651C93.9243 68.7262 92.5086 66.7927 90.3426 65.9255C89.1716 65.3908 87.857 65.5766 86.6142 65.5636C86.4674 66.1178 86.2847 66.6754 86.288 67.2557C86.2978 71.1682 86.3043 75.0807 86.288 78.9932C86.2847 79.6649 86.3141 80.3952 86.7642 80.9397C90.7178 81.2657 95.0105 81.4679 98.5857 79.4529C99.9949 78.7324 100.967 77.4608 102.053 76.3588C102.715 76.0491 103.133 76.7468 103.573 77.1087C104.487 78.0477 105.517 78.8693 106.392 79.8475C106.806 80.4408 106.307 81.1386 106.02 81.6765C104.307 84.4316 102.745 87.2845 100.947 89.9841C99.8024 90.1308 98.6183 90.2677 97.4831 89.9906C96.5698 89.3907 95.7314 88.481 94.5441 88.5234C87.9124 88.4778 81.2775 88.4843 74.6459 88.5267C74.186 88.5039 73.6119 88.5788 73.3281 88.1256C72.5061 86.9617 71.9091 85.6543 71.1589 84.4446C71.9646 83.0557 73.6739 82.772 74.8612 81.8461C75.4614 81.4124 75.3994 80.643 75.3962 79.9876C75.3342 69.4239 75.4582 58.8536 75.3375 48.2931C74.535 46.6792 72.1766 46.8977 71.1784 45.4598C71.8113 43.8981 72.5778 42.3885 73.5793 41.0257C79.4704 40.9181 85.3648 41.0028 91.256 40.9865C91.7877 40.9474 92.3683 41.0583 92.8707 40.8268ZM94.7952 40.9605C94.1885 41.9288 93.0762 42.4798 91.941 42.4635C86.0498 42.5189 80.1522 42.3918 74.2578 42.5255C73.7936 43.3592 73.3882 44.2242 73.0443 45.1142C74.2317 45.5381 75.4516 46.0402 76.3291 46.9792C76.9228 47.6182 76.8934 48.5377 76.9097 49.3495C76.8804 59.998 76.9195 70.6465 76.8543 81.2951C76.9456 83.3785 74.2936 83.5252 73.1519 84.6305C73.2074 85.4619 73.9544 86.1857 74.2708 86.9747C81.2351 87.0693 88.206 86.9747 95.1704 87.0236C96.4132 86.9486 97.2352 87.9561 98.1649 88.5886C98.9967 88.6897 100.161 88.9277 100.53 87.9235C101.936 85.4814 103.492 83.1176 104.813 80.63C104.359 79.6551 103.299 79.0812 102.611 78.2596C101.437 79.0486 100.517 80.18 99.2283 80.8125C95.4346 82.9351 90.9135 82.7655 86.7153 82.5014C85.492 82.4232 84.719 81.132 84.8168 79.9876C84.8038 75.3089 84.7809 70.6302 84.8201 65.9515C84.8462 65.2636 84.9049 64.1844 85.815 64.1518C87.247 63.9888 88.7181 63.9594 90.1404 64.2268C92.4075 64.9539 94.1265 66.7112 95.8162 68.3023C96.6024 67.572 97.3755 66.8253 98.0964 66.0298C96.4458 63.4899 94.7985 60.9468 93.2491 58.345C92.5771 58.3189 91.9051 58.2993 91.2364 58.2863C90.7447 58.7247 90.2422 59.1508 89.7294 59.5644C88.604 59.5416 87.4786 59.6068 86.3565 59.5709C85.5573 59.6035 84.807 58.9188 84.856 58.1005C84.745 55.5019 84.8266 52.9001 84.8038 50.2983C84.8331 49.3397 84.7581 48.2214 85.5051 47.4878C86.2945 46.6271 87.5928 46.8716 88.6399 46.7868C92.6619 46.6792 96.7133 48.2736 99.4305 51.2666C100.21 50.5135 100.98 49.7538 101.737 48.9778C100.106 46.3141 98.4682 43.6601 96.9057 40.9572C96.2012 40.9441 95.4966 40.9409 94.7952 40.9605ZM154.062 49.8483C155.067 49.7636 156.078 49.7571 157.089 49.7505C158.596 51.7655 159.751 54.0119 161.16 56.092C161.444 56.6268 162.061 57.318 161.532 57.8983C160.459 59.0134 159.317 60.0763 158.12 61.0577C157.086 60.2686 156.395 59.0623 155.149 58.5569C152.94 57.2462 150.298 57.3962 147.829 57.3636C147.76 57.9961 147.705 58.6287 147.646 59.2612C148.194 59.3883 148.752 59.3622 149.274 59.1308C149.894 57.8951 151.44 58.27 152.562 58.2863C153.25 58.27 153.599 58.9514 153.942 59.4405C155.145 61.3967 156.431 63.3073 157.618 65.2734C157.624 65.456 157.641 65.8211 157.647 66.0037C156.907 67.021 155.905 67.8067 155.057 68.7262C154.777 69.0913 154.314 69.1468 153.906 69.2641C152.343 67.5459 150.562 65.3549 147.972 65.5864C147.437 67.6991 147.9 70.0042 147.741 72.192C148.709 72.7626 149.708 73.281 150.738 73.7276C150.82 73.9004 150.98 74.2493 151.061 74.4221C150.428 75.573 149.779 76.7142 149.173 77.8814C148.599 78.0705 148.002 78.1977 147.398 78.1846C144.56 78.1846 141.719 78.1683 138.881 78.1912C138.398 78.1488 137.801 78.2596 137.456 77.8358C136.627 76.7631 136.095 75.5013 135.4 74.3471C136.249 73.3103 137.641 73.0853 138.695 72.3289C138.555 67.096 138.76 61.8565 138.62 56.6235C137.524 56.1996 136.438 55.7432 135.371 55.2411C135.73 53.888 136.523 52.698 137.195 51.4818C137.423 50.9504 138.082 51.0384 138.558 50.9732C143.135 50.9536 147.715 50.9993 152.294 50.9602C153.107 51.0645 153.58 50.3668 154.062 49.8483ZM152.617 52.4534C147.891 52.4404 143.161 52.4697 138.431 52.4371C138.006 53.0859 137.624 53.7623 137.289 54.4618C138.398 54.9476 140.166 55.29 140.15 56.8191C140.166 61.7097 140.16 66.6036 140.156 71.4943C140.091 72.2083 140.212 73.0756 139.674 73.6396C138.959 74.1222 138.114 74.3667 137.335 74.7253C137.677 75.3546 138.013 75.9871 138.346 76.6196C141.618 76.7761 144.899 76.7142 148.171 76.6392C148.5 75.9777 148.838 75.3202 149.182 74.6666C148.344 74.2558 147.502 73.8483 146.654 73.4668C146.406 72.8376 146.221 72.1822 146.25 71.504C146.279 69.2185 146.204 66.9297 146.315 64.6441C146.446 64.5202 146.7 64.2757 146.83 64.1518C148.21 64.0638 149.672 64.0083 150.921 64.7126C152.213 65.2734 153.152 66.3363 154.222 67.2036C154.953 66.9558 155.449 66.095 156.072 65.5962C154.796 63.6138 153.553 61.6152 152.268 59.6394C150.634 59.3851 149.642 61.0837 148.037 60.8914C147.411 60.8816 146.694 60.7773 146.279 60.2589C146.1 59.0525 146.217 57.8331 146.204 56.6202C147.228 55.6584 148.703 55.9225 149.985 55.8834C152.96 55.8345 156.085 56.7996 158.159 59.0101C158.809 58.4428 159.503 57.9081 160.012 57.2006C158.955 55.3682 157.804 53.5848 156.705 51.7753C156.388 51.0645 155.498 51.3384 154.888 51.2601C154.395 52.0361 153.55 52.5284 152.617 52.4534ZM196.419 49.8223C197.417 49.7799 198.419 49.7701 199.424 49.7734C201.097 51.9741 202.376 54.4488 203.883 56.767C204.444 57.4321 203.726 58.1233 203.227 58.5406C202.222 59.3655 201.446 60.4871 200.229 61.0316C199.176 59.5546 197.708 58.3906 195.95 57.8788C194.381 57.3995 192.723 57.3995 191.102 57.4125C191.109 58.0548 191.037 58.7134 191.194 59.3492C192.104 59.6035 192.857 59.0199 193.376 58.3417C194.58 58.3385 196.246 57.7907 197.042 59.0101C198.321 60.999 199.564 63.0172 200.856 64.9995C201.195 65.4266 201.156 66.082 200.735 66.4406C199.717 67.4644 198.709 68.5045 197.587 69.4141C195.764 67.7709 193.983 65.1658 191.167 65.694C191.092 67.6926 191.138 69.6945 191.135 71.6931C194.237 71.654 197.721 72.3844 200.412 70.402C201.508 69.913 202.072 68.4229 203.338 68.3773C204.352 69.0979 205.276 69.9521 206.166 70.8161C206.659 71.2693 206.27 71.9605 206.006 72.4235C204.763 74.4352 203.628 76.5088 202.353 78.4976C201.671 79.717 200.099 79.2182 198.97 79.2736C198.295 78.7193 197.545 78.1162 196.608 78.214C191.729 78.1749 186.845 78.2303 181.965 78.1749C181.561 78.1651 181.183 78.0151 180.801 77.9075C180.148 76.7305 179.496 75.5502 178.808 74.3928C179.519 73.2321 181.075 73.1799 182.073 72.3322C182.018 67.109 182.073 61.8825 182.047 56.6561C180.951 56.2127 179.855 55.7693 178.801 55.2378C179.079 53.7413 180.145 52.5773 180.71 51.1949C181.333 51.0677 181.959 50.9569 182.598 50.9471C186.633 50.9699 190.675 51.0156 194.71 50.9373C195.519 51.0514 195.959 50.3407 196.419 49.8223ZM195.343 52.4208C190.831 52.4795 186.32 52.4632 181.809 52.4273C181.411 53.099 181.029 53.7771 180.667 54.4651C181.505 54.8205 182.422 55.065 183.143 55.6454C183.567 56.1507 183.531 56.868 183.567 57.4908C183.567 61.9478 183.551 66.4015 183.574 70.8552C183.587 71.7453 183.479 72.6321 183.326 73.5092C182.487 73.9233 181.649 74.3373 180.807 74.7384C181.127 75.3709 181.44 76.0067 181.75 76.6457C186.94 76.8087 192.133 76.6522 197.326 76.737C198.693 76.6555 199.534 78.1096 200.95 77.8977C202.271 75.7915 203.553 73.6559 204.744 71.4747C204.157 71.1095 203.68 70.2651 202.933 70.314C201.808 71.2106 200.679 72.1431 199.306 72.6419C197.111 73.5907 194.684 73.1734 192.371 73.2679C191.536 73.3103 190.704 73.2418 189.899 73.0332C189.494 71.4714 189.673 69.851 189.641 68.2599C189.657 67.0634 189.559 65.857 189.745 64.6702C190.133 63.966 191.092 64.1681 191.764 64.1029C194.139 64.0312 196.06 65.7233 197.62 67.3177C198.262 66.783 198.879 66.2222 199.479 65.6418C198.226 63.6497 196.944 61.6771 195.695 59.6818C194.932 59.6883 194.139 59.7013 193.552 60.2523C192.446 61.1685 190.907 60.9794 189.66 60.4871C189.579 59.1764 189.576 57.8657 189.589 56.555C190.013 56.3301 190.417 56.0268 190.903 55.9453C194.348 55.5802 198.093 56.4572 200.555 59.0134C201.195 58.4363 201.818 57.8396 202.418 57.2201C201.221 55.202 199.919 53.2457 198.693 51.2438L197.287 51.3025C196.729 51.8046 196.178 52.4991 195.343 52.4208ZM233.994 51.1003C234.301 50.595 234.966 50.7939 235.456 50.7287C238.075 50.7319 240.691 50.7058 243.31 50.7384C247.584 50.8982 251.883 52.323 255.187 55.0781C257.67 57.3049 259.474 60.3502 259.93 63.679C260.501 67.6894 259.34 72.0094 256.593 75.0253C254.072 77.5652 250.32 78.3281 246.859 78.2303C242.616 78.1455 238.362 78.3705 234.125 78.1064C233.567 76.9815 232.98 75.873 232.448 74.7384C232.513 74.5656 232.647 74.2232 232.712 74.0504C233.515 73.4962 234.399 73.0723 235.201 72.5213C235.573 72.0583 235.4 71.3932 235.459 70.8454C235.364 66.0624 235.459 61.2761 235.309 56.4931C234.464 55.9779 233.593 55.5052 232.722 55.0389C232.634 54.84 232.454 54.439 232.366 54.2401C232.914 53.1968 233.306 52.0654 233.994 51.1003ZM234.099 54.1717C235.152 54.6803 236.888 55.0063 236.835 56.4963C236.884 61.8271 236.927 67.1579 236.927 72.4887C236.923 73.9428 235.159 74.2069 234.164 74.8199C234.487 75.4328 234.679 76.1599 235.185 76.649C239.184 76.8446 243.199 76.6848 247.202 76.7272C249.727 76.7827 252.349 76.3132 254.473 74.8851C256.544 73.4114 257.696 70.9889 258.28 68.5762C259.118 65.1364 258.312 61.4 256.267 58.5308C253.481 54.5629 248.614 52.623 243.914 52.2643C240.958 52.1404 237.997 52.3165 235.044 52.1632C234.678 52.8075 234.362 53.4789 234.099 54.1717Z" fill="#D9A606"/>
<path d="M106.461 51.2038C107.302 50.7734 108.287 51.0049 109.194 50.9658C111.624 51.0538 114.074 50.7995 116.488 51.1419C119 54.1936 121.381 57.3497 123.945 60.3558C124.023 59.1266 124.137 57.8551 123.687 56.6748C122.715 56.0586 121.378 55.9934 120.575 55.188C120.856 53.7111 121.808 52.4688 122.441 51.1288C123.997 50.8875 125.573 50.9821 127.138 50.9756C128.698 50.9919 130.267 50.8778 131.813 51.1158C132.397 52.2634 133.121 53.3296 133.705 54.474C133.936 54.8033 133.855 55.1946 133.79 55.5597C132.772 55.8532 131.555 56.0488 130.922 56.9943C130.453 57.5942 130.547 58.3898 130.515 59.1038C130.531 64.9758 130.498 70.8478 130.534 76.7198C130.58 77.235 130.42 77.724 130.241 78.1968C128.636 78.1283 127.027 78.2685 125.429 78.1283C124.77 78.0012 124.428 77.3589 124.039 76.8861C121.25 72.9475 118.344 69.0937 115.535 65.1714C115.275 64.8063 114.948 64.4998 114.616 64.2031C114.531 66.9516 114.632 69.7034 114.57 72.4519C115.614 73.003 116.667 73.5377 117.698 74.118C117.548 75.4744 116.53 76.4786 116.038 77.7077C115.875 77.8251 115.552 78.0599 115.389 78.174C112.897 78.187 110.404 78.1609 107.915 78.1903C107.319 78.1805 106.617 78.2588 106.203 77.7273C105.479 76.6807 105.048 75.4613 104.438 74.3462C105.293 73.4007 106.591 73.1301 107.687 72.5661C107.687 67.3037 107.765 62.0414 107.648 56.7856C106.529 56.2607 105.427 55.6836 104.422 54.9631C104.963 53.6459 105.586 52.3286 106.461 51.2038ZM106.324 54.3729C107.11 54.8163 107.942 55.1978 108.646 55.7651C109.325 56.3553 109.139 57.3432 109.194 58.142C109.158 62.925 109.246 67.7146 109.152 72.4943C109.201 74.0039 107.374 74.2354 106.34 74.7929C106.64 75.4091 106.901 76.0612 107.315 76.6155C109.794 76.7948 112.3 76.7035 114.785 76.6546C115.239 76.1134 115.542 75.4678 115.891 74.8581C115.053 74.4017 114.221 73.9387 113.386 73.4888C113.131 72.7356 113.02 71.9498 113.069 71.1608C113.177 67.4439 112.975 63.7238 113.154 60.0102C113.666 60.2384 114.09 60.6068 114.394 61.0764C118.181 66.293 121.994 71.4901 125.775 76.7101C126.851 76.7133 127.931 76.7003 129.007 76.6546C129.086 70.2642 129.03 63.8705 129.04 57.4769C128.929 55.7945 130.73 55.0739 131.963 54.4218C131.591 53.8024 131.242 53.1698 130.919 52.5275C128.401 52.4493 125.879 52.508 123.361 52.4949C123.071 53.134 122.754 53.76 122.418 54.3762C123.478 54.9794 124.943 55.3413 125.445 56.5607C125.566 59.2342 125.514 61.9175 125.455 64.5911C122.011 60.6753 118.941 56.4368 115.575 52.4525C112.821 52.521 110.065 52.5145 107.309 52.4558C106.983 53.0948 106.656 53.7372 106.324 54.3729ZM163.673 51.1842C165.284 50.7702 166.954 51.0375 168.598 50.9723C170.807 51.0408 173.031 50.8158 175.23 51.106C175.801 52.283 176.456 53.4274 177.295 54.4381C177.194 54.7316 177.259 55.1783 176.884 55.2891C175.928 55.7814 174.93 56.1792 173.951 56.6161C173.912 61.3665 173.912 66.117 173.922 70.8674C173.935 71.3043 173.925 71.7542 174.033 72.1813C174.962 72.9573 176.107 73.4268 177.024 74.2321C176.871 75.7026 175.726 76.7818 175.171 78.1055C173.191 78.2881 171.205 78.1675 169.221 78.2033C167.362 78.1642 165.493 78.3011 163.64 78.0859C163.05 76.922 162.459 75.758 161.813 74.6266C161.826 74.4506 161.849 74.0952 161.862 73.9191C162.854 73.4203 163.855 72.9377 164.824 72.3998C164.912 67.1342 164.844 61.8686 164.857 56.6063C163.888 56.1596 162.916 55.7162 161.947 55.2826C161.882 55.1228 161.751 54.8066 161.686 54.6501C162.368 53.5057 163.04 52.3547 163.673 51.1842ZM163.66 54.4218C164.716 54.9109 166.351 55.3478 166.341 56.7791C166.374 61.8002 166.341 66.8179 166.37 71.839C166.344 72.3411 166.367 72.8791 166.116 73.3355C165.402 73.9909 164.459 74.3104 163.614 74.7473C163.947 75.3961 164.286 76.0449 164.628 76.6905C167.851 76.7068 171.077 76.7818 174.297 76.6383C174.62 76.0091 174.956 75.3896 175.298 74.7701C174.506 74.3071 173.658 73.9257 172.93 73.3583C172.363 72.9214 172.454 72.1259 172.421 71.4934C172.434 67.0397 172.441 62.5892 172.421 58.1387C172.402 57.3138 172.522 56.4987 172.679 55.6934C173.537 55.1652 174.444 54.7283 175.37 54.3338C174.975 53.7013 174.577 53.0753 174.18 52.4493C170.999 52.4525 167.822 52.4525 164.645 52.4591C164.282 53.0955 163.953 53.7507 163.66 54.4218ZM208.326 51.119C208.985 50.9919 209.657 50.9202 210.332 50.9397C213.46 50.9919 216.592 50.8973 219.72 50.9821C220.435 52.0287 221.045 53.147 221.671 54.249C221.645 54.4218 221.599 54.7674 221.573 54.9402C220.682 55.6282 219.701 56.1759 218.702 56.6846C218.605 61.6763 218.673 66.6712 218.667 71.6629C221.573 72.4226 224.926 71.689 227.298 69.8306C227.989 69.3806 228.417 68.2427 229.366 68.3862C230.517 69.4784 232.021 70.3196 232.739 71.7836C231.251 74.2028 229.754 76.6122 228.293 79.0478C227.268 79.4488 226.159 79.3445 225.086 79.2988C224.747 78.9434 224.404 78.5881 224.068 78.2327C219.156 78.1512 214.24 78.249 209.324 78.187C208.218 78.1805 207.807 76.9611 207.259 76.2112C206.786 75.5265 206.043 74.3658 207.06 73.7855C207.837 72.9345 209.641 72.9117 209.644 71.5195C209.693 67.2711 209.631 63.0228 209.667 58.7778C209.65 58.0702 209.699 57.3399 209.484 56.6585C208.6 55.9999 207.504 55.6543 206.724 54.862C206.607 53.447 207.879 52.3971 208.326 51.119ZM209.334 52.5047C208.887 53.0459 208.652 53.7143 208.385 54.3534C209.341 54.9402 210.965 55.1457 211.131 56.4726C211.2 61.9567 211.082 67.4407 211.18 72.9247C210.378 73.8246 209.213 74.2028 208.166 74.7212C208.554 75.3896 208.949 76.0514 209.347 76.7166C214.035 76.7198 218.722 76.7068 223.409 76.7166C224.424 76.6253 225.233 77.2643 225.964 77.8708C226.407 77.8447 226.851 77.8186 227.298 77.7958C228.459 75.7711 229.761 73.8311 230.945 71.8194C230.364 71.2619 229.783 70.7109 229.203 70.1599C226.388 73.0942 222.039 73.805 218.158 73.3583C217.029 73.0649 217.159 71.7477 217.173 70.8413C217.267 65.7942 217.022 60.7373 217.296 55.6999C218.119 55.2011 218.996 54.8033 219.896 54.4642C219.665 53.7013 219.254 53.0199 218.761 52.4004C215.62 52.5275 212.465 52.3026 209.334 52.5047ZM242.838 56.0097C245.115 55.5728 247.688 56.2575 249.241 58.0344C251.567 60.6199 252.294 64.3792 251.648 67.7341C251.306 69.6578 250.151 71.4901 248.367 72.3672C246.661 73.2312 244.687 73.104 242.838 72.9573C242.926 67.3103 242.913 61.6567 242.838 56.0097ZM244.4 57.5421C244.358 62.1653 244.374 66.7919 244.391 71.4184C246.393 71.8618 248.749 71.0141 249.626 69.0676C250.898 66.2767 250.539 62.8761 249.039 60.2417C248.158 58.5724 246.312 57.4019 244.4 57.5421Z" fill="#D9A606"/>
<path d="M16.6636 2.83253C21.4065 2.71189 26.1527 2.81948 30.8989 2.7771C33.0747 2.79992 35.3385 2.56843 37.4033 3.4194C40.251 4.48556 42.8835 6.68308 43.8099 9.65658C44.7917 12.9822 44.2698 16.7773 42.2148 19.6009C40.375 21.8408 37.5338 22.8776 34.7905 23.5134C35.0449 23.9405 35.3091 24.3676 35.6321 24.7491C38.6103 28.267 41.657 31.7329 44.9418 34.9705C50.6437 40.3045 58.0941 43.0563 65.2672 45.782C63.2318 47.1644 60.795 47.8817 58.3355 47.8687C54.0427 47.9143 49.8609 46.4243 46.2727 44.1322C39.0832 39.6394 33.2802 33.0762 29.1994 25.6848C28.5927 25.6848 27.9892 25.6815 27.3825 25.6783C27.3662 28.8898 27.4673 32.1013 27.4216 35.3128C27.4477 35.9649 27.3857 36.6496 27.6304 37.2691C28.5535 38.4591 30.3313 38.3352 31.3132 39.4666C30.7391 40.2393 30.4324 41.2598 29.6952 41.8793C25.409 41.9249 21.1162 41.8793 16.8267 41.8989C16.2461 41.0479 15.7339 40.1578 15.3262 39.2123C16.5038 38.6743 17.7792 38.3026 18.8393 37.5397C19.3417 37.1908 19.3613 36.5485 19.3678 36.0008C19.371 27.6182 19.3678 19.2389 19.3743 10.8564C19.3417 9.87503 19.5048 8.84474 19.1982 7.89596C18.5229 6.45485 16.8952 5.89732 15.5284 5.32023C15.7959 4.44643 16.2004 3.61829 16.6636 2.83253ZM27.4477 7.3482C27.3303 11.7367 27.4314 16.1285 27.2553 20.5138C28.9026 20.9246 30.8598 20.7616 32.1319 19.5324C34.0826 17.7359 35.2895 15.1373 35.4363 12.4931C35.5505 10.9868 34.9829 9.3664 33.6912 8.50565C31.8579 7.28952 29.568 7.23735 27.4477 7.3482Z" fill="#FE0100"/>
<path d="M56.7699 9.34314C59.063 8.79865 61.5226 9.07905 63.6526 10.0702C66.7907 11.6385 69.2731 14.5142 70.2582 17.8887C71.4814 21.9642 70.9301 26.6136 68.4837 30.1381C67.2604 31.84 65.6947 33.3594 63.7897 34.2723C60.3124 35.9351 55.9968 35.4721 52.8392 33.3105C49.9556 31.5466 48.2495 28.3155 47.7407 25.042C47.3688 22.362 47.5156 19.5548 48.4811 17.0051C49.8642 13.3698 52.9696 10.331 56.7699 9.34314ZM58.4824 12.7046C56.9851 13.3045 56.2088 14.8858 55.5858 16.2715C54.1537 20.1579 54.2385 24.5791 55.6803 28.4492C56.2838 29.8968 57.2004 31.6835 58.9684 31.827C60.3972 31.9998 61.4475 30.7543 62.1032 29.6458C63.408 27.0929 63.7864 24.1422 63.6526 21.3024C63.4798 18.7364 62.8372 16.1346 61.4182 13.9632C60.8115 13.0046 59.6339 12.2612 58.4824 12.7046ZM73.1026 9.95284C76.6941 9.83872 80.2953 9.83546 83.8868 9.9398C84.1184 10.6017 84.3565 11.2603 84.5979 11.9189C84.014 12.1927 83.4334 12.4666 82.8527 12.747C83.6095 15.3227 85.8048 17.1518 87.0737 19.4733C88.6362 17.3409 90.3488 15.2412 91.4154 12.809C90.9496 12.5081 90.4672 12.2338 89.9704 11.9873C90.065 11.3059 90.1726 10.6245 90.2966 9.94632C93.0334 9.84524 95.78 9.8159 98.5201 9.95284C98.7745 10.631 99.0355 11.3027 99.2997 11.9743C98.0275 12.4666 96.6607 12.9818 95.8681 14.1686C94.2566 16.4606 92.6844 18.7853 91.0762 21.0774C90.3781 22.1403 89.4811 23.2032 89.4452 24.5367C89.3963 26.5125 89.5202 28.485 89.5855 30.4609C90.3683 31.2694 91.4285 31.6933 92.381 32.2541C92.0124 32.8671 91.6438 33.48 91.2915 34.0995C88.0523 34.1419 84.8099 34.1288 81.5675 34.1158C81.2413 33.493 80.9053 32.8736 80.5726 32.2541C81.4566 31.6868 82.5787 31.4096 83.2833 30.6108C83.5997 29.2871 83.4594 27.8819 83.5214 26.5223C83.6095 24.8334 82.5526 23.4151 81.5969 22.1272C79.93 19.7863 78.2174 17.4779 76.5669 15.1271C75.6763 13.6078 74.1726 12.5905 72.5155 12.0721C72.7079 11.3646 72.9037 10.6571 73.1026 9.95284ZM108.368 9.91697C110.315 9.8159 112.266 9.81264 114.213 9.94306C115.972 15.1956 118.01 20.3536 119.857 25.5768C120.496 27.1548 120.923 28.8274 121.69 30.35C122.404 31.0999 123.468 31.3379 124.401 31.7096C124.136 32.5573 123.82 33.3855 123.422 34.1777C120.382 34.0897 117.342 34.1549 114.302 34.1745C114.037 33.3529 113.789 32.528 113.545 31.7031C114.047 31.4879 114.546 31.2727 115.052 31.0608C115.094 29.7207 114.435 28.5209 113.953 27.3146C111.268 27.3765 108.587 27.3243 105.902 27.3472C105.546 28.2764 105.067 29.1665 104.855 30.1446C104.558 31.1782 105.824 31.4585 106.46 31.9509C106.153 32.6942 105.843 33.4344 105.537 34.1777C103.067 34.0669 100.595 34.1875 98.1254 34.1191C97.8481 33.3496 97.5415 32.5899 97.2185 31.84C98.0177 31.5368 98.8593 31.3216 99.6096 30.9043C100.376 30.4054 100.673 29.499 100.996 28.6905C103.423 22.4207 105.977 16.1998 108.368 9.91697ZM107.243 24.0574C109.095 24.0574 110.945 24.0313 112.798 24.0444C111.897 21.6317 111.056 19.1961 110.129 16.7932C109.2 19.2255 108.094 21.5925 107.243 24.0574ZM129.078 11.7624C129.362 11.1135 129.682 10.4778 130.044 9.86481C133.27 9.91371 136.503 9.78982 139.729 9.94306C140.016 10.5462 140.446 11.1135 140.508 11.795C139.673 12.4992 138.104 12.4927 137.899 13.7838C137.843 18.5636 137.915 23.3499 137.866 28.1329C137.873 28.8665 137.866 29.6229 138.104 30.3272C138.946 31.051 140.133 30.8619 141.161 30.8782C144.338 30.8521 147.685 29.9685 149.932 27.6015C150.523 28.1101 151.103 28.6318 151.674 29.1632C150.529 31.2466 149.211 33.2257 147.965 35.2472C146.448 35.6971 145.587 33.9789 144.136 34.1223C139.448 34.1158 134.761 34.1191 130.073 34.1223C129.658 33.4659 129.269 32.7938 128.905 32.1074C130.054 31.4651 132.106 31.1651 131.884 29.4208C131.858 24.315 131.916 19.2059 131.854 14.1001C131.831 12.6231 130.109 12.346 129.078 11.7624ZM94.7949 40.9594C95.4962 40.9398 96.2008 40.9431 96.9054 40.9561C98.4679 43.659 100.105 46.313 101.736 48.9768C100.98 49.7528 100.21 50.5124 99.4302 51.2656C96.7129 48.2725 92.6615 46.6782 88.6395 46.7858C87.5924 46.8705 86.2941 46.626 85.5047 47.4868C84.7577 48.2204 84.8327 49.3387 84.8034 50.2972C84.8262 52.8991 84.7447 55.5009 84.8556 58.0994C84.8067 58.9178 85.5569 59.6025 86.3561 59.5699C87.4782 59.6057 88.6036 59.5405 89.729 59.5633C90.2411 59.1493 90.7435 58.7254 91.236 58.2853C91.9047 58.2983 92.5767 58.3179 93.2487 58.3439C94.7981 60.9458 96.4454 63.4889 98.096 66.0288C97.3751 66.8243 96.602 67.5709 95.8159 68.3013C94.1262 66.7102 92.4071 64.9528 90.14 64.2257C88.7178 63.9584 87.2466 63.9877 85.8146 64.1508C84.9045 64.1834 84.8458 65.2626 84.8197 65.9505C84.7806 70.6292 84.8034 75.3079 84.8164 79.9866C84.7186 81.131 85.4917 82.4221 86.7149 82.5004C90.9131 82.7645 95.4342 82.934 99.2279 80.8115C100.516 80.179 101.436 79.0476 102.611 78.2586C103.299 79.0802 104.359 79.654 104.812 80.6289C103.491 83.1166 101.935 85.4804 100.529 87.9225C100.161 88.9267 98.9963 88.6887 98.1645 88.5876C97.2348 87.9551 96.4128 86.9476 95.17 87.0226C88.2057 86.9737 81.2348 87.0682 74.2704 86.9737C73.954 86.1847 73.207 85.4608 73.1516 84.6294C74.2933 83.5241 76.9453 83.3774 76.8539 81.294C76.9192 70.6455 76.88 59.997 76.9094 49.3485C76.8931 48.5366 76.9224 47.6172 76.3287 46.9781C75.4513 46.0391 74.2313 45.537 73.0439 45.1132C73.3864 44.2231 73.7942 43.3591 74.2574 42.5244C80.1518 42.3907 86.0495 42.5179 91.9406 42.4625C93.0758 42.4788 94.1881 41.9277 94.7949 40.9594ZM152.617 52.4524C153.55 52.5274 154.395 52.035 154.887 51.2591C155.497 51.3373 156.388 51.0634 156.704 51.7742C157.803 53.5837 158.955 55.3672 160.012 57.1995C159.503 57.9071 158.808 58.4418 158.159 59.0091C156.084 56.7985 152.959 55.8334 149.984 55.8823C148.703 55.9215 147.228 55.6574 146.204 56.6192C146.217 57.8321 146.099 59.0515 146.279 60.2578C146.693 60.7762 147.411 60.8806 148.037 60.8903C149.642 61.0827 150.634 59.384 152.268 59.6383C153.553 61.6141 154.796 63.6128 156.071 65.5951C155.448 66.094 154.952 66.9547 154.222 67.2025C153.152 66.3352 152.212 65.2723 150.921 64.7115C149.671 64.0073 148.21 64.0627 146.83 64.1508C146.7 64.2747 146.445 64.5192 146.315 64.6431C146.204 66.9286 146.279 69.2174 146.249 71.503C146.22 72.1812 146.406 72.8365 146.654 73.4658C147.502 73.8472 148.344 74.2548 149.182 74.6656C148.837 75.3191 148.5 75.9767 148.171 76.6382C144.899 76.7131 141.617 76.7751 138.346 76.6186C138.013 75.9861 137.677 75.3535 137.334 74.7243C138.114 74.3656 138.959 74.1211 139.673 73.6386C140.212 73.0745 140.091 72.2072 140.156 71.4932C140.159 66.6026 140.166 61.7087 140.15 56.8181C140.166 55.2889 138.398 54.9466 137.289 54.4608C137.625 53.7631 138.003 53.0849 138.43 52.4361C143.16 52.4687 147.89 52.4393 152.617 52.4524ZM195.342 52.4198C196.177 52.498 196.729 51.8036 197.287 51.3015L198.693 51.2428C199.919 53.2447 201.221 55.2009 202.418 57.2191C201.817 57.8386 201.194 58.4352 200.555 59.0123C198.092 56.4562 194.348 55.5791 190.903 55.9443C190.417 56.0258 190.012 56.329 189.588 56.554C189.575 57.8647 189.578 59.1754 189.66 60.486C190.906 60.9784 192.446 61.1675 193.552 60.2513C194.139 59.7003 194.931 59.6872 195.695 59.6807C196.944 61.6761 198.226 63.6487 199.479 65.6408C198.878 66.2211 198.262 66.7819 197.619 67.3166C196.06 65.7223 194.139 64.0301 191.764 64.1018C191.092 64.1671 190.133 63.9649 189.745 64.6692C189.559 65.856 189.657 67.0623 189.64 68.2589C189.673 69.85 189.494 71.4704 189.898 73.0321C190.704 73.2408 191.536 73.3093 192.371 73.2669C194.684 73.1723 197.11 73.5897 199.306 72.6409C200.679 72.142 201.808 71.2096 202.933 70.3129C203.68 70.264 204.156 71.1085 204.743 71.4737C203.553 73.6549 202.271 75.7904 200.95 77.8967C199.534 78.1086 198.692 76.6545 197.326 76.736C192.133 76.6512 186.94 76.8077 181.75 76.6447C181.44 76.0056 181.127 75.3699 180.807 74.7373C181.649 74.3363 182.487 73.9222 183.325 73.5082C183.479 72.6311 183.586 71.7443 183.573 70.8542C183.55 66.4004 183.567 61.9467 183.567 57.4897C183.531 56.867 183.567 56.1497 183.143 55.6443C182.422 55.064 181.505 54.8194 180.667 54.4641C181.029 53.7761 181.41 53.0979 181.808 52.4263C186.32 52.4622 190.831 52.4785 195.342 52.4198ZM209.333 52.5045C212.465 52.3024 215.619 52.5274 218.76 52.4002C219.253 53.0197 219.664 53.7011 219.895 54.4641C218.995 54.8031 218.118 55.2009 217.296 55.6997C217.022 60.7371 217.266 65.794 217.172 70.8411C217.159 71.7475 217.028 73.0647 218.157 73.3582C222.039 73.8048 226.387 73.0941 229.202 70.1597C229.783 70.7107 230.363 71.2617 230.944 71.8193C229.76 73.8309 228.458 75.7709 227.297 77.7956C226.85 77.8184 226.406 77.8445 225.963 77.8706C225.232 77.2642 224.423 76.6251 223.409 76.7164C218.721 76.7066 214.034 76.7197 209.346 76.7164C208.948 76.0513 208.553 75.3894 208.165 74.721C209.212 74.2026 210.377 73.8244 211.179 72.9245C211.082 67.4405 211.199 61.9565 211.13 56.4725C210.964 55.1455 209.34 54.9401 208.384 54.3532C208.651 53.7142 208.886 53.0458 209.333 52.5045ZM234.098 54.1706C234.361 53.4779 234.678 52.8064 235.044 52.1622C237.996 52.3154 240.958 52.1394 243.913 52.2633C248.614 52.6219 253.481 54.5619 256.267 58.5298C258.312 61.399 259.118 65.1354 258.279 68.5751C257.695 70.9879 256.544 73.4103 254.473 74.884C252.349 76.3121 249.726 76.7816 247.202 76.7262C243.199 76.6838 239.184 76.8436 235.184 76.6479C234.679 76.1589 234.486 75.4318 234.163 74.8188C235.158 74.2059 236.923 73.9418 236.926 72.4876C236.926 67.1569 236.884 61.8261 236.835 56.4953C236.887 55.0053 235.152 54.6792 234.098 54.1706ZM242.837 56.0095C242.912 61.6565 242.925 67.3101 242.837 72.9571C244.687 73.1039 246.66 73.231 248.366 72.367C250.15 71.49 251.305 69.6576 251.648 67.734C252.294 64.379 251.566 60.6197 249.24 58.0342C247.688 56.2573 245.114 55.5726 242.837 56.0095ZM106.323 54.3728C106.655 53.737 106.982 53.0947 107.308 52.4556C110.064 52.5143 112.821 52.5208 115.574 52.4524C118.94 56.4366 122.01 60.6751 125.454 64.5909C125.513 61.9174 125.565 59.234 125.445 56.5605C124.942 55.3411 123.478 54.9792 122.417 54.376C122.753 53.7598 123.07 53.1338 123.36 52.4948C125.878 52.5078 128.4 52.4491 130.918 52.5274C131.241 53.1697 131.59 53.8022 131.962 54.4217C130.729 55.0737 128.928 55.7943 129.039 57.4767C129.029 63.8704 129.085 70.264 129.007 76.6545C127.93 76.7001 126.85 76.7131 125.774 76.7099C121.993 71.49 118.18 66.2928 114.393 61.0762C114.093 60.6075 113.662 60.2369 113.153 60.01C112.974 63.7236 113.176 67.4438 113.069 71.1607C113.02 71.9497 113.131 72.7354 113.385 73.4886C114.22 73.9385 115.052 74.4015 115.89 74.858C115.541 75.4677 115.238 76.1132 114.784 76.6545C112.299 76.7034 109.793 76.7947 107.314 76.6153C106.9 76.0611 106.639 75.409 106.339 74.7928C107.373 74.2352 109.2 74.0037 109.151 72.4942C109.245 67.7144 109.157 62.9248 109.193 58.1418C109.138 57.343 109.324 56.3551 108.645 55.765C107.941 55.1977 107.109 54.8162 106.323 54.3728ZM163.659 54.4217C163.952 53.75 164.282 53.0947 164.644 52.4589C167.821 52.4524 170.998 52.4524 174.179 52.4491C174.577 53.0751 174.975 53.7011 175.369 54.3336C174.443 54.7281 173.536 55.165 172.678 55.6932C172.522 56.4986 172.401 57.3137 172.42 58.1385C172.44 62.589 172.433 67.0395 172.42 71.4932C172.453 72.1257 172.362 72.9213 172.929 73.3582C173.657 73.9255 174.505 74.307 175.298 74.7699C174.955 75.3894 174.619 76.0089 174.296 76.6382C171.076 76.7816 167.85 76.7066 164.628 76.6903C164.285 76.0449 163.947 75.3972 163.613 74.7471C164.458 74.3102 165.401 73.9907 166.115 73.3354C166.366 72.8789 166.343 72.3409 166.369 71.8388C166.34 66.8178 166.373 61.8 166.34 56.779C166.35 55.3476 164.716 54.9107 163.659 54.4217Z" fill="#FE0100"/>
</svg>
