<svg width="213" height="83" viewBox="0 0 213 83" fill="none" xmlns="http://www.w3.org/2000/svg">
<g clip-path="url(#clip0_875_1371)">
<path d="M185.611 0.774414C169.166 0.774414 158.428 12.1739 158.428 31.0209C158.428 54.4278 174.873 61.1155 186.662 61.1155C201.531 61.1155 210.016 51.008 210.016 51.008L202.432 43.3323C198.377 46.9802 193.721 49.184 186.813 49.184C177.651 49.184 171.494 43.7883 171.494 36.3407H212.344C212.269 36.2647 219.403 0.774414 185.611 0.774414ZM171.494 26.1572C171.494 16.1257 179.003 11.3379 187.038 11.3379C195.073 11.3379 202.357 16.2777 202.357 26.1572H171.494ZM35.2001 25.1692C29.9436 24.4853 14.8499 25.0932 14.8499 18.1016C14.8499 13.9978 21.1577 11.7179 27.015 11.7179C36.3265 11.7179 42.5592 15.5177 44.2863 16.7336L52.1711 8.75402C49.8432 6.93011 41.2075 0.774414 27.015 0.774414C14.099 0.774414 2.45961 7.61408 2.45961 18.5575C2.45961 35.3527 22.5094 35.3527 30.8447 36.1887C35.951 36.7207 40.5317 37.0246 40.5317 42.0404C40.5317 46.7522 33.473 49.336 27.9912 49.336C19.0551 49.336 13.7235 46.3722 8.46704 41.5844L0.0566406 50.172C7.79121 57.7716 17.6284 61.1155 27.3154 61.1155C42.3339 61.1155 53.2224 54.4278 53.2224 40.9765C53.2224 32.0089 47.2901 26.6891 35.2001 25.1692ZM78.3034 0.774414C65.3123 0.774414 56.8269 7.46209 55.325 8.83002L63.2097 16.8096C64.7867 15.5177 70.1183 11.7939 78.4536 11.7939C88.4409 11.7939 91.4447 15.8217 91.4447 20.3815V26.0812H73.6477C67.0395 26.0812 54.1235 27.7531 54.1235 42.4204C54.1235 53.2118 60.206 61.1155 74.774 61.1155C82.0581 61.1155 87.6149 58.6836 91.4447 54.1238V59.9755H104.361V21.2934C104.286 7.76607 96.1004 0.774414 78.3034 0.774414ZM91.5198 38.8486C91.5198 50.02 83.635 49.412 76.6514 49.412C69.5175 49.412 65.012 47.5121 65.012 42.4964C65.012 37.8606 68.6915 36.2647 76.351 36.2647H91.5198V38.8486ZM144.16 1.99035V8.45004C139.804 3.35829 134.548 0.774414 127.339 0.774414C115.099 0.774414 108.791 7.69008 106.689 15.1377C105.862 17.8736 105.637 23.1173 105.637 30.8689C105.637 38.1646 105.712 44.8523 108.19 49.944C111.72 57.0877 120.205 61.1155 127.339 61.1155C134.248 61.1155 140.105 58.3796 144.16 53.7438V57.3916C144.16 61.6474 142.733 64.4593 140.03 66.6632C137.326 68.8671 133.947 70.235 129.216 70.235C124.936 70.235 120.881 67.8791 118.553 66.2072L109.842 75.0228C115.474 79.6586 122.233 82.7744 129.442 82.8504C137.101 82.9264 143.334 80.5705 148.741 76.2387C153.922 72.1349 157.226 64.3073 157.226 56.0997V1.99035H144.16ZM144.16 30.8689C144.16 35.3527 144.085 38.6966 143.709 40.3685C142.883 44.0923 138.678 49.0321 131.019 49.0321C129.066 49.0321 119.304 47.8921 118.178 39.3045C117.952 37.5566 117.802 35.2767 117.802 30.7929C117.802 24.1053 118.103 21.9774 118.403 20.2295C119.079 16.8856 123.434 11.8699 131.019 11.8699C140.255 11.8699 143.259 18.2536 143.709 20.7614C144.085 22.5853 144.16 26.3852 144.16 30.8689Z" fill="#3FAE2A"/>
</g>
<defs>
<clipPath id="clip0_875_1371">
<rect width="213" height="82" fill="white" transform="translate(0 0.774414)"/>
</clipPath>
</defs>
</svg>
