<svg width="211" height="104" viewBox="0 0 211 104" fill="none" xmlns="http://www.w3.org/2000/svg">
<g clip-path="url(#clip0_875_1362)">
<path fill-rule="evenodd" clip-rule="evenodd" d="M0 103.267H105.44L208.629 0.28125H0V103.267Z" fill="url(#paint0_linear_875_1362)"/>
<path fill-rule="evenodd" clip-rule="evenodd" d="M123.811 20.8783H103.206L103.275 69.2357L85.3328 20.8623H67.5423L52.2265 61.2623C50.5981 50.9821 39.9472 47.4348 31.5668 44.7778C26.0327 43.0042 20.1591 40.3952 20.2187 37.5116C20.2646 35.1452 23.3608 32.9505 29.5142 33.2778C33.6424 33.4997 37.2891 33.8316 44.5433 37.3285L51.676 24.9245C45.0616 21.5649 35.9153 19.4434 28.4156 19.4365H28.3697C19.6247 19.4365 12.3429 22.2629 7.82933 26.9201C4.68267 30.1699 2.9855 34.303 2.9167 38.8733C2.80202 45.1623 5.11155 49.6204 9.96455 53.1837C14.0653 56.1817 19.3105 58.127 23.9318 59.555C29.6311 61.3172 34.2869 62.8506 34.2296 66.1141C34.1913 67.311 33.7091 68.4511 32.8764 69.3135C31.4544 70.7782 29.2756 71.3274 26.2597 71.3869C20.4412 71.5105 16.1294 70.5974 9.25816 66.5443L2.91211 79.1085C9.77649 83.0037 17.0629 84.9581 25.3423 84.9581L27.2046 84.9444C34.4107 84.8139 40.2591 83.0906 44.9057 79.3603C45.1717 79.1474 45.4103 78.9323 45.658 78.7149L44.8782 82.7245L62.2627 82.6695L65.3819 74.7008C68.6615 75.8176 72.3907 76.4355 76.3493 76.4355C80.2069 76.4355 83.8352 75.8496 87.0529 74.7969L89.2272 82.6695L120.418 82.6993L120.494 64.5327H127.131C143.174 64.5327 152.658 56.3854 152.658 42.7227C152.653 27.506 143.434 20.8783 123.811 20.8783ZM76.3493 62.2144C74.1053 62.2296 71.877 61.8404 69.7716 61.0655L76.2759 40.5714H76.402L82.8008 61.1227C80.8743 61.8093 78.6818 62.2144 76.3493 62.2144ZM125.017 50.4397H120.49V33.9231H125.019C131.051 33.9231 135.867 35.9279 135.867 42.075C135.863 48.4372 131.051 50.4397 125.019 50.4397" fill="white"/>
</g>
<defs>
<linearGradient id="paint0_linear_875_1362" x1="104.314" y1="0.28125" x2="104.314" y2="103.269" gradientUnits="userSpaceOnUse">
<stop stop-color="#00AEEF"/>
<stop offset="0.212" stop-color="#0097DC"/>
<stop offset="0.519" stop-color="#007CC5"/>
<stop offset="0.792" stop-color="#006CB8"/>
<stop offset="1" stop-color="#0066B3"/>
</linearGradient>
<clipPath id="clip0_875_1362">
<rect width="211" height="103" fill="white" transform="translate(0 0.274414)"/>
</clipPath>
</defs>
</svg>
