<svg width="742" height="730" viewBox="0 0 742 730" fill="none" xmlns="http://www.w3.org/2000/svg">
<g clip-path="url(#clip0_1391_17361)">
<path d="M371 730C575.898 730 742 647.381 742 545.464C742 443.547 575.898 360.928 371 360.928C166.102 360.928 0 443.547 0 545.464C0 647.381 166.102 730 371 730Z" fill="#FAFAFA"/>
<path d="M696.487 448.876C694.993 453.326 693.854 457.883 693.084 462.503C691.605 471.371 692.637 502.258 693.099 511.189C693.099 511.204 693.099 511.22 693.099 511.235L691.574 511.743C691.574 511.743 691.559 511.697 691.543 511.666C689.895 502.613 689.68 470.494 691.482 461.517C692.375 457.052 693.561 452.648 695.086 448.353C696.657 443.872 698.474 439.006 701.354 435.172C701.555 434.895 701.847 435.496 701.77 435.681C700.138 440.13 698.028 444.365 696.503 448.876H696.487Z" fill="#BA68C8"/>
<path d="M698.013 443.918C701.909 441.455 706.884 437.375 708.871 427.736C710.858 418.097 713.553 409.721 712.721 407.643C711.89 405.564 702.633 414.756 698.043 424.195C693.454 433.633 695.502 438.991 697.997 443.903L698.013 443.918Z" fill="#BA68C8"/>
<path d="M701.957 451.048C701.14 449.523 703.913 444.92 710.921 440.716C717.928 436.513 728.232 433.88 729.11 434.757C729.988 435.65 722.518 444.704 714.725 448.276C706.931 451.848 702.711 452.449 701.957 451.032V451.048Z" fill="#BA68C8"/>
<path d="M672.045 419.668C673.123 418.728 682.949 427.982 686.476 437.19C689.526 445.196 690.203 449.923 689.218 451.524C689.279 451.632 689.341 451.725 689.403 451.817C690.173 453.187 690.789 454.604 691.266 456.097C692.175 458.931 692.991 462.364 692.052 465.29C691.99 465.474 691.805 465.259 691.774 465.166C691.112 462.472 690.804 459.7 689.957 457.067C689.418 455.374 688.74 453.742 687.939 452.156C685.737 452.033 681.301 448.43 677.466 440.993C673.184 432.647 670.936 420.622 672.014 419.683L672.045 419.668Z" fill="#BA68C8"/>
<path d="M694.732 473.281C693.777 471.849 696.087 466.999 702.633 462.118C709.194 457.252 719.19 453.619 720.145 454.404C721.1 455.205 714.57 464.951 707.161 469.278C699.753 473.604 695.625 474.605 694.732 473.266V473.281Z" fill="#BA68C8"/>
<path d="M692.222 458.715C692.314 457.591 693.238 456.528 693.993 455.759C694.963 454.773 696.041 453.895 697.181 453.11C699.599 451.432 702.279 450.154 705.005 449.061C705.282 448.938 705.59 449.569 705.359 449.738C703.064 451.401 700.631 452.802 698.274 454.373C697.181 455.096 696.134 455.897 695.194 456.806C694.747 457.237 694.316 457.683 693.9 458.145C693.562 458.53 693.146 459.208 692.591 459.285C692.345 459.315 692.191 458.884 692.206 458.715H692.222Z" fill="#BA68C8"/>
<path d="M693.439 473.097C694.255 472.327 695.133 471.649 696.057 471.033C696.996 470.418 697.998 470.017 699.06 469.679C699.322 469.602 699.553 470.063 699.338 470.217C697.659 471.449 695.995 472.758 694.455 474.159C693.716 474.821 693.023 475.529 692.391 476.299C691.837 476.977 691.513 477.593 691.344 478.44C691.221 479.086 690.543 479.209 690.358 478.501C689.819 476.407 692.099 474.359 693.439 473.081V473.097Z" fill="#BA68C8"/>
<path d="M691.097 485.383L690.127 486.6C687.57 486.677 680.424 482.442 675.834 476.099C670.474 468.677 668.919 460.948 669.365 459.839C669.827 458.731 679.854 463.689 685.738 472.403C689.203 477.546 691.051 483.182 691.082 485.383H691.097Z" fill="#BA68C8"/>
<g opacity="0.65">
<path d="M696.487 448.876C694.993 453.326 693.854 457.883 693.084 462.503C691.605 471.371 692.637 502.258 693.099 511.189C693.099 511.204 693.099 511.22 693.099 511.235L691.574 511.743C691.574 511.743 691.559 511.697 691.543 511.666C689.895 502.613 689.68 470.494 691.482 461.517C692.375 457.052 693.561 452.648 695.086 448.353C696.657 443.872 698.474 439.006 701.354 435.172C701.555 434.895 701.847 435.496 701.77 435.681C700.138 440.13 698.028 444.365 696.503 448.876H696.487Z" fill="white"/>
<path d="M698.013 443.918C701.909 441.455 706.884 437.375 708.871 427.736C710.858 418.097 713.553 409.721 712.721 407.643C711.89 405.564 702.633 414.756 698.043 424.195C693.454 433.633 695.502 438.991 697.997 443.903L698.013 443.918Z" fill="white"/>
<path d="M701.957 451.048C701.14 449.523 703.913 444.92 710.921 440.716C717.928 436.513 728.232 433.88 729.11 434.757C729.988 435.65 722.518 444.704 714.725 448.276C706.931 451.848 702.711 452.449 701.957 451.032V451.048Z" fill="white"/>
<path d="M672.045 419.668C673.123 418.728 682.949 427.982 686.476 437.19C689.526 445.196 690.203 449.923 689.218 451.524C689.279 451.632 689.341 451.725 689.403 451.817C690.173 453.187 690.789 454.604 691.266 456.097C692.175 458.931 692.991 462.364 692.052 465.29C691.99 465.474 691.805 465.259 691.774 465.166C691.112 462.472 690.804 459.7 689.957 457.067C689.418 455.374 688.74 453.742 687.939 452.156C685.737 452.033 681.301 448.43 677.466 440.993C673.184 432.647 670.936 420.622 672.014 419.683L672.045 419.668Z" fill="white"/>
<path d="M694.732 473.281C693.777 471.849 696.087 466.999 702.633 462.118C709.194 457.252 719.19 453.619 720.145 454.404C721.1 455.205 714.57 464.951 707.161 469.278C699.753 473.604 695.625 474.605 694.732 473.266V473.281Z" fill="white"/>
<path d="M692.222 458.715C692.314 457.591 693.238 456.528 693.993 455.759C694.963 454.773 696.041 453.895 697.181 453.11C699.599 451.432 702.279 450.154 705.005 449.061C705.282 448.938 705.59 449.569 705.359 449.738C703.064 451.401 700.631 452.802 698.274 454.373C697.181 455.096 696.134 455.897 695.194 456.806C694.747 457.237 694.316 457.683 693.9 458.145C693.562 458.53 693.146 459.208 692.591 459.285C692.345 459.315 692.191 458.884 692.206 458.715H692.222Z" fill="white"/>
<path d="M693.439 473.097C694.255 472.327 695.133 471.649 696.057 471.033C696.996 470.418 697.998 470.017 699.06 469.679C699.322 469.602 699.553 470.063 699.338 470.217C697.659 471.449 695.995 472.758 694.455 474.159C693.716 474.821 693.023 475.529 692.391 476.299C691.837 476.977 691.513 477.593 691.344 478.44C691.221 479.086 690.543 479.209 690.358 478.501C689.819 476.407 692.099 474.359 693.439 473.081V473.097Z" fill="white"/>
<path d="M691.097 485.383L690.127 486.6C687.57 486.677 680.424 482.442 675.834 476.099C670.474 468.677 668.919 460.948 669.365 459.839C669.827 458.731 679.854 463.689 685.738 472.403C689.203 477.546 691.051 483.182 691.082 485.383H691.097Z" fill="white"/>
</g>
<path d="M718.021 479.61C721.533 478.917 726.292 477.362 730.435 470.926C734.578 464.505 738.875 459.193 738.86 457.453C738.844 455.713 729.557 459.793 723.581 465.336C717.605 470.895 717.59 475.36 718.021 479.61Z" fill="#BA68C8"/>
<path d="M710.396 483.736C708.995 484.136 707.27 477.454 708.625 471.325C709.981 465.182 713.246 460.886 714.016 460.624C714.786 460.363 716.372 470.078 715.048 474.79C713.739 479.501 711.274 483.505 710.381 483.751L710.396 483.736Z" fill="#BA68C8"/>
<path d="M702.309 496.023C700.862 496.793 697.443 489.803 697.566 482.689C697.689 475.575 700.323 470.048 701.124 469.571C701.924 469.093 705.852 479.486 705.451 484.999C705.051 490.526 703.249 495.53 702.309 496.023Z" fill="#BA68C8"/>
<path d="M709.857 494.222C708.825 492.944 715.002 488.232 721.994 486.939C729.002 485.661 734.932 487.139 735.563 487.832C736.179 488.525 729.356 493.898 721.286 495.115C715.802 495.946 710.535 495.038 709.857 494.206V494.222Z" fill="#BA68C8"/>
<path d="M722.086 475.391C717.234 479.486 713.014 484.383 709.041 489.356C709.148 489.063 709.272 488.786 709.38 488.494C709.934 487.031 710.334 485.522 710.658 483.982C710.951 482.612 711.413 480.81 711.012 479.425C710.935 479.178 710.658 479.394 710.596 479.532C709.888 480.995 709.641 482.72 709.21 484.29C708.825 485.676 708.363 487.031 707.87 488.386C707.208 490.264 706.345 492.05 705.529 493.867C704.451 495.299 703.404 496.762 702.387 498.24C702.603 497.132 702.757 495.992 702.726 494.853C702.726 494.221 702.68 493.606 702.634 492.99C702.587 492.466 702.587 491.943 702.31 491.481C702.171 491.25 701.879 491.558 701.833 491.712C701.494 492.743 701.617 493.96 701.494 495.038C701.371 496.131 701.247 497.239 701.016 498.332C700.785 499.472 700.416 500.565 700.015 501.658C699.877 501.935 699.676 502.382 699.538 502.644C698.706 504.06 696.904 507.309 695.672 509.573L696.781 511.081C697.921 508.726 699.153 506.416 700.508 504.183C701.971 501.766 703.388 499.472 704.374 498.055C705.19 497.347 706.068 496.716 706.946 496.1C707.916 495.422 708.948 494.807 710.011 494.298C711.212 493.729 712.491 493.359 713.707 492.805C713.892 492.728 714.2 492.189 713.8 492.189C712.491 492.158 711.151 492.62 709.949 493.097C708.794 493.559 707.701 494.129 706.669 494.791C707.439 493.729 708.224 492.666 709.025 491.619C713.292 486.153 718.205 481.211 722.332 475.637C722.502 475.406 722.332 475.175 722.086 475.375V475.391Z" fill="#BA68C8"/>
<path d="M601.272 620.263C667.595 620.263 721.36 589.235 721.36 550.96C721.36 512.685 667.595 481.657 601.272 481.657C534.949 481.657 481.184 512.685 481.184 550.96C481.184 589.235 534.949 620.263 601.272 620.263Z" fill="#E0E0E0"/>
<path d="M201.995 554.101L356.091 465.429C358.694 463.92 362.914 463.92 365.517 465.429L593.649 597.106C596.252 598.615 596.252 601.048 593.649 602.541L439.553 691.214C436.951 692.723 432.73 692.723 430.128 691.214L201.995 559.537C199.392 558.028 199.392 555.595 201.995 554.101Z" fill="#E0E0E0"/>
<path d="M142.251 522.46L18.959 593.611L173.347 682.93L296.639 611.564L142.251 522.46Z" fill="#E0E0E0"/>
<path d="M668.011 512.328C666.733 493.744 665.932 486.446 664.16 453.234C664.006 444.719 663.698 435.604 663.128 427.505C661.203 400.252 657.707 393.769 655.351 384.423C653.009 375.077 651.115 357.601 647.542 298.999C645.555 266.496 640.857 248.496 636.73 232.791H552.774C544.149 269.529 541.685 349.071 541.947 386.949C542.085 406.257 542.285 505.985 541.808 513.961C541.3 522.383 537.033 527.71 533.737 531.252C526.822 538.673 521.863 541.676 513.191 548.143C514.454 551.453 532.613 551.33 537.773 548.82C546.013 544.786 556.655 538.165 559.459 536.086C566.59 530.821 569.732 523.245 569.839 515.223C569.839 515.223 570.147 513.298 570.086 513.145C570.224 508.464 581.93 442.409 584.872 426.627C587.167 414.371 584.656 390.628 584.656 390.628L593.558 332.242C593.558 332.242 603.6 370.997 608.96 394.601C612.903 411.954 622.652 439.345 629.029 467.091C636.483 495.284 637.084 497.778 641.473 517.964C643.691 528.141 645.694 568.529 648.173 575.565C656.136 598.291 675.019 582.987 676.035 570.407C676.713 562.046 668.288 516.316 668.011 512.313V512.328Z" fill="#FFA8A7"/>
<path d="M495.693 559.059C495.216 559.059 494.631 564.387 497.295 566.558C500.376 569.083 509.324 573.117 520.952 571.3C532.596 569.499 538.819 565.711 543.393 561.692C547.967 557.658 554.375 551.977 559.627 550.683C564.509 549.482 572.425 546.51 573.95 544.955C575.475 543.4 575.09 536.656 575.09 536.656L495.693 559.059Z" fill="#263238"/>
<path d="M570.1 513.145C570.1 513.145 571.687 513.838 572.041 515.393C572.441 517.24 572.518 519.627 573.381 522.645C574.567 526.848 575.506 535.517 574.952 538.997C574.397 542.461 563.816 545.679 558.749 547.758C553.574 549.883 547.644 554.132 542.454 558.644C537.079 563.309 525.651 568.144 518.042 568.452C506.429 568.914 498.821 565.957 496.387 561.846C493.384 556.75 495.602 551.222 508.786 544.694C511.281 543.462 520.029 537.981 523.001 535.994C526.143 533.9 529.147 531.591 531.919 529.004C533.321 527.695 534.645 526.325 535.893 524.862C536.986 523.584 538.542 522.029 539.158 520.458C539.297 520.104 539.389 519.689 539.512 519.319C539.882 518.257 540.113 517.271 540.298 516.163C540.483 515.054 540.575 513.422 541.622 512.729C542.808 511.928 545.011 511.975 546.381 512.036C548.106 512.129 551.942 513.114 553.59 513.607C556.346 514.438 558.41 515.008 559.612 516.825C560.536 518.211 560.721 519.997 560.828 521.629C560.875 522.414 560.89 523.199 560.905 523.969C560.905 524.308 560.798 524.908 561.26 524.754C561.706 524.616 562.168 523.43 562.322 523.03C562.677 522.152 562.877 521.213 563.262 520.335C563.693 519.335 564.047 518.18 564.848 517.471C567.02 515.547 569.176 515.855 569.808 515.208C569.808 515.208 570.008 513.792 570.054 513.129L570.1 513.145Z" fill="#37474F"/>
<path d="M506.66 545.756C523.51 546.48 529.039 559.213 529.917 565.618C525.789 567.204 521.508 568.297 518.042 568.436C506.429 568.898 498.343 565.957 495.91 561.846C493.076 557.042 494.862 550.591 506.66 545.756Z" fill="#FAFAFA"/>
<path d="M531.843 547.758C532.027 547.758 532.212 547.681 532.351 547.558C532.69 547.265 532.736 546.742 532.443 546.403C530.025 543.601 523.217 537.504 517.118 538.32C516.672 538.381 516.348 538.797 516.41 539.243C516.471 539.69 516.872 540.013 517.334 539.952C523.033 539.197 529.27 545.248 531.196 547.481C531.365 547.681 531.596 547.774 531.843 547.774V547.758Z" fill="#F0F0F0"/>
<path d="M538.973 543.354C539.158 543.354 539.343 543.293 539.482 543.154C539.82 542.862 539.867 542.338 539.574 541.999C537.156 539.197 530.348 533.084 524.249 533.916C523.803 533.977 523.479 534.393 523.541 534.84C523.602 535.286 524.003 535.61 524.465 535.548C530.148 534.794 536.417 540.845 538.326 543.077C538.496 543.277 538.727 543.37 538.973 543.354Z" fill="#F0F0F0"/>
<path d="M545.565 538.365C545.75 538.365 545.935 538.288 546.073 538.165C546.412 537.872 546.458 537.349 546.166 537.01C543.748 534.208 536.909 528.095 530.841 528.927C530.394 528.988 530.071 529.404 530.133 529.85C530.194 530.297 530.595 530.62 531.057 530.559C536.74 529.804 542.993 535.855 544.918 538.088C545.088 538.288 545.319 538.381 545.565 538.381V538.365Z" fill="#F0F0F0"/>
<path d="M552.02 533.377C552.205 533.377 552.374 533.315 552.528 533.192C552.882 532.899 552.928 532.376 552.636 532.037C549.309 528.049 542.009 523.076 535.909 523.907C535.463 523.969 535.139 524.385 535.201 524.831C535.262 525.278 535.663 525.586 536.125 525.54C541.608 524.8 548.416 529.558 551.373 533.1C551.542 533.3 551.789 533.408 552.02 533.392V533.377Z" fill="#F0F0F0"/>
<path d="M645.416 569.268C646.202 576.997 647.634 582.093 650.591 586.528C653.548 590.962 658.8 592.163 664.006 590.593C669.212 589.022 675.788 585.173 677.005 578.414C678.222 571.654 678.9 567.035 677.39 559.891L645.431 569.268H645.416Z" fill="#263238"/>
<path d="M668.011 512.328C670.182 512.405 670.059 522.706 671.769 533.084C673.602 544.2 675.404 548.558 677.005 557.673C678.838 568.082 677.298 572.839 673.91 579.337C670.521 585.835 657.799 592.61 650.992 583.818C645.447 576.658 644.877 568.467 644.892 557.996C644.908 547.172 643.537 539.951 642.305 531.821C641.027 523.414 638.978 515.9 640.811 514.946C641.011 516.085 642.474 521.905 643.044 523.214C643.291 523.784 644.199 525.2 644.43 522.998C644.507 522.352 644.23 520.858 644.261 520.212C644.338 518.395 645.416 518.041 646.125 517.625C647.634 516.701 651.038 515.408 655.273 515.192C659.509 514.976 663.159 514.684 665.577 515.793C667.025 516.455 667.056 517.81 667.271 519.118C667.518 520.689 667.595 521.659 667.964 521.32C668.719 520.658 667.841 513.452 668.026 512.328H668.011Z" fill="#37474F"/>
<path d="M677.868 563.709C678.53 570.191 677.175 574.718 674.51 579.799C671.122 586.297 657.352 593.133 650.56 584.357C647.172 579.984 646.094 574.687 645.416 569.267C648.943 562.108 671.568 558.027 677.883 563.709H677.868Z" fill="#FAFAFA"/>
<path d="M649.636 557.673C649.729 557.673 649.821 557.627 649.898 557.581C649.991 557.535 659.832 552.946 669.69 554.779C670.121 554.856 670.552 554.563 670.629 554.132C670.706 553.701 670.413 553.27 669.982 553.193C659.555 551.268 649.513 555.964 649.144 556.149C648.758 556.365 648.604 556.842 648.805 557.242C648.974 557.55 649.298 557.704 649.636 557.658V557.673Z" fill="#F0F0F0"/>
<path d="M668.873 547.002C669.181 546.956 669.443 546.741 669.536 546.433C669.659 546.002 669.413 545.555 668.981 545.432C659.124 542.568 648.558 547.988 648.158 548.219C647.773 548.434 647.65 548.927 647.865 549.312C648.096 549.697 648.589 549.82 648.959 549.604C649.051 549.558 659.34 544.308 668.519 546.987C668.627 547.018 668.75 547.033 668.858 547.018L668.873 547.002Z" fill="#F0F0F0"/>
<path d="M668.212 539.659C668.504 539.612 668.766 539.412 668.858 539.104C668.997 538.673 668.751 538.227 668.335 538.104C657.476 534.747 647.481 540.598 647.111 540.844C646.741 541.091 646.649 541.583 646.895 541.953C647.142 542.322 647.65 542.415 648.004 542.168C648.081 542.107 657.754 536.518 667.857 539.628C667.98 539.659 668.104 539.674 668.212 539.659Z" fill="#F0F0F0"/>
<path d="M667.349 532.437C667.642 532.391 667.904 532.191 667.996 531.898C668.135 531.482 667.904 531.02 667.488 530.882C657.307 527.571 646.541 533.592 646.126 533.854C645.756 534.084 645.648 534.593 645.879 534.962C646.11 535.332 646.618 535.455 646.988 535.208C647.081 535.147 657.538 529.342 666.98 532.422C667.103 532.468 667.226 532.468 667.349 532.452V532.437Z" fill="#EBEBEB"/>
<path d="M643.414 232.791C646.556 255.702 647.542 261.338 650.976 312.364C654.303 361.851 654.565 369.103 655.058 375.077C656.182 388.75 662.235 393.477 664.006 425.734C665.623 455.297 666.594 491.773 666.594 491.773C666.594 491.773 662.62 497.239 651.346 498.255C640.95 499.179 635.759 495.284 635.759 495.284C635.759 495.284 616.491 426.366 611.116 409.013C603.816 385.455 593.573 344.113 593.573 344.113L586.781 391.429C586.781 391.429 588.968 414.094 584.579 435.496C579.127 462.026 573.566 490.865 573.566 490.865C573.566 490.865 566.759 493.713 557.903 492.82C545.735 491.588 541.669 488.771 541.669 488.771C541.669 488.771 538.25 408.612 538.25 379.327C538.25 350.041 538.62 278.382 540.329 232.806H643.429L643.414 232.791Z" fill="#992270"/>
<path d="M593.558 344.113L585.118 292.887C585.118 292.887 568.161 288.406 557.271 277.027C558.072 285.511 573.166 296.397 580.22 298.091L589.646 343.482L586.766 391.429L593.558 344.113Z" fill="#822D65"/>
<path d="M613.242 240.721C615.907 244.924 617.894 249.513 619.603 254.163C621.313 258.828 622.668 263.601 623.839 268.405C624.963 273.224 625.887 278.09 626.519 283.002C627.165 287.898 627.612 292.856 627.504 297.814C626.318 292.994 625.225 288.221 624.131 283.433C623.007 278.66 621.96 273.871 620.805 269.129C619.711 264.371 618.51 259.629 617.293 254.886C616.045 250.159 614.736 245.448 613.258 240.721H613.242Z" fill="#822D65"/>
<path d="M619.726 242.522C622.221 244.801 624.424 247.357 626.426 250.036C628.459 252.715 630.23 255.564 631.878 258.489C633.465 261.446 634.897 264.494 636.006 267.682C637.13 270.853 637.993 274.148 638.27 277.52L633.757 268.652C632.233 265.742 630.723 262.847 629.121 259.983C627.581 257.088 625.949 254.24 624.378 251.345C622.791 248.45 621.174 245.556 619.711 242.522H619.726Z" fill="#822D65"/>
<path d="M612.949 301.094C615.09 316.445 617 331.811 618.941 347.162C620.927 362.513 624.624 379.45 627.442 394.617C630.338 409.768 645.493 473.882 647.834 489.202C644.292 474.113 627.35 410.445 624.377 395.186C621.59 379.882 618.032 362.852 616.538 347.44C615.013 332.011 613.889 316.568 612.965 301.094H612.949Z" fill="#822D65"/>
<path d="M555.485 301.756L552.959 342.143C552.59 348.872 552.158 355.6 551.85 362.329C551.542 369.042 551.142 375.801 551.25 382.438C551.388 389.105 551.804 453.604 550.895 467.092C549.309 452.064 548.585 396.064 548.123 382.484C548.169 368.826 549.324 355.431 550.526 341.958C551.773 328.516 553.39 315.105 555.47 301.756H555.485Z" fill="#822D65"/>
<path d="M574.798 484.367L572.503 498.41C572.503 498.41 566.881 501.997 555.068 500.781C543.255 499.565 541.561 495.746 541.561 495.746V482.535C541.561 482.535 544.395 485.276 555.16 486.492C565.942 487.709 574.767 484.367 574.767 484.367H574.798Z" fill="#992270"/>
<path d="M666.348 481.996L667.395 496.177C667.395 496.177 662.759 500.981 651.008 502.551C639.241 504.122 636.7 500.796 636.7 500.796L633.619 487.955C633.619 487.955 637.008 489.972 647.773 488.632C658.539 487.308 666.348 481.996 666.348 481.996Z" fill="#992270"/>
<path opacity="0.1" d="M396.567 76.2932L289.632 1.63184L53.1367 138.129V355.107L289.632 218.61L426.678 117.82L396.567 76.2932Z" fill="#C85BC4"/>
<path d="M559.657 111.014C547.151 113.323 539.758 116.141 529.855 130.861C521.522 143.24 504.503 165.489 504.503 165.489C504.503 165.489 481.724 145.627 478.304 139.791C473.222 131.107 435.487 133.155 444.174 145.627C446.608 149.122 453.569 151.555 457.204 156.235C465.952 167.445 475.255 184.844 483.68 195.114C492.705 206.107 500.853 212.235 505.581 212.235C511.496 212.235 520.321 202.643 522.816 199.779C532.735 188.37 553.281 164.165 553.281 164.165L559.642 111.014H559.657Z" fill="#FFAFA7"/>
<path d="M465.814 145.751C464.982 145.458 464.197 144.319 463.811 143.549C463.349 142.64 463.165 141.609 463.011 140.608C462.641 138.36 462.348 136.112 462.009 133.864C461.701 131.755 461.44 129.614 461.07 127.52C460.762 125.796 460.192 124.133 458.898 122.886C458.128 122.162 456.603 123.132 457.481 123.964C458.929 125.334 459.16 127.443 459.437 129.322C459.807 131.77 460.161 134.233 460.531 136.682C460.854 138.883 460.978 141.239 461.778 143.333C462.518 145.258 463.796 146.29 465.798 146.674C466.414 146.798 466.245 145.905 465.798 145.751H465.814Z" fill="#F2968F"/>
<path d="M559.658 109.905C547.013 112.261 541.869 114.047 534.214 123.409C526.56 132.77 510.049 157.56 510.049 157.56C510.049 157.56 512.806 167.26 520.507 174.774C528.208 182.303 535.508 185.26 535.508 185.26L555.269 164.165L559.658 109.905Z" fill="#455464"/>
<path d="M458.745 96.4634C456.65 97.726 457.266 101.652 458.93 111.06C460.593 120.468 463.658 140.838 463.658 140.838C463.658 140.838 458.883 142.886 455.095 144.641C451.306 146.412 444.837 147.967 441.679 144.98C438.538 141.993 441.864 138.375 447.039 135.911L439.893 110.629C439.893 110.629 439.723 106.087 447.548 101.683C455.356 97.2949 458.745 96.4326 458.745 96.4326V96.4634Z" fill="#37424F"/>
<path d="M443.035 104.979C439.816 108.104 439.893 110.645 439.893 110.645L447.039 135.927C447.624 137.99 449.426 142.009 452.599 140.238C455.772 138.468 459.145 130.476 455.911 120.684C452.892 111.522 446.485 106.626 443.035 104.979Z" fill="#455464"/>
<path opacity="0.4" d="M458.745 96.4639C458.745 96.4639 455.356 97.3107 447.548 101.714C439.739 106.118 439.893 110.66 439.893 110.66L440.524 112.893C443.389 110.953 447.548 108.012 450.844 105.24C454.786 101.93 456.049 100.483 457.42 99.4971C457.497 97.9266 457.882 96.972 458.745 96.4639Z" fill="black"/>
<path d="M446.084 74.5221C446.3 73.6445 445.175 73.2133 440.955 72.5051C430.821 70.7806 418.931 70.0569 406.655 73.783L403.498 74.6761L429.974 100.328L428.695 105.44C428.695 105.44 447.655 100.051 454.032 98.2339C460.408 96.417 462.795 94.169 463.658 90.7508L464.104 88.9494L454.093 79.2491L446.1 74.5221H446.084Z" fill="#455464"/>
<path d="M461.117 79.7113C459.146 77.8637 454.587 76.6473 450.998 75.7542C448.288 75.0922 446.101 74.5225 446.101 74.5225C446.101 74.5225 435.781 76.5087 441.942 82.6984C448.118 88.8881 465.168 84.5769 463.643 90.7512C465.291 84.2073 464.567 82.9294 461.117 79.7113Z" fill="#37424F"/>
<path d="M441.696 76.2927C439.894 77.5707 438.862 79.6032 441.942 82.698C444.129 84.8998 447.703 85.7775 451.322 86.2548C447.148 85.2078 443.637 82.2515 442.651 80.7579C441.65 79.2644 440.849 77.309 441.696 76.2773V76.2927Z" fill="#C85BC4"/>
<path d="M456.373 97.4797C455.757 99.9586 440.555 110.737 431.992 115.433C429.127 117.003 426.663 118.158 424.661 118.974C421.149 120.422 417.129 119.667 414.418 117.034L398.046 101.175C395.613 98.8192 394.627 95.3394 395.443 92.0598L397.045 85.67C397.538 83.6837 396.722 81.7437 395.674 80.2039C394.55 78.5564 395.305 76.3084 397.214 75.7541C399.016 75.2306 401.096 74.6455 402.913 74.1374C406.671 73.0904 411.092 76.5394 420.903 86.1165C430.714 95.6936 432.5 100.436 431.437 104.655L456.358 97.4797H456.373Z" fill="#37424F"/>
<path d="M431.452 104.654C430.266 109.381 429.25 115.463 427.34 117.819C428.957 116.464 429.619 116.249 432.623 104.331L431.452 104.654Z" fill="#262F38"/>
<path d="M395.69 80.1881C396.737 81.7278 397.554 83.6679 397.061 85.6541L395.459 92.044C394.627 95.3236 395.628 98.8034 398.062 101.159L414.434 117.018C417.16 119.651 421.18 120.406 424.676 118.958C426.678 118.127 429.143 116.988 432.007 115.417C432.639 115.063 433.317 114.678 434.01 114.278C433.856 114.355 424.337 118.758 421.534 118.604C417.745 118.404 415.882 117.034 412.139 113.292C408.088 109.243 400.326 101.56 398.539 99.4963C397.877 98.7418 397.153 96.6478 398.308 95.9549C401.034 94.292 404.192 94.3844 404.9 95.0773C406.995 97.1097 422.335 111.983 422.335 111.983C423.413 107.672 422.135 103.407 416.96 97.4792C411.785 91.5513 403.468 84.1606 399.633 80.9888C395.813 77.8169 395.782 76.6005 397.23 75.7383C395.32 76.2926 394.566 78.5406 395.69 80.1881Z" fill="#262F38"/>
<path d="M422.334 111.984C422.334 111.984 423.613 108.042 420.209 102.9C416.297 97.0025 407.702 89.2115 404.545 86.1475L402.805 93.0608L422.334 111.984Z" fill="#C85BC4"/>
<path d="M425.368 83.3758L427.386 85.3313C428.757 86.6555 431.267 87.3483 432.992 86.8556C434.717 86.3629 434.994 84.8848 433.624 83.5606L431.606 81.6052C430.235 80.281 427.725 79.5881 426 80.0808C424.275 80.5735 423.997 82.0517 425.368 83.3758Z" fill="#262F38"/>
<path d="M457.898 104.932L459.023 112.03L467.817 113C464.121 109.582 457.898 104.932 457.898 104.932Z" fill="#F2968F"/>
<path d="M460.44 135.695C460.748 134.448 459.254 131.707 457.929 131.384C461.195 130.66 461.595 129.089 461.349 127.488C461.102 125.887 458.53 124.147 458.53 124.147C458.53 124.147 460.116 123.7 460.563 122.422C461.01 121.129 459.67 118.835 457.375 117.696C455.095 116.541 450.922 117.295 448.519 117.08C446.132 116.864 440.402 112.507 440.402 112.507L439.878 110.644L432.747 115.016C432.747 115.016 433.918 116.248 433.517 117.88C433.102 119.512 431.854 121.745 432.794 123.331C433.733 124.901 433.856 125.24 433.471 126.811C432.609 128.674 432.824 130.183 433.471 131.368C433.471 131.368 434.195 132.954 433.41 134.248C432.624 135.541 433.517 137.419 434.488 138.143C435.458 138.867 440.648 142.501 443.467 143.455C446.286 144.41 446.655 143.932 449.628 143.27C452.6 142.608 455.434 141.838 455.465 140.745C455.496 139.652 454.31 138.759 452.908 138.297C453.648 138.112 454.387 137.928 455.111 137.758C458.33 137.019 460.132 136.957 460.44 135.71V135.695Z" fill="#F2968F"/>
<path d="M478.305 139.791C472.791 131.123 474.07 118.574 471.713 115.71C469.341 112.846 458.437 108.643 456.327 108.612C452.985 108.55 448.072 114.37 444.945 118.035C442.773 120.575 445.638 122.069 448.118 122.1C452.415 122.146 455.772 118.928 455.772 118.928L460.378 121.022C460.378 121.022 463.828 143.825 463.951 143.302C464.074 142.778 478.275 139.791 478.275 139.791H478.305Z" fill="#FFAFA7"/>
<path d="M504.504 165.474C509.155 169.863 515.085 176.16 516.163 182.304C518.458 174.081 510.603 166.09 507.138 162.025L504.504 165.49V165.474Z" fill="#F2968F"/>
<path d="M614.257 105.641C620.725 106.98 628.919 108.643 637.175 110.922C645.476 113.216 646.631 113.693 649.311 114.633C649.311 114.633 653.701 133.494 651.129 178.685C650.744 185.383 645.892 203.336 645.076 217.225C643.967 235.963 644.598 244.339 646.231 260.522C646.231 260.522 629.736 276.396 584.023 272.947C548.136 270.237 538.818 254.594 538.818 254.594C538.818 254.594 539.219 197.239 540.158 170.786C541.39 136.035 551.91 115.988 559.657 109.906L583.207 105.979L614.241 105.641H614.257Z" fill="#455464"/>
<path d="M623.605 31.3784C623.605 31.3784 629.134 31.7942 632.769 38.7691C634.586 42.2797 635.895 48.6696 630.905 66.9308C627.686 78.6943 623.836 83.8216 622.111 87.0858C620.386 90.3654 616.859 91.2738 616.859 91.2738L617.228 77.2315L617.752 67.4389C617.752 67.4389 609.866 60.2791 609.173 53.2426C608.295 44.189 611.838 39.0617 611.838 39.0617L623.605 31.3477V31.3784Z" fill="#37424F"/>
<path d="M625.516 31.8562C624.145 23.9574 614.134 14.5343 594.805 13.5027C578.972 12.6558 570.162 18.3836 564.201 27.3294C557.979 36.6755 562.322 48.516 562.322 48.516L612.07 45.2672L625.516 31.8562Z" fill="#37424F"/>
<path d="M630.074 81.3582C622.789 84.8995 619.477 79.141 619.477 79.141L618.384 108.103C604.414 126.796 567.111 120.036 582.405 106.04L582.436 99.4346C582.436 99.4346 579.987 99.4345 576.137 98.8187C569.699 97.8024 565.186 93.5374 563.261 86.5624C560.427 76.2463 561.305 53.874 562.999 41.6794C563.476 38.2304 565.879 34.1963 568.99 32.6566C576.722 28.8381 583.884 34.3503 594.65 38.5383C599.116 40.2782 609.928 41.0481 612.793 39.7085C609.035 43.8504 609.066 56.9689 614.61 62.2809C615.581 64.1286 616.597 65.2064 617.383 65.8993C619.739 67.9471 621.664 62.6659 623.651 60.5872C625.654 58.5394 633.077 56.6763 636.281 63.4973C639.515 70.4261 636.82 78.0939 630.074 81.3735V81.3582Z" fill="#FFAFA7"/>
<path d="M582.405 106.04C582.405 106.04 562.09 115.802 556.068 138.913C550.031 162.025 548.444 228.71 548.229 250.636C548.028 272.562 548.229 280.722 548.229 280.722C548.229 280.722 548.229 278.921 535.691 273.87C535.691 248.157 537.601 162.025 541.252 144.718C547.258 116.156 559.672 109.905 559.672 109.905L582.421 106.04H582.405Z" fill="#6F8DC8"/>
<path d="M536.569 222.937C536.492 225.908 536.415 228.849 536.338 231.728C540.281 234.146 544.609 235.901 548.428 237.087C548.49 234.377 548.552 231.451 548.644 228.387C544.716 226.94 540.327 225.046 536.569 222.937Z" fill="#FAFAFA"/>
<path d="M536.045 245.124C535.983 247.88 535.937 250.528 535.906 253.069C539.849 255.517 544.177 257.119 548.166 258.15C548.166 255.856 548.197 253.346 548.228 250.636C548.228 250.575 548.228 250.513 548.228 250.451C544.393 249.343 540.173 247.649 536.045 245.124Z" fill="#FAFAFA"/>
<path d="M618.492 105.024L618.369 108.104C618.369 108.104 613.271 122.777 609.744 141.885C607.819 152.325 607.11 164.489 606.263 175.359C604.23 201.688 603.86 264.663 603.799 286.358C618.97 289.314 640.132 286.327 649.635 279.275C647.833 250.328 646.062 235.347 647.648 213.529C649.327 190.572 658.83 147.844 649.912 113.785C641.857 111.553 628.935 107.673 618.477 105.024H618.492Z" fill="#6F8DC8"/>
<path d="M647.786 251.021C639.777 257.519 621.495 262.739 603.952 262.2C603.921 265.064 603.906 267.789 603.891 270.376C603.891 270.376 632.754 271.577 648.31 259.028C648.125 256.241 647.955 253.577 647.786 251.006V251.021Z" fill="#FAFAFA"/>
<path d="M604.229 237.995C604.183 240.751 604.152 243.491 604.121 246.186C625.252 247.202 640.084 241.613 647.185 238.102C647.092 235.1 647.046 232.128 647.061 229.11C637.651 234.114 622.434 239.396 604.244 237.995H604.229Z" fill="#FAFAFA"/>
<path d="M582.435 99.4345C590.891 99.3883 598.391 98.3413 603.382 96.2319C608.372 94.1225 612.792 87.3785 614.24 80.6807C614.24 86.0697 611.883 95.616 604.306 99.5885C596.743 103.561 587.934 103.761 582.404 103.884V99.4191L582.435 99.4345Z" fill="#F2968F"/>
<path d="M594.188 49.9942L601.211 53.2738C602.073 51.2568 601.211 48.901 599.27 47.9926C597.329 47.0841 595.05 47.9926 594.188 49.9942Z" fill="#37424F"/>
<path d="M566.294 51.1494L573.656 48.5472C573.009 46.4686 570.838 45.3754 568.805 46.0837C566.772 46.8073 565.647 49.0707 566.294 51.1494Z" fill="#37424F"/>
<path d="M598.022 58.3398C597.899 60.0797 596.374 61.3884 594.634 61.2652C592.893 61.1421 591.584 59.6177 591.707 57.8778C591.83 56.138 593.355 54.8292 595.096 54.9524C596.836 55.0755 598.145 56.5999 598.022 58.3398Z" fill="#262F38"/>
<path d="M574.118 57.2616C573.995 59.0015 572.47 60.3103 570.729 60.1871C568.989 60.0639 567.68 58.5396 567.803 56.7997C567.926 55.0598 569.451 53.7511 571.191 53.8742C572.932 53.9974 574.241 55.5217 574.118 57.2616Z" fill="#262F38"/>
<path d="M585.284 52.6895L582.82 72.6905L571.453 68.3639C575.504 61.4197 580.109 56.2 585.284 52.6895Z" fill="#F2968F"/>
<path d="M591.137 78.125L582.82 80.527C583.436 82.8981 585.808 84.2993 588.103 83.6372C590.398 82.9751 591.753 80.5116 591.137 78.125Z" fill="#B14841"/>
<path d="M590.215 79.572C590.569 79.5104 590.923 79.495 591.262 79.5104C591.17 81.3889 589.953 83.098 588.105 83.6215C587.643 83.7601 587.181 83.7909 586.719 83.7601C586.457 81.82 587.982 79.957 590.215 79.5566V79.572Z" fill="#F2968F"/>
<path d="M420.133 193.235L484.513 212.235L515.424 183.612L451.029 164.627L420.133 193.235Z" fill="#C85BC4"/>
<path opacity="0.7" d="M420.133 193.235L484.513 212.235L515.424 183.612L451.029 164.627L420.133 193.235Z" fill="white"/>
<path d="M420.133 193.235L492.06 281.169L556.455 300.169L484.513 212.236L420.133 193.235Z" fill="#C85BC4"/>
<path opacity="0.4" d="M420.133 193.235L492.06 281.169L556.455 300.169L484.513 212.236L420.133 193.235Z" fill="white"/>
<path d="M515.423 183.611L587.35 271.545L556.454 300.169L484.512 212.235L515.423 183.611Z" fill="#C85BC4"/>
<path opacity="0.6" d="M515.423 183.611L587.35 271.545L556.454 300.169L484.512 212.235L515.423 183.611Z" fill="white"/>
<path d="M456.927 204.091L447.701 201.365L519.628 289.299L528.854 292.024L456.927 204.091Z" fill="#262F38"/>
<path d="M461.193 188.878L447.701 201.365L456.927 204.09L470.419 191.603L461.193 188.878Z" fill="#455464"/>
<path opacity="0.6" d="M573.15 254.178L549.924 225.785C548.415 226.201 547.075 227.402 545.504 227.648C542.917 228.048 540.375 228.326 537.757 228.264C532.505 228.141 527.33 227.063 522.247 225.77C519.444 225.046 516.641 224.261 513.853 223.491C512.236 223.044 510.034 222.875 509.356 224.399C508.832 225.569 509.679 226.894 510.603 227.787C515.932 233.006 524.203 233.561 530.687 237.241C531.165 237.518 531.689 237.949 531.565 238.488C531.442 238.965 530.872 239.134 530.395 239.227C524.434 240.32 509.972 241.367 504.196 243.215C503.134 243.554 501.901 244.231 501.932 245.34C501.963 246.109 502.625 246.71 503.272 247.126C504.612 247.988 506.137 248.542 507.723 248.758C506.999 249.805 507.492 251.329 508.447 252.161C509.402 252.992 510.711 253.285 511.959 253.531C513.992 253.916 516.056 254.224 518.12 254.455C518.135 255.317 516.81 255.24 515.994 255.533C514.978 255.902 514.639 257.272 515.024 258.273C515.409 259.274 516.318 259.998 517.195 260.614C519.721 262.369 522.663 263.832 525.743 263.647C527.053 263.57 528.331 263.185 529.594 262.8C539.728 259.721 558.134 255.148 568.715 254.532C570.193 254.439 571.687 254.393 573.166 254.224L573.15 254.178Z" fill="#C85BC4"/>
<path d="M569.838 228.649C565.634 229.265 561.737 226.293 558.441 221.967C555.16 217.64 553.882 213.683 547.613 212.59C541.329 211.496 537.987 211.188 537.987 211.188L543.455 217.886C543.455 217.886 548.353 224.276 542.485 225.739C538.757 226.678 534.753 226.632 528.022 224.461C516.964 220.889 510.865 218.287 509.648 221.643C508.447 225.015 511.82 225.985 515.901 227.833C519.983 229.681 529.917 233.284 532.412 234.515C534.907 235.747 535.184 236.933 530.102 237.795C525.019 238.657 508.477 239.997 505.151 240.351C501.824 240.705 500.237 243.092 501.932 244.585C503.626 246.079 509.679 246.956 509.679 246.956C509.679 246.956 506.506 251.083 512.774 252.176C519.058 253.269 533.998 251.837 534.892 252.022C535.785 252.207 524.711 255.933 523.155 255.995C521.6 256.056 515.485 253.623 514.653 254.994C513.822 256.364 514.761 257.888 517.256 258.905C519.751 259.921 523.186 262.677 525.851 262.138C528.515 261.599 542.207 256.641 546.181 255.825C550.155 255.009 570.685 250.421 570.685 250.421L569.838 228.634V228.649Z" fill="#FFAFA7"/>
<path d="M649.297 114.617C639.409 120.453 631.369 136.281 629.691 151.278C628.012 166.275 624.485 204.552 624.485 204.552C624.485 204.552 590.693 219.318 581.852 222.182C573.012 225.062 563.324 227.125 558.457 221.951L561.922 252.376C561.922 252.376 596.068 246.957 612.117 243.908C628.998 240.705 639.81 237.641 645.062 235.516C654.349 231.759 656.844 231.128 659.724 215.1C662.204 201.273 664.807 174.666 666.609 161.055C668.396 147.444 670.506 120.622 649.313 114.602L649.297 114.617Z" fill="#FFAFA7"/>
<path d="M509.68 246.972C514.223 246.972 520.815 246.433 525.436 246.218C529.933 246.125 536.602 245.386 541.115 244.816C530.842 247.265 520.168 247.234 509.68 246.972Z" fill="#F2968F"/>
<path d="M648.542 113.385C654.826 114.924 661.941 117.85 665.284 127.473C668.626 137.097 669.18 142.67 667.656 161.07C666.131 179.454 663.482 196.222 663.482 196.222C663.482 196.222 658.045 198.239 645.076 197.285C632.108 196.33 624.869 190.479 624.869 190.479C624.869 190.479 627.487 161.624 628.766 149.507C630.029 137.374 635.327 119.959 648.557 113.4L648.542 113.385Z" fill="#455464"/>
<path d="M353.041 256.626L274.276 302.094C265.636 307.083 258.582 319.308 258.582 329.27V503.09L251.266 507.309V323.312C251.266 313.35 258.335 301.109 266.96 296.135L353.38 246.264C362.02 241.275 369.074 245.355 369.074 255.317V439.315L361.712 443.564V261.63C361.712 256.133 357.816 253.87 353.041 256.626Z" fill="#E0E0E0"/>
<path d="M422.334 644.021C422.334 635.06 416.034 624.158 408.272 619.678C404.19 617.322 400.54 617.23 397.968 618.954L388.48 624.374L408.642 658.633L418.037 653.228V653.198C420.655 651.766 422.318 648.609 422.318 644.036L422.334 644.021Z" fill="#454C64"/>
<path d="M398.431 625.344C406.194 629.824 412.493 640.726 412.493 649.687C412.493 658.648 406.194 662.282 398.431 657.801C390.669 653.32 384.369 642.419 384.369 633.458C384.369 624.497 390.669 620.863 398.431 625.344Z" fill="#48494F"/>
<path d="M393.672 638.817C393.672 635.306 395.797 633.705 398.431 635.214C401.065 636.738 403.19 640.803 403.19 644.314C403.19 647.824 401.065 649.426 398.431 647.917C395.797 646.392 393.672 642.328 393.672 638.817Z" fill="#040F38"/>
<path d="M414.911 610.378C414.911 610.378 414.911 626.422 407.257 632.088C405.809 633.15 404.284 633.905 403.375 634.644C401.419 636.261 402.713 639.248 405.085 640.526C408.535 642.373 427.31 637.369 435.257 622.126L414.896 610.378H414.911Z" fill="#F0F0F0"/>
<path d="M407.626 614.566C407.626 614.566 407.626 630.61 399.971 636.277C398.524 637.339 396.999 638.093 396.09 638.832C394.134 640.449 395.428 643.436 397.8 644.714C401.25 646.562 420.025 641.558 427.972 626.314L407.611 614.566H407.626Z" fill="#FAFAFA"/>
<path d="M398.432 640.018C399.171 640.449 399.787 641.496 399.787 642.358C399.787 643.22 399.186 643.559 398.432 643.143C397.692 642.712 397.076 641.665 397.076 640.803C397.076 639.941 397.677 639.602 398.432 640.018Z" fill="#040F38"/>
<path d="M269.67 555.903C269.67 546.942 263.37 536.04 255.608 531.56C251.526 529.204 247.876 529.111 245.304 530.836L235.816 536.256L255.977 570.515L265.373 565.11V565.079C267.991 563.648 269.654 560.491 269.654 555.918L269.67 555.903Z" fill="#454C64"/>
<path d="M245.767 537.226C253.53 541.707 259.829 552.608 259.829 561.57C259.829 570.531 253.53 574.165 245.767 569.684C238.004 565.203 231.705 554.302 231.705 545.341C231.705 536.38 238.004 532.746 245.767 537.226Z" fill="#48494F"/>
<path d="M241.008 550.714C241.008 547.204 243.133 545.603 245.767 547.111C248.401 548.636 250.526 552.701 250.526 556.211C250.526 559.722 248.401 561.323 245.767 559.814C243.133 558.29 241.008 554.225 241.008 550.714Z" fill="#040F38"/>
<path d="M262.247 522.275C262.247 522.275 262.247 538.319 254.593 543.986C253.145 545.048 251.62 545.802 250.711 546.541C248.755 548.158 250.049 551.145 252.421 552.423C255.871 554.271 274.646 549.267 282.593 534.023L262.232 522.275H262.247Z" fill="#F0F0F0"/>
<path d="M254.962 526.464C254.962 526.464 254.962 542.508 247.307 548.174C245.86 549.236 244.335 549.991 243.426 550.73C241.47 552.347 242.764 555.334 245.136 556.612C248.586 558.459 267.361 553.455 275.308 538.212L254.947 526.464H254.962Z" fill="#FAFAFA"/>
<path d="M245.767 551.9C246.507 552.331 247.123 553.378 247.123 554.24C247.123 555.102 246.522 555.441 245.767 555.025C245.028 554.594 244.412 553.547 244.412 552.685C244.412 551.823 245.013 551.484 245.767 551.9Z" fill="#040F38"/>
<path d="M243.889 511.558L376.437 435.064L582.606 554.07L450.058 630.564L243.889 511.558Z" fill="#454C64"/>
<path d="M243.889 511.558V520.072L450.058 639.062V630.563L243.889 511.558Z" fill="#48494F"/>
<path d="M582.607 554.07V562.57L450.059 639.063V630.564L582.607 554.07Z" fill="#040F38"/>
<path d="M255.486 511.189L371.586 578.229L494.246 507.54L377.823 440.67L255.486 511.189Z" fill="#48494F"/>
<path d="M483.018 434.111L376.684 372.66L264.682 437.436L371.031 498.902L483.018 434.111Z" fill="#C8319A"/>
<path opacity="0.3" d="M483.018 434.111L376.684 372.66L264.682 437.436L371.031 498.902L483.018 434.111Z" fill="white"/>
<path d="M371.031 573.209L483.034 508.433V434.11L371.031 498.902V573.209Z" fill="#C8319A"/>
<path d="M384.077 546.326C383.63 546.326 383.215 546.218 382.845 546.003C381.859 545.433 381.305 544.186 381.305 542.585V532.499V531.729L381.813 531.822L389.729 527.172V538.443C389.729 541.307 388.02 544.54 385.833 545.803C385.232 546.141 384.647 546.326 384.092 546.326H384.077ZM382.552 533.238V542.569C382.552 543.709 382.891 544.555 383.461 544.894C384.031 545.217 384.708 544.971 385.171 544.709C386.942 543.693 388.436 540.814 388.436 538.443V537.611H385.509L384.924 533.654L382.537 533.223L382.552 533.238ZM386.618 536.349H388.451V529.389L383.738 532.161L386.079 532.576L386.634 536.349H386.618Z" fill="#454C64"/>
<path d="M385.493 554.364C385.139 554.364 384.861 554.087 384.861 553.733V545.264C384.861 544.91 385.139 544.633 385.493 544.633C385.847 544.633 386.124 544.91 386.124 545.264V553.733C386.124 554.087 385.847 554.364 385.493 554.364Z" fill="#454C64"/>
<path d="M381.812 556.488C381.597 556.488 381.381 556.38 381.258 556.164C381.088 555.857 381.181 555.472 381.489 555.302L388.851 551.053C389.143 550.868 389.544 550.976 389.713 551.284C389.883 551.591 389.79 551.976 389.482 552.146L382.12 556.395C382.028 556.457 381.905 556.488 381.797 556.488H381.812Z" fill="#454C64"/>
<path d="M408.057 541.907C407.811 541.907 407.58 541.845 407.364 541.722C406.887 541.445 406.609 540.89 406.609 540.198V538.458C406.609 538.103 406.887 537.826 407.241 537.826C407.595 537.826 407.872 538.103 407.872 538.458V540.198C407.872 540.459 407.949 540.598 407.996 540.629C408.042 540.659 408.196 540.644 408.411 540.521C408.966 540.198 409.597 538.935 409.597 537.657V526.386C409.597 526.032 409.875 525.755 410.229 525.755C410.583 525.755 410.86 526.032 410.86 526.386V537.657C410.86 539.304 410.09 541.014 409.058 541.614C408.719 541.814 408.381 541.907 408.057 541.907Z" fill="#454C64"/>
<path d="M401.373 532.052V530.959C401.373 525.801 405.008 519.488 409.49 516.901C411.785 515.577 413.972 515.392 415.635 516.362C417.314 517.332 418.238 519.319 418.238 521.951V522.321L401.373 532.052ZM413.294 517.024C412.339 517.024 411.261 517.348 410.121 518.01C406.317 520.196 403.175 525.308 402.698 529.82L416.96 521.582C416.883 519.596 416.19 518.133 415.004 517.455C414.495 517.163 413.926 517.024 413.294 517.024Z" fill="#454C64"/>
<path d="M430.837 528.912C430.482 528.912 430.205 528.635 430.205 528.281V506.709C430.205 506.355 430.482 506.078 430.837 506.078C431.191 506.078 431.468 506.355 431.468 506.709V528.281C431.468 528.635 431.191 528.912 430.837 528.912Z" fill="#454C64"/>
<path d="M428.989 511.621C428.896 511.621 428.819 511.605 428.742 511.575C428.419 511.436 428.28 511.066 428.419 510.743L430.683 505.523L433.193 508.433C433.424 508.695 433.394 509.096 433.132 509.327C432.854 509.558 432.469 509.527 432.238 509.265L431.037 507.879L429.574 511.236C429.466 511.467 429.235 511.621 428.989 511.621Z" fill="#454C64"/>
<path d="M436.706 525.57C436.351 525.57 436.074 525.293 436.074 524.939V503.368C436.074 503.013 436.351 502.736 436.706 502.736C437.06 502.736 437.337 503.013 437.337 503.368V524.939C437.337 525.293 437.06 525.57 436.706 525.57Z" fill="#454C64"/>
<path d="M434.842 508.279C434.75 508.279 434.673 508.264 434.596 508.233C434.272 508.094 434.134 507.725 434.272 507.402L436.536 502.197L439.047 505.107C439.278 505.369 439.247 505.769 438.985 506C438.708 506.231 438.323 506.201 438.092 505.939L436.891 504.553L435.427 507.91C435.32 508.141 435.089 508.295 434.842 508.295V508.279Z" fill="#454C64"/>
<path d="M371.031 573.21L264.682 511.744V437.437L371.031 498.902V573.21Z" fill="#C8319A"/>
<path opacity="0.1" d="M371.031 573.21L264.682 511.744V437.437L371.031 498.902V573.21Z" fill="black"/>
<path d="M278.127 482.382L309.332 500.396C310.102 500.843 310.733 501.936 310.733 502.829V524.509C310.733 526.295 309.47 527.018 307.93 526.125L276.726 508.11C275.956 507.664 275.324 506.571 275.324 505.678V483.998C275.324 482.212 276.587 481.489 278.143 482.382H278.127Z" fill="#FAFAFA"/>
<path d="M277.357 485.754L278.42 486.37V505.509L277.357 504.893V485.754Z" fill="#454C64"/>
<path d="M281.686 488.248L283.503 489.326V508.465L281.686 507.387V488.248Z" fill="#454C64"/>
<path d="M285.998 490.742L287.061 491.358V510.497L285.998 509.881V490.742Z" fill="#454C64"/>
<path d="M289.264 492.59L291.389 493.837V512.991L289.264 511.729V492.59Z" fill="#454C64"/>
<path d="M294.639 495.731L295.701 496.332V515.486L294.639 514.87V495.731Z" fill="#454C64"/>
<path d="M297.75 497.486L300.029 498.826V517.965L297.75 516.625V497.486Z" fill="#454C64"/>
<path d="M303.295 500.705L304.358 501.321V520.46L303.295 519.859V500.705Z" fill="#454C64"/>
<path d="M305.758 502.121L306.281 502.414V521.568L305.758 521.26V502.121Z" fill="#454C64"/>
<path d="M301.322 499.673L301.846 499.981V519.12L301.322 518.812V499.673Z" fill="#454C64"/>
<path d="M292.605 494.576L293.145 494.884V514.023L292.605 513.715V494.576Z" fill="#454C64"/>
<path d="M287.846 491.836L288.369 492.144V511.283L287.846 510.975V491.836Z" fill="#454C64"/>
<path d="M284.428 489.942L284.951 490.25V509.389L284.428 509.081V489.942Z" fill="#454C64"/>
<path d="M279.775 487.124L280.314 487.432L280.299 506.571L279.775 506.263V487.124Z" fill="#454C64"/>
<path d="M307.607 503.199L308.67 503.815V522.954L307.607 522.353V503.199Z" fill="#454C64"/>
<path d="M309.332 474.498L316.602 478.701V467.4L309.332 463.196V474.498Z" fill="#48494F"/>
<path d="M316.602 467.4L428.604 402.623L421.319 398.42L309.332 463.196L316.602 467.4Z" fill="#454C64"/>
<path opacity="0.1" d="M266.236 436.559L352.702 486.307L463.041 422.547L376.683 372.66L266.236 436.559Z" fill="black"/>
<path d="M454.294 351.027L368.197 301.417L266.422 360.265L352.518 409.86L454.294 351.027Z" fill="#C8319A"/>
<path opacity="0.7" d="M454.294 351.027L368.197 301.417L266.422 360.265L352.518 409.86L454.294 351.027Z" fill="white"/>
<path d="M352.518 481.227L454.293 422.394V351.027L352.518 409.86V481.227Z" fill="#C8319A"/>
<path opacity="0.6" d="M352.518 481.227L454.293 422.394V351.027L352.518 409.86V481.227Z" fill="white"/>
<path d="M366.318 453.789C365.933 453.789 365.579 453.697 365.24 453.512C364.393 453.019 363.9 451.926 363.9 450.54V441.779V441.117L364.347 441.194L371.216 437.16V446.953C371.216 449.447 369.722 452.249 367.828 453.358C367.304 453.651 366.796 453.805 366.318 453.805V453.789ZM365.009 442.411V450.525C365.009 451.51 365.302 452.249 365.795 452.542C366.288 452.835 366.873 452.604 367.289 452.373C368.829 451.48 370.123 448.985 370.123 446.922V446.198H367.581L367.073 442.765L365.009 442.395V442.411ZM368.536 445.105H370.123V439.054L366.026 441.456L368.059 441.81L368.536 445.09V445.105Z" fill="#454C64"/>
<path d="M367.566 460.78C367.258 460.78 367.012 460.534 367.012 460.226V452.866C367.012 452.558 367.258 452.312 367.566 452.312C367.874 452.312 368.121 452.558 368.121 452.866V460.226C368.121 460.534 367.874 460.78 367.566 460.78Z" fill="#454C64"/>
<path d="M364.363 462.612C364.178 462.612 363.993 462.52 363.885 462.335C363.731 462.073 363.824 461.735 364.086 461.581L370.493 457.885C370.755 457.731 371.093 457.824 371.247 458.085C371.401 458.347 371.309 458.686 371.047 458.84L364.64 462.535C364.548 462.581 364.455 462.612 364.363 462.612Z" fill="#454C64"/>
<path d="M387.173 449.939C386.957 449.939 386.757 449.893 386.572 449.785C386.157 449.538 385.91 449.061 385.91 448.461V446.952C385.91 446.644 386.157 446.397 386.465 446.397C386.773 446.397 387.019 446.644 387.019 446.952V448.461C387.019 448.692 387.081 448.799 387.127 448.83C387.173 448.861 387.296 448.83 387.481 448.738C387.974 448.445 388.513 447.352 388.513 446.243V436.451C388.513 436.143 388.76 435.896 389.068 435.896C389.376 435.896 389.622 436.143 389.622 436.451V446.243C389.622 447.675 388.944 449.154 388.051 449.677C387.758 449.846 387.466 449.939 387.189 449.939H387.173Z" fill="#454C64"/>
<path d="M381.367 441.378V440.423C381.367 435.927 384.525 430.446 388.421 428.213C390.408 427.074 392.318 426.905 393.766 427.736C395.229 428.583 396.03 430.307 396.03 432.602V432.925L381.367 441.394V441.378ZM391.733 428.306C390.901 428.306 389.961 428.598 388.976 429.153C385.68 431.062 382.938 435.496 382.522 439.423L394.921 432.263C394.859 430.538 394.259 429.276 393.211 428.675C392.765 428.429 392.272 428.29 391.717 428.29L391.733 428.306Z" fill="#454C64"/>
<path d="M406.978 438.654C406.67 438.654 406.424 438.407 406.424 438.099V419.345C406.424 419.037 406.67 418.791 406.978 418.791C407.286 418.791 407.533 419.037 407.533 419.345V438.099C407.533 438.407 407.286 438.654 406.978 438.654Z" fill="#454C64"/>
<path d="M405.377 423.61C405.377 423.61 405.223 423.61 405.161 423.564C404.884 423.441 404.761 423.117 404.869 422.84L406.825 418.313L409.012 420.839C409.212 421.07 409.181 421.408 408.95 421.609C408.719 421.809 408.365 421.778 408.165 421.547L407.133 420.346L405.87 423.271C405.778 423.472 405.577 423.61 405.362 423.61H405.377Z" fill="#454C64"/>
<path d="M412.076 435.743C411.768 435.743 411.521 435.497 411.521 435.189V416.435C411.521 416.127 411.768 415.881 412.076 415.881C412.384 415.881 412.63 416.127 412.63 416.435V435.189C412.63 435.497 412.384 435.743 412.076 435.743Z" fill="#454C64"/>
<path d="M410.475 420.7C410.475 420.7 410.321 420.7 410.259 420.654C409.982 420.531 409.859 420.207 409.967 419.93L411.923 415.403L414.11 417.928C414.31 418.159 414.279 418.498 414.048 418.698C413.817 418.898 413.463 418.868 413.263 418.637L412.215 417.436L410.952 420.361C410.86 420.561 410.66 420.7 410.444 420.7H410.475Z" fill="#454C64"/>
<path d="M352.518 481.227L266.422 431.632V360.266L352.518 409.86V481.227Z" fill="#C8319A"/>
<path opacity="0.4" d="M352.518 481.227L266.422 431.632V360.266L352.518 409.86V481.227Z" fill="white"/>
<path d="M278.127 400.929L309.332 418.944C310.102 419.391 310.733 420.484 310.733 421.377V443.056C310.733 444.842 309.47 445.566 307.93 444.673L276.726 426.658C275.956 426.212 275.324 425.119 275.324 424.225V402.546C275.324 400.76 276.587 400.036 278.143 400.929H278.127Z" fill="#FAFAFA"/>
<path d="M277.357 404.302L278.42 404.918V424.056L277.357 423.441V404.302Z" fill="#454C64"/>
<path d="M281.686 406.796L283.503 407.874V427.012L281.686 425.935V406.796Z" fill="#454C64"/>
<path d="M285.998 409.29L287.061 409.891V429.045L285.998 428.429V409.29Z" fill="#454C64"/>
<path d="M289.264 411.138L291.389 412.385V431.539L289.264 430.277V411.138Z" fill="#454C64"/>
<path d="M294.639 414.279L295.701 414.88V434.019L294.639 433.418V414.279Z" fill="#454C64"/>
<path d="M297.75 416.034L300.029 417.374V436.513L297.75 435.173V416.034Z" fill="#454C64"/>
<path d="M303.295 419.253L304.358 419.869V439.008L303.295 438.407V419.253Z" fill="#454C64"/>
<path d="M305.758 420.669L306.281 420.961V440.116L305.758 439.808V420.669Z" fill="#454C64"/>
<path d="M301.322 418.221L301.846 418.529V437.667L301.322 437.359V418.221Z" fill="#454C64"/>
<path d="M292.605 413.124L293.145 413.432V432.571L292.605 432.263V413.124Z" fill="#454C64"/>
<path d="M287.846 410.384L288.369 410.692V429.831L287.846 429.523V410.384Z" fill="#454C64"/>
<path d="M284.428 408.49L284.951 408.798V427.937L284.428 427.629V408.49Z" fill="#454C64"/>
<path d="M279.775 405.672L280.314 405.98L280.299 425.119L279.775 424.811V405.672Z" fill="#454C64"/>
<path d="M307.607 421.747L308.67 422.363V441.502L307.607 440.901V421.747Z" fill="#454C64"/>
<path d="M301.969 393.185L310.086 397.866V385.286L301.969 380.605V393.185Z" fill="#48494F"/>
<path d="M310.086 385.286L411.861 326.453L403.76 321.772L301.969 380.605L310.086 385.286Z" fill="#454C64"/>
<path d="M485.221 539.567C494.909 545.156 510.634 545.156 520.322 539.567C530.009 533.978 530.009 524.893 520.322 519.304C510.634 513.715 494.909 513.715 485.221 519.304C475.533 524.893 475.533 533.978 485.221 539.567Z" fill="#48494F"/>
<path d="M523.694 528.574H523.725V486.739H481.801V528.574H481.832C481.662 531.792 483.68 535.056 487.946 537.519C496.124 542.246 509.401 542.246 517.595 537.519C521.861 535.056 523.879 531.807 523.709 528.574H523.694Z" fill="#EBEBEB"/>
<path d="M487.946 495.284C496.125 500.011 509.401 500.011 517.595 495.284C525.789 490.557 525.773 482.905 517.595 478.178C509.416 473.451 496.14 473.451 487.946 478.178C479.768 482.905 479.768 490.557 487.946 495.284Z" fill="#FAFAFA"/>
<path d="M488.854 494.576C496.54 498.918 509 498.918 516.685 494.576C524.371 490.234 524.371 483.197 516.685 478.871C509 474.529 496.54 474.529 488.854 478.871C481.168 483.213 481.168 490.249 488.854 494.576Z" fill="#EBEBEB"/>
<path d="M516.686 480.903C509.001 476.561 496.541 476.561 488.855 480.903C485.467 482.812 483.588 485.245 483.172 487.739C483.572 490.234 485.467 492.667 488.855 494.576C496.541 498.918 509.001 498.918 516.686 494.576C520.075 492.667 521.954 490.234 522.37 487.739C521.969 485.245 520.075 482.812 516.686 480.903Z" fill="#F5F5F5"/>
<path d="M481.817 521.49C481.786 524.6 483.834 527.726 487.962 530.113C496.141 534.84 509.417 534.84 517.611 530.113C521.708 527.757 523.756 524.647 523.756 521.552V493.544C523.756 496.639 521.708 499.734 517.611 502.105C509.432 506.832 496.156 506.832 487.962 502.105C483.834 499.734 481.801 496.608 481.817 493.482V521.49Z" fill="#C8319A"/>
<path opacity="0.3" d="M481.817 521.49C481.786 524.6 483.834 527.726 487.962 530.113C496.141 534.84 509.417 534.84 517.611 530.113C521.708 527.757 523.756 524.647 523.756 521.552V493.544C523.756 496.639 521.708 499.734 517.611 502.105C509.432 506.832 496.156 506.832 487.962 502.105C483.834 499.734 481.801 496.608 481.817 493.482V521.49Z" fill="black"/>
<path opacity="0.1" d="M511.357 539.983C503.656 541.969 494.277 541.168 487.962 537.504C483.695 535.056 481.678 531.807 481.847 528.558H481.816V486.724C481.816 489.818 483.865 492.929 487.962 495.285C488.609 495.654 491.396 497.363 496.541 498.272V533.655C496.541 537.15 501.669 541.322 511.373 539.983H511.357Z" fill="black"/>
<path d="M507.553 494.191L505.335 492.913C503.533 491.866 503.04 490.465 504.257 489.757C505.473 489.064 507.907 489.341 509.709 490.373L511.927 491.651C513.729 492.698 514.222 494.099 513.005 494.807C511.788 495.5 509.355 495.223 507.553 494.191Z" fill="#E0E0E0"/>
<path d="M505.227 491.697C505.889 492.082 506.952 492.082 507.614 491.697C508.277 491.312 508.277 490.696 507.614 490.311C506.952 489.926 505.889 489.926 505.227 490.311C504.565 490.696 504.565 491.312 505.227 491.697Z" fill="#F5F5F5"/>
<path d="M509.631 494.084C510.294 494.469 511.356 494.469 512.019 494.084C512.681 493.699 512.681 493.083 512.019 492.698C511.356 492.313 510.294 492.313 509.631 492.698C508.969 493.083 508.969 493.699 509.631 494.084Z" fill="#F5F5F5"/>
<path d="M454.154 557.505C463.842 563.095 479.568 563.095 489.255 557.505C498.943 551.916 498.943 542.832 489.255 537.243C479.568 531.653 463.842 531.653 454.154 537.243C444.467 542.832 444.467 551.916 454.154 557.505Z" fill="#48494F"/>
<path d="M492.627 546.496H492.658V504.662H450.734V546.496H450.765C450.596 549.714 452.613 552.979 456.88 555.442C465.058 560.169 478.335 560.169 486.528 555.442C490.795 552.979 492.812 549.73 492.643 546.496H492.627Z" fill="#EBEBEB"/>
<path d="M456.88 513.207C465.058 517.934 478.335 517.934 486.528 513.207C494.707 508.48 494.707 500.828 486.528 496.101C478.35 491.374 465.074 491.374 456.88 496.101C448.701 500.828 448.701 508.48 456.88 513.207Z" fill="#FAFAFA"/>
<path d="M457.788 512.514C465.473 516.856 477.933 516.856 485.619 512.514C493.304 508.172 493.304 501.136 485.619 496.809C477.933 492.467 465.473 492.467 457.788 496.809C450.102 501.151 450.102 508.188 457.788 512.514Z" fill="#EBEBEB"/>
<path d="M485.62 498.826C477.934 494.484 465.474 494.484 457.789 498.826C454.4 500.735 452.521 503.168 452.105 505.662C452.506 508.157 454.4 510.589 457.789 512.499C465.474 516.841 477.934 516.841 485.62 512.499C489.008 510.589 490.887 508.157 491.303 505.662C490.903 503.168 489.008 500.735 485.62 498.826Z" fill="#F5F5F5"/>
<path d="M450.75 539.429C450.72 542.539 452.768 545.664 456.896 548.051C465.074 552.778 478.35 552.778 486.544 548.051C490.641 545.695 492.69 542.585 492.69 539.49V511.483C492.69 514.577 490.641 517.672 486.544 520.043C478.366 524.77 465.089 524.77 456.896 520.043C452.768 517.672 450.735 514.547 450.75 511.421V539.429Z" fill="#C8319A"/>
<path opacity="0.3" d="M450.75 539.429C450.72 542.539 452.768 545.664 456.896 548.051C465.074 552.778 478.35 552.778 486.544 548.051C490.641 545.695 492.69 542.585 492.69 539.49V511.483C492.69 514.577 490.641 517.672 486.544 520.043C478.366 524.77 465.089 524.77 456.896 520.043C452.768 517.672 450.735 514.547 450.75 511.421V539.429Z" fill="black"/>
<path opacity="0.1" d="M480.291 557.906C472.59 559.892 463.21 559.091 456.895 555.427C452.629 552.979 450.611 549.73 450.781 546.481H450.75V504.646C450.75 507.741 452.798 510.852 456.895 513.207C457.542 513.577 460.33 515.286 465.474 516.194V551.577C465.474 555.073 470.603 559.245 480.306 557.906H480.291Z" fill="black"/>
<path d="M476.486 512.114L474.268 510.836C472.466 509.789 471.974 508.388 473.19 507.679C474.407 506.987 476.84 507.264 478.642 508.295L480.86 509.573C482.662 510.62 483.155 512.022 481.938 512.73C480.722 513.423 478.288 513.146 476.486 512.114Z" fill="#E0E0E0"/>
<path d="M474.161 509.635C474.823 510.02 475.886 510.02 476.548 509.635C477.21 509.25 477.21 508.635 476.548 508.25C475.886 507.865 474.823 507.865 474.161 508.25C473.498 508.635 473.498 509.25 474.161 509.635Z" fill="#F5F5F5"/>
<path d="M478.565 512.006C479.227 512.391 480.29 512.391 480.952 512.006C481.615 511.622 481.615 511.006 480.952 510.621C480.29 510.236 479.227 510.236 478.565 510.621C477.903 511.006 477.903 511.622 478.565 512.006Z" fill="#F5F5F5"/>
<path d="M423.09 575.427C432.778 581.017 448.503 581.017 458.191 575.427C467.879 569.838 467.879 560.754 458.191 555.165C448.503 549.575 432.778 549.575 423.09 555.165C413.402 560.754 413.402 569.838 423.09 575.427Z" fill="#48494F"/>
<path d="M461.563 564.434H461.594V522.6H419.67V564.434H419.701C419.531 567.652 421.549 570.916 425.815 573.38C433.994 578.107 447.27 578.107 455.464 573.38C459.73 570.916 461.748 567.667 461.578 564.434H461.563Z" fill="#EBEBEB"/>
<path d="M425.815 531.145C433.994 535.872 447.27 535.872 455.464 531.145C463.642 526.418 463.642 518.765 455.464 514.038C447.286 509.311 434.009 509.311 425.815 514.038C417.637 518.765 417.637 526.418 425.815 531.145Z" fill="#FAFAFA"/>
<path d="M426.723 530.436C434.409 534.778 446.869 534.778 454.554 530.436C462.24 526.094 462.24 519.058 454.554 514.731C446.869 510.389 434.409 510.389 426.723 514.731C419.038 519.073 419.038 526.11 426.723 530.436Z" fill="#EBEBEB"/>
<path d="M454.555 516.763C446.87 512.421 434.41 512.421 426.724 516.763C423.336 518.673 421.457 521.105 421.041 523.6C421.441 526.094 423.336 528.527 426.724 530.436C434.41 534.778 446.87 534.778 454.555 530.436C457.944 528.527 459.823 526.094 460.239 523.6C459.838 521.105 457.944 518.673 454.555 516.763Z" fill="#F5F5F5"/>
<path d="M419.686 557.351C419.655 560.462 421.704 563.587 425.831 565.974C434.01 570.701 447.286 570.701 455.48 565.974C459.577 563.618 461.625 560.508 461.625 557.413V529.405C461.625 532.5 459.577 535.595 455.48 537.966C447.301 542.693 434.025 542.693 425.831 537.966C421.704 535.595 419.67 532.469 419.686 529.344V557.351Z" fill="#C8319A"/>
<path opacity="0.3" d="M419.686 557.351C419.655 560.462 421.704 563.587 425.831 565.974C434.01 570.701 447.286 570.701 455.48 565.974C459.577 563.618 461.625 560.508 461.625 557.413V529.405C461.625 532.5 459.577 535.595 455.48 537.966C447.301 542.693 434.025 542.693 425.831 537.966C421.704 535.595 419.67 532.469 419.686 529.344V557.351Z" fill="black"/>
<path d="M445.422 530.051L443.204 528.773C441.402 527.726 440.909 526.325 442.126 525.617C443.343 524.924 445.776 525.201 447.578 526.233L449.796 527.511C451.598 528.558 452.091 529.959 450.874 530.667C449.657 531.36 447.224 531.083 445.422 530.051Z" fill="#E0E0E0"/>
<path d="M443.096 527.557C443.759 527.942 444.821 527.942 445.484 527.557C446.146 527.172 446.146 526.556 445.484 526.172C444.821 525.787 443.759 525.787 443.096 526.172C442.434 526.556 442.434 527.172 443.096 527.557Z" fill="#F5F5F5"/>
<path d="M447.501 529.944C448.163 530.329 449.226 530.329 449.888 529.944C450.55 529.559 450.55 528.943 449.888 528.558C449.226 528.173 448.163 528.173 447.501 528.558C446.838 528.943 446.838 529.559 447.501 529.944Z" fill="#F5F5F5"/>
<path opacity="0.1" d="M449.226 575.843C441.525 577.829 432.146 577.029 425.831 573.364C421.565 570.916 419.547 567.667 419.716 564.418H419.686V522.584C419.686 525.679 421.734 528.789 425.831 531.145C426.478 531.514 429.266 533.223 434.41 534.132V569.515C434.41 573.01 439.539 577.183 449.242 575.843H449.226Z" fill="black"/>
<path d="M392.024 593.365C401.711 598.954 417.437 598.954 427.124 593.365C436.812 587.776 436.812 578.691 427.124 573.102C417.437 567.513 401.711 567.513 392.024 573.102C382.336 578.691 382.336 587.776 392.024 593.365Z" fill="#48494F"/>
<path d="M430.497 582.356H430.527V540.521H388.604V582.356H388.634C388.465 585.574 390.483 588.838 394.749 591.302C402.927 596.029 416.204 596.029 424.397 591.302C428.664 588.838 430.681 585.589 430.512 582.356H430.497Z" fill="#EBEBEB"/>
<path d="M394.749 549.067C402.927 553.794 416.204 553.794 424.398 549.067C432.576 544.34 432.576 536.687 424.398 531.96C416.219 527.233 402.943 527.233 394.749 531.96C386.571 536.687 386.571 544.34 394.749 549.067Z" fill="#FAFAFA"/>
<path d="M395.657 548.374C403.342 552.716 415.802 552.716 423.488 548.374C431.173 544.032 431.173 536.995 423.488 532.669C415.802 528.327 403.342 528.327 395.657 532.669C387.971 537.011 387.971 544.047 395.657 548.374Z" fill="#EBEBEB"/>
<path d="M423.489 534.701C415.804 530.359 403.343 530.359 395.658 534.701C392.27 536.61 390.39 539.043 389.975 541.537C390.375 544.032 392.27 546.464 395.658 548.374C403.343 552.716 415.804 552.716 423.489 548.374C426.877 546.464 428.756 544.032 429.172 541.537C428.772 539.043 426.877 536.61 423.489 534.701Z" fill="#F5F5F5"/>
<path d="M388.619 575.288C388.589 578.398 390.637 581.524 394.765 583.91C402.943 588.637 416.22 588.637 424.413 583.91C428.51 581.555 430.559 578.444 430.559 575.35V547.342C430.559 550.437 428.51 553.532 424.413 555.903C416.235 560.63 402.959 560.63 394.765 555.903C390.637 553.532 388.604 550.406 388.619 547.28V575.288Z" fill="#C8319A"/>
<path opacity="0.3" d="M388.619 575.288C388.589 578.398 390.637 581.524 394.765 583.91C402.943 588.637 416.22 588.637 424.413 583.91C428.51 581.555 430.559 578.444 430.559 575.35V547.342C430.559 550.437 428.51 553.532 424.413 555.903C416.235 560.63 402.959 560.63 394.765 555.903C390.637 553.532 388.604 550.406 388.619 547.28V575.288Z" fill="black"/>
<path opacity="0.1" d="M418.16 593.781C410.459 595.767 401.079 594.966 394.764 591.302C390.498 588.854 388.481 585.605 388.65 582.356H388.619V540.521C388.619 543.616 390.668 546.727 394.764 549.082C395.411 549.452 398.199 551.161 403.343 552.069V587.452C403.343 590.948 408.472 595.12 418.175 593.781H418.16Z" fill="black"/>
<path d="M414.355 547.973L412.137 546.695C410.335 545.648 409.843 544.247 411.059 543.539C412.276 542.846 414.71 543.123 416.512 544.155L418.729 545.433C420.532 546.48 421.024 547.881 419.808 548.589C418.591 549.282 416.157 549.005 414.355 547.973Z" fill="#E0E0E0"/>
<path d="M412.03 545.495C412.692 545.88 413.755 545.88 414.417 545.495C415.08 545.11 415.08 544.494 414.417 544.109C413.755 543.724 412.692 543.724 412.03 544.109C411.368 544.494 411.368 545.11 412.03 545.495Z" fill="#F5F5F5"/>
<path d="M416.434 547.866C417.096 548.251 418.159 548.251 418.821 547.866C419.484 547.481 419.484 546.865 418.821 546.48C418.159 546.095 417.096 546.095 416.434 546.48C415.772 546.865 415.772 547.481 416.434 547.866Z" fill="#F5F5F5"/>
<path d="M516.01 557.366C525.698 562.955 541.423 562.955 551.111 557.366C560.799 551.777 560.799 542.692 551.111 537.103C541.423 531.514 525.698 531.514 516.01 537.103C506.322 542.692 506.322 551.777 516.01 557.366Z" fill="#48494F"/>
<path d="M554.498 546.357H554.529V504.522H512.605V546.357H512.636C512.467 549.575 514.484 552.839 518.751 555.303C526.929 560.03 540.206 560.03 548.399 555.303C552.666 552.839 554.683 549.59 554.514 546.357H554.498Z" fill="#EBEBEB"/>
<path d="M518.751 513.068C526.929 517.795 540.206 517.795 548.4 513.068C556.578 508.341 556.578 500.688 548.4 495.961C540.221 491.234 526.945 491.234 518.751 495.961C510.573 500.688 510.573 508.341 518.751 513.068Z" fill="#FAFAFA"/>
<path d="M519.661 512.375C527.346 516.717 539.806 516.717 547.492 512.375C555.177 508.033 555.177 500.996 547.492 496.67C539.806 492.328 527.346 492.328 519.661 496.67C511.975 501.012 511.975 508.048 519.661 512.375Z" fill="#EBEBEB"/>
<path d="M547.491 498.702C539.805 494.36 527.345 494.36 519.66 498.702C516.271 500.611 514.392 503.044 513.977 505.538C514.377 508.033 516.271 510.465 519.66 512.375C527.345 516.717 539.805 516.717 547.491 512.375C550.879 510.465 552.758 508.033 553.174 505.538C552.774 503.044 550.879 500.611 547.491 498.702Z" fill="#F5F5F5"/>
<path d="M512.606 539.289C512.575 542.399 514.623 545.525 518.751 547.911C526.93 552.638 540.206 552.638 548.4 547.911C552.497 545.556 554.545 542.445 554.545 539.35V511.343C554.545 514.438 552.497 517.533 548.4 519.904C540.221 524.631 526.945 524.631 518.751 519.904C514.623 517.533 512.59 514.407 512.606 511.281V539.289Z" fill="#C8319A"/>
<path opacity="0.3" d="M512.606 539.289C512.575 542.399 514.623 545.525 518.751 547.911C526.93 552.638 540.206 552.638 548.4 547.911C552.497 545.556 554.545 542.445 554.545 539.35V511.343C554.545 514.438 552.497 517.533 548.4 519.904C540.221 524.631 526.945 524.631 518.751 519.904C514.623 517.533 512.59 514.407 512.606 511.281V539.289Z" fill="black"/>
<path opacity="0.1" d="M542.146 557.782C534.445 559.768 525.066 558.967 518.751 555.303C514.484 552.854 512.467 549.606 512.636 546.357H512.605V504.522C512.605 507.617 514.654 510.728 518.751 513.083C519.398 513.453 522.185 515.162 527.33 516.07V551.453C527.33 554.948 532.458 559.121 542.162 557.782H542.146Z" fill="black"/>
<path d="M538.357 511.974L536.139 510.696C534.337 509.649 533.845 508.248 535.061 507.54C536.278 506.847 538.712 507.124 540.514 508.156L542.731 509.434C544.533 510.481 545.026 511.882 543.81 512.59C542.593 513.283 540.159 513.006 538.357 511.974Z" fill="#E0E0E0"/>
<path d="M536.032 509.496C536.694 509.881 537.757 509.881 538.419 509.496C539.081 509.111 539.081 508.495 538.419 508.11C537.757 507.725 536.694 507.725 536.032 508.11C535.37 508.495 535.37 509.111 536.032 509.496Z" fill="#F5F5F5"/>
<path d="M540.436 511.867C541.098 512.252 542.161 512.252 542.823 511.867C543.486 511.482 543.486 510.866 542.823 510.481C542.161 510.096 541.098 510.096 540.436 510.481C539.774 510.866 539.774 511.482 540.436 511.867Z" fill="#F5F5F5"/>
<path d="M484.944 575.288C494.631 580.877 510.357 580.877 520.044 575.288C529.732 569.699 529.732 560.614 520.044 555.025C510.357 549.436 494.631 549.436 484.944 555.025C475.256 560.614 475.256 569.699 484.944 575.288Z" fill="#48494F"/>
<path d="M523.432 564.294H523.463V522.46H481.539V564.294H481.57C481.4 567.512 483.418 570.777 487.684 573.24C495.863 577.967 509.139 577.967 517.333 573.24C521.599 570.777 523.617 567.528 523.448 564.294H523.432Z" fill="#EBEBEB"/>
<path d="M487.685 531.005C495.863 535.732 509.139 535.732 517.333 531.005C525.512 526.278 525.512 518.626 517.333 513.899C509.155 509.172 495.878 509.172 487.685 513.899C479.506 518.626 479.506 526.278 487.685 531.005Z" fill="#FAFAFA"/>
<path d="M488.594 530.312C496.28 534.654 508.74 534.654 516.425 530.312C524.111 525.97 524.111 518.934 516.425 514.607C508.74 510.265 496.28 510.265 488.594 514.607C480.909 518.949 480.909 525.986 488.594 530.312Z" fill="#EBEBEB"/>
<path d="M516.425 516.624C508.739 512.282 496.279 512.282 488.593 516.624C485.205 518.533 483.326 520.966 482.91 523.46C483.311 525.954 485.205 528.387 488.593 530.296C496.279 534.639 508.739 534.639 516.425 530.296C519.813 528.387 521.692 525.954 522.108 523.46C521.707 520.966 519.813 518.533 516.425 516.624Z" fill="#F5F5F5"/>
<path d="M481.539 557.211C481.509 560.321 483.557 563.447 487.685 565.833C495.863 570.56 509.14 570.56 517.333 565.833C521.43 563.477 523.479 560.367 523.479 557.272V529.265C523.479 532.36 521.43 535.454 517.333 537.826C509.155 542.553 495.879 542.553 487.685 537.826C483.557 535.454 481.524 532.329 481.539 529.203V557.211Z" fill="#C8319A"/>
<path opacity="0.3" d="M481.539 557.211C481.509 560.321 483.557 563.447 487.685 565.833C495.863 570.56 509.14 570.56 517.333 565.833C521.43 563.477 523.479 560.367 523.479 557.272V529.265C523.479 532.36 521.43 535.454 517.333 537.826C509.155 542.553 495.879 542.553 487.685 537.826C483.557 535.454 481.524 532.329 481.539 529.203V557.211Z" fill="black"/>
<path opacity="0.1" d="M511.08 575.703C503.379 577.69 493.999 576.889 487.684 573.225C483.418 570.776 481.4 567.528 481.57 564.279H481.539V522.444C481.539 525.539 483.588 528.649 487.684 531.005C488.331 531.375 491.119 533.084 496.263 533.992V569.375C496.263 572.87 501.392 577.043 511.095 575.703H511.08Z" fill="black"/>
<path d="M507.291 529.912L505.073 528.634C503.271 527.587 502.778 526.186 503.995 525.477C505.212 524.784 507.645 525.062 509.447 526.093L511.665 527.371C513.467 528.418 513.96 529.819 512.743 530.528C511.526 531.221 509.093 530.943 507.291 529.912Z" fill="#E0E0E0"/>
<path d="M504.965 527.418C505.628 527.803 506.69 527.803 507.353 527.418C508.015 527.033 508.015 526.417 507.353 526.032C506.69 525.647 505.628 525.647 504.965 526.032C504.303 526.417 504.303 527.033 504.965 527.418Z" fill="#F5F5F5"/>
<path d="M509.37 529.804C510.032 530.189 511.095 530.189 511.757 529.804C512.419 529.419 512.419 528.804 511.757 528.419C511.095 528.034 510.032 528.034 509.37 528.419C508.707 528.804 508.707 529.419 509.37 529.804Z" fill="#F5F5F5"/>
<path d="M453.879 593.226C463.567 598.815 479.292 598.815 488.98 593.226C498.668 587.637 498.668 578.553 488.98 572.963C479.292 567.374 463.567 567.374 453.879 572.963C444.191 578.553 444.191 587.637 453.879 593.226Z" fill="#48494F"/>
<path d="M492.368 582.217H492.398V540.383H450.475V582.217H450.505C450.336 585.435 452.354 588.699 456.62 591.163C464.798 595.89 478.075 595.89 486.269 591.163C490.535 588.699 492.552 585.451 492.383 582.217H492.368Z" fill="#EBEBEB"/>
<path d="M456.62 548.928C464.799 553.655 478.075 553.655 486.269 548.928C494.447 544.201 494.447 536.549 486.269 531.822C478.09 527.095 464.814 527.095 456.62 531.822C448.442 536.549 448.442 544.201 456.62 548.928Z" fill="#FAFAFA"/>
<path d="M457.53 548.235C465.215 552.577 477.675 552.577 485.361 548.235C493.046 543.893 493.046 536.857 485.361 532.53C477.675 528.188 465.215 528.188 457.53 532.53C449.844 536.872 449.844 543.909 457.53 548.235Z" fill="#EBEBEB"/>
<path d="M485.36 534.562C477.675 530.22 465.215 530.22 457.529 534.562C454.141 536.471 452.262 538.904 451.846 541.399C452.246 543.893 454.141 546.326 457.529 548.235C465.215 552.577 477.675 552.577 485.36 548.235C488.749 546.326 490.628 543.893 491.043 541.399C490.643 538.904 488.749 536.471 485.36 534.562Z" fill="#F5F5F5"/>
<path d="M450.475 575.149C450.444 578.259 452.493 581.385 456.62 583.772C464.799 588.499 478.075 588.499 486.269 583.772C490.366 581.416 492.414 578.306 492.414 575.211V547.203C492.414 550.298 490.366 553.393 486.269 555.764C478.09 560.491 464.814 560.491 456.62 555.764C452.493 553.393 450.46 550.267 450.475 547.142V575.149Z" fill="#C8319A"/>
<path opacity="0.3" d="M450.475 575.149C450.444 578.259 452.493 581.385 456.62 583.772C464.799 588.499 478.075 588.499 486.269 583.772C490.366 581.416 492.414 578.306 492.414 575.211V547.203C492.414 550.298 490.366 553.393 486.269 555.764C478.09 560.491 464.814 560.491 456.62 555.764C452.493 553.393 450.46 550.267 450.475 547.142V575.149Z" fill="black"/>
<path d="M476.226 547.85L474.009 546.572C472.207 545.525 471.714 544.124 472.93 543.416C474.147 542.723 476.581 543 478.383 544.032L480.601 545.31C482.403 546.357 482.895 547.758 481.679 548.466C480.462 549.159 478.029 548.882 476.226 547.85Z" fill="#E0E0E0"/>
<path d="M473.901 545.356C474.563 545.741 475.626 545.741 476.288 545.356C476.951 544.971 476.951 544.355 476.288 543.97C475.626 543.585 474.563 543.585 473.901 543.97C473.239 544.355 473.239 544.971 473.901 545.356Z" fill="#F5F5F5"/>
<path d="M478.305 547.727C478.968 548.112 480.03 548.112 480.693 547.727C481.355 547.342 481.355 546.726 480.693 546.341C480.03 545.957 478.968 545.957 478.305 546.341C477.643 546.726 477.643 547.342 478.305 547.727Z" fill="#F5F5F5"/>
<path opacity="0.1" d="M480.031 593.642C472.33 595.628 462.95 594.828 456.636 591.163C452.369 588.715 450.352 585.466 450.521 582.217H450.49V540.383C450.49 543.478 452.539 546.588 456.636 548.944C457.282 549.313 460.07 551.022 465.214 551.931V587.314C465.214 590.809 470.343 594.982 480.046 593.642H480.031Z" fill="black"/>
<path d="M422.813 611.148C432.5 616.737 448.226 616.737 457.914 611.148C467.601 605.559 467.601 596.474 457.914 590.885C448.226 585.296 432.5 585.296 422.813 590.885C413.125 596.474 413.125 605.559 422.813 611.148Z" fill="#48494F"/>
<path d="M461.301 600.155H461.332V558.32H419.408V600.155H419.439C419.27 603.373 421.287 606.637 425.554 609.101C433.732 613.827 447.008 613.827 455.202 609.101C459.468 606.637 461.486 603.388 461.317 600.155H461.301Z" fill="#EBEBEB"/>
<path d="M425.554 566.865C433.732 571.592 447.009 571.592 455.202 566.865C463.381 562.139 463.381 554.486 455.202 549.759C447.024 545.032 433.748 545.032 425.554 549.759C417.375 554.486 417.375 562.139 425.554 566.865Z" fill="#FAFAFA"/>
<path d="M426.463 566.173C434.149 570.515 446.609 570.515 454.294 566.173C461.98 561.831 461.98 554.794 454.294 550.467C446.609 546.125 434.149 546.125 426.463 550.467C418.778 554.809 418.778 561.846 426.463 566.173Z" fill="#EBEBEB"/>
<path d="M454.294 552.484C446.608 548.142 434.148 548.142 426.463 552.484C423.074 554.393 421.195 556.826 420.779 559.32C421.18 561.815 423.074 564.248 426.463 566.157C434.148 570.499 446.608 570.499 454.294 566.157C457.682 564.248 459.561 561.815 459.977 559.32C459.577 556.826 457.682 554.393 454.294 552.484Z" fill="#F5F5F5"/>
<path d="M419.409 593.087C419.378 596.197 421.426 599.323 425.554 601.709C433.732 606.436 447.009 606.436 455.202 601.709C459.299 599.353 461.348 596.243 461.348 593.148V565.141C461.348 568.236 459.299 571.33 455.202 573.702C447.024 578.429 433.748 578.429 425.554 573.702C421.426 571.33 419.393 568.205 419.409 565.079V593.087Z" fill="#C8319A"/>
<path opacity="0.3" d="M419.409 593.087C419.378 596.197 421.426 599.323 425.554 601.709C433.732 606.436 447.009 606.436 455.202 601.709C459.299 599.353 461.348 596.243 461.348 593.148V565.141C461.348 568.236 459.299 571.33 455.202 573.702C447.024 578.429 433.748 578.429 425.554 573.702C421.426 571.33 419.393 568.205 419.409 565.079V593.087Z" fill="black"/>
<path opacity="0.1" d="M448.949 611.564C441.248 613.55 431.868 612.749 425.554 609.085C421.287 606.637 419.27 603.388 419.439 600.139H419.408V558.305C419.408 561.4 421.457 564.51 425.554 566.866C426.2 567.235 428.988 568.944 434.132 569.853V605.236C434.132 608.731 439.261 612.903 448.964 611.564H448.949Z" fill="black"/>
<path d="M445.16 565.772L442.942 564.494C441.14 563.447 440.647 562.046 441.864 561.338C443.081 560.645 445.514 560.922 447.316 561.954L449.534 563.232C451.336 564.279 451.829 565.68 450.612 566.388C449.396 567.081 446.962 566.804 445.16 565.772Z" fill="#E0E0E0"/>
<path d="M442.835 563.278C443.497 563.663 444.56 563.663 445.222 563.278C445.884 562.893 445.884 562.277 445.222 561.892C444.56 561.507 443.497 561.507 442.835 561.892C442.172 562.277 442.172 562.893 442.835 563.278Z" fill="#F5F5F5"/>
<path d="M447.239 565.665C447.901 566.05 448.964 566.05 449.626 565.665C450.288 565.28 450.288 564.664 449.626 564.279C448.964 563.894 447.901 563.894 447.239 564.279C446.577 564.664 446.577 565.28 447.239 565.665Z" fill="#F5F5F5"/>
<path d="M40.2148 593.627L145.856 532.653L278.682 609.316L173.04 670.29L40.2148 593.627Z" fill="black"/>
<path d="M145.856 532.653V428.383L38.0742 490.588L128.252 542.815L145.856 532.653Z" fill="#37474F"/>
<path d="M145.855 428.383V532.653L190.644 558.505L280.822 506.278L145.855 428.383Z" fill="#263238"/>
<path d="M38.0742 490.588V592.395L173.041 670.289V568.667L38.0742 490.588Z" fill="#263238"/>
<path d="M173.041 568.667V670.289L280.823 608.069V506.277L173.041 568.667Z" fill="#37474F"/>
<path d="M173.041 568.667L175.166 666.409L253.454 623.882L173.041 670.289V568.667Z" fill="#455A64"/>
<path d="M185.933 637.601C185.532 637.601 185.163 637.508 184.824 637.308C183.946 636.8 183.438 635.691 183.438 634.26V625.252V624.575L183.9 624.652L190.954 620.51V630.564C190.954 633.12 189.429 636.015 187.473 637.139C186.949 637.447 186.41 637.601 185.917 637.601H185.933ZM184.577 625.914V634.244C184.577 635.26 184.87 636.015 185.394 636.323C185.902 636.615 186.502 636.384 186.918 636.153C188.489 635.245 189.829 632.674 189.829 630.564V629.825H187.211L186.687 626.299L184.562 625.914H184.577ZM188.197 628.686H189.829V622.465L185.609 624.944L187.688 625.314L188.181 628.686H188.197Z" fill="#E0E0E0"/>
<path d="M187.197 644.776C186.889 644.776 186.627 644.529 186.627 644.206V636.646C186.627 636.338 186.873 636.076 187.197 636.076C187.52 636.076 187.767 636.323 187.767 636.646V644.206C187.767 644.514 187.52 644.776 187.197 644.776Z" fill="#E0E0E0"/>
<path d="M183.915 646.67C183.715 646.67 183.53 646.562 183.422 646.393C183.268 646.115 183.361 645.777 183.623 645.623L190.199 641.835C190.461 641.666 190.815 641.758 190.969 642.035C191.123 642.312 191.031 642.651 190.769 642.805L184.192 646.593C184.1 646.639 184.008 646.67 183.915 646.67Z" fill="#E0E0E0"/>
<path d="M207.341 633.644C207.125 633.644 206.909 633.597 206.725 633.49C206.293 633.243 206.047 632.75 206.047 632.135V630.579C206.047 630.272 206.293 630.01 206.617 630.01C206.94 630.01 207.187 630.256 207.187 630.579V632.135C207.187 632.366 207.248 632.489 207.294 632.52C207.341 632.55 207.479 632.52 207.664 632.427C208.157 632.135 208.711 631.011 208.711 629.871V619.817C208.711 619.509 208.958 619.247 209.281 619.247C209.605 619.247 209.851 619.493 209.851 619.817V629.871C209.851 631.349 209.158 632.858 208.249 633.397C207.941 633.567 207.649 633.659 207.356 633.659L207.341 633.644Z" fill="#E0E0E0"/>
<path d="M201.381 624.852V623.867C201.381 619.247 204.631 613.627 208.62 611.318C210.668 610.148 212.624 609.963 214.103 610.825C215.597 611.687 216.428 613.458 216.428 615.814V616.137L201.381 624.821V624.852ZM212.008 611.426C211.146 611.426 210.191 611.718 209.19 612.303C205.801 614.259 202.983 618.816 202.567 622.85L215.289 615.506C215.227 613.735 214.611 612.426 213.533 611.81C213.086 611.549 212.563 611.426 212.008 611.426Z" fill="#E0E0E0"/>
<path d="M227.687 622.05C227.379 622.05 227.117 621.803 227.117 621.48V602.218C227.117 601.91 227.364 601.648 227.687 601.648C228.01 601.648 228.257 601.895 228.257 602.218V621.48C228.257 621.788 228.01 622.05 227.687 622.05Z" fill="#E0E0E0"/>
<path d="M226.024 606.622C226.024 606.622 225.87 606.622 225.793 606.576C225.501 606.452 225.377 606.114 225.501 605.836L227.518 601.187L229.767 603.789C229.967 604.02 229.952 604.374 229.705 604.589C229.459 604.789 229.105 604.774 228.904 604.528L227.842 603.296L226.548 606.298C226.456 606.514 226.24 606.637 226.024 606.637V606.622Z" fill="#E0E0E0"/>
<path d="M232.923 619.063C232.615 619.063 232.354 618.816 232.354 618.493V599.231C232.354 598.923 232.6 598.661 232.923 598.661C233.247 598.661 233.493 598.907 233.493 599.231V618.493C233.493 618.801 233.247 619.063 232.923 619.063Z" fill="#E0E0E0"/>
<path d="M231.261 603.634C231.261 603.634 231.107 603.634 231.03 603.588C230.737 603.465 230.614 603.126 230.737 602.849L232.755 598.199L235.003 600.801C235.203 601.032 235.188 601.386 234.942 601.602C234.695 601.802 234.341 601.787 234.141 601.54L233.078 600.309L231.784 603.311C231.692 603.527 231.476 603.65 231.261 603.65V603.634Z" fill="#E0E0E0"/>
<path d="M61.1765 562.863L90.594 579.846C91.3179 580.262 91.9186 581.309 91.9186 582.14V602.588C91.9186 604.266 90.7326 604.959 89.2695 604.112L59.8519 587.129C59.128 586.713 58.5273 585.682 58.5273 584.835V564.387C58.5273 562.709 59.7287 562.016 61.1765 562.863Z" fill="#FAFAFA"/>
<path d="M60.4375 566.034L61.4386 566.619V584.665L60.4375 584.08V566.034Z" fill="#455A64"/>
<path d="M64.5195 568.39L66.2445 569.406V587.451L64.5195 586.435V568.39Z" fill="#455A64"/>
<path d="M68.5859 570.73L69.5871 571.316V589.361L68.5859 588.791V570.73Z" fill="#455A64"/>
<path d="M71.666 572.485L73.6683 573.671V591.717L71.666 590.531V572.485Z" fill="#455A64"/>
<path d="M76.7324 575.442L77.7335 576.012V594.058L76.7324 593.488V575.442Z" fill="#455A64"/>
<path d="M79.6738 577.09L81.8147 578.368V596.413L79.6738 595.135V577.09Z" fill="#455A64"/>
<path d="M84.8809 580.138L85.882 580.723V598.768L84.8809 598.183V580.138Z" fill="#455A64"/>
<path d="M87.2051 581.462L87.7133 581.754V599.8L87.2051 599.507V581.462Z" fill="#455A64"/>
<path d="M83.0312 579.152L83.5241 579.445V597.49L83.0312 597.198V579.152Z" fill="#455A64"/>
<path d="M74.8223 574.349L75.3151 574.641V592.687L74.8223 592.394V574.349Z" fill="#455A64"/>
<path d="M70.3262 571.777L70.8344 572.054L70.819 590.1L70.3262 589.823V571.777Z" fill="#455A64"/>
<path d="M67.0918 569.991L67.6001 570.284V588.329L67.0918 588.037V569.991Z" fill="#455A64"/>
<path d="M62.7168 567.327L63.2251 567.62V585.665L62.7168 585.373V567.327Z" fill="#455A64"/>
<path d="M88.9609 582.494L89.9621 583.064V601.109L88.9609 600.54V582.494Z" fill="#455A64"/>
<path d="M145.856 428.383L38.0742 490.588L173.041 568.667L280.823 506.278L145.856 428.383Z" fill="#455A64"/>
<path opacity="0.1" d="M38.0742 490.588L173.041 564.803L280.823 506.278L173.041 568.667L38.0742 490.588Z" fill="white"/>
<path d="M82.8008 464.767L217.844 542.723L234.447 533.115L99.4194 455.189L82.8008 464.767Z" fill="#BA68C8"/>
<path d="M234.447 533.115V554.21L232.445 553.07L230.35 556.658L228.271 555.441L226.192 559.075L224.097 557.843L222.018 561.446L219.923 560.261L217.844 563.864V542.723L234.447 533.115Z" fill="#BA68C8"/>
<path opacity="0.25" d="M234.447 533.115V554.21L232.445 553.07L230.35 556.658L228.271 555.441L226.192 559.075L224.097 557.843L222.018 561.446L219.923 560.261L217.844 563.864V542.723L234.447 533.115Z" fill="black"/>
<path opacity="0.1" d="M140.634 435.127L46.6367 489.387L164.908 557.874L258.905 503.445L140.634 435.127Z" fill="black"/>
<path d="M64.5176 492.051L143.082 446.583L242.964 504.261L164.399 549.606L64.5176 492.051Z" fill="black"/>
<path d="M143.083 436.928V347.316L62.6855 393.724L140.527 438.699L143.083 436.928Z" fill="#37474F"/>
<path d="M143.084 347.316V436.928L167.203 450.878L244.798 405.934L143.084 347.316Z" fill="#263238"/>
<path d="M62.6855 393.724V490.988L164.399 549.606V452.495L62.6855 393.724Z" fill="#263238"/>
<path d="M164.398 452.495V549.606L244.796 503.198V405.934L164.398 452.495Z" fill="#37474F"/>
<path d="M164.398 452.495L166.231 546.264L233.584 509.665L164.398 549.606V452.495Z" fill="#455A64"/>
<path d="M175.489 521.475C175.15 521.475 174.826 521.398 174.534 521.229C173.779 520.797 173.348 519.827 173.348 518.596V510.851V510.266L173.748 510.343L179.832 506.771V515.424C179.832 517.626 178.523 520.105 176.844 521.075C176.382 521.336 175.935 521.475 175.504 521.475H175.489ZM174.318 511.42V518.596C174.318 519.473 174.58 520.12 175.011 520.382C175.458 520.628 175.966 520.443 176.336 520.243C177.691 519.458 178.846 517.256 178.846 515.424V514.792H176.597L176.151 511.759L174.318 511.436V511.42ZM177.445 513.807H178.846V508.464L175.227 510.589L177.029 510.912L177.46 513.807H177.445Z" fill="#E0E0E0"/>
<path d="M176.583 527.649C176.321 527.649 176.09 527.433 176.09 527.156V520.643C176.09 520.381 176.305 520.15 176.583 520.15C176.86 520.15 177.076 520.366 177.076 520.643V527.156C177.076 527.418 176.86 527.649 176.583 527.649Z" fill="#E0E0E0"/>
<path d="M173.748 529.281C173.579 529.281 173.409 529.189 173.332 529.035C173.194 528.804 173.271 528.511 173.517 528.373L179.185 525.108C179.416 524.97 179.708 525.047 179.847 525.293C179.986 525.524 179.909 525.817 179.662 525.955L173.994 529.22C173.994 529.22 173.84 529.281 173.748 529.281Z" fill="#E0E0E0"/>
<path d="M193.923 518.072C193.738 518.072 193.554 518.026 193.384 517.934C193.014 517.718 192.799 517.287 192.799 516.764V515.424C192.799 515.162 193.014 514.931 193.292 514.931C193.569 514.931 193.785 515.147 193.785 515.424V516.764C193.785 516.964 193.846 517.071 193.877 517.087C193.923 517.102 194.031 517.087 194.2 517.01C194.632 516.764 195.109 515.794 195.109 514.808V506.155C195.109 505.893 195.325 505.662 195.602 505.662C195.879 505.662 196.095 505.878 196.095 506.155V514.808C196.095 516.071 195.494 517.379 194.709 517.841C194.447 517.995 194.185 518.072 193.939 518.072H193.923Z" fill="#E0E0E0"/>
<path d="M188.779 510.512V509.665C188.779 505.692 191.567 500.858 195.017 498.871C196.773 497.855 198.452 497.701 199.745 498.456C201.039 499.195 201.748 500.719 201.748 502.752V503.029L188.795 510.512H188.779ZM197.928 498.948C197.189 498.948 196.357 499.195 195.495 499.703C192.568 501.381 190.15 505.308 189.796 508.787L200.747 502.459C200.685 500.935 200.161 499.811 199.237 499.287C198.852 499.056 198.405 498.948 197.913 498.948H197.928Z" fill="#E0E0E0"/>
<path d="M211.421 508.095C211.159 508.095 210.928 507.879 210.928 507.602V491.019C210.928 490.757 211.143 490.526 211.421 490.526C211.698 490.526 211.913 490.742 211.913 491.019V507.602C211.913 507.864 211.698 508.095 211.421 508.095Z" fill="#E0E0E0"/>
<path d="M209.988 494.807C209.988 494.807 209.865 494.807 209.788 494.76C209.542 494.653 209.434 494.36 209.542 494.114L211.282 490.11L213.223 492.343C213.408 492.543 213.377 492.851 213.177 493.036C212.961 493.205 212.668 493.19 212.483 492.99L211.559 491.927L210.435 494.514C210.358 494.699 210.173 494.807 209.988 494.807Z" fill="#E0E0E0"/>
<path d="M215.919 505.523C215.657 505.523 215.426 505.308 215.426 505.031V488.448C215.426 488.186 215.641 487.955 215.919 487.955C216.196 487.955 216.411 488.171 216.411 488.448V505.031C216.411 505.292 216.196 505.523 215.919 505.523Z" fill="#E0E0E0"/>
<path d="M214.502 492.251C214.502 492.251 214.379 492.251 214.302 492.205C214.055 492.097 213.948 491.804 214.055 491.558L215.796 487.555L217.736 489.787C217.921 489.987 217.89 490.295 217.69 490.48C217.475 490.65 217.182 490.634 216.997 490.434L216.073 489.372L214.949 491.958C214.872 492.143 214.687 492.251 214.502 492.251Z" fill="#E0E0E0"/>
<path d="M143.083 347.316L62.6855 393.724L164.399 452.495L244.797 405.934L143.083 347.316Z" fill="#455A64"/>
<path opacity="0.1" d="M62.6855 393.724L164.014 449.031L244.797 405.934L164.399 452.495L62.6855 393.724Z" fill="white"/>
<path d="M98.418 373.091L200.209 431.77L214.486 423.502L112.711 364.854L98.418 373.091Z" fill="#BA68C8"/>
<path d="M214.486 423.502V441.655L212.761 440.67L210.975 443.765L209.173 442.702L207.386 445.843L205.584 444.781L203.798 447.876L201.996 446.86L200.209 449.955V431.77L214.486 423.502Z" fill="#BA68C8"/>
<path opacity="0.25" d="M214.486 423.502V441.655L212.761 440.67L210.975 443.765L209.173 442.702L207.386 445.843L205.584 444.781L203.798 447.876L201.996 446.86L200.209 449.955V431.77L214.486 423.502Z" fill="black"/>
<path d="M79.1511 467.338L108.569 484.322C109.293 484.737 109.893 485.784 109.893 486.616V507.063C109.893 508.742 108.707 509.435 107.244 508.588L77.8265 491.604C77.1026 491.189 76.502 490.142 76.502 489.31V468.863C76.502 467.184 77.7033 466.492 79.1511 467.338Z" fill="#FAFAFA"/>
<path d="M78.4277 470.525L79.4289 471.11V489.156L78.4277 488.571V470.525Z" fill="#455A64"/>
<path d="M82.4941 472.881L84.2191 473.897V491.943L82.4941 490.926V472.881Z" fill="#455A64"/>
<path d="M86.5762 475.222L87.5773 475.807V493.852L86.5762 493.267V475.222Z" fill="#455A64"/>
<path d="M89.6406 476.962L91.6583 478.163L91.6429 496.209L89.6406 495.008V476.962Z" fill="#455A64"/>
<path d="M94.7227 479.934L95.7238 480.503V498.549L94.7227 497.979V479.934Z" fill="#455A64"/>
<path d="M97.6641 481.581L99.8049 482.859V500.905L97.6641 499.627V481.581Z" fill="#455A64"/>
<path d="M102.871 484.629L103.872 485.214V503.26L102.871 502.675V484.629Z" fill="#455A64"/>
<path d="M105.195 485.953L105.704 486.246V504.291L105.195 503.999V485.953Z" fill="#455A64"/>
<path d="M101.021 483.644L101.514 483.936V501.982L101.021 501.689V483.644Z" fill="#455A64"/>
<path d="M92.8125 478.84L93.3054 479.132V497.178L92.8125 496.885V478.84Z" fill="#455A64"/>
<path d="M88.3164 476.269L88.8093 476.546V494.591L88.3164 494.314V476.269Z" fill="#455A64"/>
<path d="M85.082 474.482L85.5903 474.775V492.821L85.082 492.528V474.482Z" fill="#455A64"/>
<path d="M80.707 471.818L81.1999 472.111V490.157L80.707 489.864V471.818Z" fill="#455A64"/>
<path d="M106.951 486.985L107.952 487.555V505.601L106.951 505.031V486.985Z" fill="#455A64"/>
<path d="M289.632 218.61L53.1367 355.107V138.129L289.632 1.63184V218.61Z" fill="white"/>
<path d="M53.1365 356.739C52.8593 356.739 52.5666 356.662 52.3202 356.524C51.8119 356.231 51.5039 355.692 51.5039 355.123V138.129C51.5039 137.544 51.8119 137.005 52.3202 136.712L288.816 0.215505C289.324 -0.0770433 289.94 -0.0770433 290.448 0.215505C290.957 0.508053 291.265 1.04696 291.265 1.61666V218.595C291.265 219.18 290.957 219.719 290.448 219.996L53.9528 356.524C53.7064 356.662 53.4137 356.739 53.1365 356.739ZM54.7537 139.068V352.29L287.999 217.671V4.44975L54.7537 139.068Z" fill="#E0E0E0"/>
<path d="M181.819 86.1322L176.475 89.2117V216.501L181.819 213.421V86.1322ZM81.3068 317.061L83.9714 315.521V142.517L81.3068 144.057V317.045V317.061ZM94.7835 136.389L89.439 139.468V266.758L94.7835 263.678V136.389ZM124.709 270.622C123.955 270.037 123.077 269.791 122.06 269.852C121.044 269.929 119.966 270.299 118.81 270.961C117.517 271.7 116.5 272.532 115.776 273.425C115.052 274.318 114.575 274.964 114.344 275.349L115.068 262.893L125.002 257.15C125.51 256.857 125.772 256.318 125.772 255.533V254.686C125.772 253.901 125.51 253.655 125.002 253.947L113.712 260.46C113.25 260.722 113.004 261.276 112.942 262.123L111.91 280.153C111.895 280.492 111.957 280.723 112.126 280.862C112.28 281 112.48 281 112.68 280.877L113.312 280.523C113.682 280.307 114.005 279.953 114.298 279.445C114.59 278.937 114.914 278.383 115.299 277.767C115.684 277.151 116.146 276.535 116.685 275.873C117.224 275.226 117.932 274.641 118.81 274.133C119.673 273.64 120.474 273.378 121.213 273.332C121.968 273.286 122.615 273.486 123.169 273.917C123.724 274.333 124.17 274.995 124.478 275.904C124.802 276.812 124.971 277.951 124.971 279.337C124.971 280.831 124.817 282.247 124.478 283.587C124.155 284.926 123.724 286.158 123.169 287.251C122.615 288.36 121.968 289.33 121.213 290.161C120.474 291.008 119.657 291.67 118.81 292.163C118.179 292.517 117.578 292.764 116.962 292.887C116.346 293.01 115.792 292.964 115.268 292.748C114.744 292.533 114.298 292.117 113.913 291.532C113.528 290.931 113.25 290.1 113.065 289.037C112.973 288.56 112.85 288.283 112.696 288.237C112.542 288.175 112.388 288.206 112.203 288.314L111.541 288.699C111.325 288.822 111.156 289.007 111.017 289.268C110.878 289.53 110.817 289.807 110.848 290.115C110.863 291.347 111.063 292.44 111.433 293.395C111.803 294.365 112.311 295.104 112.988 295.628C113.651 296.166 114.482 296.444 115.437 296.444C116.408 296.444 117.532 296.089 118.795 295.366C119.95 294.704 121.028 293.811 122.045 292.717C123.061 291.609 123.939 290.315 124.694 288.837C125.449 287.359 126.034 285.727 126.48 283.926C126.912 282.124 127.143 280.169 127.143 278.09C127.143 276.135 126.927 274.549 126.48 273.317C126.034 272.1 125.449 271.192 124.694 270.622H124.709ZM105.149 268.805C104.456 268.036 103.593 267.574 102.561 267.451C101.545 267.312 100.328 267.635 98.942 268.436C97.5558 269.237 96.3545 270.299 95.3225 271.623C94.2906 272.947 93.4435 274.379 92.7658 275.95C92.0727 277.52 91.5645 279.122 91.241 280.769C90.9022 282.432 90.7328 284.003 90.7328 285.481C90.7328 286.959 90.9022 288.36 91.241 289.623C91.5799 290.901 92.0881 291.901 92.7658 292.671C93.4435 293.426 94.2906 293.888 95.3225 294.026C96.3545 294.149 97.5558 293.826 98.942 293.025C99.7429 292.563 100.498 291.978 101.191 291.301L95.723 306.298C95.6768 306.39 95.646 306.513 95.5998 306.637C95.569 306.76 95.5536 306.914 95.5536 307.083C95.5536 307.406 95.6152 307.637 95.7384 307.807C95.8616 307.961 96.031 307.976 96.2466 307.868L96.9397 307.468C97.2632 307.283 97.4942 307.006 97.6328 306.667C97.7714 306.329 97.8946 306.036 98.0179 305.79L105.149 286.158C105.365 285.604 105.58 284.973 105.811 284.234C106.042 283.494 106.258 282.694 106.473 281.832C106.689 280.954 106.859 280.045 106.997 279.075C107.136 278.105 107.213 277.089 107.213 276.011C107.213 274.518 107.043 273.148 106.705 271.87C106.366 270.607 105.857 269.591 105.164 268.821L105.149 268.805ZM104.533 281.293C104.209 282.601 103.778 283.802 103.224 284.896C102.669 286.004 102.022 286.974 101.283 287.821C100.544 288.668 99.7737 289.33 98.9574 289.792C98.1411 290.254 97.3864 290.485 96.6471 290.485C95.9232 290.485 95.2763 290.238 94.7219 289.777C94.1674 289.315 93.7207 288.622 93.3973 287.683C93.0739 286.743 92.9198 285.589 92.9198 284.203C92.9198 282.817 93.0739 281.462 93.3973 280.153C93.7207 278.829 94.1674 277.613 94.7219 276.504C95.2763 275.396 95.9232 274.425 96.6471 273.579C97.371 272.732 98.1411 272.07 98.9574 271.608C99.7737 271.146 100.544 270.915 101.283 270.9C102.022 270.9 102.669 271.13 103.224 271.592C103.778 272.054 104.225 272.763 104.533 273.717C104.856 274.656 105.026 275.827 105.026 277.212C105.026 278.598 104.872 279.938 104.533 281.262V281.293ZM124.987 246.834L127.651 245.294V118.005L124.987 119.544V246.834ZM75.2539 320.54L77.9184 319.001V145.997L75.2539 147.537V320.525V320.54ZM138.294 111.261L132.949 114.34V241.614L138.294 238.534V111.245V111.261ZM144.901 107.611L142.221 109.151V236.44L144.886 234.901V107.611H144.901ZM104.286 130.8L101.606 132.339V259.613L104.271 258.074V130.784L104.286 130.8ZM120.412 121.685L111.202 126.904V254.178L120.412 248.958V121.669V121.685ZM241.625 51.4884L238.945 53.0281V180.317L241.609 178.778V51.4884H241.625ZM234.247 190.88L220.878 198.594C220.37 198.886 220.124 199.441 220.124 200.257V201.057C220.124 201.843 220.386 202.089 220.878 201.797L232.692 194.976L223.789 232.576C223.743 232.822 223.712 232.991 223.712 233.099C223.712 233.423 223.774 233.653 223.913 233.807C224.036 233.961 224.205 233.992 224.406 233.869L225.129 233.453C225.391 233.299 225.576 233.038 225.699 232.668C225.822 232.283 225.93 231.929 226.038 231.59L234.802 194.56C234.894 194.144 234.956 193.805 234.987 193.513C235.033 193.22 235.048 192.866 235.048 192.45V191.65C235.048 190.834 234.786 190.572 234.247 190.88ZM210.066 242.153L212.731 240.613V68.7487L210.066 70.2884V242.153ZM232.399 184.105L235.064 182.565V55.2761L232.399 56.8158V184.105ZM225.33 61.0039L219.985 64.0833V191.373L225.33 188.293V61.0039ZM252.745 214.315L241.147 221.012L249.249 203.644C250.527 201.104 251.467 198.794 252.098 196.731C252.73 194.668 253.038 192.527 253.038 190.326C253.038 188.94 252.899 187.662 252.637 186.507C252.375 185.337 251.944 184.444 251.359 183.782C250.773 183.12 250.019 182.766 249.095 182.689C248.171 182.612 247.046 182.966 245.737 183.72C244.428 184.475 243.288 185.475 242.349 186.723C241.409 187.97 240.624 189.294 240.023 190.741C239.407 192.173 238.945 193.636 238.652 195.13C238.36 196.623 238.19 197.978 238.159 199.194C238.159 199.872 238.406 200.072 238.883 199.779L239.576 199.379C239.715 199.302 239.869 199.117 240.054 198.825C240.223 198.532 240.331 198.147 240.377 197.701C240.562 195.283 241.101 193.112 242.01 191.188C242.919 189.263 244.151 187.847 245.753 186.923C247.416 185.968 248.694 185.907 249.557 186.753C250.435 187.6 250.866 189.217 250.866 191.588C250.866 192.404 250.82 193.189 250.727 193.929C250.635 194.683 250.465 195.468 250.234 196.284C249.988 197.116 249.665 198.024 249.249 199.01C248.833 199.995 248.309 201.134 247.662 202.443L238.683 221.428C238.36 222.075 238.129 222.598 238.005 223.014C237.882 223.43 237.821 223.815 237.821 224.153V224.954C237.821 225.739 238.082 225.986 238.591 225.693L252.791 217.502C253.315 217.194 253.592 216.655 253.592 215.87V215.069C253.592 214.253 253.33 213.991 252.791 214.299L252.745 214.315ZM146.041 245.694C145.409 244.709 144.562 244.124 143.515 243.923C142.468 243.723 141.158 244.093 139.587 244.986C138.016 245.894 136.707 247.049 135.66 248.45C134.613 249.851 133.766 251.422 133.119 253.146C132.472 254.871 132.01 256.703 131.733 258.643C131.455 260.583 131.301 262.539 131.286 264.494C131.24 267.574 131.24 270.561 131.286 273.455C131.301 275.396 131.455 277.182 131.763 278.768C132.056 280.384 132.503 281.678 133.149 282.663C133.781 283.633 134.628 284.234 135.675 284.434C136.723 284.634 138.032 284.264 139.603 283.371C141.174 282.478 142.483 281.308 143.53 279.907C144.578 278.506 145.425 276.935 146.056 275.226C146.688 273.502 147.15 271.685 147.427 269.745C147.704 267.82 147.874 265.849 147.92 263.878C147.966 260.937 147.966 257.95 147.92 254.917C147.904 252.977 147.75 251.206 147.442 249.59C147.15 247.988 146.703 246.68 146.056 245.694H146.041ZM145.702 264.864C145.656 268.559 145.132 271.731 144.146 274.395C143.161 277.074 141.636 278.998 139.572 280.184C137.524 281.37 135.999 281.2 134.998 279.676C133.997 278.152 133.488 275.58 133.442 271.947C133.411 270.438 133.396 269.036 133.396 267.728C133.396 266.419 133.396 265.033 133.442 263.524C133.488 259.906 134.012 256.749 134.998 254.039C135.983 251.33 137.508 249.389 139.572 248.204C141.605 247.034 143.13 247.219 144.131 248.774C145.132 250.329 145.656 252.885 145.702 256.457C145.717 257.935 145.748 259.321 145.748 260.614C145.748 261.907 145.733 263.339 145.702 264.879V264.864ZM249.048 174.59L254.393 171.51V44.2209L249.048 47.3003V174.59ZM261.616 40.0636V212.405L266.961 209.326V36.9688L261.616 40.0482V40.0636ZM165.386 230.636L152.017 238.35C151.509 238.642 151.262 239.197 151.262 240.013V240.813C151.262 241.598 151.524 241.845 152.017 241.552L163.83 234.731L154.928 272.331C154.882 272.578 154.851 272.747 154.851 272.855C154.851 273.178 154.912 273.409 155.051 273.563C155.174 273.717 155.344 273.748 155.544 273.625L156.268 273.209C156.53 273.055 156.714 272.793 156.838 272.424C156.961 272.039 157.069 271.685 157.176 271.346L165.94 234.316C166.032 233.9 166.094 233.561 166.125 233.269C166.171 232.976 166.186 232.622 166.186 232.206V231.405C166.186 230.589 165.925 230.328 165.386 230.636ZM166.233 222.506L168.897 220.966V93.6769L166.233 95.2166V222.506ZM192.139 207.263L203.567 200.857V73.5681L192.139 79.9733V207.263ZM160.057 98.6964L149.352 104.701V231.991L160.041 225.986V98.6964H160.057ZM196.728 212.544L196.066 212.929C195.912 213.021 195.758 213.129 195.619 213.237C195.481 213.344 195.327 213.545 195.173 213.822L187.795 226.817C187.61 227.14 187.503 227.448 187.487 227.772C187.472 228.08 187.533 228.341 187.657 228.542L188.042 229.065C188.334 229.496 188.704 229.358 189.12 228.665L195.311 217.733V249.497C195.311 250.283 195.573 250.529 196.081 250.236L196.744 249.851C197.252 249.559 197.514 249.02 197.514 248.235V213.267C197.514 212.482 197.252 212.236 196.744 212.528L196.728 212.544ZM183.883 254.07L172.286 260.768L180.387 243.4C181.665 240.859 182.605 238.55 183.236 236.487C183.868 234.423 184.176 232.283 184.176 230.081C184.176 228.696 184.037 227.418 183.775 226.263C183.514 225.093 183.082 224.2 182.497 223.537C181.912 222.875 181.157 222.521 180.233 222.444C179.309 222.367 178.185 222.721 176.875 223.476C175.566 224.23 174.426 225.231 173.487 226.478C172.547 227.726 171.762 229.05 171.161 230.497C170.545 231.929 170.083 233.392 169.791 234.885C169.498 236.379 169.328 237.734 169.298 238.95C169.298 239.628 169.544 239.828 170.022 239.535L170.715 239.135C170.853 239.058 171.007 238.873 171.192 238.581C171.362 238.288 171.469 237.903 171.516 237.457C171.7 235.039 172.239 232.868 173.148 230.944C174.057 229.019 175.289 227.602 176.891 226.679C178.554 225.724 179.833 225.662 180.695 226.509C181.573 227.356 182.004 228.973 182.004 231.344C182.004 232.16 181.958 232.945 181.866 233.684C181.773 234.439 181.604 235.224 181.373 236.04C181.126 236.872 180.803 237.78 180.387 238.765C179.971 239.751 179.447 240.89 178.801 242.199L169.821 261.184C169.498 261.831 169.267 262.354 169.144 262.77C169.02 263.185 168.959 263.57 168.959 263.909V264.71C168.959 265.495 169.221 265.741 169.729 265.449L183.929 257.258C184.453 256.95 184.73 256.411 184.73 255.625V254.825C184.73 254.009 184.468 253.747 183.929 254.055L183.883 254.07Z" fill="#455A64"/>
</g>
<defs>
<clipPath id="clip0_1391_17361">
<rect width="742" height="730" fill="white"/>
</clipPath>
</defs>
</svg>
