<svg width="570" height="568" viewBox="0 0 570 568" fill="none" xmlns="http://www.w3.org/2000/svg">
<g clip-path="url(#clip0_1121_1900)">
<path opacity="0.3" d="M503.931 485.172C492.225 497.182 481.152 504.928 472.402 511.046C369.549 582.976 247.845 562.008 221.979 556.887C183.785 549.325 109.954 534.711 56.5761 473.53C-24.1796 380.968 -11.6046 235.14 51.0344 138.876C62.4912 121.268 123.015 23.5382 246.03 7.86548C320.476 -1.61975 407.258 17.5107 470.102 68.8273C602.017 176.547 592.626 394.159 503.931 485.172Z" fill="url(#paint0_linear_1121_1900)"/>
<path opacity="0.86" d="M114.745 49.5674C113.926 65.5949 113.717 81.6757 113.776 97.7359C113.858 113.8 114.289 129.863 115.077 145.907C116.661 177.99 119.64 210.018 124.581 241.747C129.552 273.452 136.429 304.926 146.68 335.318C149.267 342.902 152.025 350.431 155.086 357.832C158.153 365.23 161.464 372.525 165.069 379.668C172.31 393.929 180.814 407.57 190.919 419.926L190.925 419.934C191.405 420.521 191.319 421.386 190.73 421.868C190.143 422.348 189.278 422.262 188.797 421.673L188.793 421.669C178.582 409.079 170.041 395.242 162.792 380.818C159.183 373.595 155.876 366.228 152.816 358.763C149.764 351.296 147.02 343.71 144.45 336.07C134.265 305.463 127.5 273.856 122.646 242.047C117.824 210.215 114.973 178.119 113.518 145.982C112.796 129.912 112.43 113.827 112.414 97.7421C112.42 81.6552 112.697 65.5764 113.584 49.4977C113.602 49.1777 113.875 48.9316 114.197 48.948C114.517 48.9665 114.763 49.2393 114.747 49.5612V49.5695L114.745 49.5674Z" fill="white"/>
<path d="M30.4807 178.825L524.859 170.474C544.762 170.137 560.739 187.203 559.555 207.535L542.538 500.049C541.607 516.058 528.724 528.599 513.053 528.753L37.8361 533.451C26.0982 533.568 16.3998 524.107 15.9525 512.106L4.58392 206.813C4.02175 191.704 15.7063 179.075 30.4807 178.827V178.825Z" fill="url(#paint1_linear_1121_1900)"/>
<path d="M38.0589 186.278L519.533 178.333C538.918 178.013 554.476 194.247 553.325 213.593L536.754 491.893C535.847 507.125 523.3 519.054 508.038 519.202L45.2256 523.671C33.7934 523.782 24.3493 514.78 23.9144 503.361L12.8412 212.904C12.2934 198.53 23.6743 186.516 38.063 186.278H38.0589Z" fill="url(#paint2_linear_1121_1900)"/>
<path opacity="0.47" d="M47.7461 201.216L507.645 193.771C526.162 193.472 541.022 208.685 539.922 226.81L524.091 487.591C523.226 501.863 511.241 513.045 496.662 513.182L54.5886 517.37C43.6693 517.472 34.6479 509.039 34.2314 498.34L23.6548 226.166C23.1317 212.696 34.0017 201.439 47.7461 201.216Z" fill="white"/>
<path opacity="0.53" d="M183.45 226.927L48.6201 227.28C48.3402 227.281 48.1139 227.508 48.1146 227.788L48.1433 238.748C48.144 239.027 48.3715 239.254 48.6514 239.253L183.482 238.9C183.762 238.899 183.988 238.672 183.987 238.392L183.958 227.432C183.958 227.153 183.73 226.926 183.45 226.927Z" fill="white"/>
<path opacity="0.53" d="M268.54 238.936L221.847 239.059C221.578 239.059 221.361 238.841 221.359 238.575L221.33 227.574C221.33 227.305 221.548 227.088 221.814 227.086L268.507 226.963C268.776 226.963 268.994 227.18 268.996 227.447L269.024 238.448C269.024 238.716 268.807 238.934 268.54 238.936Z" fill="white"/>
<path opacity="0.53" d="M372.214 238.662L279.624 238.906C279.198 238.906 278.851 238.562 278.849 238.135L278.822 227.709C278.822 227.282 279.167 226.936 279.594 226.934L372.184 226.689C372.61 226.689 372.957 227.034 372.959 227.461L372.986 237.887C372.986 238.314 372.641 238.66 372.214 238.662Z" fill="white"/>
<path opacity="0.53" d="M83.6419 260.205L48.7729 260.298C48.3462 260.298 47.9994 259.953 47.9974 259.526L47.9707 249.1C47.9707 248.673 48.3154 248.327 48.7422 248.325L83.6111 248.232C84.0378 248.232 84.3846 248.577 84.3866 249.004L84.4133 259.43C84.4133 259.857 84.0686 260.203 83.6419 260.205Z" fill="white"/>
<path opacity="0.53" d="M183.775 247.992L85.997 248.248C85.7171 248.248 85.4908 248.476 85.4916 248.756L85.5203 259.715C85.521 259.995 85.7485 260.221 86.0284 260.221L183.807 259.965C184.087 259.964 184.313 259.737 184.312 259.457L184.283 248.497C184.283 248.217 184.055 247.991 183.775 247.992Z" fill="white"/>
<path opacity="0.53" d="M268.978 259.997L222.285 260.12C222.016 260.12 221.798 259.903 221.796 259.636L221.768 248.636C221.768 248.367 221.985 248.15 222.252 248.147L268.945 248.024C269.214 248.024 269.431 248.242 269.433 248.508L269.462 259.509C269.462 259.778 269.244 259.995 268.978 259.997Z" fill="white"/>
<path opacity="0.53" d="M449.339 259.524L312.98 259.883C312.553 259.883 312.206 259.538 312.204 259.111L312.178 248.685C312.178 248.258 312.522 247.912 312.949 247.91L449.308 247.551C449.735 247.551 450.082 247.895 450.084 248.322L450.111 258.748C450.111 259.175 449.766 259.522 449.339 259.524Z" fill="white"/>
<path opacity="0.53" d="M83.6365 269.265L48.7676 269.356C48.3404 269.357 47.995 269.705 47.9962 270.132L48.0235 280.558C48.0246 280.985 48.3718 281.33 48.799 281.329L83.6678 281.238C84.095 281.237 84.4404 280.89 84.4393 280.463L84.412 270.036C84.4109 269.609 84.0636 269.264 83.6365 269.265Z" fill="white"/>
<path opacity="0.53" d="M183.783 269.026L86.0048 269.282C85.7249 269.283 85.4986 269.51 85.4994 269.79L85.5281 280.75C85.5288 281.029 85.7563 281.255 86.0362 281.255L183.815 280.999C184.094 280.998 184.321 280.771 184.32 280.491L184.291 269.531C184.291 269.251 184.063 269.025 183.783 269.026Z" fill="white"/>
<path opacity="0.53" d="M268.999 281.032L222.306 281.155C222.037 281.155 221.82 280.937 221.818 280.671L221.789 269.67C221.789 269.401 222.007 269.184 222.273 269.182L268.966 269.059C269.235 269.059 269.453 269.276 269.455 269.543L269.483 280.543C269.483 280.812 269.266 281.029 268.999 281.032Z" fill="white"/>
<path opacity="0.53" d="M508.064 280.404L329.912 280.873C329.485 280.873 329.138 280.529 329.136 280.102L329.109 269.676C329.109 269.249 329.454 268.902 329.881 268.9L508.034 268.431C508.46 268.431 508.807 268.775 508.809 269.202L508.836 279.628C508.836 280.055 508.491 280.402 508.064 280.404Z" fill="white"/>
<path opacity="0.53" d="M84.0188 302.301L49.1499 302.393C48.7231 302.393 48.3764 302.049 48.3743 301.622L48.3477 291.196C48.3477 290.769 48.6923 290.422 49.1191 290.42L83.988 290.328C84.4148 290.328 84.7615 290.673 84.7636 291.099L84.7903 301.526C84.7903 301.952 84.4456 302.299 84.0188 302.301Z" fill="white"/>
<path opacity="0.53" d="M184.394 302.059L86.6157 302.315C86.3366 302.315 86.1089 302.09 86.1068 301.811L86.0781 290.851C86.0781 290.572 86.3038 290.344 86.5828 290.342L184.362 290.086C184.641 290.086 184.868 290.312 184.87 290.59L184.899 301.55C184.899 301.829 184.673 302.057 184.394 302.059Z" fill="white"/>
<path opacity="0.53" d="M269.437 302.096L222.744 302.219C222.475 302.219 222.257 302.002 222.255 301.735L222.227 290.734C222.227 290.466 222.444 290.248 222.711 290.246L269.404 290.123C269.673 290.123 269.89 290.34 269.892 290.607L269.921 301.608C269.921 301.877 269.703 302.094 269.437 302.096Z" fill="white"/>
<path opacity="0.53" d="M509.066 301.464L330.914 301.934C330.487 301.934 330.14 301.589 330.138 301.163L330.111 290.736C330.111 290.309 330.456 289.963 330.883 289.961L509.035 289.491C509.462 289.491 509.809 289.836 509.811 290.262L509.838 300.689C509.838 301.115 509.493 301.462 509.066 301.464Z" fill="white"/>
<path opacity="0.53" d="M83.9661 324.158L49.0971 324.251C48.6704 324.251 48.3236 323.906 48.3216 323.48L48.2949 313.053C48.2949 312.626 48.6396 312.28 49.0664 312.278L83.9353 312.186C84.3621 312.186 84.7088 312.53 84.7109 312.957L84.7375 323.383C84.7375 323.81 84.3928 324.156 83.9661 324.158Z" fill="white"/>
<path opacity="0.53" d="M184.219 311.945L86.4404 312.201C86.1605 312.202 85.9342 312.429 85.9349 312.709L85.9636 323.668C85.9644 323.948 86.1918 324.174 86.4717 324.174L184.25 323.918C184.53 323.917 184.756 323.69 184.756 323.41L184.727 312.45C184.726 312.17 184.499 311.944 184.219 311.945Z" fill="white"/>
<path opacity="0.53" d="M269.351 323.953L222.658 324.076C222.389 324.076 222.171 323.859 222.169 323.592L222.141 312.592C222.141 312.323 222.358 312.106 222.625 312.104L269.318 311.98C269.587 311.98 269.804 312.198 269.806 312.464L269.835 323.465C269.835 323.734 269.617 323.951 269.351 323.953Z" fill="white"/>
<path opacity="0.53" d="M508.765 323.323L330.613 323.792C330.186 323.792 329.839 323.448 329.837 323.021L329.811 312.594C329.811 312.168 330.155 311.821 330.582 311.819L508.735 311.35C509.161 311.35 509.508 311.694 509.51 312.121L509.537 322.547C509.537 322.974 509.192 323.32 508.765 323.323Z" fill="white"/>
<path opacity="0.53" d="M84.3157 345.223L49.4468 345.315C49.02 345.315 48.6733 344.971 48.6712 344.544L48.6445 334.118C48.6445 333.691 48.9892 333.344 49.416 333.342L84.2849 333.25C84.7117 333.25 85.0584 333.595 85.0605 334.021L85.0871 344.448C85.0871 344.874 84.7425 345.221 84.3157 345.223Z" fill="white"/>
<path opacity="0.53" d="M184.793 333.009L87.0146 333.265C86.7347 333.266 86.5084 333.493 86.5091 333.773L86.5378 344.733C86.5386 345.013 86.7661 345.239 87.0459 345.238L184.824 344.982C185.104 344.982 185.331 344.754 185.33 344.474L185.301 333.515C185.3 333.235 185.073 333.009 184.793 333.009Z" fill="white"/>
<path opacity="0.53" d="M269.79 345.016L223.097 345.139C222.828 345.139 222.611 344.922 222.609 344.655L222.58 333.654C222.58 333.385 222.798 333.168 223.064 333.166L269.757 333.043C270.026 333.043 270.244 333.26 270.246 333.527L270.274 344.528C270.274 344.796 270.057 345.014 269.79 345.016Z" fill="white"/>
<path opacity="0.53" d="M388.452 344.704L279.902 344.989C279.475 344.989 279.128 344.645 279.126 344.218L279.1 333.792C279.1 333.365 279.444 333.019 279.871 333.017L388.421 332.731C388.848 332.731 389.195 333.076 389.197 333.503L389.224 343.929C389.224 344.356 388.879 344.702 388.452 344.704Z" fill="white"/>
<path opacity="0.53" d="M184.872 354.043L49.3036 354.398C49.0238 354.399 48.7975 354.626 48.7982 354.906L48.8269 365.866C48.8276 366.145 49.0551 366.372 49.335 366.371L184.904 366.016C185.184 366.015 185.41 365.788 185.409 365.508L185.381 354.549C185.38 354.269 185.152 354.043 184.872 354.043Z" fill="white"/>
<path opacity="0.53" d="M269.812 366.05L223.119 366.173C222.85 366.173 222.632 365.956 222.63 365.689L222.602 354.688C222.602 354.42 222.819 354.202 223.086 354.2L269.779 354.077C270.048 354.077 270.265 354.295 270.267 354.561L270.296 365.562C270.296 365.831 270.078 366.048 269.812 366.05Z" fill="white"/>
<path opacity="0.53" d="M440.484 365.601L304.769 365.958C304.342 365.958 303.996 365.613 303.993 365.187L303.967 354.76C303.967 354.333 304.311 353.987 304.738 353.985L440.453 353.628C440.88 353.628 441.227 353.972 441.229 354.399L441.255 364.826C441.255 365.252 440.911 365.599 440.484 365.601Z" fill="white"/>
<path opacity="0.53" d="M83.2833 375.351L49.8711 375.438C49.444 375.44 49.0986 375.787 49.0997 376.214L49.127 386.64C49.1281 387.067 49.4753 387.412 49.9025 387.411L83.3146 387.324C83.7418 387.323 84.0872 386.976 84.0861 386.549L84.0588 376.122C84.0577 375.695 83.7104 375.35 83.2833 375.351Z" fill="white"/>
<path opacity="0.53" d="M185.375 375.106L87.5966 375.362C87.3167 375.363 87.0904 375.59 87.0912 375.87L87.1199 386.83C87.1206 387.109 87.3481 387.336 87.628 387.335L185.406 387.079C185.686 387.078 185.913 386.851 185.912 386.571L185.883 375.611C185.882 375.332 185.655 375.105 185.375 375.106Z" fill="white"/>
<path opacity="0.53" d="M270.247 387.113L223.554 387.236C223.285 387.236 223.068 387.018 223.066 386.752L223.037 375.751C223.037 375.482 223.255 375.265 223.521 375.263L270.214 375.14C270.483 375.14 270.701 375.357 270.703 375.624L270.731 386.624C270.731 386.893 270.514 387.111 270.247 387.113Z" fill="white"/>
<path opacity="0.53" d="M510.117 386.483L325.861 386.967C325.434 386.967 325.087 386.622 325.085 386.196L325.059 375.769C325.059 375.342 325.403 374.996 325.83 374.994L510.087 374.51C510.513 374.51 510.86 374.854 510.862 375.281L510.889 385.707C510.889 386.134 510.544 386.481 510.117 386.483Z" fill="white"/>
<path opacity="0.53" d="M84.1008 450.18L49.2319 450.272C48.8052 450.272 48.4584 449.928 48.4564 449.501L48.4297 439.075C48.4297 438.648 48.7744 438.301 49.2011 438.299L84.0701 438.207C84.4968 438.207 84.8436 438.552 84.8456 438.978L84.8723 449.405C84.8723 449.831 84.5276 450.178 84.1008 450.18Z" fill="white"/>
<path opacity="0.53" d="M184.627 437.968L86.8486 438.224C86.5687 438.225 86.3424 438.452 86.3431 438.732L86.3718 449.692C86.3726 449.972 86.6 450.198 86.8799 450.197L184.658 449.941C184.938 449.941 185.164 449.713 185.164 449.433L185.135 438.474C185.134 438.194 184.907 437.968 184.627 437.968Z" fill="white"/>
<path opacity="0.53" d="M269.577 449.975L222.884 450.098C222.615 450.098 222.398 449.881 222.396 449.614L222.367 438.613C222.367 438.344 222.585 438.127 222.851 438.125L269.544 438.002C269.813 438.002 270.031 438.219 270.033 438.486L270.061 449.487C270.061 449.755 269.844 449.973 269.577 449.975Z" fill="white"/>
<path opacity="0.53" d="M388.239 449.663L279.689 449.948C279.262 449.948 278.915 449.604 278.913 449.177L278.887 438.751C278.887 438.324 279.231 437.978 279.658 437.976L388.208 437.69C388.635 437.69 388.982 438.035 388.984 438.462L389.011 448.888C389.011 449.315 388.666 449.661 388.239 449.663Z" fill="white"/>
<path opacity="0.53" d="M184.746 470.972L49.1762 471.329C48.8972 471.329 48.6694 471.103 48.6674 470.824L48.6387 459.864C48.6387 459.586 48.8644 459.358 49.1434 459.356L184.713 458.999C184.992 458.999 185.219 459.225 185.222 459.504L185.25 470.463C185.25 470.742 185.025 470.97 184.746 470.972Z" fill="white"/>
<path opacity="0.53" d="M269.597 471.009L222.904 471.132C222.635 471.132 222.417 470.915 222.415 470.648L222.387 459.647C222.387 459.379 222.604 459.161 222.871 459.159L269.564 459.036C269.833 459.036 270.05 459.254 270.052 459.52L270.081 470.521C270.081 470.79 269.863 471.007 269.597 471.009Z" fill="white"/>
<path opacity="0.53" d="M440.197 470.56L304.482 470.917C304.055 470.917 303.708 470.572 303.706 470.146L303.68 459.719C303.68 459.292 304.024 458.946 304.451 458.944L440.166 458.587C440.593 458.587 440.94 458.931 440.942 459.358L440.968 469.785C440.968 470.211 440.624 470.558 440.197 470.56Z" fill="white"/>
<path opacity="0.53" d="M83.109 492.283L49.6968 492.371C49.27 492.371 48.9233 492.026 48.9212 491.6L48.8945 481.173C48.8945 480.746 49.2392 480.4 49.666 480.398L83.0782 480.31C83.505 480.31 83.8517 480.654 83.8538 481.081L83.8804 491.507C83.8804 491.934 83.5357 492.28 83.109 492.283Z" fill="white"/>
<path opacity="0.53" d="M185.209 480.065L87.4306 480.321C87.1507 480.322 86.9244 480.549 86.9252 480.829L86.9539 491.789C86.9546 492.068 87.1821 492.295 87.462 492.294L185.24 492.038C185.52 492.037 185.747 491.81 185.746 491.53L185.717 480.57C185.716 480.291 185.489 480.064 185.209 480.065Z" fill="white"/>
<path opacity="0.53" d="M270.036 492.071L223.343 492.194C223.074 492.194 222.857 491.976 222.855 491.71L222.826 480.709C222.826 480.44 223.044 480.223 223.31 480.221L270.003 480.098C270.272 480.098 270.49 480.315 270.492 480.582L270.52 491.582C270.52 491.851 270.303 492.069 270.036 492.071Z" fill="white"/>
<path opacity="0.53" d="M509.83 491.442L325.574 491.926C325.147 491.926 324.8 491.581 324.798 491.155L324.771 480.728C324.771 480.301 325.116 479.955 325.543 479.953L509.799 479.469C510.226 479.469 510.573 479.813 510.575 480.24L510.602 490.666C510.602 491.093 510.257 491.44 509.83 491.442Z" fill="white"/>
<path opacity="0.53" d="M82.9317 396.777L49.5196 396.864C49.0924 396.865 48.747 397.212 48.7481 397.639L48.7754 408.066C48.7765 408.493 49.1238 408.838 49.5509 408.837L82.9631 408.75C83.3902 408.749 83.7356 408.401 83.7345 407.974L83.7072 397.548C83.7061 397.121 83.3589 396.776 82.9317 396.777Z" fill="white"/>
<path opacity="0.53" d="M184.674 396.531L86.8954 396.787C86.6156 396.787 86.3893 397.015 86.39 397.295L86.4187 408.254C86.4194 408.534 86.6469 408.76 86.9268 408.76L184.705 408.504C184.985 408.503 185.211 408.276 185.211 407.996L185.182 397.036C185.181 396.756 184.954 396.53 184.674 396.531Z" fill="white"/>
<path opacity="0.53" d="M269.747 408.537L223.054 408.66C222.785 408.66 222.568 408.443 222.566 408.176L222.537 397.176C222.537 396.907 222.755 396.69 223.021 396.687L269.714 396.564C269.983 396.564 270.201 396.782 270.203 397.048L270.231 408.049C270.231 408.318 270.014 408.535 269.747 408.537Z" fill="white"/>
<path opacity="0.53" d="M508.754 407.907L324.498 408.391C324.071 408.391 323.724 408.047 323.722 407.62L323.695 397.194C323.695 396.767 324.04 396.421 324.467 396.419L508.723 395.935C509.15 395.935 509.497 396.279 509.499 396.706L509.526 407.132C509.526 407.559 509.181 407.905 508.754 407.907Z" fill="white"/>
<path opacity="0.53" d="M83.2676 417.838L49.8555 417.926C49.4283 417.927 49.0829 418.274 49.0841 418.701L49.1114 429.127C49.1125 429.554 49.4597 429.9 49.8869 429.899L83.299 429.811C83.7262 429.81 84.0716 429.463 84.0705 429.036L84.0432 418.609C84.042 418.182 83.6948 417.837 83.2676 417.838Z" fill="white"/>
<path opacity="0.53" d="M185.252 417.596L87.4736 417.852C87.1937 417.853 86.9674 418.08 86.9681 418.36L86.9968 429.32C86.9976 429.6 87.225 429.826 87.5049 429.825L185.283 429.569C185.563 429.568 185.789 429.341 185.789 429.061L185.76 418.102C185.759 417.822 185.532 417.596 185.252 417.596Z" fill="white"/>
<path opacity="0.53" d="M270.187 429.602L223.494 429.725C223.225 429.725 223.007 429.507 223.005 429.241L222.977 418.24C222.977 417.971 223.194 417.754 223.461 417.752L270.154 417.629C270.423 417.629 270.64 417.846 270.642 418.113L270.671 429.114C270.671 429.382 270.453 429.6 270.187 429.602Z" fill="white"/>
<path opacity="0.53" d="M509.785 428.97L325.529 429.454C325.102 429.454 324.755 429.109 324.753 428.683L324.727 418.256C324.727 417.83 325.071 417.483 325.498 417.481L509.755 416.997C510.181 416.997 510.528 417.342 510.53 417.768L510.557 428.195C510.557 428.621 510.212 428.968 509.785 428.97Z" fill="white"/>
<path opacity="0.53" d="M206.167 506.16L202.338 506.171C202.182 506.171 202.053 506.044 202.053 505.888L201.277 211.384C201.277 211.228 201.405 211.099 201.56 211.099L205.389 211.089C205.545 211.089 205.674 211.216 205.674 211.372L206.45 505.875C206.45 506.031 206.323 506.16 206.167 506.16Z" fill="white"/>
<path d="M331.294 559.436H66.6512C64.2855 559.436 62.3672 561.353 62.3672 563.718C62.3672 566.082 64.2855 568 66.6512 568H331.294C333.66 568 335.578 566.082 335.578 563.718C335.578 561.353 333.66 559.436 331.294 559.436Z" fill="url(#paint3_linear_1121_1900)"/>
<path d="M293.809 515.899H104.136C98.418 515.899 93.7832 520.532 93.7832 526.248V559.435H304.164V526.248C304.164 520.532 299.529 515.899 293.811 515.899H293.809Z" fill="url(#paint4_linear_1121_1900)"/>
<path d="M279.777 497.407H118.169C112.451 497.407 107.816 502.04 107.816 507.756V515.898H290.132V507.756C290.132 502.04 285.497 497.407 279.779 497.407H279.777Z" fill="url(#paint5_linear_1121_1900)"/>
<path d="M152.888 442.858H245.056C246.49 442.858 247.653 444.021 247.653 445.455V497.407H150.291V445.455C150.291 444.021 151.454 442.858 152.888 442.858Z" fill="url(#paint6_linear_1121_1900)"/>
<path d="M40.2035 286.804C37.8317 288.988 37.6245 292.662 39.7378 295.096L172.968 450.609C175.172 453.147 179.039 453.365 181.514 451.088L192.849 440.656L46.1166 281.361L40.2015 286.804H40.2035Z" fill="url(#paint7_linear_1121_1900)"/>
<path d="M58.4469 236.841C53.9105 232.116 46.4279 231.884 41.6084 236.32L29.6592 247.317C24.8397 251.753 24.454 259.226 28.7913 264.134L187.76 445.338L221.082 414.669C223.785 412.182 223.908 407.959 221.355 405.317L58.4448 236.841H58.4469Z" fill="url(#paint8_linear_1121_1900)"/>
<path d="M69.8478 274.809L68.5983 275.959C64.7288 279.522 64.4805 285.543 68.0423 289.413L151.931 380.486C155.495 384.353 161.519 384.602 165.39 381.041L166.64 379.891C170.509 376.328 170.757 370.307 167.196 366.437L83.3071 275.365C79.7432 271.497 73.7194 271.249 69.8478 274.809Z" fill="url(#paint9_linear_1121_1900)"/>
<path opacity="0.39" d="M70.9934 273.744L67.4707 276.986L164.268 382.062L167.791 378.819L70.9934 273.744Z" fill="white"/>
<path d="M230.107 461.146C246.693 444.567 246.693 417.687 230.107 401.108C213.522 384.529 186.631 384.529 170.045 401.108C153.459 417.687 153.459 444.567 170.045 461.146C186.631 477.724 213.522 477.724 230.107 461.146Z" fill="url(#paint10_linear_1121_1900)"/>
<path opacity="0.39" d="M223.017 454.057C235.686 441.393 235.686 420.861 223.017 408.197C210.347 395.533 189.806 395.533 177.137 408.197C164.468 420.861 164.468 441.393 177.137 454.057C189.806 466.721 210.347 466.721 223.017 454.057Z" fill="white"/>
<path d="M57.9473 258.9L68.4705 265.408C70.7664 266.829 73.7845 266.07 75.1366 263.734L156.584 120.89C157.88 118.648 157.16 115.783 154.957 114.422L149.466 111.027L57.9473 258.903V258.9Z" fill="url(#paint11_linear_1121_1900)"/>
<path d="M146.181 74.8231L157.272 81.6832C161.747 84.4498 163.185 90.2845 160.51 94.8128L62.6677 261.82L31.7339 242.692C29.2247 241.142 28.4861 237.83 30.0987 235.36L132.982 77.7907C135.842 73.3772 141.708 72.0585 146.181 74.8251V74.8231Z" fill="url(#paint12_linear_1121_1900)"/>
<path d="M116.107 116.981L61.3977 205.379C58.9767 209.29 60.1872 214.421 64.0999 216.841C68.0125 219.261 73.1459 218.051 75.5669 214.141L130.276 125.742C132.697 121.831 131.486 116.7 127.574 114.28C123.661 111.86 118.528 113.07 116.107 116.981Z" fill="url(#paint13_linear_1121_1900)"/>
<path opacity="0.39" d="M62.4606 215.833L65.7305 217.854L129.201 115.29L125.931 113.268L62.4606 215.833Z" fill="white"/>
<path d="M74.9131 276.589C88.2314 263.276 88.2314 241.692 74.9131 228.38C61.5948 215.067 40.0016 215.067 26.6833 228.38C13.365 241.692 13.365 263.276 26.6833 276.589C40.0016 289.902 61.5948 289.902 74.9131 276.589Z" fill="url(#paint14_linear_1121_1900)"/>
<path opacity="0.39" d="M69.2188 270.897C79.3922 260.728 79.3922 244.241 69.2188 234.071C59.0454 223.902 42.551 223.902 32.3776 234.071C22.2042 244.241 22.2042 260.728 32.3776 270.897C42.551 281.066 59.0454 281.066 69.2188 270.897Z" fill="white"/>
<path d="M260.596 134.11L255.276 142.853C253.13 146.38 249.248 147.963 246.542 146.417L146.662 89.9958L161.5 65.6111C162.704 63.6341 164.9 62.7912 166.365 63.7469L259.749 124.717C262.367 126.409 262.744 130.582 260.598 134.108L260.596 134.11Z" fill="url(#paint15_linear_1121_1900)"/>
<path d="M161.199 105.771C175.972 105.163 187.454 92.6989 186.845 77.9325C186.236 63.1661 173.767 51.6889 158.994 52.2975C144.222 52.9061 132.74 65.3699 133.348 80.1363C133.957 94.9027 146.426 106.38 161.199 105.771Z" fill="url(#paint16_linear_1121_1900)"/>
<path opacity="0.39" d="M160.09 99.4893C171.384 99.4893 180.54 90.3376 180.54 79.0483C180.54 67.7591 171.384 58.6074 160.09 58.6074C148.796 58.6074 139.641 67.7591 139.641 79.0483C139.641 90.3376 148.796 99.4893 160.09 99.4893Z" fill="white"/>
<path d="M277.484 136.599L299.852 120.459L330.843 158.135L326.145 163.681L298.125 133.636L280.814 146.3L277.484 136.599Z" fill="url(#paint17_linear_1121_1900)"/>
<g opacity="0.3">
<path d="M386.887 76.308C387.263 74.7719 388.746 73.7342 390.346 73.9516C393.851 74.4254 397.386 75.0611 400.853 75.8363C402.54 76.2137 403.603 77.8872 403.225 79.573C403.221 79.5935 403.215 79.612 403.211 79.6325C402.809 81.2834 401.155 82.3171 399.487 81.9438C396.192 81.2075 392.833 80.6046 389.505 80.1534C387.792 79.9217 386.592 78.3445 386.824 76.6321C386.838 76.5213 386.858 76.4147 386.885 76.308H386.887ZM413.332 82.959C413.361 82.84 413.397 82.7211 413.441 82.6042C414.044 80.9861 415.847 80.1616 417.466 80.7646C420.794 82.0053 424.099 83.3999 427.294 84.9093C428.857 85.6477 429.522 87.5057 428.785 89.0767C428.047 90.6394 426.18 91.306 424.618 90.5677C421.582 89.1321 418.441 87.8072 415.279 86.63C413.777 86.0701 412.96 84.4807 413.332 82.961V82.959ZM437.653 95.2662C437.735 94.9278 437.876 94.5976 438.078 94.29C439.027 92.8462 440.968 92.4442 442.413 93.3938C445.373 95.338 448.289 97.436 451.073 99.6304C452.431 100.701 452.661 102.668 451.594 104.025C450.525 105.383 448.556 105.617 447.197 104.546C444.553 102.463 441.787 100.471 438.974 98.6255C437.838 97.879 437.345 96.5193 437.651 95.2703L437.653 95.2662ZM458.615 112.703C458.751 112.143 459.044 111.616 459.491 111.187C460.739 109.991 462.721 110.034 463.917 111.281C466.369 113.841 468.74 116.538 470.967 119.296C472.05 120.641 471.839 122.61 470.495 123.695C469.149 124.78 467.179 124.567 466.094 123.224C463.98 120.605 461.73 118.043 459.397 115.611C458.63 114.809 458.373 113.705 458.617 112.703H458.615ZM475.162 134.374C475.353 133.591 475.846 132.879 476.594 132.432C478.078 131.542 480 132.024 480.889 133.507C482.709 136.538 484.424 139.692 485.985 142.877C486.746 144.427 486.106 146.302 484.553 147.063C483 147.824 481.127 147.182 480.363 145.629C478.88 142.6 477.249 139.604 475.521 136.722C475.08 135.988 474.976 135.143 475.164 134.372L475.162 134.374ZM486.498 159.163C486.746 158.148 487.497 157.278 488.564 156.927C490.208 156.388 491.974 157.282 492.514 158.925C493.62 162.29 494.594 165.744 495.409 169.191C495.807 170.873 494.764 172.559 493.082 172.957C491.402 173.355 489.713 172.313 489.315 170.631C488.54 167.356 487.614 164.075 486.564 160.877C486.375 160.301 486.363 159.71 486.496 159.163H486.498ZM466.574 272.315C466.676 271.894 466.869 271.488 467.152 271.125C469.229 268.482 471.219 265.711 473.063 262.891C474.009 261.445 475.95 261.039 477.395 261.987C478.841 262.932 479.247 264.872 478.299 266.318C476.356 269.288 474.262 272.206 472.075 274.989C471.008 276.349 469.038 276.585 467.68 275.518C466.683 274.737 466.289 273.469 466.572 272.315H466.574ZM492.054 185.828C492.362 184.567 493.441 183.58 494.805 183.453C496.527 183.293 498.051 184.559 498.213 186.277C498.542 189.803 498.722 193.388 498.747 196.929C498.751 198.656 497.368 200.069 495.638 200.082C493.911 200.094 492.499 198.703 492.487 196.974C492.464 193.611 492.294 190.209 491.98 186.86C491.947 186.505 491.974 186.156 492.054 185.828ZM480.887 249.116C480.936 248.915 481.004 248.716 481.096 248.521C482.528 245.477 483.849 242.331 485.021 239.171C485.622 237.551 487.423 236.724 489.044 237.325C490.665 237.926 491.5 239.727 490.891 241.347C489.658 244.671 488.269 247.981 486.761 251.185C486.024 252.748 484.159 253.42 482.596 252.684C481.225 252.04 480.542 250.531 480.887 249.116ZM491.51 213.068C491.884 211.534 493.365 210.498 494.966 210.711C496.679 210.941 497.883 212.514 497.655 214.226C497.185 217.733 496.56 221.267 495.79 224.729C495.786 224.751 495.78 224.772 495.776 224.794C495.374 226.443 493.724 227.475 492.058 227.108C490.37 226.734 489.305 225.063 489.68 223.375C490.409 220.086 491.004 216.73 491.449 213.398C491.465 213.285 491.486 213.174 491.513 213.068H491.51Z" fill="url(#paint18_linear_1121_1900)"/>
<path d="M451.492 288.298C451.638 287.699 451.962 287.137 452.459 286.698C453.667 285.629 454.874 284.518 456.047 283.394C457.295 282.198 459.277 282.239 460.473 283.486C461.671 284.733 461.63 286.714 460.38 287.91C459.147 289.091 457.879 290.26 456.607 291.386C455.313 292.531 453.333 292.41 452.19 291.115C451.484 290.318 451.258 289.259 451.494 288.298H451.492Z" fill="url(#paint19_linear_1121_1900)"/>
</g>
<g opacity="0.3">
<path d="M360.995 318.562C361.352 317.096 362.733 316.062 364.286 316.187C365.894 316.316 367.531 316.415 369.154 316.478C370.882 316.546 372.228 318 372.16 319.727C372.092 321.46 370.638 322.799 368.91 322.731C367.203 322.664 365.478 322.561 363.783 322.426C362.06 322.286 360.775 320.779 360.915 319.056C360.929 318.888 360.956 318.722 360.995 318.562Z" fill="url(#paint20_linear_1121_1900)"/>
<path d="M252.204 168.349C252.545 166.95 252.912 165.552 253.302 164.155C253.768 162.492 255.495 161.52 257.159 161.985C258.823 162.451 259.8 164.186 259.332 165.841C258.429 169.067 257.66 172.319 257.038 175.549C256.708 177.248 255.07 178.357 253.374 178.031C251.675 177.705 250.563 176.064 250.891 174.366C251.275 172.369 251.718 170.342 252.204 168.347V168.349ZM258.831 148.589C258.872 148.419 258.93 148.25 259.002 148.084C260.388 144.881 261.927 141.7 263.573 138.632C264.389 137.11 266.287 136.538 267.81 137.354C269.334 138.17 269.908 140.072 269.088 141.591C267.524 144.506 266.064 147.529 264.744 150.572C264.059 152.157 262.215 152.887 260.631 152.2C259.211 151.585 258.476 150.045 258.831 148.591V148.589ZM248.909 190.714C249.258 189.28 250.587 188.252 252.114 188.332C253.841 188.425 255.165 189.897 255.075 191.624C254.898 194.924 254.863 198.277 254.968 201.591C255.019 203.318 253.665 204.762 251.937 204.817C250.21 204.871 248.763 203.515 248.71 201.788C248.599 198.3 248.638 194.766 248.823 191.29C248.833 191.091 248.864 190.898 248.909 190.711V190.714ZM272.139 125.289C272.233 124.903 272.403 124.53 272.652 124.19C274.707 121.372 276.907 118.607 279.192 115.974C280.325 114.67 282.301 114.528 283.608 115.66C284.915 116.792 285.056 118.767 283.922 120.074C281.753 122.574 279.662 125.199 277.711 127.877C276.694 129.274 274.734 129.579 273.339 128.562C272.282 127.793 271.849 126.487 272.141 125.291L272.139 125.289ZM250.462 217.475C250.75 216.3 251.708 215.346 252.978 215.131C254.683 214.84 256.299 215.986 256.589 217.691C257.143 220.947 257.846 224.227 258.677 227.436C259.11 229.11 258.105 230.816 256.431 231.249C254.757 231.681 253.052 230.677 252.619 229.003C251.745 225.623 251.004 222.172 250.419 218.741C250.345 218.306 250.364 217.877 250.462 217.475ZM257.853 243.248C258.082 242.309 258.743 241.489 259.705 241.093C261.306 240.437 263.134 241.202 263.788 242.801C265.046 245.867 266.449 248.917 267.955 251.862C268.745 253.4 268.136 255.285 266.593 256.072C265.054 256.858 263.169 256.249 262.381 254.711C260.795 251.61 259.32 248.402 257.996 245.174C257.736 244.54 257.699 243.868 257.851 243.248H257.853ZM270.688 266.798C270.863 266.083 271.287 265.428 271.94 264.973C273.357 263.985 275.309 264.333 276.298 265.75C278.195 268.472 280.227 271.142 282.34 273.689C283.444 275.018 283.261 276.991 281.927 278.094C280.596 279.196 278.624 279.013 277.52 277.682C275.298 275.002 273.158 272.192 271.162 269.329C270.629 268.562 270.485 267.639 270.69 266.798H270.688ZM288.355 286.987C288.477 286.493 288.721 286.019 289.088 285.617C290.255 284.343 292.235 284.257 293.509 285.424C295.955 287.664 298.522 289.823 301.144 291.846C302.512 292.902 302.765 294.868 301.71 296.234C300.653 297.602 298.688 297.857 297.319 296.8C294.56 294.672 291.854 292.397 289.281 290.039C288.409 289.239 288.093 288.06 288.355 286.987ZM310.034 302.813C310.102 302.535 310.21 302.262 310.36 301.999C311.218 300.5 313.13 299.979 314.63 300.836C317.502 302.477 320.481 304.017 323.487 305.416C325.055 306.144 325.732 308.01 325.005 309.571C324.277 311.138 322.414 311.819 320.846 311.089C317.681 309.618 314.544 307.996 311.521 306.267C310.282 305.56 309.71 304.132 310.032 302.811L310.034 302.813ZM334.644 313.486C334.659 313.425 334.677 313.361 334.696 313.3C335.206 311.649 336.959 310.724 338.61 311.236C340.941 311.958 343.321 312.615 345.689 313.191C346.544 313.4 347.402 313.597 348.259 313.788C349.948 314.161 351.015 315.83 350.642 317.518C350.297 319.235 348.598 320.27 346.911 319.899C346.009 319.7 345.11 319.491 344.207 319.272C341.719 318.665 339.213 317.973 336.762 317.215C335.172 316.724 334.257 315.082 334.644 313.488V313.486Z" fill="url(#paint21_linear_1121_1900)"/>
<path d="M290.31 105.443C290.458 104.838 290.786 104.272 291.289 103.833C292.563 102.717 293.887 101.608 295.22 100.535C296.566 99.4503 298.538 99.6636 299.621 101.011C300.704 102.358 300.493 104.325 299.145 105.41C297.879 106.429 296.622 107.484 295.411 108.544C294.112 109.682 292.134 109.551 290.996 108.251C290.298 107.453 290.077 106.403 290.31 105.447V105.443Z" fill="url(#paint22_linear_1121_1900)"/>
</g>
<path d="M324.583 118.14C324.021 118.408 323.688 119.005 323.76 119.624L325.773 137.309C319.283 142.506 313.575 148.773 308.957 155.974L291.165 155.832C290.541 155.826 289.983 156.218 289.773 156.806L282.65 176.932C282.443 177.52 282.629 178.174 283.118 178.564L297.041 189.639C296.101 198.142 296.595 206.601 298.372 214.723L285.682 227.206C285.237 227.643 285.12 228.316 285.389 228.878L294.589 248.143C294.858 248.707 295.455 249.038 296.074 248.966L313.766 246.954C318.965 253.441 325.235 259.146 332.439 263.763L332.297 281.55C332.293 282.173 332.683 282.731 333.272 282.94L353.405 290.061C353.994 290.268 354.649 290.082 355.039 289.593L366.118 275.676C374.624 276.616 383.088 276.121 391.21 274.345L403.699 287.032C404.136 287.477 404.809 287.594 405.371 287.325L424.645 278.129C425.209 277.86 425.54 277.264 425.468 276.644L423.455 258.96C429.945 253.763 435.653 247.495 440.271 240.295L458.066 240.436C458.689 240.44 459.247 240.051 459.457 239.462L466.58 219.335C466.79 218.746 466.601 218.092 466.112 217.703L452.19 206.628C453.129 198.125 452.635 189.665 450.858 181.544L463.548 169.06C463.993 168.623 464.11 167.951 463.841 167.389L454.641 148.123C454.373 147.559 453.775 147.229 453.156 147.301L435.464 149.313C430.265 142.826 423.995 137.12 416.791 132.504L416.933 114.717C416.939 114.093 416.547 113.535 415.958 113.326L395.825 106.206C395.236 105.998 394.581 106.185 394.192 106.673L383.112 120.59C374.608 119.651 366.143 120.145 358.02 121.921L345.531 109.237C345.094 108.792 344.421 108.675 343.859 108.943L324.585 118.14H324.583Z" fill="url(#paint23_linear_1121_1900)"/>
<path opacity="0.56" d="M353.759 193.037C356.237 182.875 365.88 175.769 376.603 176.767C388.39 177.865 397.085 188.34 395.989 200.123C395.46 205.83 392.735 210.99 388.322 214.649C383.909 218.31 378.334 220.032 372.624 219.501C360.837 218.404 352.142 207.928 353.238 196.146C353.336 195.084 353.513 194.046 353.757 193.037H353.759ZM390.599 202.063C390.79 201.277 390.926 200.475 391.004 199.655C391.845 190.623 385.175 182.59 376.139 181.749C367.101 180.908 359.063 187.571 358.223 196.607C357.382 205.639 364.05 213.673 373.088 214.513C377.466 214.922 381.74 213.599 385.123 210.793C387.873 208.513 389.769 205.471 390.599 202.063Z" fill="white"/>
<path opacity="0.56" d="M323.53 186.122C323.955 184.376 324.472 182.641 325.079 180.925C325.27 180.385 325.471 179.846 325.678 179.313C326.706 176.679 327.943 174.132 329.369 171.71C329.388 171.677 329.408 171.645 329.427 171.612C329.482 171.517 329.537 171.425 329.595 171.333C329.704 171.15 329.814 170.97 329.925 170.791C330.217 170.318 330.773 170.106 331.286 170.232C331.411 170.262 331.532 170.312 331.647 170.383C332.235 170.746 332.416 171.517 332.055 172.104C330.188 175.131 328.635 178.382 327.439 181.761C321.493 198.552 325.044 216.433 335.278 229.524C340.97 236.807 348.727 242.604 358.071 245.908C359.708 246.489 361.364 246.981 363.03 247.385C374.238 250.115 385.949 248.919 396.501 243.884C408.623 238.101 417.765 227.945 422.244 215.289C431.493 189.149 417.749 160.385 391.612 151.142C390.002 150.572 388.366 150.086 386.717 149.684C379.567 147.943 372.115 147.785 364.895 149.249C364.708 149.286 364.523 149.282 364.349 149.239C363.893 149.128 363.518 148.763 363.417 148.271C363.282 147.592 363.717 146.932 364.396 146.796C371.975 145.26 379.8 145.426 387.306 147.254C389.037 147.674 390.752 148.185 392.445 148.784C419.887 158.488 434.308 188.706 424.604 216.126C419.901 229.413 410.303 240.074 397.579 246.144C386.501 251.431 374.207 252.686 362.441 249.821C360.693 249.395 358.955 248.878 357.236 248.271C343.943 243.57 333.278 233.976 327.203 221.257C321.913 210.182 320.66 197.889 323.528 186.126L323.53 186.122Z" fill="white"/>
<path d="M272.967 127.516L263.217 121.639C263.005 121.512 262.731 121.58 262.603 121.791L244.92 151.103C244.793 151.315 244.861 151.589 245.072 151.717L254.822 157.593C255.034 157.721 255.308 157.653 255.436 157.441L273.119 128.129C273.246 127.918 273.178 127.643 272.967 127.516Z" fill="url(#paint24_linear_1121_1900)"/>
<path d="M271.652 163.271L268.205 190.629L316.143 199.75L318.759 192.969L278.946 182.797L281.765 161.54L271.652 163.271Z" fill="url(#paint25_linear_1121_1900)"/>
<path d="M264.432 162.56C269.032 166.327 275.456 167.625 281.436 165.412C290.406 162.092 294.988 152.133 291.666 143.165C289.986 138.626 286.603 135.211 282.509 133.378L264.432 162.56Z" fill="url(#paint26_linear_1121_1900)"/>
<path d="M254.588 156.484L251.758 161.175C251.248 162.022 251.57 163.15 252.474 163.695L261.174 168.939C262.079 169.485 263.227 169.243 263.738 168.396L286.299 131C286.81 130.155 286.49 129.025 285.583 128.48L276.884 123.236C275.979 122.69 274.83 122.932 274.319 123.779L271.726 128.076L254.588 156.484Z" fill="url(#paint27_linear_1121_1900)"/>
<g opacity="0.3">
<path d="M401.563 289.892C401.552 288.991 402.223 288.21 403.138 288.103C405.137 287.869 407.176 287.72 409.199 287.658C410.184 287.627 411.005 288.401 411.035 289.383C411.035 289.395 411.035 289.405 411.035 289.418C411.048 290.386 410.28 291.188 409.31 291.218C407.389 291.278 405.453 291.419 403.553 291.641C402.576 291.756 401.69 291.056 401.577 290.078C401.569 290.015 401.567 289.953 401.565 289.892H401.563ZM417.086 289.824C417.086 289.754 417.088 289.684 417.096 289.613C417.201 288.634 418.077 287.925 419.056 288.029C421.066 288.243 423.087 288.544 425.061 288.926C426.027 289.112 426.657 290.041 426.473 291.011C426.286 291.977 425.35 292.609 424.386 292.422C422.509 292.059 420.588 291.774 418.678 291.571C417.771 291.475 417.096 290.714 417.086 289.824ZM432.238 293.173C432.236 292.974 432.267 292.773 432.334 292.574C432.654 291.643 433.668 291.149 434.597 291.467C436.505 292.121 438.409 292.865 440.254 293.681C441.155 294.079 441.559 295.131 441.163 296.032C440.765 296.932 439.712 297.338 438.812 296.94C437.059 296.165 435.252 295.458 433.44 294.836C432.708 294.586 432.244 293.905 432.236 293.173H432.238ZM446.261 299.826C446.257 299.498 446.343 299.165 446.53 298.866C447.049 298.031 448.149 297.775 448.984 298.294C450.699 299.358 452.388 300.511 454.005 301.717C454.792 302.305 454.954 303.421 454.366 304.211C453.777 304.998 452.661 305.16 451.871 304.572C450.336 303.425 448.732 302.332 447.103 301.321C446.567 300.987 446.268 300.417 446.261 299.828V299.826ZM458.451 309.438C458.444 308.979 458.617 308.517 458.966 308.165C459.657 307.465 460.785 307.459 461.485 308.15C462.917 309.565 464.308 311.063 465.619 312.599C466.259 313.347 466.171 314.471 465.422 315.109C464.673 315.747 463.549 315.659 462.909 314.91C461.662 313.45 460.34 312.028 458.98 310.683C458.633 310.341 458.457 309.889 458.451 309.438ZM468.207 321.506C468.2 320.911 468.49 320.324 469.029 319.982C469.858 319.453 470.96 319.695 471.489 320.525C472.575 322.223 473.6 323.991 474.538 325.777C474.996 326.649 474.659 327.726 473.787 328.183C472.917 328.64 471.838 328.304 471.383 327.432C470.492 325.736 469.518 324.057 468.486 322.443C468.299 322.152 468.209 321.827 468.207 321.508V321.506ZM473.223 386.717C473.221 386.471 473.268 386.22 473.375 385.978C474.146 384.227 474.852 382.418 475.47 380.603C475.788 379.672 476.799 379.174 477.731 379.492C478.662 379.809 479.161 380.82 478.843 381.752C478.19 383.663 477.447 385.568 476.637 387.414C476.241 388.314 475.189 388.722 474.288 388.327C473.627 388.035 473.231 387.393 473.223 386.717ZM475.043 335.425C475.035 334.686 475.49 333.989 476.225 333.727C477.152 333.394 478.172 333.876 478.502 334.803C479.183 336.7 479.788 338.653 480.303 340.601C480.55 341.553 479.988 342.527 479.035 342.777C478.084 343.027 477.109 342.461 476.859 341.51C476.37 339.658 475.796 337.806 475.15 336.003C475.082 335.812 475.047 335.615 475.045 335.425H475.043ZM477.835 371.901C477.835 371.784 477.843 371.663 477.866 371.544C478.225 369.664 478.508 367.742 478.707 365.835C478.81 364.857 479.686 364.147 480.665 364.247C481.643 364.35 482.359 365.226 482.253 366.204C482.043 368.212 481.746 370.234 481.366 372.213C481.182 373.179 480.248 373.813 479.282 373.628C478.436 373.466 477.843 372.732 477.835 371.901ZM478.594 350.521C478.584 349.623 479.253 348.841 480.166 348.733C481.143 348.616 482.029 349.315 482.146 350.291C482.384 352.291 482.538 354.33 482.603 356.346C482.603 356.358 482.603 356.37 482.603 356.382C482.616 357.348 481.85 358.15 480.88 358.183C479.895 358.216 479.072 357.445 479.042 356.46C478.978 354.545 478.832 352.609 478.607 350.708C478.601 350.644 478.594 350.581 478.594 350.517V350.521Z" fill="url(#paint28_linear_1121_1900)"/>
<path d="M467.166 397.66C467.162 397.31 467.261 396.955 467.472 396.641C467.987 395.88 468.496 395.097 468.984 394.313C469.503 393.476 470.601 393.22 471.438 393.739C472.275 394.258 472.533 395.355 472.012 396.192C471.499 397.018 470.966 397.841 470.422 398.643C469.87 399.457 468.762 399.67 467.948 399.118C467.445 398.778 467.172 398.226 467.166 397.664V397.66Z" fill="url(#paint29_linear_1121_1900)"/>
</g>
<g opacity="0.3">
<path d="M421.541 427.135C421.531 426.276 422.146 425.511 423.02 425.361C423.925 425.205 424.842 425.027 425.747 424.834C426.709 424.627 427.657 425.238 427.864 426.2C428.072 427.166 427.458 428.109 426.498 428.317C425.546 428.522 424.582 428.708 423.628 428.872C422.657 429.039 421.736 428.388 421.57 427.42C421.553 427.326 421.545 427.23 421.543 427.137L421.541 427.135Z" fill="url(#paint30_linear_1121_1900)"/>
<path d="M340.31 359.676C340.3 358.856 340.304 358.034 340.322 357.209C340.345 356.225 341.16 355.445 342.142 355.468C343.127 355.489 343.911 356.309 343.886 357.287C343.845 359.192 343.88 361.096 343.995 362.966C344.053 363.948 343.308 364.791 342.325 364.853C341.342 364.912 340.497 364.166 340.437 363.183C340.368 362.027 340.325 360.847 340.31 359.678V359.676ZM341.17 347.843C341.17 347.744 341.176 347.642 341.192 347.539C341.504 345.577 341.902 343.606 342.376 341.68C342.612 340.724 343.577 340.142 344.533 340.376C345.489 340.612 346.076 341.578 345.838 342.531C345.388 344.359 345.009 346.233 344.713 348.097C344.559 349.069 343.646 349.732 342.674 349.576C341.804 349.439 341.182 348.692 341.172 347.841L341.17 347.843ZM341.656 372.474C341.646 371.635 342.235 370.88 343.086 370.708C344.05 370.515 344.99 371.141 345.183 372.105C345.552 373.95 346.008 375.804 346.533 377.615C346.806 378.561 346.264 379.547 345.318 379.822C344.373 380.097 343.384 379.553 343.111 378.608C342.557 376.699 342.079 374.746 341.689 372.804C341.666 372.693 341.656 372.582 341.654 372.474H341.656ZM345.214 333.116C345.212 332.89 345.253 332.66 345.341 332.437C346.076 330.593 346.898 328.758 347.787 326.982C348.226 326.102 349.297 325.745 350.177 326.184C351.057 326.623 351.414 327.693 350.975 328.573C350.132 330.259 349.352 332.002 348.655 333.754C348.291 334.668 347.253 335.113 346.34 334.75C345.649 334.475 345.226 333.817 345.216 333.116H345.214ZM346.297 387.012C346.289 386.323 346.683 385.663 347.354 385.363C348.252 384.961 349.307 385.365 349.707 386.264C350.474 387.98 351.326 389.691 352.237 391.344C352.713 392.205 352.399 393.288 351.537 393.764C350.675 394.237 349.592 393.926 349.116 393.064C348.156 391.323 347.259 389.525 346.453 387.716C346.35 387.486 346.301 387.248 346.297 387.012ZM354.016 400.179C354.009 399.629 354.258 399.082 354.734 398.729C355.524 398.142 356.64 398.304 357.227 399.094C358.355 400.607 359.559 402.09 360.805 403.501C361.457 404.237 361.387 405.363 360.649 406.016C359.91 406.668 358.786 406.596 358.133 405.86C356.82 404.373 355.552 402.814 354.367 401.221C354.133 400.907 354.018 400.542 354.014 400.179H354.016ZM364.424 411.352C364.42 410.934 364.561 410.511 364.857 410.169C365.499 409.424 366.623 409.34 367.37 409.982C368.8 411.215 370.3 412.4 371.825 413.505C372.621 414.084 372.799 415.195 372.221 415.993C371.642 416.789 370.528 416.967 369.732 416.389C368.127 415.226 366.55 413.977 365.044 412.681C364.641 412.334 364.43 411.846 364.426 411.352H364.424ZM377.022 419.988C377.017 419.699 377.085 419.404 377.233 419.129C377.697 418.261 378.776 417.933 379.644 418.397C381.31 419.287 383.031 420.115 384.761 420.858C385.665 421.247 386.082 422.295 385.694 423.198C385.304 424.102 384.258 424.518 383.353 424.131C381.529 423.347 379.718 422.476 377.963 421.539C377.368 421.221 377.028 420.616 377.022 419.986V419.988ZM391.213 425.653C391.213 425.488 391.232 425.322 391.277 425.158C391.537 424.211 392.518 423.653 393.468 423.913C395.284 424.412 397.145 424.84 399 425.187C399.968 425.367 400.604 426.301 400.426 427.265C400.245 428.233 399.316 428.87 398.347 428.69C396.394 428.327 394.434 427.876 392.522 427.349C391.739 427.133 391.222 426.426 391.213 425.653ZM406.293 428.06C406.293 428.023 406.293 427.986 406.295 427.95C406.345 426.967 407.18 426.21 408.163 426.258C409.549 426.325 410.955 426.352 412.342 426.336C412.845 426.329 413.345 426.317 413.844 426.301C414.827 426.268 415.651 427.039 415.684 428.021C415.737 429.016 414.948 429.828 413.963 429.861C413.438 429.879 412.912 429.892 412.383 429.898C410.924 429.914 409.445 429.888 407.986 429.816C407.04 429.769 406.304 428.993 406.291 428.06H406.293Z" fill="url(#paint31_linear_1121_1900)"/>
<path d="M352.428 319.605C352.424 319.25 352.524 318.893 352.74 318.577C353.285 317.782 353.858 316.984 354.441 316.202C355.029 315.415 356.146 315.253 356.935 315.841C357.723 316.43 357.885 317.546 357.297 318.335C356.743 319.076 356.199 319.834 355.68 320.591C355.124 321.403 354.016 321.61 353.203 321.055C352.707 320.714 352.436 320.165 352.43 319.605H352.428Z" fill="url(#paint32_linear_1121_1900)"/>
</g>
<path d="M373.121 321.761C372.848 321.989 372.75 322.364 372.877 322.697L376.488 332.163C373.644 335.945 371.383 340.209 369.855 344.832L360.023 347.268C359.678 347.354 359.426 347.647 359.393 348.002L358.312 360.106C358.281 360.461 358.476 360.795 358.8 360.941L368.045 365.08C368.73 369.901 370.197 374.497 372.327 378.724L367.095 387.401C366.913 387.705 366.941 388.092 367.169 388.365L374.968 397.688C375.195 397.961 375.571 398.06 375.903 397.932L385.374 394.323C389.157 397.165 393.423 399.425 398.047 400.953L400.485 410.781C400.571 411.126 400.864 411.378 401.219 411.411L413.329 412.491C413.681 412.522 414.018 412.327 414.162 412.003L418.302 402.762C423.126 402.077 427.723 400.611 431.952 398.482L440.633 403.712C440.936 403.894 441.324 403.866 441.597 403.638L450.924 395.843C451.197 395.615 451.296 395.24 451.168 394.907L447.557 385.441C450.401 381.659 452.662 377.395 454.191 372.772L464.022 370.336C464.367 370.25 464.619 369.957 464.652 369.602L465.734 357.498C465.764 357.145 465.569 356.809 465.245 356.663L456 352.524C455.315 347.703 453.848 343.107 451.718 338.88L456.95 330.203C457.133 329.899 457.104 329.512 456.876 329.239L449.078 319.916C448.85 319.643 448.475 319.544 448.142 319.672L438.671 323.281C434.888 320.439 430.623 318.179 425.998 316.651L423.56 306.823C423.474 306.478 423.181 306.226 422.826 306.193L410.717 305.113C410.364 305.082 410.027 305.277 409.882 305.601L405.741 314.842C400.918 315.527 396.32 316.993 392.091 319.122L383.41 313.892C383.107 313.71 382.719 313.738 382.446 313.966L373.119 321.761H373.121Z" fill="url(#paint33_linear_1121_1900)"/>
<path opacity="0.56" d="M399.802 358.939C399.732 352.985 404.043 347.704 410.097 346.738C416.753 345.678 423.029 350.227 424.09 356.878C424.605 360.1 423.831 363.33 421.917 365.971C420.001 368.613 417.171 370.352 413.948 370.865C407.292 371.925 401.016 367.376 399.955 360.725C399.859 360.126 399.81 359.528 399.804 358.937L399.802 358.939ZM421.392 358.711C421.386 358.252 421.347 357.79 421.273 357.327C420.458 352.226 415.645 348.74 410.544 349.552C405.442 350.366 401.952 355.176 402.766 360.276C403.581 365.377 408.394 368.863 413.495 368.051C415.967 367.657 418.136 366.324 419.605 364.298C420.799 362.651 421.412 360.707 421.39 358.709L421.392 358.711Z" fill="white"/>
<path opacity="0.56" d="M382.155 359.399C382.142 358.375 382.181 357.348 382.274 356.314C382.302 355.99 382.337 355.664 382.376 355.34C382.571 353.742 382.893 352.163 383.336 350.627C383.343 350.606 383.349 350.586 383.355 350.563C383.371 350.504 383.39 350.444 383.408 350.385C383.443 350.27 383.478 350.153 383.513 350.038C383.607 349.737 383.884 349.54 384.184 349.538C384.258 349.538 384.331 349.548 384.405 349.571C384.781 349.688 384.99 350.088 384.873 350.463C384.272 352.397 383.876 354.407 383.693 356.441C382.789 366.54 387.278 375.898 394.771 381.671C398.938 384.882 404.036 386.985 409.656 387.485C410.641 387.573 411.623 387.61 412.6 387.6C419.168 387.522 425.456 385.207 430.561 380.939C436.427 376.037 440.031 369.146 440.713 361.533C442.116 345.814 430.47 331.892 414.75 330.49C413.782 330.403 412.811 330.367 411.845 330.377C407.655 330.428 403.525 331.392 399.75 333.219C399.652 333.266 399.549 333.289 399.448 333.291C399.182 333.295 398.923 333.145 398.798 332.889C398.628 332.534 398.773 332.108 399.128 331.937C403.09 330.02 407.428 329.005 411.826 328.951C412.842 328.939 413.86 328.978 414.877 329.068C431.381 330.543 443.608 345.168 442.134 361.659C441.42 369.651 437.635 376.884 431.476 382.03C426.115 386.511 419.514 388.939 412.618 389.021C411.595 389.033 410.563 388.994 409.529 388.902C401.533 388.188 394.295 384.405 389.147 378.25C384.664 372.889 382.235 366.289 382.153 359.396L382.155 359.399Z" fill="white"/>
<path d="M431.728 407.432L431.176 402.672C442.333 400.906 450.199 394.233 453.531 392.315C456.99 396.788 459.36 400.845 461.9 406.159C448.059 412.215 431.728 407.434 431.728 407.434V407.432Z" fill="url(#paint34_linear_1121_1900)"/>
<path d="M561.891 553.347C561.891 553.347 563.955 556.599 564.474 565.707C564.524 566.556 563.851 567.278 562.999 567.278H546.852C546.202 567.278 545.738 566.643 545.947 566.027C546.893 563.228 549.755 556.403 556.138 552.504L561.891 553.347Z" fill="url(#paint35_linear_1121_1900)"/>
<path d="M562.592 547.176L561.679 554.83C561.602 555.491 561.082 556.02 560.422 556.096C559.54 556.198 558.255 556.27 557.008 556.063C555.873 555.876 555.059 554.867 555.059 553.717V546.325L562.595 547.174L562.592 547.176Z" fill="url(#paint36_linear_1121_1900)"/>
<path d="M521.942 552.502C521.942 552.502 525.032 557.303 524.966 563.894C524.95 565.447 523.651 566.684 522.098 566.684H497.02C495.846 566.684 495.368 565.176 496.331 564.502C501.076 561.171 510.403 554.949 517.149 552.502H521.944H521.942Z" fill="url(#paint37_linear_1121_1900)"/>
<path d="M524.526 544.237L522.579 553.69C522.361 554.748 521.325 555.458 520.273 555.224C519.633 555.08 518.875 554.808 518.067 554.303C517.3 553.823 516.91 552.91 517.068 552.018L519.083 540.566L524.526 544.237Z" fill="url(#paint38_linear_1121_1900)"/>
<path d="M559.015 412.802C559.015 412.802 565.788 418.77 567.062 425.952C568.336 433.134 563.451 549.85 563.451 549.85C563.451 549.85 556.678 550.976 553.186 548.862C553.186 548.862 549.046 473.113 545.898 455.609C545.898 455.609 529.392 534.075 524.819 548.253C524.819 548.253 518.295 549.047 516.189 547.806C516.189 547.806 520.512 446.093 525.947 428.009L559.015 412.802Z" fill="url(#paint39_linear_1121_1900)"/>
<path d="M546.097 453.148C546.423 453.148 546.723 452.929 546.807 452.598L549.612 441.846L555.584 438.015C555.927 437.795 556.026 437.34 555.806 436.999C555.586 436.657 555.133 436.559 554.79 436.778L548.576 440.763C548.42 440.863 548.307 441.017 548.262 441.196L545.385 452.227C545.283 452.621 545.519 453.021 545.911 453.123C545.972 453.14 546.036 453.148 546.097 453.148Z" fill="url(#paint40_linear_1121_1900)"/>
<path d="M492.179 345.361C520.691 342.994 528.143 348.892 528.143 348.892L514.442 370.515C514.442 370.515 486.426 369.961 466.352 354.495C470.108 350.451 472.718 345.982 474.39 342.502C479.567 344.651 485.527 345.913 492.179 345.361Z" fill="url(#paint41_linear_1121_1900)"/>
<path d="M447.529 303.526C447.568 302.613 448.805 302.365 449.193 303.192L452.83 310.952C453.534 312.451 453.758 314.131 453.477 315.761L452.2 320.277C451.819 322.48 452.395 324.738 453.791 326.483C457.133 330.661 464.252 338.29 474.388 342.5C472.714 345.981 470.106 350.45 466.349 354.494C458.983 348.819 452.685 341.139 449.234 330.739C447.58 330.232 446.476 328.676 446.542 326.949L447.527 303.526H447.529Z" fill="url(#paint42_linear_1121_1900)"/>
<path d="M482.791 357.896C492.828 347.084 511.948 342.2 523.017 340.195C527.868 339.315 532.648 342.014 534.365 346.63C539.347 360.016 552.895 394.838 555.521 400.824C557.675 405.734 559.924 410.529 561.354 413.527C562.207 415.318 561.463 417.461 559.673 418.322C550.361 422.81 533.602 427.885 526.809 429.867C525.315 430.301 523.826 429.182 523.826 427.625C523.826 426.306 523.467 425.01 522.788 423.878L497.057 381.019C481.021 398.794 471.166 405.931 460.463 406.983C456.93 403.386 451.125 395.779 453.025 392.166C466.735 384.994 482.789 357.894 482.789 357.894L482.791 357.896Z" fill="url(#paint43_linear_1121_1900)"/>
<path d="M435.723 406.806L424.397 418.41L407.836 422.627C408.466 420.18 419.143 413.841 419.143 413.841C419.143 413.841 427.013 403.745 429.496 401.384C431.558 399.423 434.079 402.672 434.873 403.829C435.036 404.064 435.126 404.214 435.126 404.214L435.719 406.806H435.723Z" fill="url(#paint44_linear_1121_1900)"/>
<path d="M507.791 320.339L516.34 341.194C516.34 341.194 506.517 347.991 498.613 347.345L494.346 328.592L507.791 320.339Z" fill="url(#paint45_linear_1121_1900)"/>
<path d="M493.35 306.122C493.155 306.399 487.164 328.029 487.164 328.029L499.591 331.185L508.315 311.528C508.315 311.528 496.627 301.479 493.35 306.122Z" fill="url(#paint46_linear_1121_1900)"/>
<path d="M503.634 314.514L499.853 325.222C499.804 325.359 499.74 325.486 499.656 325.605C499.143 326.333 497.194 328.712 494.882 326.569C492.783 324.625 490.84 322.882 489.045 322.566C488.238 322.424 487.459 322.917 487.239 323.704C486.696 325.669 485.553 330.121 485.149 334.139C485.066 334.955 485.631 335.691 486.435 335.845C488.862 336.307 494.008 337.135 498.306 336.832C498.889 336.791 499.4 336.442 499.644 335.911C500.828 333.325 504.455 325.478 505.805 323.448C507.071 321.542 510.175 321.596 511.478 321.711C511.905 321.748 512.326 321.61 512.648 321.329C513.786 320.33 515.955 317.783 512.904 314.734C512.266 314.096 512.283 313.066 512.941 312.447C514.25 311.216 515.651 309.032 513.468 306.325C511.25 303.573 508.323 304.012 506.529 304.666C505.803 304.93 505.013 304.625 504.619 303.96C504.396 303.583 504.004 303.296 503.325 303.355C502.41 303.433 501.64 302.67 501.657 301.754C501.687 299.99 501.058 297.763 497.996 296.811C492.568 295.121 489.182 300.365 488.846 304.276C488.511 308.187 494.5 309.684 498.023 309.422C500.701 309.221 502.689 311.875 503.489 313.159C503.741 313.565 503.792 314.063 503.632 314.516L503.634 314.514Z" fill="url(#paint47_linear_1121_1900)"/>
<path d="M504.389 327.332C504.389 327.332 505.265 320.54 508.092 320.207C510.919 319.875 513.669 322.197 510.86 326.009C507.364 330.751 504.389 327.332 504.389 327.332Z" fill="url(#paint48_linear_1121_1900)"/>
</g>
<defs>
<linearGradient id="paint0_linear_1121_1900" x1="638.802" y1="733.127" x2="137.145" y2="109.838" gradientUnits="userSpaceOnUse">
<stop stop-color="#B37CFF"/>
<stop offset="1" stop-color="#F895E7"/>
</linearGradient>
<linearGradient id="paint1_linear_1121_1900" x1="501.58" y1="179.372" x2="64.3309" y2="512.436" gradientUnits="userSpaceOnUse">
<stop stop-color="#2B3582"/>
<stop offset="1" stop-color="#150E42"/>
</linearGradient>
<linearGradient id="paint2_linear_1121_1900" x1="455.663" y1="150.728" x2="-71.2099" y2="736.691" gradientUnits="userSpaceOnUse">
<stop stop-color="#FDF53F"/>
<stop offset="1" stop-color="#D93C65"/>
</linearGradient>
<linearGradient id="paint3_linear_1121_1900" x1="201.014" y1="532.083" x2="200.032" y2="547.301" gradientUnits="userSpaceOnUse">
<stop stop-color="#2B3582"/>
<stop offset="1" stop-color="#150E42"/>
</linearGradient>
<linearGradient id="paint4_linear_1121_1900" x1="201.4" y1="490.05" x2="197.964" y2="564.665" gradientUnits="userSpaceOnUse">
<stop stop-color="#2B3582"/>
<stop offset="1" stop-color="#150E42"/>
</linearGradient>
<linearGradient id="paint5_linear_1121_1900" x1="200.954" y1="469.766" x2="198.01" y2="532.11" gradientUnits="userSpaceOnUse">
<stop stop-color="#2B3582"/>
<stop offset="1" stop-color="#150E42"/>
</linearGradient>
<linearGradient id="paint6_linear_1121_1900" x1="202.29" y1="426.06" x2="197.866" y2="486.536" gradientUnits="userSpaceOnUse">
<stop stop-color="#CB236D"/>
<stop offset="1" stop-color="#4C246D"/>
</linearGradient>
<linearGradient id="paint7_linear_1121_1900" x1="103.787" y1="375.467" x2="119.501" y2="360.99" gradientUnits="userSpaceOnUse">
<stop stop-color="#2B3582"/>
<stop offset="1" stop-color="#150E42"/>
</linearGradient>
<linearGradient id="paint8_linear_1121_1900" x1="102.16" y1="352.369" x2="140.274" y2="317.257" gradientUnits="userSpaceOnUse">
<stop stop-color="#2B3582"/>
<stop offset="1" stop-color="#150E42"/>
</linearGradient>
<linearGradient id="paint9_linear_1121_1900" x1="74.4452" y1="229.692" x2="133.781" y2="364.724" gradientUnits="userSpaceOnUse">
<stop stop-color="#53D8FF"/>
<stop offset="1" stop-color="#3840F7"/>
</linearGradient>
<linearGradient id="paint10_linear_1121_1900" x1="168.856" y1="459.861" x2="231.312" y2="402.325" gradientUnits="userSpaceOnUse">
<stop stop-color="#53D8FF"/>
<stop offset="1" stop-color="#3840F7"/>
</linearGradient>
<linearGradient id="paint11_linear_1121_1900" x1="137.284" y1="212.337" x2="105.322" y2="185.628" gradientUnits="userSpaceOnUse">
<stop stop-color="#2B3582"/>
<stop offset="1" stop-color="#150E42"/>
</linearGradient>
<linearGradient id="paint12_linear_1121_1900" x1="44.9935" y1="250.852" x2="151.728" y2="78.2311" gradientUnits="userSpaceOnUse">
<stop stop-color="#2B3582"/>
<stop offset="1" stop-color="#150E42"/>
</linearGradient>
<linearGradient id="paint13_linear_1121_1900" x1="65.5837" y1="138.839" x2="119.855" y2="186.755" gradientUnits="userSpaceOnUse">
<stop stop-color="#53D8FF"/>
<stop offset="1" stop-color="#3840F7"/>
</linearGradient>
<linearGradient id="paint14_linear_1121_1900" x1="32.8837" y1="281.451" x2="68.7413" y2="223.459" gradientUnits="userSpaceOnUse">
<stop stop-color="#53D8FF"/>
<stop offset="1" stop-color="#3840F7"/>
</linearGradient>
<linearGradient id="paint15_linear_1121_1900" x1="155.133" y1="76.0304" x2="257.866" y2="138.544" gradientUnits="userSpaceOnUse">
<stop stop-color="#2B3582"/>
<stop offset="1" stop-color="#150E42"/>
</linearGradient>
<linearGradient id="paint16_linear_1121_1900" x1="213.786" y1="67.4437" x2="95.9833" y2="92.9335" gradientUnits="userSpaceOnUse">
<stop stop-color="#53D8FF"/>
<stop offset="1" stop-color="#3840F7"/>
</linearGradient>
<linearGradient id="paint17_linear_1121_1900" x1="362.44" y1="178.415" x2="301.19" y2="140.125" gradientUnits="userSpaceOnUse">
<stop stop-color="#53D8FF"/>
<stop offset="1" stop-color="#3840F7"/>
</linearGradient>
<linearGradient id="paint18_linear_1121_1900" x1="456.304" y1="89.3916" x2="414.051" y2="262.796" gradientUnits="userSpaceOnUse">
<stop stop-color="#B37CFF"/>
<stop offset="1" stop-color="#F895E7"/>
</linearGradient>
<linearGradient id="paint19_linear_1121_1900" x1="457.652" y1="282.35" x2="455.184" y2="292.478" gradientUnits="userSpaceOnUse">
<stop stop-color="#B37CFF"/>
<stop offset="1" stop-color="#F895E7"/>
</linearGradient>
<linearGradient id="paint20_linear_1121_1900" x1="367.417" y1="316.048" x2="365.724" y2="322.998" gradientUnits="userSpaceOnUse">
<stop stop-color="#B37CFF"/>
<stop offset="1" stop-color="#F895E7"/>
</linearGradient>
<linearGradient id="paint21_linear_1121_1900" x1="329.841" y1="126.611" x2="286.319" y2="305.222" gradientUnits="userSpaceOnUse">
<stop stop-color="#B37CFF"/>
<stop offset="1" stop-color="#F895E7"/>
</linearGradient>
<linearGradient id="paint22_linear_1121_1900" x1="296.522" y1="99.6315" x2="294.086" y2="109.63" gradientUnits="userSpaceOnUse">
<stop stop-color="#B37CFF"/>
<stop offset="1" stop-color="#F895E7"/>
</linearGradient>
<linearGradient id="paint23_linear_1121_1900" x1="477.011" y1="169.153" x2="-83.2558" y2="328.239" gradientUnits="userSpaceOnUse">
<stop stop-color="#CB236D"/>
<stop offset="1" stop-color="#4C246D"/>
</linearGradient>
<linearGradient id="paint24_linear_1121_1900" x1="199.09" y1="150.003" x2="306.411" y2="131.367" gradientUnits="userSpaceOnUse">
<stop stop-color="#CB236D"/>
<stop offset="1" stop-color="#4C246D"/>
</linearGradient>
<linearGradient id="paint25_linear_1121_1900" x1="346.255" y1="220.596" x2="285.005" y2="182.306" gradientUnits="userSpaceOnUse">
<stop stop-color="#53D8FF"/>
<stop offset="1" stop-color="#3840F7"/>
</linearGradient>
<linearGradient id="paint26_linear_1121_1900" x1="273.324" y1="147.892" x2="290.195" y2="158.158" gradientUnits="userSpaceOnUse">
<stop stop-color="#2B3582"/>
<stop offset="1" stop-color="#150E42"/>
</linearGradient>
<linearGradient id="paint27_linear_1121_1900" x1="289.15" y1="139.41" x2="241.548" y2="155.16" gradientUnits="userSpaceOnUse">
<stop stop-color="#CB236D"/>
<stop offset="1" stop-color="#4C246D"/>
</linearGradient>
<linearGradient id="paint28_linear_1121_1900" x1="441.731" y1="287.225" x2="442.936" y2="388.81" gradientUnits="userSpaceOnUse">
<stop stop-color="#B37CFF"/>
<stop offset="1" stop-color="#F895E7"/>
</linearGradient>
<linearGradient id="paint29_linear_1121_1900" x1="469.767" y1="393.432" x2="469.837" y2="399.365" gradientUnits="userSpaceOnUse">
<stop stop-color="#B37CFF"/>
<stop offset="1" stop-color="#F895E7"/>
</linearGradient>
<linearGradient id="paint30_linear_1121_1900" x1="424.779" y1="424.766" x2="424.828" y2="428.839" gradientUnits="userSpaceOnUse">
<stop stop-color="#B37CFF"/>
<stop offset="1" stop-color="#F895E7"/>
</linearGradient>
<linearGradient id="paint31_linear_1121_1900" x1="377.266" y1="325.624" x2="378.507" y2="430.258" gradientUnits="userSpaceOnUse">
<stop stop-color="#B37CFF"/>
<stop offset="1" stop-color="#F895E7"/>
</linearGradient>
<linearGradient id="paint32_linear_1121_1900" x1="355.073" y1="315.456" x2="355.143" y2="321.313" gradientUnits="userSpaceOnUse">
<stop stop-color="#B37CFF"/>
<stop offset="1" stop-color="#F895E7"/>
</linearGradient>
<linearGradient id="paint33_linear_1121_1900" x1="464.431" y1="328.281" x2="178.02" y2="495.216" gradientUnits="userSpaceOnUse">
<stop stop-color="#CB236D"/>
<stop offset="1" stop-color="#4C246D"/>
</linearGradient>
<linearGradient id="paint34_linear_1121_1900" x1="386.697" y1="392.494" x2="481.871" y2="405.431" gradientUnits="userSpaceOnUse">
<stop stop-color="#F9B776"/>
<stop offset="1" stop-color="#F47960"/>
</linearGradient>
<linearGradient id="paint35_linear_1121_1900" x1="564.476" y1="559.891" x2="545.898" y2="559.891" gradientUnits="userSpaceOnUse">
<stop stop-color="#2B3582"/>
<stop offset="1" stop-color="#150E42"/>
</linearGradient>
<linearGradient id="paint36_linear_1121_1900" x1="562.592" y1="551.262" x2="555.057" y2="551.262" gradientUnits="userSpaceOnUse">
<stop stop-color="#F9B776"/>
<stop offset="1" stop-color="#F47960"/>
</linearGradient>
<linearGradient id="paint37_linear_1121_1900" x1="524.966" y1="559.594" x2="495.816" y2="559.594" gradientUnits="userSpaceOnUse">
<stop stop-color="#2B3582"/>
<stop offset="1" stop-color="#150E42"/>
</linearGradient>
<linearGradient id="paint38_linear_1121_1900" x1="524.526" y1="547.917" x2="517.031" y2="547.917" gradientUnits="userSpaceOnUse">
<stop stop-color="#F9B776"/>
<stop offset="1" stop-color="#F47960"/>
</linearGradient>
<linearGradient id="paint39_linear_1121_1900" x1="567.275" y1="481.475" x2="516.189" y2="481.475" gradientUnits="userSpaceOnUse">
<stop stop-color="#CB236D"/>
<stop offset="1" stop-color="#4C246D"/>
</linearGradient>
<linearGradient id="paint40_linear_1121_1900" x1="559.538" y1="346.411" x2="546.149" y2="494.765" gradientUnits="userSpaceOnUse">
<stop stop-color="#CB236D"/>
<stop offset="1" stop-color="#4C246D"/>
</linearGradient>
<linearGradient id="paint41_linear_1121_1900" x1="482.648" y1="271.015" x2="497.88" y2="355.277" gradientUnits="userSpaceOnUse">
<stop stop-color="#53D8FF"/>
<stop offset="1" stop-color="#3840F7"/>
</linearGradient>
<linearGradient id="paint42_linear_1121_1900" x1="474.388" y1="328.591" x2="446.54" y2="328.591" gradientUnits="userSpaceOnUse">
<stop stop-color="#F9B776"/>
<stop offset="1" stop-color="#F47960"/>
</linearGradient>
<linearGradient id="paint43_linear_1121_1900" x1="498.391" y1="321.282" x2="513.622" y2="465.598" gradientUnits="userSpaceOnUse">
<stop stop-color="#53D8FF"/>
<stop offset="1" stop-color="#3840F7"/>
</linearGradient>
<linearGradient id="paint44_linear_1121_1900" x1="387.253" y1="407.343" x2="482.424" y2="420.28" gradientUnits="userSpaceOnUse">
<stop stop-color="#F9B776"/>
<stop offset="1" stop-color="#F47960"/>
</linearGradient>
<linearGradient id="paint45_linear_1121_1900" x1="479.023" y1="289.436" x2="537.265" y2="396.495" gradientUnits="userSpaceOnUse">
<stop stop-color="#F9B776"/>
<stop offset="1" stop-color="#F47960"/>
</linearGradient>
<linearGradient id="paint46_linear_1121_1900" x1="497.349" y1="309.147" x2="498.737" y2="351.82" gradientUnits="userSpaceOnUse">
<stop stop-color="#F9B776"/>
<stop offset="1" stop-color="#F47960"/>
</linearGradient>
<linearGradient id="paint47_linear_1121_1900" x1="508.678" y1="327.198" x2="483.551" y2="309.452" gradientUnits="userSpaceOnUse">
<stop stop-color="#2B3582"/>
<stop offset="1" stop-color="#150E42"/>
</linearGradient>
<linearGradient id="paint48_linear_1121_1900" x1="512.603" y1="352.929" x2="507.953" y2="323.711" gradientUnits="userSpaceOnUse">
<stop stop-color="#F9B776"/>
<stop offset="1" stop-color="#F47960"/>
</linearGradient>
<clipPath id="clip0_1121_1900">
<rect width="570" height="568" fill="white"/>
</clipPath>
</defs>
</svg>
