<svg width="344" height="50" viewBox="0 0 344 50" fill="none" xmlns="http://www.w3.org/2000/svg">
<g clip-path="url(#clip0_875_1643)">
<path fill-rule="evenodd" clip-rule="evenodd" d="M84.8935 15.3256C81.3173 15.3256 78.252 16.5821 75.6976 18.5923V15.8282H67.0126V48.2436H75.953V27.6385C77.2303 25.8795 80.2956 23.618 84.1272 23.618C85.4044 23.618 86.6816 23.8692 87.7034 24.1205V15.8282C86.6816 15.5769 85.6598 15.3256 84.8935 15.3256ZM8.2609 38.1923C10.5599 40.2026 14.1361 41.459 17.2014 41.459C19.5004 41.459 21.5439 40.2026 21.5439 38.6949C21.5439 33.6692 5.45104 35.4282 5.45104 25.1256C5.45104 18.8436 11.5816 15.0744 17.9677 15.0744C22.3102 15.0744 26.9082 16.5821 29.2071 18.341L25.1201 24.6231C23.332 23.618 21.2884 22.3615 18.734 22.3615C16.1796 22.3615 14.3915 23.3667 14.3915 25.1256C14.3915 29.3974 30.4844 27.6385 30.4844 38.9462C30.4844 45.2282 24.3538 48.9974 17.4568 48.9974C12.8589 48.9974 8.00546 47.4897 4.17383 44.7256L8.2609 38.1923ZM63.1809 31.659C63.1809 22.6128 56.7949 15.0744 47.599 15.0744C37.8922 15.0744 31.5061 23.1154 31.5061 31.9103C31.5061 42.2128 38.914 48.7462 48.6207 48.7462C53.7296 48.7462 58.8384 46.7359 62.1592 42.9667L57.0503 37.941C55.5177 39.7 52.4524 41.7103 48.8762 41.7103C44.2782 41.7103 40.4466 38.4436 39.9357 33.9205H62.6701C63.1809 33.418 63.1809 32.6641 63.1809 31.659ZM40.702 27.8897C41.2129 24.8744 44.2782 22.1103 47.8544 22.1103C51.4306 22.1103 53.985 24.8744 54.4959 27.8897H40.702ZM108.139 35.6795L117.079 15.8282H126.275L111.204 48.2436H105.073L90.2578 15.8282H99.1983L108.139 35.6795ZM133.683 0.5C137.004 0.5 139.558 3.01282 139.558 6.02821C139.558 9.29487 137.004 11.5564 133.683 11.5564C130.362 11.5564 128.063 9.04359 128.063 6.02821C128.063 2.76154 130.362 0.5 133.683 0.5ZM129.34 15.8282H138.281V48.2436H129.34V15.8282ZM174.298 41.459C170.467 46.4846 165.613 48.7462 159.483 48.7462C149.265 48.7462 141.857 41.2077 141.857 31.9103C141.857 22.3615 149.52 15.0744 159.483 15.0744C165.358 15.0744 170.211 17.8385 173.276 21.6077L167.657 26.8846C165.869 24.6231 163.314 23.1154 160.249 23.1154C155.14 23.1154 151.308 27.1359 151.308 31.9103C151.308 36.9359 154.885 40.7051 160.249 40.7051C163.825 40.7051 166.635 38.6949 168.168 36.4333L174.298 41.459ZM206.228 42.9667C202.908 46.7359 197.799 48.7462 192.69 48.7462C182.983 48.7462 175.575 42.2128 175.575 31.9103C175.575 22.8641 181.706 15.0744 191.668 15.0744C200.609 15.0744 207.25 22.6128 207.25 31.659C207.25 32.6641 207.25 33.4179 206.995 34.1718H184.005C184.516 38.6949 188.348 41.9615 192.945 41.9615C196.522 41.9615 199.587 39.9513 201.12 38.1923L206.228 42.9667ZM198.054 27.8897C197.799 25.1256 195.244 22.1103 191.413 22.1103C187.837 22.1103 184.771 24.8744 184.26 27.8897H198.054ZM210.571 48.2436V15.8282H219.001V18.5923C221.555 16.5821 224.62 15.3256 228.197 15.3256C232.794 15.3256 236.882 17.3359 239.691 20.6026C241.735 23.1154 243.268 26.3821 243.268 31.9103V48.4949H234.327V31.1564C234.327 27.8897 233.561 26.1308 232.284 25.1256C231.006 23.8692 229.474 23.1154 227.175 23.1154C223.599 23.1154 220.533 25.3769 219.001 27.1359V48.2436H210.571Z" fill="#293E40"/>
<path fill-rule="evenodd" clip-rule="evenodd" d="M265.746 15.0742C255.017 15.0742 246.588 23.3665 246.588 33.9204C246.588 39.4486 248.887 44.4742 252.463 47.9922C253.74 49.2486 256.039 49.2486 257.572 48.2435C259.615 46.4845 262.681 45.4793 265.746 45.4793C269.067 45.4793 271.621 46.4845 273.92 48.2435C275.453 49.4999 277.496 49.2486 279.029 47.7409C282.605 44.2229 284.904 39.4486 284.904 33.9204C284.649 23.6178 276.219 15.0742 265.746 15.0742ZM265.491 43.7204C259.615 43.7204 255.784 39.4486 255.784 34.1717C255.784 28.8947 259.615 24.6229 265.491 24.6229C271.366 24.6229 275.197 28.8947 275.197 34.1717C275.197 39.4486 271.366 43.7204 265.491 43.7204Z" fill="#81B5A1"/>
<path fill-rule="evenodd" clip-rule="evenodd" d="M302.274 48.2435H295.633L282.605 15.8281H291.29L298.443 34.423L305.595 15.8281H312.748L319.645 34.423L326.797 15.8281H335.737L322.71 48.2435H316.068L308.916 29.8999L302.274 48.2435Z" fill="#293E40"/>
<path d="M335.738 44.4747H334.972V45.7311H334.461V41.9619H335.994C336.76 41.9619 337.015 42.4645 337.015 43.2183C337.015 43.7209 336.76 43.9722 336.504 44.2235L337.526 45.4799H336.76L335.738 44.4747ZM334.972 43.4696H335.994C336.504 43.4696 336.504 43.2183 336.504 42.967C336.504 42.4645 336.249 42.4645 335.994 42.4645H334.972V43.4696Z" fill="#293E40"/>
<path d="M335.737 40.4537C337.781 40.4537 339.314 41.9614 339.314 43.9717C339.314 45.9819 337.781 47.4896 335.737 47.4896C333.694 47.4896 332.161 45.9819 332.161 43.9717C332.161 41.9614 333.949 40.4537 335.737 40.4537ZM335.737 39.9512C333.439 39.9512 331.65 41.9614 331.65 43.9717C331.65 46.2332 333.694 47.9922 335.737 47.9922C338.036 47.9922 339.825 45.9819 339.825 43.9717C339.825 41.9614 337.781 39.9512 335.737 39.9512Z" fill="#293E40"/>
</g>
<defs>
<clipPath id="clip0_875_1643">
<rect width="344" height="49" fill="white" transform="translate(0 0.5)"/>
</clipPath>
</defs>
</svg>
