<svg width="104" height="140" viewBox="0 0 104 140" fill="none" xmlns="http://www.w3.org/2000/svg">
<g clip-path="url(#clip0_885_1955)">
<path fill-rule="evenodd" clip-rule="evenodd" d="M70.6918 127.446L75.6845 139.965L77.7718 139.955C78.1292 139.5 77.9768 139.708 78.2182 139.173C78.3032 138.985 78.4558 138.563 78.5444 138.352C80.0228 134.84 81.4656 130.661 82.9787 127.434L82.9619 140L85.3645 139.888L85.3785 124.783C80.5734 124.754 82.281 123.881 79.347 131.035C78.6163 132.817 77.5964 135.958 76.7443 137.453C76.3224 135.93 72.3038 125.455 71.7423 124.774L68.3864 124.749L68.3513 139.985L70.654 139.964L70.6918 127.446L70.6918 127.446ZM54.0923 126.558C56.2611 126.521 61.1325 126.057 62.124 127.712C62.7781 128.804 62.3842 130.344 61.6428 130.962C60.4018 131.997 56.0086 131.695 54.1176 131.686L54.0923 126.558V126.558ZM51.6844 139.98L54.1422 139.975L54.1427 133.483C63.7699 133.073 61.5721 133.819 62.6183 139.965L65.6221 139.989C65.2004 138.884 65.5406 139.904 65.1319 139.07C63.9283 136.614 65.7599 133.95 62.761 132.469C63.7327 131.465 64.959 131.368 64.9815 128.989C65.0347 123.36 56.9412 124.878 51.7125 124.751L51.6843 139.98H51.6844ZM19.9486 132.845L29.3546 132.842L29.3179 139.96L31.7982 139.915L31.8064 124.775L29.3543 124.84L29.2476 130.995L19.9722 131.005L19.9509 124.791L17.5162 124.821L17.5165 139.963L19.9573 139.875L19.9486 132.845V132.845ZM92.5407 133.669C92.9358 132.263 94.5971 127.916 95.369 127.111L98.0323 133.663L92.5407 133.669ZM87.2695 139.893L89.8643 139.97L91.6597 135.436L98.8882 135.424L100.703 139.882L103.314 139.984C102.938 138.646 97.1229 125.513 96.5563 124.815L94.0053 124.776L87.2695 139.893V139.893ZM38.9619 133.665C39.3477 132.384 41.1158 127.843 41.8209 127.129C42.5666 129.209 43.8766 131.504 44.4532 133.661L38.9619 133.665ZM38.1154 135.428L45.2938 135.47L47.1583 139.935L49.7582 139.973C49.0905 137.755 47.3643 134.345 46.3496 132.112C45.7514 130.796 45.2626 129.587 44.6448 128.262C42.8494 124.412 44.0789 124.726 40.3696 124.802L33.7588 139.957L36.2487 139.924L38.1155 135.428L38.1154 135.428ZM4.63761 126.612C7.36381 126.666 12.6542 125.668 12.5988 129.218C12.5699 131.065 11.5715 131.532 9.78556 131.665C8.2288 131.781 6.3076 131.739 4.65101 131.702L4.63761 126.612ZM4.62384 133.533C8.2231 133.644 16.3899 134.45 14.9572 128.008C14.448 125.719 12.5471 124.939 10.0652 124.807C7.65181 124.678 4.60315 124.683 2.18742 124.794L2.17052 139.989L4.62715 139.842L4.62384 133.533V133.533ZM28.3074 82.8178C29.4116 84.1479 32.8692 82.5915 33.6462 86.8543C34.9093 93.7839 32.377 108.97 35.5109 113.489C37.8512 116.864 43.916 118.397 49.7205 118.053C64.7776 117.161 60.9111 105.616 61.3429 91.8603C61.4296 89.1021 61.7744 86.1462 63.3869 84.4365C64.9903 82.7366 69.5368 83.3928 70.7024 84.7819C71.6859 85.9537 71.1551 100.64 71.154 103.467C71.1529 106.438 71.2619 109.61 70.3598 112.297C68.5866 117.58 65.5091 114.494 65.547 116.903C66.6403 117.461 77.9951 117.376 79.135 116.943C79.0783 115.331 77.7847 115.957 76.2155 115.457C72.5438 114.287 72.5496 108.581 72.5493 105.323L72.548 85.8971C73.1109 86.3114 72.5914 85.8343 73.0374 86.3278L90.8618 114.273C91.5824 115.442 92.6055 117.588 93.8529 118.095C95.668 116.074 95.6049 115.485 98.5618 113.832C99.5143 113.299 100.055 113.29 100.441 112.483C99.659 111.681 98.2729 111.598 97.604 110.554C97.0117 109.63 97.3521 97.8851 97.3521 96.2746C97.352 93.1045 96.9431 86.2568 99.7891 84.2048C101.155 83.2202 102.841 83.8939 103.214 82.5858C102.526 81.5799 98.4662 81.9822 96.3244 81.9822C94.8719 81.9822 90.027 81.5213 89.3419 82.5858C89.8563 84.4719 92.5426 82.3698 94.5011 85.3345C96.8277 88.8568 95.9439 103.287 95.9549 108.444L80.4971 84.7366C79.2628 82.8322 80.139 81.9822 77.5398 81.9822L55.7405 81.9843C54.5222 81.9885 54.0366 81.8482 53.2396 82.3452C53.7404 85.1986 59.9344 80.0749 59.9344 93.2584V105.091C59.9344 111.988 58.04 115.962 51.3442 116.514C48.2884 116.766 45.0162 116.147 43.2438 114.577C41.4588 112.997 41.1224 109.886 41.1224 106.715C41.1224 103.211 40.6818 88.3481 41.9234 85.6898C43.5021 82.3098 47.2161 84.6631 47.6374 82.259C46.0333 81.6738 40.1807 81.9822 37.8837 81.9822C36.1831 81.9822 34.4824 81.9826 32.7817 81.9822C31.4569 81.9819 28.5383 81.4438 28.3073 82.8178H28.3074ZM7.02887 119.666C8.84866 119.035 8.16726 116.749 11.4169 117.165C13.7619 117.465 15.3745 117.789 17.8712 117.567C30.7207 116.42 35.0903 99.8402 21.0332 95.7158C14.8948 93.9147 7.88047 93.4105 7.80441 88.1538C7.77055 85.8201 8.94998 84.4733 10.1608 83.6178C14.577 80.4979 21.5756 83.1313 24.3784 87.7409C25.4152 89.4461 26.2987 91.5749 27.7574 91.68C28.131 90.2584 26.534 87.0021 25.9298 85.4951C25.4372 84.2666 24.2123 80.1245 23.2737 79.5145C21.2354 81.4585 23.7609 82.1576 17.7026 81.1873C10.6423 80.0566 3.27617 83.3262 2.2894 90.3431C0.685153 101.751 13.6486 100.979 20.5751 105.234C22.1843 106.223 24.095 107.556 24.0172 110.195C23.8697 115.192 18.3753 116.992 13.6368 115.86C7.1231 114.305 3.40467 106.776 2.49775 106.113C1.07458 105.073 1.71021 107.455 1.9823 108.062C2.82007 109.929 6.37391 118.761 7.02892 119.666L7.02887 119.666ZM35.4286 40.3592C34.4927 30.4925 41.1295 23.2011 49.9579 22.3079C59.383 21.3544 67.1748 28.6238 68.0065 36.8977C69.5162 51.9149 51.7785 60.1194 41.1157 51.0517C38.5438 48.8647 35.8925 45.2481 35.4286 40.3592ZM48.6216 2.70745C43.4496 3.50492 39.1626 5.528 36.0141 8.09298C34.4204 9.39133 32.767 10.9977 31.5038 12.6304C30.3905 14.0694 31.0561 13.9281 29.2584 14.7866C24.7298 16.9492 20.5593 21.4864 18.2028 26.473C16.1098 30.9019 15.0219 36.3506 15.7571 41.9243C16.4072 46.8532 18.4038 51.38 21.0006 54.7004C24.0902 58.651 27.3068 60.397 27.9264 61.2158C30.0314 63.9977 30.9521 65.9465 34.262 68.5809C36.0516 70.0051 37.4555 70.9888 39.7354 72.1418C44.1855 74.3924 49.5577 75.3552 55.1393 74.5866C68.295 72.775 72.4222 63.5197 74.2183 62.3253C75.1418 61.7111 76.1343 61.0598 76.9592 60.4279C79.935 58.1481 83.1476 54.5308 85.2478 50.6111C87.4678 46.4678 88.5041 40.8568 87.8411 35.411C86.9554 28.1359 83.2795 22.1077 78.1158 17.9694C75.515 15.8849 76.1378 15.9105 73.9825 13.0632C69.6059 7.28178 60.1534 0.929335 48.6216 2.70749V2.70745Z" fill="black"/>
<path fill-rule="evenodd" clip-rule="evenodd" d="M38.2956 26.9686C38.9524 26.5864 38.6082 26.7869 39.1352 26.2932C45.804 20.0457 54.8483 19.8919 62.8752 23.942C65.8972 25.4668 69.7668 28.4948 71.9498 31.0989C76.7289 36.7999 78.8666 43.8053 77.9297 51.427C77.351 56.1338 76.5263 56.7236 75.6332 59.9225C78.386 58.861 81.7408 54.7423 83.3663 52.2186C87.799 45.3363 88.2596 35.2849 84.6967 27.8673C82.3066 22.8914 81.3354 22.515 78.2093 19.2749C73.5007 14.3945 63.7904 11.4903 54.9506 13.3098C49.2008 14.4934 44.433 18.0423 41.0953 22.233C40.1698 23.395 38.8056 25.3455 38.2955 26.9687L38.2956 26.9686ZM65.2987 49.5621C63.6219 50.4889 55.7211 60.7072 40.8599 53.1518C36.3956 50.8821 32.0061 46.5543 29.4188 42.5868C24.604 35.2037 25.0124 23.6683 28.8233 16.2593C26.3338 17.0819 23.8801 19.7612 22.3261 21.5485C21.8244 22.1255 21.9093 21.9445 21.4877 22.5626C21.2218 22.9525 21.0028 23.2802 20.729 23.6638C15.9673 30.3336 14.92 40.832 18.2008 48.4516C21.1191 55.2293 27.294 61.0608 34.6079 63.1259C38.8827 64.3329 43.837 64.6219 48.3094 63.5542C52.4626 62.5629 56.1895 60.4466 58.6798 58.3819C60.9119 56.5314 64.0986 53.1268 65.2986 49.562L65.2987 49.5621Z" fill="#F7C5A2"/>
<path fill-rule="evenodd" clip-rule="evenodd" d="M62.2988 24.8895C76.496 37.1412 66.5496 59.5228 48.8794 64.3394C45.7697 65.1871 42.0731 65.4701 38.668 65.0213C35.1197 64.5536 33.1207 63.3318 30.1644 62.6554C30.9685 65.0374 35.6244 68.8861 37.9344 70.2327C41.3115 72.2011 44.7275 73.706 49.4852 73.9276C59.9614 74.4156 66.5175 70.057 70.9534 64.8566C83.0837 50.636 75.7801 30.2474 62.2988 24.8896L62.2988 24.8895ZM39.6306 51.174C38.4604 50.3679 36.1284 46.5736 35.4091 44.6857C34.1364 41.345 34.0922 38.888 34.6627 35.0275C36.3563 23.5654 44.273 14.6301 55.5465 12.3014C58.6035 11.67 62.4485 11.7226 65.5551 12.1972C70.1559 12.9001 71.209 13.9857 73.8648 14.6531C73.3563 13.3893 71.2585 11.1315 70.4115 10.3685C58.9012 0.00044179 42.7468 1.31935 33.6114 11.4813C25.7232 20.2558 23.8439 33.9056 31.8075 44.3535C33.3354 46.3581 37.0864 50.4117 39.6306 51.174V51.174Z" fill="#E67817"/>
</g>
<defs>
<clipPath id="clip0_885_1955">
<rect width="104" height="140" fill="white"/>
</clipPath>
</defs>
</svg>
