<svg width="170" height="159" viewBox="0 0 170 159" fill="none" xmlns="http://www.w3.org/2000/svg">
<g clip-path="url(#clip0_1259_13037)">
<path d="M20.8577 83.3256L6.53906 97.5996L37.0752 128.041L51.3938 113.767L20.8577 83.3256Z" fill="#58595B"/>
<g style="mix-blend-mode:screen" opacity="0.15">
<path d="M20.8586 83.3236L13.1582 91L43.6943 121.441L51.3947 113.765L20.8586 83.3236Z" fill="#E6E7E8"/>
</g>
<path d="M75.6414 125.962C75.6414 139.968 64.248 151.326 50.1986 151.326C36.1493 151.326 24.7559 139.968 24.7559 125.962C24.7559 111.957 36.1493 100.599 50.1986 100.599C64.248 100.599 75.6414 111.957 75.6414 125.962Z" fill="#A7A9AC"/>
<path d="M50.1987 150.252C36.7615 150.252 25.832 139.357 25.832 125.952C25.832 112.547 36.7615 101.661 50.1987 101.661C63.6358 101.661 74.5653 112.557 74.5653 125.952C74.5653 139.347 63.6358 150.252 50.1987 150.252Z" fill="#BCBEC0"/>
<path d="M50.1979 141.414C41.6479 141.414 34.6973 134.486 34.6973 125.962C34.6973 117.439 41.6479 110.51 50.1979 110.51C58.748 110.51 65.6986 117.439 65.6986 125.962C65.6986 134.486 58.748 141.414 50.1979 141.414Z" fill="#E6E7E8"/>
<path d="M50.1978 139.259C42.8424 139.259 36.8594 133.294 36.8594 125.952C36.8594 118.61 42.8424 112.655 50.1978 112.655C57.5532 112.655 63.5462 118.62 63.5462 125.952C63.5462 133.285 57.5631 139.259 50.1978 139.259ZM50.1978 115.874C44.6196 115.874 40.078 120.401 40.078 125.962C40.078 131.523 44.6196 136.05 50.1978 136.05C55.7761 136.05 60.3177 131.523 60.3177 125.962C60.3177 120.401 55.7761 115.874 50.1978 115.874Z" fill="#BCBEC0"/>
<path d="M50.1984 132.675C46.4861 132.675 43.4551 129.663 43.4551 125.953C43.4551 122.242 46.4762 119.24 50.1984 119.24C53.9205 119.24 56.9416 122.252 56.9416 125.953C56.9416 129.653 53.9205 132.675 50.1984 132.675ZM50.1984 120.313C47.0785 120.313 44.5312 122.842 44.5312 125.962C44.5312 129.082 47.0686 131.612 50.1984 131.612C53.3281 131.612 55.8655 129.082 55.8655 125.962C55.8655 122.842 53.3281 120.313 50.1984 120.313Z" fill="#BCBEC0"/>
<path d="M50.1988 148.107C37.9464 148.107 27.9746 138.166 27.9746 125.952C27.9746 113.737 37.9464 103.807 50.1988 103.807C62.4512 103.807 72.423 113.747 72.423 125.952C72.423 138.156 62.4512 148.107 50.1988 148.107ZM50.1988 104.879C38.5387 104.879 29.0508 114.338 29.0508 125.962C29.0508 137.585 38.5387 147.044 50.1988 147.044C61.8588 147.044 71.3468 137.585 71.3468 125.962C71.3468 114.338 61.8588 104.879 50.1988 104.879Z" fill="#A7A9AC"/>
<path d="M50.1988 145.43C39.4273 145.43 30.6699 136.69 30.6699 125.952C30.6699 115.214 39.4372 106.484 50.1988 106.484C60.9604 106.484 69.7276 115.224 69.7276 125.952C69.7276 136.68 60.9702 145.43 50.1988 145.43ZM50.1988 107.026C39.7235 107.026 31.2031 115.52 31.2031 125.962C31.2031 136.405 39.7235 144.899 50.1988 144.899C60.674 144.899 69.1945 136.405 69.1945 125.962C69.1945 115.52 60.674 107.026 50.1988 107.026Z" fill="#A7A9AC"/>
<g style="mix-blend-mode:screen" opacity="0.2">
<path d="M75.642 125.962C75.642 111.957 64.2485 100.599 50.1992 100.599V151.335C64.2485 151.335 75.642 139.978 75.642 125.972V125.962Z" fill="#A7A9AC"/>
</g>
<path d="M55.5693 155.616H9.52148L11.6738 146.325H53.4268L55.5693 155.616Z" fill="#6D6E71"/>
<path d="M21.7047 141.858C21.6553 141.858 21.5961 141.858 21.5467 141.828L2.9953 134.771C2.76822 134.683 2.64974 134.427 2.7386 134.2C2.82746 133.974 3.08416 133.856 3.31124 133.945L21.8626 141.001C22.0897 141.09 22.2082 141.346 22.1193 141.572C22.0502 141.749 21.8824 141.858 21.7047 141.858Z" fill="#414042"/>
<path d="M27.6193 142.93C27.5008 142.93 27.3823 142.88 27.2935 142.792C20.175 135.125 13.3528 122.28 14.1426 110.883C14.1624 110.637 14.3598 110.44 14.6165 110.47C14.8633 110.489 15.0509 110.696 15.0312 110.942C14.2611 122.015 21.1919 134.898 27.955 142.181C28.1228 142.359 28.1129 142.644 27.9352 142.811C27.8464 142.89 27.7378 142.93 27.6292 142.93H27.6193Z" fill="#231F20"/>
<path d="M25.8321 144.308C25.8321 144.308 25.8124 144.308 25.8025 144.308L9.49227 143.373C9.24544 143.363 9.05785 143.146 9.0776 142.9C9.08747 142.654 9.2948 142.467 9.5515 142.487L25.8617 143.422C26.1086 143.432 26.2962 143.648 26.2764 143.894C26.2665 144.13 26.0691 144.308 25.8321 144.308Z" fill="#231F20"/>
<path d="M17.1336 136.867C17.0349 136.867 16.946 136.838 16.8671 136.779C16.324 136.356 3.45949 126.435 0.892502 122.124C0.764153 121.917 0.833264 121.641 1.05047 121.513C1.2578 121.385 1.53425 121.454 1.6626 121.671C4.14073 125.834 17.2817 135.982 17.4101 136.08C17.6075 136.228 17.6372 136.503 17.4891 136.7C17.4002 136.808 17.2719 136.877 17.1336 136.877V136.867Z" fill="#231F20"/>
<path d="M16.0579 132.772C15.9296 132.772 15.8012 132.713 15.7124 132.605C7.6066 122.546 6.52057 112.763 7.15245 108.57C7.19194 108.324 7.40914 108.157 7.65597 108.196C7.9028 108.236 8.06076 108.462 8.03115 108.698C7.41902 112.753 8.4853 122.231 16.4035 132.054C16.5614 132.241 16.5219 132.526 16.3344 132.674C16.2554 132.743 16.1566 132.772 16.0579 132.772Z" fill="#414042"/>
<path d="M123.582 106.582H117.135V109.19H123.582V106.582Z" fill="#6D6E71"/>
<path d="M119.08 103.088H113.857V112.684H119.08V103.088Z" fill="#808285"/>
<path d="M156.183 106.582H149.736V109.19H156.183V106.582Z" fill="#6D6E71"/>
<path d="M150.347 100.136H123.078V117.005H150.347V100.136Z" fill="#808285"/>
<path d="M157.989 152.556H115.406V157.477H157.989V152.556Z" fill="#6D6E71"/>
<path d="M143.477 126.926H129.951V140.42H143.477V126.926Z" fill="#D1D3D4"/>
<path d="M146.963 126.926H126.466L125.271 122.96H148.157L146.963 126.926Z" fill="#6D6E71"/>
<path d="M122.081 116.404H151.334C152.657 116.404 153.724 117.467 153.724 118.786V120.971C153.724 122.29 152.657 123.353 151.334 123.353H122.081C120.758 123.353 119.691 122.29 119.691 120.971V118.786C119.691 117.467 120.758 116.404 122.081 116.404Z" fill="#58595B"/>
<path d="M137.897 149.121H135.528L133.139 145.991H140.287L137.897 149.121Z" fill="#6D6E71"/>
<path d="M158.306 91.9961H115.111V100.136H158.306V91.9961Z" fill="#A7A9AC"/>
<path d="M141.088 146.384H132.34L129.951 140.42H143.477L141.088 146.384Z" fill="#A7A9AC"/>
<path d="M137.691 152.556H135.727V157.477H137.691V152.556Z" fill="#231F20"/>
<g style="mix-blend-mode:screen" opacity="0.15">
<path d="M154.228 106.582H150.338V100.136H158.305V91.9961H136.713V149.121H137.898L139.991 146.384H141.087L143.476 140.43V126.936H146.961L148.037 123.363H151.345C152.658 123.363 153.734 122.291 153.734 120.982V118.797C153.734 117.488 152.658 116.415 151.345 116.415H150.348V109.191H154.238V112.685H159.46V103.088H154.238V106.582H154.228Z" fill="#D1D3D4"/>
</g>
</g>
<path d="M120.562 9.5293C111.802 9.5293 104.68 16.6537 104.68 25.4161C104.68 34.1786 111.802 41.303 120.562 41.303C129.322 41.303 136.444 34.1786 136.444 25.4161C136.444 16.6537 129.322 9.5293 120.562 9.5293ZM120.562 35.9449C114.752 35.9449 110.046 31.238 110.046 25.426C110.046 19.614 114.761 14.9071 120.562 14.9071C126.362 14.9071 131.078 19.614 131.078 25.426C131.078 31.238 126.372 35.9449 120.562 35.9449Z" fill="#BCBEC0"/>
<path d="M143.013 25.4255C143.013 24.873 142.974 24.3204 142.934 23.7777C143.536 23.3237 144.118 22.8304 144.503 22.4455C144.907 22.0508 145.184 21.7844 145.184 21.7844C145.184 21.7844 144.996 20.2648 144.562 18.7847C144.394 18.0347 144.108 17.3243 143.911 16.7815C143.714 16.2388 143.576 15.8836 143.576 15.8836L141.297 16.8309C141.09 16.3178 140.843 15.8342 140.596 15.3409C140.971 14.6896 141.326 14.0087 141.543 13.5055C141.77 12.9825 141.918 12.6371 141.918 12.6371C141.918 12.6371 141.149 11.305 140.192 10.111C139.758 9.47951 139.205 8.94666 138.821 8.51249C138.436 8.08818 138.18 7.80202 138.18 7.80202L136.443 9.53872C136.059 9.15388 135.644 8.78878 135.22 8.43355C135.329 7.67374 135.368 6.94354 135.388 6.38109C135.388 5.80877 135.398 5.4338 135.398 5.4338C135.398 5.4338 135.092 5.20684 134.628 4.86148C134.155 4.53585 133.484 4.16088 132.833 3.75631C132.182 3.35174 131.462 3.06557 130.959 2.79915C130.446 2.54259 130.09 2.40445 130.09 2.40445L129.143 4.68386C128.64 4.47664 128.117 4.28916 127.595 4.11154C127.407 3.37147 127.161 2.69061 126.963 2.15776C126.756 1.62491 126.608 1.26967 126.608 1.26967C126.608 1.26967 126.243 1.171 125.681 1.03285C125.119 0.924307 124.359 0.815763 123.599 0.697352C122.84 0.559206 122.08 0.588808 121.508 0.53947C120.936 0.509868 120.551 0.5 120.551 0.5V2.9669C119.999 2.9669 119.446 3.00637 118.904 3.04584C118.45 2.44392 117.957 1.86173 117.572 1.46702C117.177 1.06245 116.911 0.78616 116.911 0.78616C116.911 0.78616 115.392 0.973645 113.912 1.40782C113.162 1.57557 112.452 1.86173 111.91 2.05908C111.367 2.25643 111.012 2.38471 111.012 2.38471L111.959 4.66413C111.446 4.87135 110.963 5.11803 110.469 5.36472C109.818 4.98976 109.138 4.63452 108.635 4.41744C108.112 4.19048 107.766 4.04247 107.766 4.04247C107.766 4.04247 106.435 4.81214 105.241 5.7693C104.61 6.20347 104.077 6.75606 103.643 7.13102C103.219 7.51586 102.933 7.78229 102.933 7.78229L104.679 9.51898C104.294 9.90382 103.929 10.3183 103.574 10.7426C102.814 10.634 102.084 10.5946 101.522 10.5748C100.95 10.5748 100.575 10.5551 100.575 10.5551C100.575 10.5551 100.348 10.861 100.003 11.3248C99.6774 11.7984 99.3025 12.4694 98.898 13.1108C98.4936 13.762 98.2075 14.4824 97.9412 14.9856C97.6847 15.4987 97.5466 15.854 97.5466 15.854L99.8155 16.8013C99.6083 17.3045 99.4209 17.8176 99.2532 18.3505C98.5133 18.538 97.8327 18.7847 97.3 18.9919C96.7673 19.1991 96.4121 19.3372 96.4121 19.3372C96.4121 19.3372 96.3135 19.7122 96.1754 20.2648C96.0669 20.8272 95.9682 21.5871 95.84 22.3469C95.7019 23.1067 95.7315 23.8665 95.6821 24.4388C95.6525 25.0111 95.6328 25.3959 95.6328 25.3959H98.099C98.099 25.9485 98.1385 26.5011 98.1779 27.0438C97.5762 27.4977 96.9941 27.9911 96.5996 28.376C96.1951 28.7707 95.9189 29.0371 95.9189 29.0371C95.9189 29.0371 96.1063 30.5567 96.5404 32.0368C96.7081 32.7868 96.9942 33.4972 97.1914 34.04C97.3887 34.5827 97.5268 34.9379 97.5268 34.9379L99.7957 33.9906C100.003 34.5037 100.25 34.9872 100.496 35.4806C100.121 36.1319 99.7661 36.8128 99.5491 37.316C99.3222 37.839 99.1743 38.1843 99.1743 38.1843C99.1743 38.1843 99.9437 39.5165 100.901 40.7105C101.335 41.342 101.887 41.8748 102.262 42.309C102.647 42.7333 102.903 43.0195 102.903 43.0195L104.649 41.2729C105.034 41.6577 105.448 42.0228 105.872 42.3781C105.764 43.1379 105.724 43.8681 105.705 44.4305C105.705 45.0029 105.695 45.3778 105.695 45.3778C105.695 45.3778 106.001 45.6048 106.464 45.9501C106.938 46.2758 107.609 46.6507 108.25 47.0553C108.901 47.4599 109.621 47.746 110.124 48.0125C110.637 48.269 110.992 48.4072 110.992 48.4072L111.939 46.1278C112.442 46.335 112.965 46.5225 113.488 46.7001C113.675 47.4402 113.922 48.121 114.119 48.6539C114.327 49.1867 114.465 49.542 114.465 49.542C114.465 49.542 114.84 49.6406 115.392 49.7788C115.954 49.8873 116.714 49.986 117.473 50.1143C118.233 50.2524 118.993 50.2228 119.565 50.2722C120.137 50.3018 120.522 50.3215 120.522 50.3215V47.8546C121.074 47.8546 121.626 47.8151 122.169 47.7757C122.623 48.3776 123.116 48.9598 123.501 49.3545C123.895 49.759 124.162 50.0353 124.162 50.0353C124.162 50.0353 125.681 49.8478 127.161 49.4137C127.91 49.2459 128.621 48.9598 129.163 48.7624C129.706 48.5651 130.061 48.4269 130.061 48.4269L129.114 46.1475C129.627 45.9403 130.11 45.6936 130.603 45.4469C131.254 45.8219 131.935 46.1771 132.438 46.3942C132.961 46.6211 133.306 46.7692 133.306 46.7692C133.306 46.7692 134.638 45.9995 135.832 45.0423C136.463 44.6082 136.996 44.0556 137.43 43.6806C137.854 43.2958 138.13 43.0293 138.13 43.0293L136.394 41.2828C136.779 40.8979 137.144 40.4835 137.499 40.0592C138.249 40.1677 138.988 40.2072 139.551 40.2269C140.123 40.2269 140.498 40.2467 140.498 40.2467C140.498 40.2467 140.725 39.9408 141.07 39.477C141.395 39.0034 141.77 38.3324 142.175 37.691C142.579 37.0397 142.865 36.3194 143.132 35.8161C143.388 35.303 143.526 34.9478 143.526 34.9478L141.247 34.0005C141.455 33.4972 141.642 32.9743 141.82 32.4513C142.559 32.2638 143.24 32.0171 143.773 31.8197C144.306 31.6125 144.661 31.4744 144.661 31.4744C144.661 31.4744 144.759 31.0994 144.897 30.5468C145.006 29.9844 145.114 29.2246 145.233 28.4648C145.371 27.705 145.341 26.9452 145.391 26.3728C145.42 25.8005 145.44 25.4157 145.44 25.4157H142.974L143.013 25.4255ZM120.561 43.5129C110.588 43.5129 102.479 35.4017 102.479 25.4255C102.479 15.4494 110.588 7.33824 120.561 7.33824C130.534 7.33824 138.643 15.4494 138.643 25.4255C138.643 35.4017 130.534 43.5129 120.561 43.5129Z" fill="#BCBEC0"/>
<path d="M120.562 9.5293C111.802 9.5293 104.67 16.6537 104.67 25.426C104.67 34.1983 111.792 41.3128 120.562 41.3128C129.332 41.3128 136.444 34.1884 136.444 25.426C136.444 16.6636 129.322 9.5293 120.562 9.5293ZM120.562 35.9449C114.752 35.9449 110.036 31.238 110.036 25.426C110.036 19.614 114.752 14.8973 120.562 14.8973C126.372 14.8973 131.078 19.614 131.078 25.426C131.078 31.238 126.372 35.9449 120.562 35.9449Z" fill="#BCBEC0"/>
<path d="M143.013 25.4263C143.013 24.8639 142.973 24.3211 142.934 23.7784C143.526 23.3245 144.108 22.8311 144.502 22.4463C144.907 22.0516 145.183 21.7852 145.183 21.7852C145.183 21.7852 144.986 20.2656 144.562 18.7953C144.394 18.0355 144.098 17.3349 143.91 16.7922C143.713 16.2396 143.575 15.8844 143.575 15.8844L141.306 16.8316C141.099 16.3185 140.843 15.8251 140.606 15.3318C140.981 14.6805 141.336 13.9996 141.553 13.4964C141.77 12.9833 141.928 12.628 141.928 12.628C141.928 12.628 141.158 11.2959 140.201 10.1019C139.757 9.47042 139.215 8.94744 138.83 8.50339C138.445 8.08895 138.189 7.80279 138.189 7.80279L136.443 9.53949C136.058 9.15465 135.654 8.78955 135.22 8.43432C135.328 7.67452 135.377 6.93445 135.397 6.38186C135.407 5.80954 135.407 5.43457 135.407 5.43457C135.407 5.43457 135.101 5.20762 134.638 4.86225C134.164 4.53662 133.503 4.16165 132.852 3.75708C132.201 3.35251 131.481 3.06635 130.968 2.79992C130.455 2.54337 130.1 2.40522 130.1 2.40522L129.153 4.68463C128.65 4.47741 128.127 4.28993 127.604 4.11231C127.417 3.37224 127.18 2.69138 126.983 2.1684C126.765 1.63555 126.627 1.28031 126.627 1.28031C126.627 1.28031 126.253 1.1915 125.69 1.05336C125.128 0.944814 124.368 0.846139 123.609 0.727727C122.859 0.579713 122.09 0.619184 121.517 0.559978C120.935 0.540243 120.561 0.520508 120.561 0.520508V2.98741C119.998 2.98741 119.466 3.02688 118.913 3.07622C118.459 2.47429 117.966 1.90197 117.581 1.4974C117.187 1.1027 116.92 0.826403 116.92 0.826403C116.92 0.826403 115.401 1.01389 113.931 1.45793C113.182 1.62568 112.471 1.91184 111.929 2.10919C111.396 2.30654 111.031 2.43482 111.031 2.43482L111.978 4.71424C111.465 4.92146 110.982 5.16815 110.479 5.41484C109.828 5.03 109.147 4.67477 108.644 4.46755C108.131 4.23072 107.776 4.09258 107.776 4.09258C107.776 4.09258 106.444 4.85238 105.26 5.81941C104.619 6.26345 104.096 6.80617 103.652 7.18114C103.238 7.56597 102.952 7.8324 102.952 7.8324L104.688 9.56909C104.303 9.95393 103.938 10.3684 103.593 10.7927C102.834 10.6841 102.094 10.6447 101.541 10.6249C100.969 10.6151 100.594 10.6052 100.594 10.6052C100.594 10.6052 100.367 10.9111 100.022 11.3749C99.6966 11.8485 99.3217 12.5195 98.9173 13.1708C98.5128 13.822 98.2267 14.5325 97.9604 15.0555C97.7039 15.5587 97.5658 15.9238 97.5658 15.9238L99.8446 16.8711C99.6374 17.3645 99.45 17.8875 99.2724 18.4105C98.5326 18.5979 97.8618 18.8545 97.3291 19.0519C96.8062 19.2591 96.4511 19.4071 96.4511 19.4071C96.4511 19.4071 96.3524 19.7722 96.2143 20.3346C96.1058 20.8971 96.0072 21.6569 95.8888 22.4167C95.7606 23.1765 95.7803 23.9462 95.731 24.5185C95.7014 25.0908 95.6816 25.4757 95.6816 25.4757H98.1478C98.1478 26.0282 98.1873 26.5808 98.2366 27.1137C97.6349 27.5775 97.0627 28.061 96.6681 28.4458C96.2637 28.8405 95.9874 29.1069 95.9874 29.1069C95.9874 29.1069 96.1749 30.6364 96.6089 32.1067C96.7766 32.8566 97.0627 33.5671 97.26 34.1098C97.4573 34.6525 97.5855 35.0078 97.5855 35.0078L99.8643 34.0605C100.071 34.5637 100.318 35.0571 100.565 35.5406C100.18 36.1919 99.8347 36.8727 99.6177 37.376C99.3908 37.9088 99.2428 38.2443 99.2428 38.2443C99.2428 38.2443 100.012 39.5765 100.969 40.7704C101.413 41.3921 101.956 41.9348 102.33 42.369C102.715 42.8032 102.982 43.0696 102.982 43.0696L104.718 41.3329C105.112 41.7177 105.527 42.0828 105.941 42.4381C105.832 43.188 105.793 43.9182 105.773 44.4807C105.763 45.053 105.763 45.4378 105.763 45.4378C105.763 45.4378 106.069 45.6549 106.523 46.0101C106.997 46.3259 107.667 46.7107 108.318 47.1054C108.969 47.51 109.69 47.7962 110.203 48.0626C110.716 48.3191 111.071 48.4573 111.071 48.4573L112.018 46.1877C112.511 46.395 113.044 46.5726 113.557 46.7502C113.744 47.4903 114 48.1711 114.198 48.704C114.405 49.2368 114.553 49.5822 114.553 49.5822C114.553 49.5822 114.928 49.6809 115.48 49.8091C116.042 49.9177 116.812 50.0262 117.562 50.1545C118.321 50.2828 119.091 50.2532 119.663 50.3025C120.235 50.3223 120.62 50.3519 120.62 50.3519V47.885C121.172 47.885 121.725 47.8455 122.257 47.806C122.721 48.3981 123.214 48.9803 123.599 49.375C123.984 49.7795 124.25 50.046 124.25 50.046C124.25 50.046 125.779 49.8585 127.249 49.4342C127.999 49.2566 128.709 48.9704 129.251 48.7829C129.794 48.5757 130.149 48.4376 130.149 48.4376L129.202 46.168C129.705 45.9509 130.198 45.7042 130.692 45.4674C131.353 45.8424 132.023 46.1976 132.527 46.4147C133.059 46.6318 133.395 46.7897 133.395 46.7897C133.395 46.7897 134.726 46.02 135.92 45.053C136.551 44.6188 137.084 44.0662 137.518 43.6912C137.942 43.3064 138.228 43.04 138.228 43.04L136.482 41.3033C136.877 40.9184 137.232 40.504 137.597 40.0797C138.357 40.1882 139.077 40.2376 139.639 40.2573C140.211 40.2573 140.596 40.2672 140.596 40.2672C140.596 40.2672 140.823 39.9613 141.168 39.4975C141.484 39.0239 141.868 38.3529 142.283 37.7016C142.687 37.0504 142.963 36.3399 143.23 35.8268C143.486 35.3137 143.624 34.9584 143.624 34.9584L141.355 34.0111C141.563 33.5079 141.75 32.9849 141.918 32.4619C142.667 32.2744 143.338 32.0179 143.871 31.8205C144.404 31.6133 144.749 31.4752 144.749 31.4752C144.749 31.4752 144.848 31.1002 144.996 30.5377C145.094 29.9753 145.203 29.2155 145.321 28.4557C145.449 27.6959 145.43 26.9361 145.479 26.3539C145.499 25.7816 145.518 25.4066 145.518 25.4066H143.052L143.013 25.4263ZM120.561 43.5136C110.587 43.5136 102.469 35.3926 102.469 25.4263C102.469 15.46 110.587 7.32915 120.561 7.32915C130.534 7.32915 138.643 15.4502 138.643 25.4263C138.643 35.4025 130.544 43.5136 120.561 43.5136Z" fill="#BCBEC0"/>
<g style="mix-blend-mode:screen" opacity="0.2">
<path d="M120.561 41.3128V35.9449C126.371 35.9449 131.076 31.238 131.076 25.426C131.076 19.614 126.371 14.8973 120.561 14.8973V9.5293C129.311 9.5293 136.443 16.6537 136.443 25.426C136.443 34.1983 129.32 41.3128 120.561 41.3128Z" fill="#BCBEC0"/>
<path d="M145.479 25.4255C145.479 25.4255 145.459 25.8005 145.439 26.3728C145.4 26.955 145.42 27.7148 145.281 28.4746C145.163 29.2344 145.055 29.9942 144.956 30.5567C144.818 31.1192 144.709 31.4941 144.709 31.4941C144.709 31.4941 144.354 31.6224 143.831 31.8395C143.289 32.0368 142.618 32.2934 141.878 32.4809C141.71 33.0137 141.523 33.5268 141.316 34.0301L143.585 34.9774C143.585 34.9774 143.437 35.3326 143.19 35.8457C142.924 36.349 142.657 37.0693 142.243 37.7206C141.839 38.3718 141.454 39.0428 141.128 39.5165C140.793 39.9803 140.556 40.2861 140.556 40.2861C140.556 40.2861 140.171 40.2763 139.599 40.2763C139.037 40.2565 138.317 40.2072 137.557 40.0987C137.192 40.5131 136.847 40.9374 136.443 41.3222L138.189 43.0589C138.189 43.0589 137.903 43.3254 137.478 43.7102C137.044 44.0852 136.512 44.6476 135.88 45.0719C134.687 46.039 133.355 46.7988 133.355 46.8086C133.355 46.8086 133.01 46.6507 132.487 46.4337C131.984 46.2166 131.313 45.8613 130.652 45.4864C130.169 45.7232 129.675 45.9699 129.162 46.187L130.109 48.4565C130.109 48.4565 129.744 48.5848 129.212 48.8019C128.679 48.9894 127.959 49.2755 127.209 49.4531C125.729 49.8774 124.21 50.0649 124.21 50.0649C124.21 50.0649 123.944 49.7985 123.559 49.3939C123.175 48.9992 122.681 48.417 122.218 47.825C121.675 47.8546 121.133 47.9039 120.58 47.9039V43.5425C130.553 43.5425 138.662 35.4214 138.662 25.4552C138.662 15.4889 130.563 7.35798 120.58 7.35798V0.5C120.58 0.5 120.955 0.519735 121.537 0.53947C122.109 0.598676 122.879 0.559206 123.628 0.70722C124.388 0.825631 125.147 0.924307 125.71 1.03285C126.272 1.18086 126.647 1.2598 126.647 1.2598C126.647 1.2598 126.775 1.62491 127.002 2.14789C127.199 2.68074 127.446 3.3616 127.624 4.0918C128.156 4.26942 128.669 4.45691 129.172 4.66413L130.119 2.38471C130.119 2.38471 130.474 2.53272 130.987 2.77941C131.491 3.04584 132.221 3.332 132.872 3.73657C133.523 4.14114 134.184 4.51611 134.657 4.84174C135.121 5.18711 135.427 5.41406 135.427 5.41406C135.427 5.41406 135.427 5.78903 135.417 6.36135C135.397 6.92381 135.348 7.65401 135.239 8.41381C135.663 8.76905 136.078 9.12428 136.462 9.51898L138.208 7.78229C138.208 7.78229 138.465 8.06845 138.85 8.48289C139.234 8.92693 139.787 9.44991 140.221 10.0814C141.178 11.2754 141.947 12.6075 141.947 12.6075C141.947 12.6075 141.789 12.9628 141.572 13.4759C141.355 13.9791 141 14.66 140.625 15.3113C140.872 15.8046 141.119 16.2882 141.326 16.8111L143.595 15.8638C143.595 15.8638 143.733 16.2191 143.93 16.7717C144.117 17.3144 144.413 18.015 144.581 18.7748C145.005 20.2451 145.203 21.7647 145.203 21.7647C145.203 21.7647 144.926 22.0311 144.522 22.4258C144.127 22.8106 143.545 23.304 142.953 23.7579C142.983 24.3105 143.032 24.8434 143.032 25.4058H145.498L145.479 25.4255Z" fill="#BCBEC0"/>
</g>
<path d="M167.082 41.8362C166.233 42.2112 165.356 42.3592 164.517 42.3691C164.448 42.3691 164.379 42.3592 164.31 42.3592C164.428 41.5698 164.507 40.7705 164.507 39.9515C164.507 39.7344 164.487 39.5173 164.478 39.2904C165.188 38.9351 165.859 38.422 166.391 37.7609C167.92 35.965 168.315 32.837 166.963 30.2911C166.668 32.5113 165.277 33.8928 163.817 34.6822C163.757 34.7118 163.688 34.7315 163.629 34.771C163.294 33.7941 162.87 32.8567 162.357 31.9785C162.82 31.3272 163.166 30.5674 163.333 29.7287C163.826 27.4295 162.751 24.489 160.374 22.851C161.133 24.9626 160.551 26.8177 159.614 28.1992C159.575 28.2584 159.525 28.3077 159.486 28.3571C158.746 27.6565 157.937 27.025 157.069 26.4724C157.178 25.683 157.138 24.8639 156.892 24.0252C156.27 21.7557 153.932 19.644 151.071 19.3184C152.729 20.8182 153.084 22.7523 152.896 24.4002C152.896 24.4692 152.867 24.5383 152.857 24.6074C151.88 24.341 150.874 24.1535 149.838 24.0745C149.572 23.3345 149.138 22.624 148.546 21.9925C147.727 21.1932 146.593 20.4926 145.291 20.236C144.64 20.0683 143.959 20.0387 143.268 20.088C142.568 20.1078 141.877 20.2854 141.207 20.5419C141.749 20.6801 142.233 20.8774 142.657 21.1143C143.081 21.3708 143.466 21.6767 143.781 21.9925C144.432 22.6437 144.876 23.4035 145.172 24.1732C145.202 24.2423 145.212 24.3015 145.231 24.3706C144.215 24.5877 143.239 24.8936 142.302 25.2981C141.72 24.7653 141.019 24.3311 140.2 24.0647C139.096 23.7193 137.764 23.6502 136.501 24.0252C135.85 24.1831 135.229 24.4692 134.637 24.8343C134.025 25.1797 133.502 25.6534 133.029 26.1862C133.571 26.0579 134.094 26.0086 134.577 26.0283C135.071 26.0579 135.554 26.1467 135.988 26.2849C136.866 26.5612 137.606 27.025 138.237 27.5677C138.287 27.617 138.326 27.6663 138.385 27.7157C137.596 28.3669 136.876 29.107 136.225 29.8964C135.455 29.6892 134.647 29.63 133.788 29.778C132.654 29.9852 131.44 30.5378 130.493 31.4555C129.98 31.8995 129.576 32.4423 129.221 33.0442C128.846 33.6362 128.59 34.2974 128.422 34.9881C128.846 34.623 129.28 34.3368 129.714 34.1198C130.168 33.9125 130.632 33.7744 131.085 33.6856C131.993 33.5277 132.861 33.5869 133.67 33.7744C133.739 33.7941 133.798 33.8139 133.867 33.8336C133.482 34.771 133.167 35.7578 132.969 36.7741C132.2 36.9518 131.45 37.2774 130.77 37.8102C130.276 38.1655 129.902 38.6095 129.517 39.1226C129.329 39.3792 129.162 39.6456 128.994 39.9318C128.856 40.2179 128.738 40.514 128.629 40.8297C128.412 41.4514 128.244 42.1322 128.234 42.823C128.205 43.5137 128.234 44.234 128.432 44.9149C128.807 43.8788 129.487 43.0993 130.188 42.5368C130.908 41.9744 131.697 41.629 132.526 41.4218C132.595 41.402 132.664 41.402 132.733 41.3823C132.822 42.4184 133.019 43.4249 133.305 44.3919C133.117 44.5498 132.93 44.7176 132.762 44.905C132.397 45.3195 132.092 45.7931 131.835 46.3358C131.569 46.8786 131.401 47.4607 131.322 48.0824C131.243 48.7041 131.204 49.3751 131.322 50.0165C131.51 51.3288 132.101 52.6708 133.048 53.7267C132.9 52.6412 133.137 51.6249 133.492 50.8059C133.857 49.977 134.41 49.2961 135.041 48.7238C135.09 48.6745 135.15 48.6449 135.209 48.5955C135.771 49.4639 136.402 50.2631 137.113 51.0032C137.024 51.2302 136.935 51.467 136.866 51.7137C136.738 52.2465 136.679 52.8189 136.708 53.4109C136.728 54.0128 136.846 54.6049 137.063 55.1871C137.28 55.7791 137.557 56.3811 137.971 56.8942C138.75 57.9697 139.895 58.8874 141.226 59.3808C140.585 58.4927 140.329 57.4764 140.269 56.5883C140.21 55.6903 140.378 54.822 140.674 54.0326C140.703 53.9635 140.733 53.9043 140.763 53.8451C141.641 54.3483 142.588 54.7628 143.564 55.0884C143.594 55.3351 143.623 55.5818 143.683 55.8285C143.821 56.3613 144.028 56.8942 144.334 57.4073C144.63 57.9303 145.014 58.4138 145.478 58.8183C145.942 59.2229 146.474 59.6472 147.076 59.9137C148.27 60.5057 149.69 60.7623 151.101 60.6044C149.138 59.5091 148.339 57.7822 148.122 56.1048C148.112 56.0357 148.122 55.9666 148.112 55.8975C148.28 55.8975 148.437 55.9271 148.605 55.9271C149.483 55.9271 150.331 55.8383 151.17 55.7002C151.614 56.3712 152.196 56.983 152.916 57.4073C153.922 58.0487 155.165 58.3743 156.507 58.3644C157.158 58.325 157.848 58.2263 158.509 58.0191C159.151 57.7822 159.812 57.4862 160.394 57.0915C159.279 57.0718 158.312 56.756 157.552 56.3021C156.773 55.8285 156.152 55.1772 155.668 54.4963C155.629 54.4371 155.599 54.3779 155.56 54.3187C156.487 53.8648 157.355 53.332 158.174 52.7202C158.884 53.105 159.683 53.3714 160.522 53.4109C161.706 53.5096 162.958 53.2234 164.142 52.5919C164.704 52.2564 165.267 51.8518 165.76 51.3584C166.224 50.8453 166.677 50.2927 167.003 49.6612C164.991 50.6677 163.106 50.3322 161.607 49.5527C161.548 49.5231 161.489 49.4737 161.429 49.4441C162.031 48.6251 162.564 47.7469 162.998 46.8095C163.807 46.8292 164.635 46.6911 165.395 46.3358C166.5 45.8721 167.467 45.0234 168.216 43.9183C168.552 43.3558 168.848 42.7342 169.075 42.073C169.252 41.4119 169.361 40.7014 169.38 40.0008C168.71 40.9087 167.92 41.5106 167.111 41.8856L167.082 41.8362ZM148.773 46.8194C144.995 46.8194 141.927 43.7505 141.927 39.9712C141.927 36.192 144.995 33.1231 148.773 33.1231C152.551 33.1231 155.619 36.192 155.619 39.9712C155.619 43.7505 152.551 46.8194 148.773 46.8194Z" fill="#58595B"/>
<path d="M132.606 56.5675L122.643 53.3408L114.869 60.3665L117.059 70.6091L127.023 73.8358L134.796 66.8101L132.606 56.5675ZM123.185 68.6751C120.384 67.7672 118.845 64.7576 119.752 61.9454C120.66 59.1331 123.668 57.5938 126.48 58.5016C129.282 59.4094 130.83 62.419 129.923 65.2313C129.015 68.0435 126.006 69.5829 123.195 68.6751H123.185Z" fill="#939598"/>
<g style="mix-blend-mode:screen" opacity="0.15">
<path d="M151.072 60.5737C149.967 59.9619 149.247 59.1527 148.773 58.2646V60.4651C149.513 60.6131 150.293 60.6625 151.072 60.5737Z" fill="#E6E7E8"/>
<path d="M167.082 41.8343C166.234 42.2092 165.356 42.3572 164.518 42.3671C164.449 42.3671 164.379 42.3572 164.31 42.3572C164.429 41.5678 164.508 40.7686 164.508 39.9496C164.508 39.7325 164.488 39.5154 164.478 39.2884C165.188 38.9332 165.859 38.4201 166.392 37.7589C167.921 35.963 168.316 32.835 166.964 30.2892C166.668 32.5094 165.277 33.8908 163.817 34.6803C163.758 34.7099 163.689 34.7296 163.63 34.7691C163.294 33.7922 162.87 32.8547 162.357 31.9765C162.821 31.3253 163.166 30.5655 163.334 29.7267C163.827 27.4276 162.752 24.487 160.374 22.849C161.134 24.9607 160.552 26.8158 159.615 28.1972C159.575 28.2564 159.526 28.3058 159.487 28.3551C158.747 27.6545 157.938 27.023 157.07 26.4704C157.178 25.681 157.139 24.862 156.892 24.0233C156.271 21.7537 153.933 19.642 151.072 19.3164C152.729 20.8163 153.084 22.7503 152.897 24.3982C152.897 24.4673 152.867 24.5364 152.857 24.6054C151.881 24.339 150.875 24.1515 149.839 24.0726C149.602 23.4312 149.247 22.8194 148.773 22.257V33.131C152.552 33.131 155.62 36.1999 155.62 39.9792C155.62 43.7584 152.552 46.8273 148.773 46.8273V55.8956C149.582 55.8857 150.362 55.8068 151.141 55.6785C151.585 56.3495 152.167 56.9613 152.887 57.3856C153.893 58.027 155.136 58.3526 156.478 58.3428C157.129 58.3033 157.819 58.2046 158.48 57.9974C159.122 57.7606 159.783 57.4645 160.365 57.0698C159.25 57.0501 158.283 56.7343 157.523 56.2804C156.744 55.8068 156.123 55.1555 155.639 54.4747C155.6 54.4154 155.57 54.3562 155.531 54.297C156.458 53.8431 157.326 53.3103 158.145 52.6985C158.855 53.0833 159.654 53.3497 160.493 53.3892C161.677 53.4879 162.929 53.2017 164.113 52.5702C164.675 52.2347 165.238 51.8301 165.731 51.3368C166.195 50.8236 166.648 50.2711 166.974 49.6395C164.962 50.646 163.077 50.3105 161.578 49.531C161.519 49.5014 161.46 49.452 161.4 49.4224C162.002 48.6034 162.535 47.7252 162.969 46.7878C163.778 46.8075 164.606 46.6694 165.366 46.3142C166.471 45.8504 167.438 45.0018 168.187 43.8966C168.523 43.3341 168.819 42.7125 169.046 42.0513C169.223 41.3902 169.332 40.6798 169.351 39.9792C168.681 40.887 167.891 41.4889 167.082 41.8639V41.8343Z" fill="#E6E7E8"/>
</g>
<g clip-path="url(#clip1_1259_13037)">
<path d="M64.196 33.6951C66.6912 28.8548 66.3904 24.2282 66.0691 20.0774C66.0555 19.8637 65.9256 19.6775 65.7342 19.581L65.2693 19.3604L61.4615 27.3172C60.5932 29.172 58.4056 29.9718 56.5667 29.0961L42.4975 22.2838C42.3198 22.1942 42.1078 22.2838 42.0463 22.4769C40.932 25.7727 41.7387 31.599 39.2502 33.9019L6.75038 62.7713C4.27563 65.0881 4.23461 69.0872 6.75038 71.6176L6.83925 71.7073C9.35502 74.2446 13.3201 74.1964 15.6103 71.7073C15.6103 71.7073 41.1849 43.7204 43.9673 40.8728C46.7429 38.0251 47.5085 38.2044 50.9062 38.494C55.5617 38.9008 61.523 38.8594 64.196 33.6813V33.6951ZM8.82862 69.6181C7.87837 68.6597 7.87837 67.1083 8.82862 66.1499C9.77887 65.1915 11.317 65.1915 12.2673 66.1499C13.2175 67.1083 13.2175 68.6597 12.2673 69.6181C11.317 70.5765 9.77887 70.5765 8.82862 69.6181Z" fill="#D8DADC"/>
<path d="M64.1956 33.6951C66.6908 28.8548 66.39 24.2282 66.0687 20.0774C66.0551 19.8637 65.9252 19.6775 65.7338 19.581L65.2689 19.3604L62.3224 28.186L43.1261 37.8045C43.1261 37.8045 28.6331 52.6012 19.5613 64.5434C12.7181 73.5482 10.0998 74.0033 6.75 71.6176L6.83887 71.7073C9.35464 74.2446 13.3197 74.1964 15.6099 71.7073C15.6099 71.7073 41.1845 43.7204 43.9669 40.8728C46.7425 38.0251 47.5081 38.2044 50.9058 38.494C55.5613 38.9008 61.5226 38.8594 64.1956 33.6813V33.6951Z" fill="#B2B2B3"/>
<path d="M63.4104 32.9022C65.9057 28.0687 66.3432 24.1869 66.0629 20.0774C66.0493 19.8637 65.9194 19.6706 65.7211 19.581L65.2562 19.3604L61.4484 27.3172C60.5802 29.172 58.3926 29.9718 56.5536 29.0961L42.4845 22.2838C42.3067 22.2011 42.0948 22.2838 42.0333 22.4769C41.4795 24.1041 41.3975 26.3519 41.1582 28.4825C41.0762 29.234 41.2061 33.6261 40.0234 34.688L7.76963 63.7987C5.29488 66.1154 6.01953 68.8321 7.76963 70.5972C9.51973 72.3623 12.3089 73.1828 14.5991 70.6868C14.5991 70.6868 40.1738 42.7 42.9562 39.8523C45.7317 37.0047 47.516 38.2044 50.9136 38.5009C55.5692 38.9077 60.7511 38.0734 63.4173 32.9022H63.4104ZM8.82926 69.6181C7.87901 68.6597 7.87901 67.1083 8.82926 66.1499C9.77951 65.1915 11.3177 65.1915 12.2679 66.1499C13.2182 67.1083 13.2182 68.6597 12.2679 69.6181C11.3177 70.5765 9.77951 70.5765 8.82926 69.6181Z" fill="#6D6E6F"/>
<path d="M13.5787 69.6594C13.5787 69.6594 39.3585 41.8794 42.1409 39.0318C42.8177 38.2733 43.18 37.246 41.7854 36.2255C40.7736 35.4808 39.6456 36.4254 39.6456 36.4254L8.77964 64.8191C7.37136 66.1705 7.02954 67.8046 8.77964 69.5629C8.78647 69.5698 8.80015 69.5767 8.80698 69.5904C7.87724 68.632 7.88408 67.0944 8.82749 66.1498C9.7709 65.2052 11.3159 65.1914 12.2662 66.1498C13.2164 67.1082 13.2164 68.6596 12.2662 69.618C11.3774 70.5144 9.97599 70.5695 9.02574 69.7904C10.7075 71.2866 12.5328 70.8315 13.5856 69.6594H13.5787Z" fill="#9B9B9B"/>
<path d="M45.7994 22.8697C49.0603 19.6153 52.6425 17.0296 56.0538 14.6095C56.4982 14.2923 57.0724 14.251 57.5578 14.4854L58.1321 14.8577L52.4579 27.2687L46.0044 24.0832C45.5396 23.8626 45.4302 23.2352 45.7994 22.8697Z" fill="#B2B2B3"/>
<path d="M45.8004 22.8697C49.0613 19.6153 52.6435 17.0296 56.0549 14.6095C56.4992 14.2923 57.0735 14.251 57.5588 14.4854L51.8232 26.1104C51.6933 26.3724 51.372 26.4827 51.1122 26.3517L46.1012 23.8764C45.6363 23.6558 45.438 23.2283 45.8004 22.8628V22.8697Z" fill="#6D6E6F"/>
<path d="M47.6651 25.5417L44.1973 32.8418L50.0604 35.6751L53.5282 28.375L47.6651 25.5417Z" fill="#98989C"/>
<path d="M44.5967 33.033L44.1934 32.8399L47.6594 25.5381V26.5999L44.5967 33.033Z" fill="#69686D"/>
<path d="M50.0589 35.6741L44.1934 32.8402L45.0684 31.999L50.0179 34.3847L50.0589 35.6741Z" fill="#EEEEEF"/>
<path d="M48.5404 26.372C48.2806 26.2479 47.3645 27.6269 46.4895 29.461C45.6144 31.2951 45.1222 32.8809 45.3888 33.005C45.6486 33.1291 46.5647 31.7501 47.4397 29.9161C48.308 28.082 48.807 26.4961 48.5404 26.372Z" fill="#515054"/>
<path d="M49.491 26.8271C49.2312 26.703 48.3152 28.082 47.4401 29.9161C46.5719 31.7501 46.0728 33.336 46.3395 33.4601C46.5992 33.5842 47.5153 32.2052 48.3904 30.3711C49.2586 28.5371 49.7576 26.9512 49.491 26.8271Z" fill="#515054"/>
<path d="M50.4344 27.289C50.1746 27.1649 49.2585 28.5439 48.3835 30.378C47.5153 32.212 47.0162 33.7979 47.2828 33.922C47.5494 34.0461 48.4587 32.6671 49.3337 30.833C50.2088 28.999 50.701 27.4131 50.4344 27.289Z" fill="#515054"/>
<path d="M51.3763 27.7441C51.1165 27.62 50.2005 28.999 49.3254 30.8331C48.4504 32.6671 47.9582 34.253 48.2248 34.3771C48.4914 34.5012 49.4006 33.1222 50.2757 31.2881C51.1439 29.4541 51.6429 27.8682 51.3763 27.7441Z" fill="#515054"/>
<path d="M52.3289 28.1992C52.0691 28.0751 51.153 29.4541 50.278 31.2881C49.4098 33.1222 48.9107 34.7081 49.1773 34.8322C49.4371 34.9563 50.3532 33.5773 51.2282 31.7432C52.0965 29.9091 52.5955 28.3233 52.3289 28.1992Z" fill="#515054"/>
<path d="M16.799 16.0158C12.581 13.8507 8.96461 14.5264 7.85712 14.816C7.63836 14.8712 7.45378 15.0229 7.35123 15.2228L6.94789 16.0227L11.4394 18.3394C13.9483 19.6356 14.9464 22.7384 13.6612 25.2689L13.6133 25.3585C12.3281 27.889 9.25173 28.8956 6.73597 27.5994L2.25134 25.2964L1.80698 26.1721C1.70443 26.379 1.69076 26.6203 1.77963 26.834C2.20349 27.9028 3.80318 31.1779 8.02119 33.3498C11.1044 34.9357 13.4697 34.5771 15.4386 32.9016C16.0402 32.3914 16.9358 32.419 17.4963 32.9844L46.6874 62.4261C47.0634 62.8053 47.2617 63.35 47.1796 63.8809C46.8105 66.2873 47.5283 68.8591 49.3467 70.7897L50.7482 69.3762L50.6798 69.3556L49.0391 63.4741L50.7414 61.7573L50.2013 61.2126L53.3323 58.0546L20.2924 24.7448C21.4409 21.0698 20.7709 18.0636 16.799 16.0158Z" fill="#D8DADC"/>
<path d="M52.0123 56.7446L21.1668 25.6274C20.6473 25.1034 20.4285 24.3518 20.5857 23.6348C21.2694 20.463 20.3601 17.8567 16.7916 16.0158C12.5804 13.8507 8.96398 14.5264 7.8565 14.816C7.63773 14.8712 7.45315 15.0229 7.35061 15.2228L6.94727 16.0227L12.1634 18.7117C14.6723 20.008 14.9458 22.7384 13.6605 25.2689L18.8014 27.8614L49.8042 59.1303C49.729 59.1923 49.6538 59.2475 49.5854 59.3164L51.3697 61.116L53.2086 59.2613L59.04 60.9161L59.0605 60.985L60.462 59.5715C58.6025 57.7926 56.1414 57.0549 53.8171 57.3514C53.154 57.4341 52.4908 57.2135 52.0191 56.7377L52.0123 56.7446Z" fill="#B2B2B3"/>
<path d="M51.1795 57.2484L20.8673 26.676C20.3204 26.1244 20.0948 25.3107 20.293 24.5523C21.1749 21.1324 20.1221 18.5192 16.3211 16.6644C12.0211 14.5614 7.26983 15.3957 7.26983 15.3957L6.94852 16.0301L11.44 18.3468C13.9489 19.643 14.947 22.7458 13.6618 25.2763L13.6139 25.3659C12.3287 27.8964 9.25236 28.903 6.7366 27.6068L2.25197 25.297L1.95117 25.8899C1.95117 25.8899 4.02941 30.6544 8.30211 32.6195C11.4742 34.0812 13.737 33.9985 15.6033 32.5505C16.4989 31.861 17.7499 31.9024 18.5498 32.7022L47.0641 61.4613C47.6041 62.006 47.7887 62.7989 47.6041 63.5436C46.8795 66.4188 47.7682 69.625 50.284 71.6866C53.121 74.0171 57.2707 74.0309 60.1214 71.728C63.8541 68.7148 64.0728 63.2057 60.7914 59.8961C58.7405 57.8276 55.8487 57.145 53.2372 57.8345C52.4989 58.0276 51.7127 57.7862 51.1727 57.2415L51.1795 57.2484ZM60.5521 67.06L56.758 70.8868C56.6349 71.0109 56.4572 71.0591 56.2931 71.0109L51.1112 69.6112C50.9471 69.5629 50.8172 69.4388 50.7693 69.2664L49.3816 64.04C49.3337 63.8745 49.3816 63.6953 49.5046 63.5712L53.2988 59.7444C53.4218 59.6203 53.5996 59.5721 53.7636 59.6203L58.9456 61.02C59.1096 61.0683 59.2395 61.1993 59.2874 61.3648L60.6752 66.5912C60.723 66.7567 60.6752 66.9359 60.5521 67.06Z" fill="#6D6E6F"/>
<path d="M18.9105 28.8093L18.8331 28.8873C18.2511 29.4743 18.2511 30.4261 18.8331 31.0131L46.9525 59.3739C47.5345 59.9609 48.4782 59.9609 49.0602 59.3739L49.1375 59.2959C49.7195 58.7089 49.7195 57.7572 49.1375 57.1702L21.0181 28.8093C20.4361 28.2223 19.4925 28.2223 18.9105 28.8093Z" fill="#B2B2B3"/>
</g>
<defs>
<clipPath id="clip0_1259_13037">
<rect width="153.004" height="75.1752" fill="white" transform="translate(0.833984 83.3252)"/>
</clipPath>
<clipPath id="clip1_1259_13037">
<rect width="64.5622" height="59.2557" fill="white" transform="translate(1.71875 14.3408)"/>
</clipPath>
</defs>
</svg>
