<svg width="201" height="195" viewBox="0 0 201 195" fill="none" xmlns="http://www.w3.org/2000/svg">
<g clip-path="url(#clip0_1006_71090)">
<path d="M113.187 30.916H105.381V34.7027H113.187V30.916Z" fill="#231F20"/>
<path d="M73.9607 30.5449H66.1543V34.3316H73.9607V30.5449Z" fill="#231F20"/>
<path d="M179.805 39.4353V59.3827C179.805 61.8861 177.777 63.914 175.273 63.914H34.4965L26.8921 63.3376L14.3766 62.391C12.5333 62.391 11.0352 60.8973 11.0352 59.0545V10.3958C11.0268 4.92619 15.4665 0.5 20.9373 0.5L116.062 0.584148C118.983 0.584148 121.667 2.21241 123.023 4.79997L134.158 26.0684L170.034 28.921C175.542 29.3292 179.801 33.9194 179.801 39.4438L179.805 39.4353Z" fill="#84878F"/>
<path d="M11.0254 55.2676V59.0542C11.0254 60.8971 12.5235 62.3907 14.3668 62.3907L26.8823 63.3374L34.4867 63.9138H175.263C177.767 63.9138 179.796 61.8858 179.796 59.3824V55.2676H11.0254Z" fill="#5C616C"/>
<path d="M20.3359 11.8513V27.7048H47.4711V6.26811L25.9456 6.24707C22.8483 6.24707 20.3359 8.75468 20.3359 11.8513Z" fill="#231F20"/>
<path d="M55.9453 6.27734V27.7057H86.1442V6.3068L55.9453 6.27734Z" fill="#231F20"/>
<path d="M128.03 27.7049L118.936 9.30171C118.04 7.48832 116.197 6.34391 114.177 6.3397L94.5996 6.31445V27.7091H128.03V27.7049Z" fill="#231F20"/>
<path d="M66.6951 63.9142H34.4931L26.8887 63.3378C27.9071 53.2694 36.4331 45.3848 46.7687 45.3848C57.1044 45.3848 65.9502 53.5724 66.6951 63.9142Z" fill="#242736"/>
<path d="M151.38 63.9142H111.527C112.272 53.5682 120.92 45.3848 131.454 45.3848C141.987 45.3848 150.635 53.5724 151.38 63.9142Z" fill="#242736"/>
<path d="M48.0902 81.3549C56.9244 80.6241 63.4934 72.8716 62.7625 64.0393C62.0315 55.2069 54.2774 48.6393 45.4431 49.3701C36.6088 50.1009 30.0398 57.8534 30.7708 66.6858C31.5018 75.5181 39.2559 82.0857 48.0902 81.3549Z" fill="#333A49"/>
<path d="M48.3143 74.8604C53.5634 74.0085 57.1278 69.0637 56.2758 63.8158C55.4238 58.5679 50.4779 55.0042 45.2288 55.856C39.9798 56.7079 36.4153 61.6527 37.2674 66.9006C38.1194 72.1485 43.0653 75.7122 48.3143 74.8604Z" fill="white"/>
<path d="M46.7679 71.3769C50.0915 71.3769 52.7858 68.6832 52.7858 65.3603C52.7858 62.0375 50.0915 59.3438 46.7679 59.3438C43.4443 59.3438 40.75 62.0375 40.75 65.3603C40.75 68.6832 43.4443 71.3769 46.7679 71.3769Z" fill="#333A49"/>
<path d="M147.384 67.3247C148.468 58.5286 142.214 50.5199 133.416 49.4368C124.618 48.3537 116.608 54.6062 115.524 63.4023C114.441 72.1984 120.695 80.2072 129.493 81.2903C138.291 82.3734 146.301 76.1209 147.384 67.3247Z" fill="#333A49"/>
<path d="M140.345 69.0434C142.38 64.1315 140.047 58.5003 135.134 56.4657C130.221 54.4311 124.589 56.7637 122.554 61.6756C120.519 66.5875 122.852 72.2187 127.765 74.2533C132.678 76.2878 138.31 73.9553 140.345 69.0434Z" fill="white"/>
<path d="M131.451 71.3779C134.775 71.3779 137.469 68.6842 137.469 65.3613C137.469 62.0384 134.775 59.3447 131.451 59.3447C128.128 59.3447 125.434 62.0384 125.434 65.3613C125.434 68.6842 128.128 71.3779 131.451 71.3779Z" fill="#333A49"/>
<path d="M5.28638 13.1934H11.0434V45.0392H5.28638C2.60569 45.0434 0.425781 42.864 0.425781 40.1839V18.0571C0.425781 15.3728 2.60569 13.1934 5.28638 13.1934Z" fill="#333A49"/>
<path d="M170.038 28.9177L165.258 28.5391V39.8738C165.258 42.6213 167.484 44.8512 170.236 44.8512H179.81V39.4405C179.81 33.9161 175.551 29.3258 170.043 28.9177H170.038Z" fill="#B0AEAD"/>
<path d="M114.786 30.7598H104.893V34.0373H114.786V30.7598Z" fill="#242736"/>
<path d="M76.048 30.7598H66.1543V34.0373H76.048V30.7598Z" fill="#242736"/>
<path d="M185.797 154.69H4.05664V170.582H185.797V154.69Z" fill="#5C616C"/>
<path d="M185.797 154.69H4.05664V162.819H185.797V154.69Z" fill="#4E535C"/>
<path d="M162.74 184.471C169.308 184.471 174.633 179.147 174.633 172.581C174.633 166.014 169.308 160.69 162.74 160.69C156.172 160.69 150.848 166.014 150.848 172.581C150.848 179.147 156.172 184.471 162.74 184.471Z" fill="#333A49"/>
<path d="M162.741 179.716C166.683 179.716 169.878 176.521 169.878 172.58C169.878 168.639 166.683 165.444 162.741 165.444C158.799 165.444 155.604 168.639 155.604 172.58C155.604 176.521 158.799 179.716 162.741 179.716Z" fill="white"/>
<path d="M162.74 177.041C165.204 177.041 167.201 175.044 167.201 172.581C167.201 170.118 165.204 168.121 162.74 168.121C160.276 168.121 158.279 170.118 158.279 172.581C158.279 175.044 160.276 177.041 162.74 177.041Z" fill="#333A49"/>
<path d="M58.836 184.471C65.4042 184.471 70.7287 179.147 70.7287 172.581C70.7287 166.014 65.4042 160.69 58.836 160.69C52.2679 160.69 46.9434 166.014 46.9434 172.581C46.9434 179.147 52.2679 184.471 58.836 184.471Z" fill="#333A49"/>
<path d="M58.8365 179.716C62.7783 179.716 65.9738 176.521 65.9738 172.58C65.9738 168.639 62.7783 165.444 58.8365 165.444C54.8947 165.444 51.6992 168.639 51.6992 172.58C51.6992 176.521 54.8947 179.716 58.8365 179.716Z" fill="white"/>
<path d="M58.8358 177.041C61.2994 177.041 63.2966 175.044 63.2966 172.581C63.2966 170.118 61.2994 168.121 58.8358 168.121C56.3722 168.121 54.375 170.118 54.375 172.581C54.375 175.044 56.3722 177.041 58.8358 177.041Z" fill="#333A49"/>
<path d="M40.5006 177.127C43.0141 171.06 40.1325 164.105 34.0643 161.592C27.9961 159.079 21.0393 161.96 18.5257 168.027C16.0122 174.094 18.8938 181.049 24.962 183.562C31.0302 186.075 37.987 183.194 40.5006 177.127Z" fill="#333A49"/>
<path d="M29.5162 179.716C33.458 179.716 36.6535 176.521 36.6535 172.58C36.6535 168.639 33.458 165.444 29.5162 165.444C25.5744 165.444 22.3789 168.639 22.3789 172.58C22.3789 176.521 25.5744 179.716 29.5162 179.716Z" fill="white"/>
<path d="M29.5155 177.04C31.9791 177.04 33.9763 175.043 33.9763 172.58C33.9763 170.117 31.9791 168.12 29.5155 168.12C27.0519 168.12 25.0547 170.117 25.0547 172.58C25.0547 175.043 27.0519 177.04 29.5155 177.04Z" fill="#333A49"/>
<path d="M198.607 137.634V172.803H178.113V165.941C178.113 159.743 173.084 154.716 166.881 154.716H144.379V115.726H190.784L198.607 137.638V137.634Z" fill="#93908F"/>
<path d="M164.256 115.721H163.25V154.711H164.256V115.721Z" fill="#F4EDED"/>
<path d="M160.602 119.491H147.367V137.486H160.602V119.491Z" fill="#231F20"/>
<path d="M168.93 119.491V137.486H192.58L187.61 119.491H168.93Z" fill="#231F20"/>
<path d="M190.784 115.721H144.383V110.739H184.833C187.333 110.739 189.567 112.313 190.409 114.665L190.788 115.721H190.784Z" fill="#B7B2B2"/>
<path d="M141.606 100.979H7.52539V154.69H141.606V100.979Z" fill="#C9C7C5"/>
<path d="M138.619 103.97H135.514V151.707H138.619V103.97Z" fill="#999897"/>
<path d="M131.674 103.97H128.568V151.707H131.674V103.97Z" fill="#999897"/>
<path d="M124.727 103.97H121.621V151.707H124.727V103.97Z" fill="#999897"/>
<path d="M117.783 103.97H114.678V151.707H117.783V103.97Z" fill="#999897"/>
<path d="M110.84 103.97H107.734V151.707H110.84V103.97Z" fill="#999897"/>
<path d="M103.897 103.97H100.791V151.707H103.897V103.97Z" fill="#999897"/>
<path d="M96.9514 103.97H93.8457V151.707H96.9514V103.97Z" fill="#999897"/>
<path d="M90.01 103.97H86.9043V151.707H90.01V103.97Z" fill="#999897"/>
<path d="M83.0647 103.97H79.959V151.707H83.0647V103.97Z" fill="#999897"/>
<path d="M76.1175 103.97H73.0117V151.707H76.1175V103.97Z" fill="#999897"/>
<path d="M69.1721 103.97H66.0664V151.707H69.1721V103.97Z" fill="#999897"/>
<path d="M62.2288 103.97H59.123V151.707H62.2288V103.97Z" fill="#999897"/>
<path d="M55.2874 103.97H52.1816V151.707H55.2874V103.97Z" fill="#999897"/>
<path d="M48.3421 103.97H45.2363V151.707H48.3421V103.97Z" fill="#999897"/>
<path d="M41.3987 103.97H38.293V151.707H41.3987V103.97Z" fill="#999897"/>
<path d="M34.4534 103.97H31.3477V151.707H34.4534V103.97Z" fill="#999897"/>
<path d="M27.5081 103.97H24.4023V151.707H27.5081V103.97Z" fill="#999897"/>
<path d="M20.5628 103.97H17.457V151.707H20.5628V103.97Z" fill="#999897"/>
<path d="M13.6194 103.97H10.5137V151.707H13.6194V103.97Z" fill="#999897"/>
<path d="M181.954 141.56H175.671C174.969 141.56 174.4 142.128 174.4 142.83V143.133C174.4 143.835 174.969 144.404 175.671 144.404H181.954C182.656 144.404 183.225 143.835 183.225 143.133V142.83C183.225 142.128 182.656 141.56 181.954 141.56Z" fill="#231F20"/>
<path d="M181.953 161.649H199.022C199.792 161.649 200.419 162.276 200.419 163.046V168.179C200.419 171.878 197.414 174.882 193.715 174.882H181.953V161.649Z" fill="#5C616C"/>
<path d="M146.242 157.093H113.48V172.559H146.242V157.093Z" fill="#5C616C"/>
<path d="M146.242 167.906H113.48V172.564H146.242V167.906Z" fill="#4E535C"/>
<path d="M146.242 157.093H113.48V161.75H146.242V157.093Z" fill="#6F757F"/>
<path d="M117.299 157.093V161.75V167.906V172.563H119.95V167.906V161.75V157.093H117.299Z" fill="#333A49"/>
<path d="M137.229 157.093V161.75V167.906V172.563H139.88V167.906V161.75V157.093H137.229Z" fill="#333A49"/>
<path d="M198.608 146.939V158.068H194.152C192.443 158.068 191.059 156.684 191.059 154.976V146.944H198.608V146.939Z" fill="#E8E8E8"/>
</g>
<defs>
<clipPath id="clip0_1006_71090">
<rect width="200" height="193.97" fill="white" transform="translate(0.425781 0.5)"/>
</clipPath>
</defs>
</svg>
